<svg id="Grupo_53736" data-name="Grupo 53736" xmlns="http://www.w3.org/2000/svg" width="99.938" height="99.938" viewBox="0 0 99.938 99.938">
  <path id="Trazado_99349" data-name="Trazado 99349" d="M574.7,3883.709a6.951,6.951,0,0,0-6.66,4.99h-9.491a26.843,26.843,0,0,0-6.5-15.664l6.716-6.716a6.947,6.947,0,1,0-2.761-2.763l-6.718,6.718a26.831,26.831,0,0,0-15.662-6.5v-9.49a6.942,6.942,0,1,0-3.9,0v9.49a26.836,26.836,0,0,0-15.663,6.5l-6.716-6.718a6.932,6.932,0,1,0-2.761,2.763l6.716,6.716a26.834,26.834,0,0,0-6.5,15.664H495.3a6.942,6.942,0,1,0,0,3.9h9.49a26.834,26.834,0,0,0,6.5,15.662l-6.718,6.719a6.94,6.94,0,1,0,2.761,2.76l6.718-6.718a26.84,26.84,0,0,0,15.663,6.5v9.49a6.942,6.942,0,1,0,3.9,0v-9.49a26.8,26.8,0,0,0,14.655-5.671,1.892,1.892,0,0,0,.317-.254c.232-.187.464-.379.689-.575l6.72,6.718a6.943,6.943,0,1,0,2.761-2.76l-6.718-6.719a26.843,26.843,0,0,0,6.5-15.662h9.491a6.941,6.941,0,1,0,6.66-8.894Zm-14.75-25.632a3.038,3.038,0,1,1,0,4.3h0a3.036,3.036,0,0,1,0-4.3Zm-56.553,4.3a3.037,3.037,0,1,1,0-4.3,3.039,3.039,0,0,1,0,4.3Zm-14.75,31.314a3.039,3.039,0,1,1,3.038-3.038,3.041,3.041,0,0,1-3.038,3.038Zm14.75,29.533a3.036,3.036,0,1,1,0-4.3,3.015,3.015,0,0,1,0,4.3Zm56.553-4.294h0a3.04,3.04,0,1,1,0,4.3,3.033,3.033,0,0,1,0-4.3Zm-31.314-71.3a3.038,3.038,0,1,1,3.038,3.038,3.042,3.042,0,0,1-3.038-3.038Zm6.076,86.053a3.038,3.038,0,1,1-3.038-3.039,3.041,3.041,0,0,1,3.038,3.039Zm13.425-26.923a17.525,17.525,0,0,0-5.2-6.752,17.973,17.973,0,0,0-5.065-2.806,9.362,9.362,0,1,0-13.1.262,17.944,17.944,0,0,0-4.872,2.955,1.952,1.952,0,0,0,2.534,2.971,14.226,14.226,0,0,1,9.235-3.371,13.993,13.993,0,0,1,13.316,9.432,23.117,23.117,0,1,1,3.147-2.691Zm-11.485-16.1a5.459,5.459,0,1,1-5.46-5.458,5.464,5.464,0,0,1,5.46,5.458Zm38.049,3.038a3.039,3.039,0,1,1,3.038-3.038,3.042,3.042,0,0,1-3.038,3.038Zm0,0" transform="translate(-481.7 -3840.682)" fill="#ff0062"/>
  <path id="Trazado_99350" data-name="Trazado 99350" d="M507.626,3883a1.951,1.951,0,1,1-1.951-1.952,1.951,1.951,0,0,1,1.951,1.952Zm0,0" transform="translate(-469.467 -3818.259)" fill="#ff0062"/>
</svg>
