<svg xmlns="http://www.w3.org/2000/svg" xmlns:xlink="http://www.w3.org/1999/xlink" width="253.551" height="228.355" viewBox="0 0 253.551 228.355">
  <defs>
    <linearGradient id="linear-gradient" x1="-42.18" y1="0.5" x2="-41.18" y2="0.5" gradientUnits="objectBoundingBox">
      <stop offset="0" stop-color="#738598"/>
      <stop offset="1" stop-color="#3c415e"/>
    </linearGradient>
  </defs>
  <g id="Grupo_53681" data-name="Grupo 53681" transform="translate(-812.151 -4860.237)">
    <g id="Grupo_53660" data-name="Grupo 53660" transform="translate(812.151 4880.083)">
      <g id="Grupo_53651" data-name="Grupo 53651" transform="translate(18.945 19.577)">
        <g id="Grupo_53649" data-name="Grupo 53649" transform="translate(0.002)">
          <path id="Trazado_99197" data-name="Trazado 99197" d="M889.7,4960.314s3.627-22.15-13.952-38.941-40.041-11.389-40.041-11.389-1.692,19.5,14.429,38.576S889.7,4960.314,889.7,4960.314Z" transform="translate(-835.661 -4909.156)" fill="#0dcece"/>
        </g>
        <g id="Grupo_53650" data-name="Grupo 53650" transform="translate(0 0.248)">
          <path id="Trazado_99198" data-name="Trazado 99198" d="M853.813,4952.478l-1.171-1.054,21.655-4.872-17.8-16.595-15.882,3.515-.534-1.148,15.362-3.349-19.781-18.439.02-.465.933-.268,11.564,10.78,1.188-11.119,1.179.126-1.282,12,16.6,15.476,5.272-19.5,1.164.871-5.456,19.539,23.039,21.476-.178.915-.414.154-13.947-13Z" transform="translate(-835.659 -4909.464)" fill="#0991a1"/>
        </g>
      </g>
      <g id="Grupo_53655" data-name="Grupo 53655" transform="translate(0 42.613)">
        <g id="Grupo_53653" data-name="Grupo 53653" transform="translate(0.014)">
          <g id="Grupo_53652" data-name="Grupo 53652">
            <path id="Trazado_99199" data-name="Trazado 99199" d="M884.578,4964.436s-8.589-20.737-32.377-25.745-40.032,11.42-40.032,11.42,8.835,17.461,32.589,25.182S884.578,4964.436,884.578,4964.436Z" transform="translate(-812.169 -4937.741)" fill="#11afb7"/>
          </g>
        </g>
        <g id="Grupo_53654" data-name="Grupo 53654" transform="translate(0 0.103)">
          <path id="Trazado_99200" data-name="Trazado 99200" d="M849.91,4976.662l-1.551-.278,15.837-15.552-23.874-4.723-11.647,11.356-1.059-.695,11.292-10.941-26.529-5.248-.229-.407.653-.718,15.509,3.068-4.849-10.076,1.068-.514,5.235,10.878,22.265,4.4-5.792-19.348,1.448.127,5.659,19.48,30.9,6.112.331.871-.271.35-18.7-3.7Z" transform="translate(-812.151 -4937.869)" fill="#0991a1"/>
        </g>
      </g>
      <g id="Grupo_53659" data-name="Grupo 53659" transform="translate(42.935)">
        <g id="Grupo_53657" data-name="Grupo 53657" transform="translate(0.247 0.503)">
          <g id="Grupo_53656" data-name="Grupo 53656">
            <path id="Trazado_99201" data-name="Trazado 99201" d="M895.79,4955.732s13.948-17.585,6.764-40.809-29.438-29.436-29.438-29.436-10.966,16.208-6.168,40.721S895.79,4955.732,895.79,4955.732Z" transform="translate(-865.733 -4885.488)" fill="#0991a1"/>
          </g>
        </g>
        <g id="Grupo_53658" data-name="Grupo 53658">
          <path id="Trazado_99202" data-name="Trazado 99202" d="M867.709,4930.737l-.51-1.491,21.289,6.282-7.476-23.16-15.585-4.66.093-1.263,15.05,4.551-8.307-25.736.244-.4.945.221,4.856,15.046,6.449-9.136.969.684-6.962,9.862,6.972,21.6,14.094-14.466.593,1.327-14.275,14.414,9.675,29.973-.6.713-.437-.067-5.857-18.145Z" transform="translate(-865.427 -4884.864)" fill="#0b686d"/>
        </g>
      </g>
    </g>
    <g id="Grupo_53663" data-name="Grupo 53663" transform="translate(902.057 4860.237)">
      <g id="Grupo_53661" data-name="Grupo 53661" transform="translate(0 11.685)">
        <path id="Trazado_99203" data-name="Trazado 99203" d="M1010.228,4876.621c-11.277,9.845-23.768,11.194-34.789,12.384l-1.534.166c-15.333,1.68-27.088,9.8-30.771,16.959a23.863,23.863,0,0,0-2.042,5.347,12.538,12.538,0,0,1,7.957,4.477c2.543,3.419,1.724,6.21.1,7.689a5.577,5.577,0,0,1-7.325.027c-2.123-1.908-3.752-5.444-3.245-10.258a12.627,12.627,0,0,0-9.584,4.209l-.021.022a11.591,11.591,0,0,0,.185,16.031,1.063,1.063,0,0,1,.036,1.52,1.074,1.074,0,0,1-1.52.037,13.756,13.756,0,0,1-.3-19.025l.023-.026a14.937,14.937,0,0,1,11.534-4.913,25.607,25.607,0,0,1,2.285-6.121c3.826-7.429,15.613-16.266,32.448-18.112l1.538-.167c11.229-1.212,22.839-2.466,33.606-11.866a1.075,1.075,0,0,1,1.508,1.528A1.087,1.087,0,0,1,1010.228,4876.621Zm-66.963,45.45a3.429,3.429,0,0,0,4.44-.018c1.2-1.109,1.073-2.861-.381-4.817a10.355,10.355,0,0,0-6.605-3.643C940.274,4917.63,941.555,4920.533,943.265,4922.071Z" transform="translate(-923.711 -4874.736)" fill="#738598"/>
      </g>
      <g id="Grupo_53662" data-name="Grupo 53662" transform="translate(75.83)">
        <path id="Trazado_99204" data-name="Trazado 99204" d="M1045.329,4860.236l-13.7,24.408-5.214-10.868-8.606-8.44Z" transform="translate(-1017.806 -4860.236)" fill="#ff0062"/>
        <path id="Trazado_99205" data-name="Trazado 99205" d="M1045.329,4860.236l-18.917,13.54-8.606-8.44Z" transform="translate(-1017.806 -4860.236)" fill="#0f0a3c" opacity="0.2"/>
      </g>
    </g>
    <ellipse id="Elipse_5473" data-name="Elipse 5473" cx="123.619" cy="5.046" rx="123.619" ry="5.046" transform="translate(818.463 5078.5)" opacity="0.15"/>
    <g id="Grupo_53667" data-name="Grupo 53667" transform="translate(850.84 4932.074)">
      <rect id="Rectángulo_5067" data-name="Rectángulo 5067" width="168.528" height="119.016" rx="9.519" transform="translate(168.528 119.016) rotate(180)" fill="url(#linear-gradient)"/>
      <path id="Trazado_99206" data-name="Trazado 99206" d="M924.061,5134.729h64.918a10.82,10.82,0,0,0-10.82-10.819H934.881a10.819,10.819,0,0,0-10.82,10.819" transform="translate(-872.562 -4983.254)" fill="#738598"/>
      <path id="Trazado_99207" data-name="Trazado 99207" d="M940.843,5118.7h37.869l-5.41-21.639H946.253Z" transform="translate(-875.82 -4978.043)" fill="#3c415e"/>
      <path id="Trazado_99208" data-name="Trazado 99208" d="M867,5048.055h156.884v-86.762a5.2,5.2,0,0,0-5.2-5.2H872.206a5.2,5.2,0,0,0-5.2,5.205v86.761Z" transform="translate(-861.487 -4950.679)" fill="#faf9f9"/>
      <rect id="Rectángulo_5068" data-name="Rectángulo 5068" width="55.838" height="38.108" transform="translate(68.776 50.875) rotate(180)" fill="#d5daeb"/>
      <rect id="Rectángulo_5069" data-name="Rectángulo 5069" width="55.838" height="33.014" transform="translate(68.776 88.983) rotate(180)" fill="#d5daeb"/>
      <rect id="Rectángulo_5070" data-name="Rectángulo 5070" width="76.216" height="76.216" transform="translate(154.57 88.983) rotate(180)" fill="#d5daeb"/>
      <g id="Grupo_53664" data-name="Grupo 53664" transform="translate(84.984 21.11)">
        <path id="Trazado_99209" data-name="Trazado 99209" d="M993.75,5003.71H965.612a30.3,30.3,0,0,1,28.139-28.139Z" transform="translate(-965.612 -4975.572)" fill="#0991a1"/>
        <path id="Trazado_99210" data-name="Trazado 99210" d="M973.57,5034.124a30.2,30.2,0,0,1-7.957-18.449H992.02Z" transform="translate(-965.612 -4983.356)" fill="#ff0062"/>
        <path id="Trazado_99211" data-name="Trazado 99211" d="M1000.579,5007.891v-32.319a30.3,30.3,0,1,1-21.322,53.64Z" transform="translate(-968.261 -4975.572)" fill="#3366c2"/>
      </g>
      <g id="Grupo_53666" data-name="Grupo 53666" transform="translate(19.65 18.269)">
        <g id="Grupo_53665" data-name="Grupo 53665">
          <path id="Trazado_99212" data-name="Trazado 99212" d="M935.533,4998.471h-6.038v-5.032h6.038Z" transform="translate(-893.267 -4976.198)" fill="#4c78ff"/>
          <path id="Trazado_99213" data-name="Trazado 99213" d="M924.294,4997.5h-6.038v-9.057h6.038Z" transform="translate(-891.086 -4975.23)" fill="#4c78ff"/>
          <path id="Trazado_99214" data-name="Trazado 99214" d="M913.056,4996.047h-6.038v-15.095h6.038Z" transform="translate(-888.904 -4973.775)" fill="#4c78ff"/>
          <path id="Trazado_99215" data-name="Trazado 99215" d="M901.818,4995H895.78v-19.45h6.038Z" transform="translate(-886.723 -4972.727)" fill="#4c78ff"/>
          <path id="Trazado_99216" data-name="Trazado 99216" d="M890.58,4994.319h-6.038v-22.273h6.038Z" transform="translate(-884.542 -4972.046)" fill="#4c78ff"/>
        </g>
        <path id="Trazado_99217" data-name="Trazado 99217" d="M935.533,5004.714h-6.038v-5.031h6.038Z" transform="translate(-893.267 -4977.411)" fill="#3c415e"/>
        <path id="Trazado_99218" data-name="Trazado 99218" d="M924.294,5004.108h-6.038v-7.546h6.038Z" transform="translate(-891.086 -4976.805)" fill="#3c415e"/>
        <path id="Trazado_99219" data-name="Trazado 99219" d="M913.056,5003.5h-6.038v-10.063h6.038Z" transform="translate(-888.904 -4976.198)" fill="#3c415e"/>
        <path id="Trazado_99220" data-name="Trazado 99220" d="M901.818,5004.108H895.78v-7.546h6.038Z" transform="translate(-886.723 -4976.805)" fill="#3c415e"/>
        <path id="Trazado_99221" data-name="Trazado 99221" d="M890.58,5002.534h-6.038v-14.088h6.038Z" transform="translate(-884.542 -4975.23)" fill="#3c415e"/>
      </g>
      <rect id="Rectángulo_5071" data-name="Rectángulo 5071" width="48.298" height="3.872" rx="0.17" transform="translate(64.904 63.918) rotate(180)" fill="#3366c2"/>
      <rect id="Rectángulo_5072" data-name="Rectángulo 5072" width="48.298" height="3.872" rx="0.17" transform="translate(64.904 71.05) rotate(180)" fill="#ff0062"/>
      <rect id="Rectángulo_5073" data-name="Rectángulo 5073" width="48.298" height="3.872" rx="0.17" transform="translate(64.904 78.182) rotate(180)" fill="#0991a1"/>
      <rect id="Rectángulo_5074" data-name="Rectángulo 5074" width="48.298" height="3.872" rx="0.17" transform="translate(64.904 85.315) rotate(180)" fill="#dfe1ea"/>
    </g>
    <g id="Grupo_53671" data-name="Grupo 53671" transform="translate(876.782 4975.724)">
      <g id="Grupo_53669" data-name="Grupo 53669" transform="translate(0 0)">
        <rect id="Rectángulo_5075" data-name="Rectángulo 5075" width="7.196" height="4.009" transform="translate(48.844 41.752) rotate(-65.16)" fill="#738598"/>
        <circle id="Elipse_5474" data-name="Elipse 5474" cx="21.783" cy="21.783" r="21.783" transform="translate(0 40.499) rotate(-68.372)" fill="#1cb3c8" opacity="0.15"/>
        <path id="Trazado_99222" data-name="Trazado 99222" d="M912.675,5008.888a25.212,25.212,0,1,0,32.357,14.978A25.211,25.211,0,0,0,912.675,5008.888Zm16.2,44.115a21.783,21.783,0,1,1,12.942-27.955A21.781,21.781,0,0,1,928.871,5053Z" transform="translate(-893.086 -5004.277)" fill="#3c415e"/>
        <g id="Grupo_53668" data-name="Grupo 53668" transform="translate(52.283 36.138)">
          <path id="Trazado_99223" data-name="Trazado 99223" d="M979.341,5068.326l1.943,1.088a1.022,1.022,0,0,0,1.422-.471l4.361-9.421a1.023,1.023,0,0,0-.561-1.39l-2.086-.777Z" transform="translate(-961.518 -5050.124)" fill="#3c415e"/>
          <path id="Trazado_99224" data-name="Trazado 99224" d="M961.8,5048.448a1.04,1.04,0,0,0-1.3.528l-3.186,6.88a1.038,1.038,0,0,0,.438,1.331l.637.333,4.075-8.8Z" transform="translate(-957.225 -5048.383)" fill="#3c415e"/>
        </g>
        <path id="Trazado_99225" data-name="Trazado 99225" d="M958.676,5057.6l16.654,9.063,5.108-11.033-17.687-6.833Z" transform="translate(-905.224 -5012.326)" fill="#738598"/>
      </g>
      <g id="Grupo_53670" data-name="Grupo 53670" transform="translate(62.958 24.101)">
        <path id="Trazado_99226" data-name="Trazado 99226" d="M1003.121,5070.364l11.678-3.25-.552-6.366-6.134,2.54Z" transform="translate(-976.809 -5038.746)" fill="#afcae0"/>
        <path id="Trazado_99227" data-name="Trazado 99227" d="M1016.984,5050.886l-2.3-1.693-5.367,2.54,3.833,3.386Z" transform="translate(-978.011 -5036.503)" fill="#fccb95"/>
        <path id="Trazado_99228" data-name="Trazado 99228" d="M1033.4,5078.6s.766,26.242,2.3,43.172h-3.066l-6.9-29.628-3.066,29.628H1019.6l-.766-22.855,2.3-15.238Z" transform="translate(-979.858 -5042.212)" fill="#3c415e"/>
        <path id="Trazado_99229" data-name="Trazado 99229" d="M1021.645,5132.176v2.275a1.872,1.872,0,0,1-1.773,1.957h-5.839a.513.513,0,0,1-.242-.929l4.787-3.3Z" transform="translate(-978.838 -5052.611)" fill="#738598"/>
        <path id="Trazado_99230" data-name="Trazado 99230" d="M1037.818,5132.176v2.275a1.872,1.872,0,0,1-1.773,1.957h-5.839a.513.513,0,0,1-.241-.929l4.787-3.3Z" transform="translate(-981.977 -5052.611)" fill="#738598"/>
        <path id="Trazado_99231" data-name="Trazado 99231" d="M1010.89,5051.294l-15.334,11.851-16.1-.846-1.534,4.232,17.606,2.16a7.734,7.734,0,0,0,5.656-1.579l7.406-5.66s4.6,12.7,4.6,16.93c0,0,13.034,5.08,12.267-5.079C1024.948,5066.555,1022.391,5057.22,1010.89,5051.294Z" transform="translate(-971.917 -5036.912)" fill="#b9d4ef"/>
        <path id="Trazado_99232" data-name="Trazado 99232" d="M1006.726,5049.668s.58,1.2,3.833,0c2.3-.848,3.834-2.541,3.834-4.233,0-3.386-3.066-7.619-5.366-6.772s-3.067.847-3.833,3.386c-.489,1.619-.978,2.894-1.268,3.606a.758.758,0,0,0,.307.943l.961.53S1005.959,5049.668,1006.726,5049.668Z" transform="translate(-976.953 -5034.438)" fill="#ffe1bd"/>
        <path id="Trazado_99233" data-name="Trazado 99233" d="M978.009,5064.2s-.767,0-1.534-1.693-2.3-1.693-2.3-.847a3.056,3.056,0,0,0,.766,1.693l-3.5-.645a.882.882,0,0,0-.948,1.105,6.068,6.068,0,0,0,2.152,3.771,4.61,4.61,0,0,0,4.265.9Z" transform="translate(-970.471 -5038.816)" fill="#ffe1bd"/>
        <path id="Trazado_99234" data-name="Trazado 99234" d="M1018.27,5070.413l-.38-8.392-1.95,1.49Z" transform="translate(-979.297 -5038.993)" fill="#afcae0"/>
        <path id="Trazado_99235" data-name="Trazado 99235" d="M1029.521,5103.818l-1.743-11.8-.3,2.815Z" transform="translate(-981.537 -5044.816)" fill="#333" opacity="0.44"/>
        <path id="Trazado_99236" data-name="Trazado 99236" d="M1006.827,5039.248a.393.393,0,0,1-.222-.08c-3.951-3.718-2.143-4.956.465-5.377l.015,0c2.449-.406,7.233-1.014,8.482,1.982a.409.409,0,0,0,.23.226,3.091,3.091,0,0,1,1.936,2.926c.135,3.119-.816,4.373-3.062,6.482a.41.41,0,0,1-.672-.388c.106-1.176.119-2.966-.6-3.977-.611-.855-1.057-.25-1.34.495a.392.392,0,0,1-.72.081c-.5-.864-1.673-1.916-4.451-2.354A.347.347,0,0,1,1006.827,5039.248Z" transform="translate(-977.039 -5033.446)" fill="#3c415e"/>
      </g>
    </g>
    <g id="Grupo_53672" data-name="Grupo 53672" transform="translate(850.777 4872.863)" opacity="0.1">
      <path id="Trazado_99237" data-name="Trazado 99237" d="M862.156,4880.614l-2.075-2.69a7.617,7.617,0,0,1,4.806-2.02v3.38A4.267,4.267,0,0,0,862.156,4880.614Z" transform="translate(-860.081 -4875.904)" fill="#4a63fe" opacity="0.26"/>
    </g>
    <g id="Grupo_53680" data-name="Grupo 53680" transform="translate(873.139 5035.518)">
      <g id="Grupo_53674" data-name="Grupo 53674" transform="translate(0 0)">
        <g id="Grupo_53673" data-name="Grupo 53673">
          <path id="Trazado_99238" data-name="Trazado 99238" d="M920.4,5105.624a4.893,4.893,0,0,1,.707,2.485c.011.086.019.276.03.472q.206-.645.4-1.292c.087-.286.172-.574.256-.862-.141-.168-.31-.6-.629-1.011-.377-.49-.717-.587-.609-1.309.1-.68.642-1.269,1.184-.619a2.709,2.709,0,0,1,.308,2.1,12.673,12.673,0,0,1,1.052-2.56c-.187-2.468,2.076-5.065,4.2-5.982a1.033,1.033,0,0,1,.643-.115c.467.116.575.752.432,1.212a3.291,3.291,0,0,1-1.215,1.575c-.537.409-1.137.724-1.7,1.1a7.588,7.588,0,0,0-1.234,1.079.13.13,0,0,1-.015.029,9.178,9.178,0,0,0-1.264,2.456,7.3,7.3,0,0,1,1.2-1.149,3.965,3.965,0,0,1,2.378-.919.433.433,0,0,1,.42.719,2.864,2.864,0,0,1-1.539,1.409c-.852.324-1.8.342-2.668.631-.006-.01-.009-.021-.014-.031-.165.526-.31,1.061-.453,1.591a6.11,6.11,0,0,1,1.708-1.108,1.684,1.684,0,0,1,.962-.114.79.79,0,0,1,.629.667.826.826,0,0,1-.184.531,2.574,2.574,0,0,1-1.618.776c-.6.125-1.2.282-1.808.384-.019.063-.036.126-.055.19q-.4,1.375-.841,2.743a10.6,10.6,0,0,1,1.068-1.208,6.193,6.193,0,0,1,2.765-1.615,2.249,2.249,0,0,1,1.263-.005.483.483,0,0,1,.357.334.506.506,0,0,1-.052.272,2.383,2.383,0,0,1-1.287,1.145,17.862,17.862,0,0,1-2.661.761,5.194,5.194,0,0,0-1.551.622q-.462,1.412-.983,2.8a10.922,10.922,0,0,1,2.2-2.2,2.558,2.558,0,0,1,2.359-.663.811.811,0,0,1,.313.2.849.849,0,0,1-.1,1.068,2.417,2.417,0,0,1-1.274.738c-.481.131-.981.182-1.466.3a6.238,6.238,0,0,0-2.262,1.165q-.417,1.072-.876,2.13a8.762,8.762,0,0,1,.966-.813,6.03,6.03,0,0,1,2.352-1.042.9.9,0,0,1,.829.133.787.787,0,0,1,.121.722,2.076,2.076,0,0,1-1.22,1.434,4.068,4.068,0,0,1-1.242.227l-1.309.1a2.767,2.767,0,0,0-.945.234q-.532,1.156-1.123,2.283a7.449,7.449,0,0,1,.784-.711,4,4,0,0,1,2.169-.9,1,1,0,0,1,.77.206.785.785,0,0,1-.04,1.049,1.665,1.665,0,0,1-1.04.456,4.007,4.007,0,0,1-1.078-.008,3.121,3.121,0,0,0-.765-.073,2.274,2.274,0,0,0-.878.352l-.172.1c-.314.584-.638,1.171-.981,1.751a4.035,4.035,0,0,1,2.043-.608c.421-.006.928.125,1.045.529a.639.639,0,0,1-.019.392,1.136,1.136,0,0,1-1.2.6c-.479-.04-.93-.244-1.4-.32a7.032,7.032,0,0,0-.87.07,19.341,19.341,0,0,1-1.874,2.556.234.234,0,0,1-.368-.29c.421-.687.851-1.365,1.277-2.044a20.572,20.572,0,0,1-1.559-1.53.952.952,0,0,1-.309-1.036.791.791,0,0,1,.964-.332,1.539,1.539,0,0,1,.787.757,5.33,5.33,0,0,1,.42,1.656c.434-.7.861-1.4,1.265-2.123a3.045,3.045,0,0,0-.378-.617c-.256-.29-.594-.5-.845-.795a.972.972,0,0,1-.209-1.069.847.847,0,0,1,1.216-.132,1.86,1.86,0,0,1,.59,1.217c.023.145.059.35.078.565.031-.059.064-.118.1-.179.168-.327.331-.656.492-.985a11.08,11.08,0,0,1-.869-1.513,3.257,3.257,0,0,1-.633-1.351.948.948,0,0,1,.776-1.09c.455-.009.789.432.945.859a5.472,5.472,0,0,1,.242,2.121q.491-1.063.941-2.145c-.364-.8-1.524-1.417-1.722-2.391-.081-.394.022-1.065.534-1.152.4-.068.763.472.966.747a3.606,3.606,0,0,1,.608,1.853c.114-.285.227-.571.339-.859.143-.369.281-.74.418-1.111a6.852,6.852,0,0,0-.795-1.2c-.454-.531-1.057-1.009-.8-1.81.231-.732,1.139-1.553,1.634-.612a5.348,5.348,0,0,1,.414,2.375q.377-1.077.725-2.164a6.235,6.235,0,0,0-1.087-1.352c-.49-.412-1.36-.737-1.208-1.483A.917.917,0,0,1,920.4,5105.624Z" transform="translate(-892.672 -5081.459)" fill="#b9d4ef"/>
          <path id="Trazado_99239" data-name="Trazado 99239" d="M892.736,5109.983a4.891,4.891,0,0,1,2.552.4c.083.024.259.1.442.169q-.5-.456-1-.9c-.224-.2-.451-.4-.676-.593-.212.058-.673.032-1.182.148-.6.138-.833.406-1.443.006-.575-.377-.884-1.114-.068-1.333a2.708,2.708,0,0,1,2.037.6,12.638,12.638,0,0,1-1.883-2.026c-2.321-.862-3.734-4-3.68-6.313a1.042,1.042,0,0,1,.165-.633c.3-.375.924-.206,1.281.116a3.29,3.29,0,0,1,.923,1.763c.147.659.182,1.336.292,2a7.573,7.573,0,0,0,.464,1.572.121.121,0,0,1,.02.026,9.222,9.222,0,0,0,1.7,2.175,7.32,7.32,0,0,1-.541-1.572,3.966,3.966,0,0,1,.158-2.545.551.551,0,0,1,.318-.342c.2-.051.383.1.511.261a2.859,2.859,0,0,1,.637,1.987c-.062.91-.443,1.781-.542,2.687a.2.2,0,0,1-.034,0c.409.371.834.726,1.256,1.078a6.115,6.115,0,0,1-.292-2.015,1.673,1.673,0,0,1,.3-.922.791.791,0,0,1,.87-.293.827.827,0,0,1,.405.389,2.577,2.577,0,0,1,.027,1.794c-.136.6-.247,1.211-.408,1.8.05.043.1.085.15.129q1.083.94,2.141,1.91a10.485,10.485,0,0,1-.65-1.475,6.2,6.2,0,0,1-.311-3.186,2.259,2.259,0,0,1,.523-1.15.488.488,0,0,1,.453-.185.508.508,0,0,1,.227.161,2.386,2.386,0,0,1,.5,1.648,17.911,17.911,0,0,1-.421,2.735,5.183,5.183,0,0,0-.085,1.669q1.09,1.011,2.135,2.065a10.957,10.957,0,0,1-1.077-2.912,2.556,2.556,0,0,1,.385-2.419.8.8,0,0,1,.309-.2.852.852,0,0,1,.929.537,2.425,2.425,0,0,1,.138,1.466c-.083.492-.246.967-.34,1.457a6.219,6.219,0,0,0,.112,2.542q.8.828,1.567,1.687a8.766,8.766,0,0,1-.334-1.218,6.009,6.009,0,0,1,.038-2.573.9.9,0,0,1,.467-.7.782.782,0,0,1,.705.192,2.081,2.081,0,0,1,.794,1.708,4.088,4.088,0,0,1-.314,1.222q-.229.615-.456,1.231a2.8,2.8,0,0,0-.182.956q.828.966,1.6,1.975a7.457,7.457,0,0,1-.318-1.01,3.99,3.99,0,0,1,.094-2.344,1,1,0,0,1,.509-.613.783.783,0,0,1,.935.474,1.659,1.659,0,0,1-.021,1.136,3.977,3.977,0,0,1-.458.976,3.187,3.187,0,0,0-.386.664,2.275,2.275,0,0,0-.048.946c.006.065.012.131.018.2.4.529.8,1.069,1.181,1.623a4.037,4.037,0,0,1,.3-2.11c.169-.385.5-.791.916-.728a.636.636,0,0,1,.348.18,1.135,1.135,0,0,1,.045,1.339c-.237.419-.61.744-.878,1.143a7.025,7.025,0,0,0-.3.819,19.283,19.283,0,0,1,1.538,2.771.234.234,0,0,1-.417.214c-.449-.67-.885-1.345-1.323-2.016a20.427,20.427,0,0,1-2.041.776.952.952,0,0,1-1.071-.151.793.793,0,0,1,.1-1.015,1.543,1.543,0,0,1,1.016-.4,5.349,5.349,0,0,1,1.68.312c-.454-.687-.915-1.369-1.4-2.038a3.082,3.082,0,0,0-.718.085c-.371.112-.7.331-1.076.436a.972.972,0,0,1-1.059-.256.846.846,0,0,1,.388-1.16,1.859,1.859,0,0,1,1.353-.027c.141.04.343.093.546.165-.041-.054-.081-.108-.122-.161q-.34-.434-.69-.859a10.942,10.942,0,0,1-1.737.157,3.23,3.23,0,0,1-1.49.01.948.948,0,0,1-.666-1.161,1.137,1.137,0,0,1,1.176-.5,5.481,5.481,0,0,1,2.028.667q-.759-.89-1.555-1.751c-.878,0-1.924.792-2.893.564-.391-.091-.957-.465-.823-.966.106-.4.749-.5,1.083-.566a3.615,3.615,0,0,1,1.937.222q-.317-.334-.638-.666-.415-.426-.835-.845a6.81,6.81,0,0,0-1.426.218c-.672.19-1.359.538-1.981-.025-.568-.517-.933-1.685.129-1.742a5.355,5.355,0,0,1,2.33.617q-.821-.792-1.662-1.564a6.224,6.224,0,0,0-1.684.422c-.578.273-1.238.927-1.852.477A.916.916,0,0,1,892.736,5109.983Z" transform="translate(-887.828 -5081.919)" fill="#b9d4ef"/>
          <path id="Trazado_99240" data-name="Trazado 99240" d="M905.974,5090.342a4.766,4.766,0,0,1,2.324,3.422c.106-.5.217-1,.342-1.489.021-.081.043-.163.064-.245-.609-1.09-2.653-3.433-1.537-4.807,1.326.462,1.718,1.921,1.794,3.072.009.146.035.356.053.584.214-.759.449-1.524.711-2.282a6.511,6.511,0,0,1-1.049-1.471c-.2-.4-.9-2.178.355-1.728.479.173.884,1.458.981,2.4q.3-.8.646-1.576c.256-2.774-.291-6.42,2.518-8.1,2.858-1.716,1.836,2.812,1.224,3.942a15.652,15.652,0,0,1-3.287,4.354c-.223.569-.438,1.142-.627,1.725-.106.323-.206.648-.3.974,1.028-1.814,3.11-5.4,4.452-3.844,1.189,1.38-3.175,3.318-4.613,4.4-.28.976-.53,1.962-.742,2.954-.055.258-.1.517-.153.775a9.479,9.479,0,0,1,1.516-2.437c.633-.524,2.232-1.141,2.418-.1.264,1.479-1.842,2.021-2.848,2.462-.723.318-.977.711-1.2.683q-.335,1.887-.487,3.8c.558-1.6,1.785-3.975,3.838-3.643.308,2.661-2.548,2.722-3.864,3.986a38.427,38.427,0,0,0-.081,3.918l0,.046a8.38,8.38,0,0,1,1.411-3.566c.8-.966,2.585-1.574,2.169.3-.3,1.367-1.567,2.021-2.575,2.886-.448.384-.745.836-.976,1.045a35.335,35.335,0,0,0,.4,3.63c.645-2.123,2.169-6.467,4.453-5.28.25,2.536-2.857,3.95-4.384,5.7.185,1.1.413,2.186.67,3.277a12.575,12.575,0,0,1,.663-2.723c.21-.669,1.614-2.761,2.638-1.547,1.01,1.2-1.265,2.735-1.937,3.289a3.627,3.627,0,0,0-1.18,1.747q.074.3.151.6c.263,1.031.537,2.072.782,3.118.182-1.9.1-5.4,2.644-5.159a6.765,6.765,0,0,1-1.674,4.745c-.316.346-.6.643-.863.878.136.607.261,1.215.367,1.825.69-1.865,2.532-3.916,3.33-2.928s-.73,2.647-1.42,3.212a18.584,18.584,0,0,0-1.68,1.338,18.221,18.221,0,0,1,.11,2.187c-.007.522-.839.482-.868-.036a28.9,28.9,0,0,0-.338-3c-1.288-.493-3.88-.055-4.779-.562-1.25-.7-1.086-1.981.349-2.276,1.3-.269,3.17.7,4.27,1.925-.16-.858-.346-1.713-.547-2.567-1.074-.7-2.623-.191-3.733-1.14-1.169-1-.418-2.462,1.1-1.993a5.7,5.7,0,0,1,2.325,1.837c-.15-.6-.3-1.21-.454-1.819q-.2-.788-.371-1.578c-1.177-.49-3.45-.065-3.979-1.788-.371-1.206.712-2.262,1.866-1.419a9.1,9.1,0,0,1,1.859,1.98c-.192-.986-.351-1.974-.471-2.964-1.322-.726-3.951-.02-4.755-1.662-.655-1.341,1.085-1.963,2.221-1.436a6.637,6.637,0,0,1,2.49,2.72c-.081-.74-.141-1.481-.173-2.226-1.028-.753-2.967-1.057-3.571-2.456-.588-1.36.295-3.113,1.9-1.881a5.544,5.544,0,0,1,1.646,2.9q0-1.241.092-2.477a9.928,9.928,0,0,0-1.12-1.414c-.542-.557-1.285-1.058-1.344-1.872-.1-1.4,1.077-.87,1.7-.044a5.4,5.4,0,0,1,.858,2.2q.143-1.384.388-2.75C907.377,5093.568,904.265,5092.271,905.974,5090.342Z" transform="translate(-890.742 -5077.737)" fill="#b9d4ef"/>
        </g>
      </g>
      <g id="Grupo_53679" data-name="Grupo 53679" transform="translate(3.199 28.777)">
        <g id="Grupo_53675" data-name="Grupo 53675" transform="translate(9.782 4.238)">
          <path id="Trazado_99241" data-name="Trazado 99241" d="M906.358,5133.768a20.187,20.187,0,0,1-1.725-15.065s6.535,1.452,8.713,15.065Z" transform="translate(-903.936 -5118.703)" fill="#0991a1"/>
          <path id="Trazado_99242" data-name="Trazado 99242" d="M909.994,5135.036s-1.705-8.167-2.659-9.8c0,0,2.867,5.173,3.295,9.8Z" transform="translate(-904.595 -5119.971)" fill="#0991a1"/>
        </g>
        <g id="Grupo_53676" data-name="Grupo 53676" transform="translate(16.255 4.355)">
          <path id="Trazado_99243" data-name="Trazado 99243" d="M918.957,5133.914a20.186,20.186,0,0,0,1.724-15.065s-6.534,1.452-8.712,15.065Z" transform="translate(-911.968 -5118.849)" fill="#0991a1"/>
          <path id="Trazado_99244" data-name="Trazado 99244" d="M916.793,5135.182s1.706-8.168,2.659-9.8c0,0-2.867,5.173-3.294,9.8Z" transform="translate(-912.781 -5120.117)" fill="#0991a1"/>
        </g>
        <g id="Grupo_53677" data-name="Grupo 53677" transform="translate(21.787)">
          <path id="Trazado_99245" data-name="Trazado 99245" d="M927.84,5132.865s5.148-8.014,2.223-19.42c0,0-8.423,1.873-11.231,19.42Z" transform="translate(-918.833 -5113.445)" fill="#11afb7"/>
          <path id="Trazado_99246" data-name="Trazado 99246" d="M925.052,5134.5s2.2-10.529,3.427-12.634c0,0-3.7,6.669-4.246,12.634Z" transform="translate(-919.881 -5115.079)" fill="#0991a1"/>
        </g>
        <g id="Grupo_53678" data-name="Grupo 53678">
          <path id="Trazado_99247" data-name="Trazado 99247" d="M894.92,5132.865s-5.148-8.014-2.223-19.42c0,0,8.422,1.873,11.23,19.42Z" transform="translate(-891.798 -5113.445)" fill="#11afb7"/>
          <path id="Trazado_99248" data-name="Trazado 99248" d="M899.607,5134.5s-2.2-10.529-3.427-12.634c0,0,3.7,6.669,4.246,12.634Z" transform="translate(-892.649 -5115.079)" fill="#0991a1"/>
        </g>
      </g>
    </g>
  </g>
</svg>
