<svg xmlns="http://www.w3.org/2000/svg" width="85.171" height="87.469" viewBox="0 0 85.171 87.469">
  <g id="Grupo_54208" data-name="Grupo 54208" transform="translate(-1256.869 -325.2)">
    <path id="Trazado_99353" data-name="Trazado 99353" d="M1321.519,325.2h-55.65a9.015,9.015,0,0,0-9,8.934V405.6a6.353,6.353,0,0,0,6.348,6.346h46.09a6.353,6.353,0,0,0,6.348-6.346V352.658h10.422a4.2,4.2,0,0,0,4.2-4.193V334.357a9.145,9.145,0,0,0-8.751-9.154Zm-9.256,8.93V405.6a2.96,2.96,0,0,1-2.96,2.958h-46.09a2.96,2.96,0,0,1-2.96-2.958V334.2a5.621,5.621,0,0,1,5.615-5.615h48.356a8.921,8.921,0,0,0-1.962,5.543Zm14.618,14.332a.808.808,0,0,1-.806.8h-10.423V334.2a5.611,5.611,0,0,1,5.6-5.615h.173a5.733,5.733,0,0,1,5.458,5.765Z" fill="#ea3464"/>
    <path id="Trazado_99354" data-name="Trazado 99354" d="M1279.324,335.123a13.4,13.4,0,1,0,13.4,13.4h0A13.412,13.412,0,0,0,1279.324,335.123Zm0,23.405a10.008,10.008,0,1,1,10.008-10.008h0A10.019,10.019,0,0,1,1279.324,358.528Z" fill="#ea3464"/>
    <path id="Trazado_99355" data-name="Trazado 99355" d="M1279.324,350.874a2.355,2.355,0,0,1,0-4.711,1.694,1.694,0,0,0,.02-3.388h-.02a5.743,5.743,0,1,0,0,11.487h0a1.694,1.694,0,0,0,.02-3.388Z" fill="#ea3464"/>
    <path id="Trazado_99356" data-name="Trazado 99356" d="M1303.521,368.508h-35.9a1.695,1.695,0,0,0,0,3.389h35.9a1.695,1.695,0,0,0,0-3.389Z" fill="#ea3464"/>
    <path id="Trazado_99357" data-name="Trazado 99357" d="M1303.521,375.693h-35.9a1.695,1.695,0,0,0,0,3.389h35.9a1.695,1.695,0,0,0,0-3.389Z" fill="#ea3464"/>
    <path id="Trazado_99358" data-name="Trazado 99358" d="M1286.258,383.276H1267.62a1.694,1.694,0,0,0-.02,3.388h18.657a1.694,1.694,0,1,0,.02-3.388h-.019Z" fill="#ea3464"/>
    <path id="Trazado_99360" data-name="Trazado 99360" d="M1286.568,400.139a1.7,1.7,0,0,0-2.3-.671,1.014,1.014,0,0,1-1.151-.124,4.4,4.4,0,0,0-4.4-.828l-2.863,1.041a.566.566,0,0,1-.553-.191l-.377-.407a3.933,3.933,0,0,0-4.078-1.113l-3.347,1.041a1.695,1.695,0,0,0,1.008,3.236l3.345-1.04a.559.559,0,0,1,.588.181l.375.406a3.935,3.935,0,0,0,4.045,1.124l.09-.029,2.923-1.062a1.012,1.012,0,0,1,1.011.188,4.41,4.41,0,0,0,5.015.55,1.694,1.694,0,0,0,.669-2.3Z" fill="#ea3464"/>
    <path id="Trazado_99361" data-name="Trazado 99361" d="M1291.6,400.69A1.694,1.694,0,1,1,1289.91,399,1.694,1.694,0,0,1,1291.6,400.69Z" fill="#ea3464"/>
    <path id="Trazado_101740" data-name="Trazado 101740" d="M1340.04,412.669h-15.646a2,2,0,0,1-2-2V375.693a2,2,0,0,1,.214-.9l7.823-15.481a2,2,0,0,1,3.57,0l7.824,15.481a2,2,0,0,1,.215.9v34.976A2,2,0,0,1,1340.04,412.669Zm-13.646-4h11.646v-32.5l-5.824-11.523-5.822,11.523Z" fill="#ea3464"/>
    <path id="Trazado_101741" data-name="Trazado 101741" d="M1339.52,402.69h-14.173a2,2,0,0,1,0-4h14.173a2,2,0,0,1,0,4Z" fill="#ea3464"/>
    <path id="Trazado_101742" data-name="Trazado 101742" d="M1335.929,383.567a2,2,0,0,1-1.461-.634l-2.6-2.783-2.645,1.613a2,2,0,0,1-2.67-.547l-3.506-4.92a2,2,0,0,1,3.258-2.321l2.425,3.4,2.446-1.49a2,2,0,0,1,2.5.341l2.169,2.32,2.659-3.179a2,2,0,1,1,3.069,2.567l-4.111,4.913a2,2,0,0,1-1.479.716Z" fill="#ea3464"/>
  </g>
</svg>
