<svg xmlns="http://www.w3.org/2000/svg" width="230.758" height="285.364" viewBox="0 0 230.758 285.364">
  <g id="Grupo_54235" data-name="Grupo 54235" transform="translate(-154.821 -487.705)">
    <g id="Grupo_54253" data-name="Grupo 54253" transform="translate(154.821 487.705)">
      <path id="Rectángulo_5126" data-name="Rectángulo 5126" d="M2.372,0h154.34a2.372,2.372,0,0,1,2.372,2.372V201.991a2.373,2.373,0,0,1-2.373,2.373H2.372A2.372,2.372,0,0,1,0,201.992V2.372A2.372,2.372,0,0,1,2.372,0Z" transform="translate(70.323 80.845)" fill="#728ee4"/>
      <path id="Trazado_101697" data-name="Trazado 101697" d="M1128.55,301.471V505.836h-12.939a3.469,3.469,0,0,1-3.469-3.468V304.939a3.467,3.467,0,0,1,3.469-3.468Z" transform="translate(-1041.819 -220.627)" fill="#5678cc"/>
      <path id="Trazado_101698" data-name="Trazado 101698" d="M1128.8,298.809s-4.073-.086-4.21,3.892h8.56s.9-2.968,3.522-1.946v-1.946Z" transform="translate(-1036.067 -221.857)" fill="#b22f51"/>
      <path id="Trazado_101699" data-name="Trazado 101699" d="M1127.473,298.809s7.25.692,7.526,6.905,0,18.64,0,18.64l5.522-2.072,4.42,2.072V305.438a7.469,7.469,0,0,0-6.352-6.629Z" transform="translate(-1034.736 -221.857)" fill="#d94666"/>
      <g id="Grupo_54238" data-name="Grupo 54238" transform="translate(133.829 0)">
        <path id="Trazado_101700" data-name="Trazado 101700" d="M1208.844,303.911h-15.25a20.261,20.261,0,0,1-4.939-5.126q-.546-.8-1.07-1.719C1185.627,293.6,1203.727,301.6,1208.844,303.911Z" transform="translate(-1140.862 -223.058)" fill="#233862"/>
        <g id="Grupo_54235-2" data-name="Grupo 54235">
          <path id="Trazado_101701" data-name="Trazado 101701" d="M1199.786,328.847a1.46,1.46,0,0,1,.25,1.564l0,.009a9.71,9.71,0,0,1-3.094,3.346c-.186.148-.351.282-.5.406l-.111.1-.085.078c-1.359,1.234-.854,1.522-3.3,4.029-2.785,2.857-4.689,2.895-5.228,2.63-.456-.227.485-1.746,1.528-3.453.051-.082.1-.165.152-.249.14-.228.278-.458.415-.686,1.224-2.056.92-3.026.655-6.1-.215-2.5-3.784-13.968-3.784-13.968l5.3-.876s1.531,9.126,3.279,10.542c.934.754,1.985.77,2.886,1.332.063.039.126.079.187.12A6.939,6.939,0,0,1,1199.786,328.847Z" transform="translate(-1141.207 -214.064)" fill="#ffb27d"/>
          <path id="Trazado_101702" data-name="Trazado 101702" d="M1199.5,325.094a1.46,1.46,0,0,1,.25,1.564l0,.009a11.223,11.223,0,0,1-3.1,3.335c-.184.151-.347.289-.491.418l-.111.1-.085.077c-1.359,1.234-.854,1.522-3.3,4.029-2.785,2.857-4.689,2.895-5.228,2.63-.456-.227.485-1.746,1.528-3.453a11.778,11.778,0,0,0,4.953-3.6c1.68-2.113,2.81-4.833,3.955-6.406.063.039.125.079.187.12A6.936,6.936,0,0,1,1199.5,325.094Z" transform="translate(-1140.918 -210.311)" fill="#233862"/>
          <path id="Trazado_101703" data-name="Trazado 101703" d="M1171.466,325.826c-.339,1.633-2.668,1.344-5.268.689s-1.987.105-5.69-.33-4.816-1.826-4.926-2.379c-.1-.49,1.735-.649,3.7-.861.248-.026.5-.056.744-.083,2.221-.263,3.854-1.683,5.877-2.844,1.917-1.1,4.8-5.616,4.8-5.616l5.081.439s-2.7,4.032-3.74,5.787a6.139,6.139,0,0,0-.523,3.461A6.541,6.541,0,0,1,1171.466,325.826Z" transform="translate(-1155.579 -214.653)" fill="#ffb27d"/>
          <path id="Trazado_101704" data-name="Trazado 101704" d="M1166.2,323.815c-2.6-.655-1.987.105-5.69-.33s-4.816-1.826-4.926-2.379c-.1-.49,1.735-.649,3.7-.861l.019.038a10.443,10.443,0,0,0,5.3,1.687c2.515.079,5.183-.623,6.92-.582a6.541,6.541,0,0,1-.051,1.738C1171.127,324.76,1168.8,324.47,1166.2,323.815Z" transform="translate(-1155.579 -211.953)" fill="#233862"/>
          <path id="Trazado_101705" data-name="Trazado 101705" d="M1197.169,330.39s-.354.231-.883.522a11.772,11.772,0,0,1-2.316,1.007,9.374,9.374,0,0,1-2.383.31c-.551,0-.914-.032-.914-.032l-6.086-16.74-1.1-3.026-1.17-3.221-.408-1.12-1.982-5.452s4.845-12.421,9.784-6.5a11.981,11.981,0,0,1,1.693,3.059c.359.879.7,1.868,1.029,2.942.244.806.481,1.656.707,2.542.616,2.411,1.161,5.075,1.638,7.749C1196.365,321.361,1197.169,330.39,1197.169,330.39Z" transform="translate(-1144.332 -223.829)" fill="#233862"/>
          <path id="Trazado_101706" data-name="Trazado 101706" d="M1237.079,307.769a2.638,2.638,0,0,1-1.408,1.472H1213.2a58.892,58.892,0,0,1-13.674-5.126c-.257-.129-.5-.249-.722-.358a14.65,14.65,0,0,0-2.086-.946c-1.879-.392-2.843,2.667-4.434,6.43-.325.768-.673,1.56-1.063,2.361a12.149,12.149,0,0,1-1.5,2.167c-.13.158-.266.319-.408.485-5.462,6.379-19.524,18.259-19.524,18.259s-.165,0-.433-.006a14.175,14.175,0,0,1-3.694-.447,5.611,5.611,0,0,1-1.2-.621,2.691,2.691,0,0,1-.57-.512s16.826-32.9,25.538-41.861h0c.126-.13.25-.254.374-.373a7.114,7.114,0,0,1,2.5-1.765c2.968-.934,22.17.108,22.17.108l.613-1,1.026-.072.175-.013.855-.061h0l1.18-.083,1.754-.124,4.746-.338.762-.054,8.773-.623s.4.9.94,2.4c.212.585.443,1.257.681,2C1237.551,293.97,1239.379,301.96,1237.079,307.769Z" transform="translate(-1151.737 -228.389)" fill="#2b478b"/>
          <path id="Trazado_101707" data-name="Trazado 101707" d="M1228.185,269.75c-4.385-3.743-7.512-4.668-7.946-10.594-.237-3.216-4.556-13.855-11.86-12.925a11.1,11.1,0,0,1-1.842.107,6.829,6.829,0,0,0-3.712.933c-3.516,2.059-9.993,21.1-5.627,27.787a4.848,4.848,0,0,0,3.483,2.238l.563.317h0c.784.442,1.647.925,2.561,1.444,5.161,2.909,11.92,6.757,15.38,8.7h0c.209.117.4.23.589.333l1.007.559c.407.222.642.347.661.347a15.021,15.021,0,0,0,2.142.6c1.74.363,4.177.566,5.876-.545a9.315,9.315,0,0,0,1.86-1.611C1234.838,283.516,1235.763,276.217,1228.185,269.75Z" transform="translate(-1137.027 -246.174)" fill="#233862"/>
          <path id="Trazado_101708" data-name="Trazado 101708" d="M1203.325,268.683c-.031.02,3.367,1.206,5.651.215,2.149-.933,3.8-4.444,3.765-4.447-.975-.051-2.038-.911-2.823-6.507l-.415.146-6.994,2.461s.49,2.243.8,4.377C1203.572,266.718,1203.707,268.433,1203.325,268.683Z" transform="translate(-1133.899 -240.736)" fill="#ffb27d"/>
          <path id="Trazado_101709" data-name="Trazado 101709" d="M1202.508,260.5s.3,1.572.712,3.817c4.012-.693,5.7-4.116,6.282-6.278Z" transform="translate(-1133.899 -240.69)" fill="#ed975d"/>
          <path id="Trazado_101710" data-name="Trazado 101710" d="M1203.309,266.539s9.556-1.213,8.708-7.152-.186-10.1-6.322-9.57-7,2.959-7.194,5.009S1200.8,266.7,1203.309,266.539Z" transform="translate(-1135.755 -244.511)" fill="#ffb27d"/>
          <path id="Trazado_101711" data-name="Trazado 101711" d="M1198.751,251.745s6.073,5.308,10.227,5.763,5.735-.87,5.735-.87a16.222,16.222,0,0,1-3.886-5.344,2.921,2.921,0,0,0-2.4-1.74C1205.463,249.277,1199.839,249.121,1198.751,251.745Z" transform="translate(-1135.634 -244.679)" fill="#233862"/>
          <path id="Trazado_101712" data-name="Trazado 101712" d="M1202.932,251.069a15.057,15.057,0,0,0-2.713,3.424,11.561,11.561,0,0,0-.355,6.139s-3.142-6.215-1.317-9.212C1200.48,248.243,1202.932,251.069,1202.932,251.069Z" transform="translate(-1135.993 -244.447)" fill="#233862"/>
          <path id="Trazado_101713" data-name="Trazado 101713" d="M1197.5,280.7c.152,19.325-.029,15.285,2.072,17.133.506.446,1.936.718,3.82.857,5.921.434,16.343-.468,16.747-1.56,1.393-3.779.437-4.963,1.618-10.756.123-.615.275-1.282.453-2.009.978-3.977,1.914-5.326-1.414-11.75-3.018-5.819-6.162-10.547-6.449-10.379-8.1,4.734-8.727.7-8.727.7S1197.427,271.278,1197.5,280.7Z" transform="translate(-1136.212 -238.753)" fill="#d94666"/>
          <path id="Trazado_101714" data-name="Trazado 101714" d="M1195.7,327.988s-.354.231-.883.522a11.765,11.765,0,0,1-2.316,1.007,9.371,9.371,0,0,1-2.383.31c-.551,0-.914-.032-.914-.032l-6.086-16.74,1.782-3.026,4.566-7.749,1.5-2.542c.244.806.481,1.656.708,2.542.616,2.411,1.161,5.075,1.637,7.749C1194.892,318.959,1195.7,327.988,1195.7,327.988Z" transform="translate(-1142.859 -221.427)" fill="#2b478b"/>
          <path id="Trazado_101715" data-name="Trazado 101715" d="M1208.175,262.72s-8.313,1.348-9.314,4.917-6.886,24.545-6.886,24.545,4.216.788,6.18-1.149,6.912-18.044,6.912-18.044Z" transform="translate(-1138.765 -238.53)" fill="#d94666"/>
          <path id="Trazado_101716" data-name="Trazado 101716" d="M1201.531,293.615c5.921.434,16.344-.468,16.747-1.56,1.393-3.779.437-4.963,1.618-10.756l-2.8-8.067s.409,8.965-2.25,11.3-10.851,4.474-12.151,6.434A7.21,7.21,0,0,0,1201.531,293.615Z" transform="translate(-1134.35 -233.673)" fill="#b22f51"/>
          <path id="Trazado_101717" data-name="Trazado 101717" d="M1209.468,284.927s-5.836-1.342-6.782-.83a13.736,13.736,0,0,0-3.558,3.041c-.294.655,2.1-.484,2.881-.687a6.893,6.893,0,0,1,2.478.561,8.263,8.263,0,0,0,4.447.478Z" transform="translate(-1135.472 -228.707)" fill="#ffb27d"/>
          <path id="Trazado_101718" data-name="Trazado 101718" d="M1210.64,262.237s7.845.539,10.535,4.348c3.788,5.361,11.215,28.149,6.845,31.151-4.921,3.38-22.294.735-22.294.735s-.56-2.709.254-4.012,13.914-3.323,14.522-3.924-7.465-11.829-7.452-13.64S1210.64,262.237,1210.64,262.237Z" transform="translate(-1132.499 -238.753)" fill="#d94666"/>
          <path id="Trazado_101719" data-name="Trazado 101719" d="M1202.078,285.172a11.342,11.342,0,0,1-1.639,1.757,1.189,1.189,0,0,1-.661.136l.835-1.48Z" transform="translate(-1135.16 -228.157)" fill="#ffb27d"/>
          <path id="Trazado_101720" data-name="Trazado 101720" d="M1202.682,284.06l-3.573,1.7a.635.635,0,0,0,.588.232,8.556,8.556,0,0,0,1.548-.414Z" transform="translate(-1135.469 -228.671)" fill="#ffb27d"/>
        </g>
        <g id="Grupo_54237" data-name="Grupo 54237" transform="translate(29.549 39.111)">
          <g id="Grupo_54236" data-name="Grupo 54236">
            <path id="Trazado_101721" data-name="Trazado 101721" d="M1212.283,294.255l-28.167-.2-8.325-21.131,28.124.2Z" transform="translate(-1175.791 -272.926)" fill="#233862"/>
            <path id="Trazado_101722" data-name="Trazado 101722" d="M1181.263,286.816l37.2.262-.006.821-36.865-.26Z" transform="translate(-1173.263 -266.508)" fill="#233862"/>
          </g>
          <path id="Trazado_101723" data-name="Trazado 101723" d="M1186.415,280.629a.977.977,0,0,1,.966-1.335,1.923,1.923,0,0,1,1.716,1.354.976.976,0,0,1-.967,1.335A1.924,1.924,0,0,1,1186.415,280.629Z" transform="translate(-1170.906 -269.983)" fill="#fff"/>
        </g>
      </g>
      <g id="Grupo_54244" data-name="Grupo 54244" transform="translate(35.321 255.925)">
        <g id="Grupo_54243" data-name="Grupo 54243" transform="translate(0)">
          <rect id="Rectángulo_5127" data-name="Rectángulo 5127" width="142.466" height="29.263" rx="9.803" transform="translate(142.466 29.282) rotate(180)" fill="#2b478b"/>
          <path id="Trazado_101724" data-name="Trazado 101724" d="M1142.152,431.77l-.1,6.4a10.246,10.246,0,0,0,10.08,10.406l75.635,1.209.021-1.275a13.035,13.035,0,0,1-7.026-11.782l.036-2.249a13.034,13.034,0,0,1,7.4-11.551V422.9l-75.635-1.208A10.246,10.246,0,0,0,1142.152,431.77Z" transform="translate(-1063.323 -421.012)" fill="#ffeddc"/>
          <g id="Grupo_54239" data-name="Grupo 54239" transform="translate(77.574)">
            <path id="Trazado_101725" data-name="Trazado 101725" d="M1230.109,450.508h-79.683c-5.139,0-9.165-6.431-9.165-14.642s4.026-14.64,9.165-14.64h79.683a1.2,1.2,0,0,1,0,2.4h-79.683c-3.67,0-6.769,5.608-6.769,12.244s3.1,12.246,6.769,12.246h79.683a1.2,1.2,0,0,1,0,2.4Z" transform="translate(-1141.261 -421.226)" fill="#1b3770"/>
          </g>
          <g id="Grupo_54240" data-name="Grupo 54240" transform="translate(101.284 7.804)">
            <rect id="Rectángulo_5128" data-name="Rectángulo 5128" width="57.536" height="0.173" fill="#e8c2a3"/>
          </g>
          <g id="Grupo_54241" data-name="Grupo 54241" transform="translate(131.833 10.468)">
            <rect id="Rectángulo_5129" data-name="Rectángulo 5129" width="26.014" height="0.173" fill="#e8c2a3"/>
          </g>
          <g id="Grupo_54242" data-name="Grupo 54242" transform="translate(112.466 19.556)">
            <rect id="Rectángulo_5130" data-name="Rectángulo 5130" width="45.38" height="0.173" fill="#e8c2a3"/>
          </g>
        </g>
        <path id="Trazado_101726" data-name="Trazado 101726" d="M1169.96,426.623a5.107,5.107,0,0,1,2.7,4.421,24.257,24.257,0,0,1,0,5.227l-2.914-1.386-2.943,1.386v-5.33s-.108-4.317-4.124-4.317Z" transform="translate(-1053.791 -418.733)" fill="#d94666"/>
      </g>
      <g id="Grupo_54246" data-name="Grupo 54246" transform="translate(0 266.284)">
        <path id="Trazado_101727" data-name="Trazado 101727" d="M1064.041,438.511a7.228,7.228,0,0,0,.059.933,7.644,7.644,0,0,0,7.589,6.715h107.549a7.648,7.648,0,1,0,0-15.3H1071.689A7.647,7.647,0,0,0,1064.041,438.511Z" transform="translate(-1064.041 -427.132)" fill="#b5244b"/>
        <path id="Trazado_101728" data-name="Trazado 101728" d="M1070.024,430.657H1106.9a1.176,1.176,0,0,0,1.174-1.172h0a1.177,1.177,0,0,0-1.174-1.174h-36.873a1.177,1.177,0,0,0-1.174,1.174h0A1.177,1.177,0,0,0,1070.024,430.657Z" transform="translate(-1061.819 -428.311)" fill="#d94666"/>
        <rect id="Rectángulo_5131" data-name="Rectángulo 5131" width="3.997" height="1.384" transform="translate(14.237 3.731) rotate(180)" fill="#b5244b"/>
        <path id="Trazado_101729" data-name="Trazado 101729" d="M1064.676,438.6a7.663,7.663,0,0,0,6.719,3.99h22.781V438.6Z" transform="translate(-1063.748 -423.559)" fill="#d94666"/>
        <path id="Trazado_101730" data-name="Trazado 101730" d="M1196.621,436.271v4.48a5.4,5.4,0,0,1-5.4,5.408h-112.03a5.405,5.405,0,0,1-5.406-5.408v-4.48a5.407,5.407,0,0,1,5.406-5.408h112.03A5.405,5.405,0,0,1,1196.621,436.271Z" transform="translate(-1059.542 -427.132)" fill="#d94666"/>
        <path id="Trazado_101731" data-name="Trazado 101731" d="M1196.374,438.6a5.405,5.405,0,0,1-5.218,3.99h-112.03a5.4,5.4,0,0,1-5.218-3.99Z" transform="translate(-1059.482 -423.559)" fill="#ef6f90"/>
        <g id="Grupo_54245" data-name="Grupo 54245" transform="translate(125.954 3.731)">
          <path id="Trazado_101732" data-name="Trazado 101732" d="M1150.193,438.538a8.506,8.506,0,0,0,2.224,5.9c.032.031.06.061.092.094a5.43,5.43,0,0,0,3.838,1.676c2.268,0,7.889-3.423,11.373-5.695,1.735-1.133,2.941-1.979,2.941-1.979s-1.206-.847-2.941-1.98c-3.484-2.275-9.105-5.7-11.373-5.7a5.067,5.067,0,0,0-1.883.364,6.17,6.17,0,0,0-2.594,2.047,8.455,8.455,0,0,0-1.557,3.743c0,.016-.006.032-.006.05A9.471,9.471,0,0,0,1150.193,438.538Z" transform="translate(-1150.193 -430.863)" fill="#cde0fb"/>
          <path id="Trazado_101733" data-name="Trazado 101733" d="M1150.193,436.578a8.506,8.506,0,0,0,2.224,5.9l17.243-5.933-19.353-1.444A9.471,9.471,0,0,0,1150.193,436.578Z" transform="translate(-1150.193 -428.903)" fill="#a6c7ed"/>
          <path id="Trazado_101734" data-name="Trazado 101734" d="M1151.34,433.159l17.2,4.7-14.608-6.744A6.171,6.171,0,0,0,1151.34,433.159Z" transform="translate(-1149.663 -430.748)" fill="#e3f0ff"/>
          <path id="Trazado_101735" data-name="Trazado 101735" d="M1161.413,436.739a2.121,2.121,0,0,0,1.123,1.979c1.735-1.133,2.941-1.979,2.941-1.979s-1.206-.847-2.941-1.98A2.116,2.116,0,0,0,1161.413,436.739Z" transform="translate(-1145.01 -429.063)" fill="#2e3552"/>
        </g>
      </g>
      <g id="Grupo_54252" data-name="Grupo 54252" transform="translate(20.05 239.949)">
        <g id="Grupo_54251" data-name="Grupo 54251">
          <path id="Trazado_101736" data-name="Trazado 101736" d="M1085.748,426.29h90.338a7.991,7.991,0,0,0,7.991-7.991h0a7.991,7.991,0,0,0-7.991-7.993h-90.338a7.992,7.992,0,0,0-7.993,7.993h0A7.991,7.991,0,0,0,1085.748,426.29Z" transform="translate(-1077.755 -410.294)" fill="#699dee"/>
          <path id="Trazado_101737" data-name="Trazado 101737" d="M1118.018,416.05l-.076,3.488c-.067,3.086,3.3,5.629,7.523,5.678l56.446.658.016-.694c-3.167-1.2-5.306-3.64-5.244-6.427l.026-1.227c.061-2.787,2.3-5.173,5.522-6.3v-.015l-56.446-.659C1121.564,410.5,1118.086,412.965,1118.018,416.05Z" transform="translate(-1059.189 -410.181)" fill="#ffeddc"/>
          <g id="Grupo_54247" data-name="Grupo 54247" transform="translate(57.894)">
            <path id="Trazado_101738" data-name="Trazado 101738" d="M1183.661,426.272h-59.468c-3.835,0-6.839-3.509-6.839-7.987s3-7.987,6.839-7.987h59.468c.494,0,.893.294.893.655s-.4.654-.893.654h-59.468c-2.738,0-5.051,3.058-5.051,6.678s2.313,6.68,5.051,6.68h59.468c.494,0,.893.292.893.654S1184.156,426.272,1183.661,426.272Z" transform="translate(-1117.354 -410.298)" fill="#4b87dd"/>
          </g>
          <g id="Grupo_54248" data-name="Grupo 54248" transform="translate(75.588 4.25)">
            <rect id="Rectángulo_5132" data-name="Rectángulo 5132" width="42.939" height="0.11" fill="#e8c2a3"/>
          </g>
          <g id="Grupo_54249" data-name="Grupo 54249" transform="translate(98.387 5.703)">
            <rect id="Rectángulo_5133" data-name="Rectángulo 5133" width="19.414" height="0.11" fill="#e8c2a3"/>
          </g>
          <g id="Grupo_54250" data-name="Grupo 54250" transform="translate(83.933 10.66)">
            <rect id="Rectángulo_5134" data-name="Rectángulo 5134" width="33.867" height="0.111" fill="#e8c2a3"/>
          </g>
        </g>
      </g>
    </g>
  </g>
</svg>
