<svg xmlns="http://www.w3.org/2000/svg" xmlns:xlink="http://www.w3.org/1999/xlink" width="256" height="205.661" viewBox="0 0 256 205.661">
  <defs>
    <linearGradient id="linear-gradient" x1="-20.692" y1="0.5" x2="-19.692" y2="0.5" gradientUnits="objectBoundingBox">
      <stop offset="0" stop-color="#738598"/>
      <stop offset="1" stop-color="#3c415e"/>
    </linearGradient>
  </defs>
  <g id="Grupo_53375" data-name="Grupo 53375" transform="translate(-133.246 -2604.379)">
    <ellipse id="Elipse_5463" data-name="Elipse 5463" cx="122.322" cy="5.379" rx="122.322" ry="5.379" transform="translate(144.602 2799.282)" opacity="0.15"/>
    <g id="Grupo_53327" data-name="Grupo 53327" transform="translate(202.177 2610.547)" opacity="0.1">
      <g id="Grupo_53325" data-name="Grupo 53325" transform="translate(29.817 29.816)">
        <path id="Trazado_98573" data-name="Trazado 98573" d="M286,2662.765a2.723,2.723,0,1,0,2.721-2.722A2.723,2.723,0,0,0,286,2662.765Z" transform="translate(-286 -2660.043)" fill="#738598"/>
      </g>
      <g id="Grupo_53326" data-name="Grupo 53326" transform="translate(0 0)">
        <path id="Trazado_98574" data-name="Trazado 98574" d="M286.162,2648.826a11.393,11.393,0,0,0-11.38,11.38h-3.726a15.123,15.123,0,0,1,15.106-15.1Z" transform="translate(-250.9 -2624.944)" fill="#738598"/>
        <path id="Trazado_98575" data-name="Trazado 98575" d="M280.565,2633.524a21.107,21.107,0,0,0-21.083,21.082h-4.258a25.369,25.369,0,0,1,25.342-25.34Z" transform="translate(-245.302 -2619.346)" fill="#738598"/>
        <path id="Trazado_98576" data-name="Trazado 98576" d="M275.139,2618.5a30.712,30.712,0,0,0-30.678,30.676h-4.585a35.3,35.3,0,0,1,35.263-35.261Z" transform="translate(-239.876 -2613.92)" fill="#738598"/>
      </g>
    </g>
    <g id="Grupo_53358" data-name="Grupo 53358" transform="translate(223.54 2604.379)">
      <g id="Grupo_53356" data-name="Grupo 53356" transform="translate(0 18.198)">
        <g id="Grupo_53329" data-name="Grupo 53329" transform="translate(82.647 59.69)">
          <g id="Grupo_53328" data-name="Grupo 53328">
            <path id="Trazado_98577" data-name="Trazado 98577" d="M414.561,2742.906l.155-.323.118-.256.216-.481c.14-.316.271-.622.4-.93.257-.613.5-1.219.732-1.826.465-1.214.891-2.427,1.285-3.653a72.427,72.427,0,0,0,1.972-7.477l-15.049-3.1a57.132,57.132,0,0,1-1.548,5.867c-.31.966-.646,1.925-1.006,2.859-.18.467-.364.93-.551,1.378l-.283.655-.137.306-.094.2Z" transform="translate(-400.77 -2724.864)" fill="none"/>
          </g>
          <path id="Trazado_98578" data-name="Trazado 98578" d="M415.924,2731.087l1.484.4c.22-.839.429-1.681.617-2.528l-1.5-.335C416.343,2729.446,416.138,2730.268,415.924,2731.087Z" transform="translate(-406.128 -2726.192)" fill="#3c415e" fill-rule="evenodd"/>
          <path id="Trazado_98579" data-name="Trazado 98579" d="M413.867,2737.857l1.453.5c.284-.82.546-1.647.8-2.477l-1.472-.441C414.4,2736.249,414.145,2737.057,413.867,2737.857Z" transform="translate(-405.4 -2728.603)" fill="#3c415e" fill-rule="evenodd"/>
          <path id="Trazado_98580" data-name="Trazado 98580" d="M411.337,2744.44l1.408.616c.351-.8.674-1.607.985-2.419l-1.436-.547C411.991,2742.882,411.676,2743.668,411.337,2744.44Z" transform="translate(-404.506 -2730.955)" fill="#3c415e" fill-rule="evenodd"/>
        </g>
        <g id="Grupo_53331" data-name="Grupo 53331" transform="translate(86.267 46.95)">
          <g id="Grupo_53330" data-name="Grupo 53330">
            <path id="Trazado_98581" data-name="Trazado 98581" d="M421.418,2720.993a63.236,63.236,0,0,0,1.111-7.776,52.623,52.623,0,0,0,.039-8.061l-15.324,1.125a42.694,42.694,0,0,1-.876,11.615Z" transform="translate(-406.369 -2705.156)" fill="none"/>
          </g>
          <path id="Trazado_98582" data-name="Trazado 98582" d="M418.881,2710.131l1.537.015c.014-.436,0-.873-.007-1.31s-.024-.874-.045-1.31l-1.535.075c.02.421.043.842.043,1.264S418.9,2709.709,418.881,2710.131Z" transform="translate(-410.775 -2705.994)" fill="#3c415e" fill-rule="evenodd"/>
          <path id="Trazado_98583" data-name="Trazado 98583" d="M418.505,2717.192l1.528.158c.045-.433.091-.866.119-1.3s.071-.868.085-1.3l-1.534-.081c-.014.422-.054.844-.083,1.265S418.548,2716.771,418.505,2717.192Z" transform="translate(-410.66 -2708.518)" fill="#3c415e" fill-rule="evenodd"/>
          <path id="Trazado_98584" data-name="Trazado 98584" d="M417.494,2724.147l1.51.283.226-1.283.2-1.289-1.521-.215-.192,1.254Z" transform="translate(-410.302 -2710.985)" fill="#3c415e" fill-rule="evenodd"/>
        </g>
        <g id="Grupo_53333" data-name="Grupo 53333" transform="translate(84.739 29.471)">
          <g id="Grupo_53332" data-name="Grupo 53332">
            <path id="Trazado_98585" data-name="Trazado 98585" d="M421.734,2695.6c-.055-.682-.107-1.363-.2-2.048-.041-.342-.079-.684-.125-1.026l-.161-1.028c-.093-.666-.262-1.422-.409-2.14-.067-.358-.18-.738-.273-1.107s-.19-.74-.308-1.117l-.378-1.137c-.068-.19-.121-.375-.2-.569l-.234-.577-.239-.575c-.082-.192-.155-.381-.256-.576q-.285-.58-.581-1.155c-.05-.1-.1-.191-.15-.287l-.171-.287-.346-.573-.352-.569c-.118-.188-.261-.374-.393-.559-.271-.37-.535-.742-.827-1.1s-.611-.7-.924-1.051l-11.2,10.517a2.879,2.879,0,0,0,.218.244c.071.087.132.193.206.283a1.5,1.5,0,0,1,.107.143c.031.057.063.113.1.169s.067.11.1.164l.054.082c.017.031.03.065.047.1.061.131.126.259.195.387a1.374,1.374,0,0,1,.092.213l.091.222.094.221a2.485,2.485,0,0,1,.084.245q.08.251.168.5c.056.171.1.367.147.548s.108.358.142.568l.123.6c.02.1.046.19.061.31l.052.339.108.677c.031.228.054.458.082.687.063.456.1.923.133,1.387Z" transform="translate(-404.006 -2678.118)" fill="none"/>
          </g>
          <path id="Trazado_98586" data-name="Trazado 98586" d="M414.378,2689.508l1.36-.716-.154-.3-.177-.294-.357-.586a6.226,6.226,0,0,0-.391-.566l-.409-.556-1.2.956.363.5a5.235,5.235,0,0,1,.349.506l.32.526.16.263Z" transform="translate(-407.203 -2681.077)" fill="#3c415e" fill-rule="evenodd"/>
          <path id="Trazado_98587" data-name="Trazado 98587" d="M417.082,2696.023l1.493-.364c-.117-.431-.22-.863-.35-1.291s-.278-.852-.433-1.275l-1.438.543c.142.389.266.786.4,1.18S416.972,2695.621,417.082,2696.023Z" transform="translate(-408.372 -2683.413)" fill="#3c415e" fill-rule="evenodd"/>
          <path id="Trazado_98588" data-name="Trazado 98588" d="M418.424,2702.989l1.529-.152-.154-1.305c-.053-.435-.132-.867-.2-1.3l-1.515.253c.062.417.138.831.189,1.248Z" transform="translate(-408.984 -2685.937)" fill="#3c415e" fill-rule="evenodd"/>
        </g>
        <g id="Grupo_53335" data-name="Grupo 53335" transform="translate(77.468 22.459)">
          <g id="Grupo_53334" data-name="Grupo 53334">
            <path id="Trazado_98589" data-name="Trazado 98589" d="M411.231,2674.283a20.734,20.734,0,0,0-4.342-3.492c-.39-.232-.787-.436-1.183-.647-.2-.1-.4-.215-.6-.3l-.6-.263-.6-.257c-.2-.087-.4-.171-.6-.236q-.592-.211-1.188-.411c-.1-.032-.2-.069-.3-.1l-.291-.081-.584-.159c-.387-.1-.785-.218-1.16-.287l-1.14-.231-.285-.055-.277-.042-.555-.081c-.368-.05-.745-.112-1.106-.148l-1.08-.1-.54-.047c-.178-.012-.351-.018-.527-.027l-1.05-.046-.479,15.357.674.03c.112.005.226.008.336.015l.319.031.639.057c.211.02.4.058.6.083l.3.042.149.02.138.029.551.112a5.09,5.09,0,0,1,.515.128l.25.066.125.031c.041.011.075.027.112.039.147.054.294.105.444.153a1.184,1.184,0,0,1,.2.082l.193.086.2.079c.065.027.112.063.169.092.108.063.229.115.333.176a5.392,5.392,0,0,1,1.021.819Z" transform="translate(-392.758 -2667.271)" fill="none"/>
          </g>
          <path id="Trazado_98590" data-name="Trazado 98590" d="M397.154,2679.48l.229-1.52c-.878-.141-1.758-.214-2.636-.275l-.092,1.534C395.492,2679.279,396.329,2679.348,397.154,2679.48Z" transform="translate(-393.429 -2670.953)" fill="#3c415e" fill-rule="evenodd"/>
          <path id="Trazado_98591" data-name="Trazado 98591" d="M403.9,2680.981l.578-1.423a6.563,6.563,0,0,0-.636-.24l-.641-.221c-.212-.081-.432-.127-.648-.189l-.651-.175-.365,1.493.6.162c.2.057.4.1.6.173l.586.2A5.644,5.644,0,0,1,403.9,2680.981Z" transform="translate(-395.861 -2671.323)" fill="#3c415e" fill-rule="evenodd"/>
          <path id="Trazado_98592" data-name="Trazado 98592" d="M409.868,2684.235l1.027-1.144a5.618,5.618,0,0,0-.529-.446l-.545-.427c-.186-.137-.383-.255-.575-.383s-.383-.257-.583-.369l-.772,1.328c.179.1.345.22.518.329s.347.218.511.339l.482.379A4.561,4.561,0,0,1,409.868,2684.235Z" transform="translate(-398.108 -2672.29)" fill="#3c415e" fill-rule="evenodd"/>
        </g>
        <g id="Grupo_53337" data-name="Grupo 53337" transform="translate(62.626 22.436)">
          <g id="Grupo_53336" data-name="Grupo 53336">
            <path id="Trazado_98593" data-name="Trazado 98593" d="M385.12,2667.259a58.166,58.166,0,0,0-7.93.342c-2.533.268-4.983.646-7.391,1.075l2.72,15.122c2.122-.379,4.225-.7,6.269-.916a43.017,43.017,0,0,1,5.853-.267Z" transform="translate(-369.799 -2667.236)" fill="none"/>
          </g>
          <path id="Trazado_98594" data-name="Trazado 98594" d="M375.975,2680.268l-.222-1.521c-.856.117-1.7.264-2.555.4l.259,1.515C374.3,2680.527,375.134,2680.382,375.975,2680.268Z" transform="translate(-371.001 -2671.305)" fill="#3c415e" fill-rule="evenodd"/>
          <path id="Trazado_98595" data-name="Trazado 98595" d="M383.02,2679.432l-.131-1.531-1.294.123c-.432.037-.86.1-1.29.15l.186,1.525c.421-.048.842-.11,1.264-.147Z" transform="translate(-373.513 -2671.007)" fill="#3c415e" fill-rule="evenodd"/>
          <path id="Trazado_98596" data-name="Trazado 98596" d="M390.08,2679.125l.007-1.536c-.876-.017-1.745.029-2.617.056l.078,1.535C388.393,2679.154,389.237,2679.109,390.08,2679.125Z" transform="translate(-376.047 -2670.895)" fill="#3c415e" fill-rule="evenodd"/>
        </g>
        <g id="Grupo_53339" data-name="Grupo 53339" transform="translate(48.609 23.877)">
          <g id="Grupo_53338" data-name="Grupo 53338">
            <path id="Trazado_98597" data-name="Trazado 98597" d="M362.133,2669.464c-4.81.868-9.441,1.963-14.017,3.126l3.809,14.885c4.344-1.105,8.679-2.123,12.928-2.889Z" transform="translate(-348.116 -2669.464)" fill="none"/>
          </g>
          <path id="Trazado_98598" data-name="Trazado 98598" d="M355.075,2684.476l-.361-1.493-1.25.3-1.247.315.376,1.49,1.24-.313Z" transform="translate(-349.566 -2674.244)" fill="#3c415e" fill-rule="evenodd"/>
          <path id="Trazado_98599" data-name="Trazado 98599" d="M361.995,2682.874l-.328-1.5c-.841.177-1.675.377-2.512.567l.348,1.5C360.332,2683.249,361.161,2683.05,361.995,2682.874Z" transform="translate(-352.018 -2673.675)" fill="#3c415e" fill-rule="evenodd"/>
          <path id="Trazado_98600" data-name="Trazado 98600" d="M368.927,2681.455l-.284-1.51c-.849.15-1.688.334-2.532.5l.312,1.5C367.257,2681.785,368.09,2681.6,368.927,2681.455Z" transform="translate(-354.478 -2673.169)" fill="#3c415e" fill-rule="evenodd"/>
        </g>
        <g id="Grupo_53341" data-name="Grupo 53341" transform="translate(35.522 27.002)">
          <g id="Grupo_53340" data-name="Grupo 53340">
            <path id="Trazado_98601" data-name="Trazado 98601" d="M340.958,2674.3l-3.3.834c-1.093.27-2.188.542-3.277.8s-2.178.509-3.266.76-2.169.482-3.245.7l3.11,15.047c1.18-.239,2.339-.5,3.5-.754s2.315-.527,3.458-.8,2.29-.554,3.43-.837l3.394-.858Z" transform="translate(-327.871 -2674.299)" fill="none"/>
          </g>
          <path id="Trazado_98602" data-name="Trazado 98602" d="M334.332,2689.55l-.338-1.5-2.492.546.32,1.5Z" transform="translate(-329.155 -2679.161)" fill="#3c415e" fill-rule="evenodd"/>
          <path id="Trazado_98603" data-name="Trazado 98603" d="M341.258,2687.927l-.362-1.493-2.485.592.35,1.5Z" transform="translate(-331.597 -2678.589)" fill="#3c415e" fill-rule="evenodd"/>
          <path id="Trazado_98604" data-name="Trazado 98604" d="M348.137,2686.211l-.38-1.49c-.826.208-1.651.423-2.479.625l.371,1.491C346.48,2686.635,347.308,2686.419,348.137,2686.211Z" transform="translate(-334.025 -2677.984)" fill="#3c415e" fill-rule="evenodd"/>
        </g>
        <g id="Grupo_53343" data-name="Grupo 53343" transform="translate(23.061 30.094)">
          <g id="Grupo_53342" data-name="Grupo 53342">
            <path id="Trazado_98605" data-name="Trazado 98605" d="M321.056,2679.081c-2.154.444-4.3.852-6.392,1.168a60.609,60.609,0,0,1-6.068.65l.725,15.347a75.5,75.5,0,0,0,7.656-.808c2.457-.371,4.836-.827,7.189-1.311Z" transform="translate(-308.596 -2679.081)" fill="none"/>
          </g>
          <path id="Trazado_98606" data-name="Trazado 98606" d="M313.308,2693.309l-.169-1.528c-.418.055-.257-.034-.675.008l-1.208.176-.627.042.1,1.533.646-.043.644-.06C312.45,2693.394,312.881,2693.365,313.308,2693.309Z" transform="translate(-309.314 -2683.57)" fill="#3c415e" fill-rule="evenodd"/>
          <path id="Trazado_98607" data-name="Trazado 98607" d="M320.35,2692.325l-.25-1.516-1.253.2-1.254.179.209,1.522,1.857-.3Z" transform="translate(-311.777 -2683.228)" fill="#3c415e" fill-rule="evenodd"/>
          <path id="Trazado_98608" data-name="Trazado 98608" d="M327.324,2691.047l-.3-1.506c-.833.158-1.666.329-2.5.477l.275,1.512C325.642,2691.38,326.482,2691.208,327.324,2691.047Z" transform="translate(-314.227 -2682.78)" fill="#3c415e" fill-rule="evenodd"/>
        </g>
        <g id="Grupo_53345" data-name="Grupo 53345" transform="translate(4.863 30.879)">
          <g id="Grupo_53344" data-name="Grupo 53344">
            <path id="Trazado_98609" data-name="Trazado 98609" d="M298.643,2681.329c-.944.031-1.883.057-2.72.006l-.318-.014-.159-.006-.147-.016-.588-.056a2.5,2.5,0,0,1-.276-.036l-.266-.041-.266-.037c-.084-.015-.156-.035-.235-.052l-.233-.049a1.6,1.6,0,0,1-.22-.05c-.129-.041-.259-.078-.391-.11-.112-.042-.207-.085-.315-.117-.025-.01-.056-.016-.076-.026l-.057-.031c-.038-.02-.077-.038-.116-.056a1.577,1.577,0,0,1-.491-.342l-11.323,10.385c.182.2.367.4.553.591s.4.366.6.546.4.357.608.531.422.321.635.478.429.31.646.461.436.272.656.407a14.263,14.263,0,0,0,1.327.724l.664.312.334.152c.111.048.217.085.326.128.433.164.873.331,1.306.476q.631.189,1.268.365c.216.065.414.1.619.149l.612.131c.2.042.411.088.61.123l.588.091.588.087c.2.029.394.06.579.074l1.13.108.283.025.272.014.544.027c1.462.078,2.827.043,4.181-.007Z" transform="translate(-280.445 -2680.296)" fill="none"/>
          </g>
          <path id="Trazado_98610" data-name="Trazado 98610" d="M292.629,2690.774l.083-1.268a9.775,9.775,0,0,1-1.014-.554c-.162-.1-.309-.222-.465-.332l-.231-.167c-.072-.061-.142-.126-.213-.189l-1,1.163c.085.075.169.152.255.224l.275.2c.184.13.363.271.553.392C291.256,2690.469,292.216,2690.6,292.629,2690.774Z" transform="translate(-283.746 -2683.113)" fill="#3c415e" fill-rule="evenodd"/>
          <path id="Trazado_98611" data-name="Trazado 98611" d="M298.941,2693.212l.207-1.522c-.4-.065-.228-.225-.617-.322l-1.171-.007c-.2-.046-.383-.107-.575-.16l-.429,1.475c.213.059.425.127.64.178l.646.138C298.072,2693.1,298.508,2693.143,298.941,2693.212Z" transform="translate(-286.07 -2684.152)" fill="#3c415e" fill-rule="evenodd"/>
          <path id="Trazado_98612" data-name="Trazado 98612" d="M306.135,2693.8l-.034-1.536c-.418.021-.831,0-1.247.007s-.827-.021-1.24-.039l-.081,1.534c.434.02,1.45-.071,1.883-.077S305.7,2693.818,306.135,2693.8Z" transform="translate(-288.607 -2684.515)" fill="#3c415e" fill-rule="evenodd"/>
        </g>
        <g id="Grupo_53347" data-name="Grupo 53347" transform="translate(0 18.586)">
          <g id="Grupo_53346" data-name="Grupo 53346">
            <path id="Trazado_98613" data-name="Trazado 98613" d="M289.109,2673.573a2.149,2.149,0,0,1-.372-.638c-.033-.105-.078-.193-.117-.306-.033-.128-.07-.255-.112-.38a.515.515,0,0,1-.027-.1l-.023-.114-.05-.228-.027-.113-.014-.057-.006-.045c-.008-.059-.018-.118-.029-.178a3.369,3.369,0,0,1-.042-.528c0-.126.009-.185.008-.165.006,0,0,0,0,0l-12.129-9.436a15.179,15.179,0,0,0-2.893,6.2q-.084.423-.156.849c-.043.28-.074.552-.105.83s-.047.539-.063.8-.028.53-.025.781a18.747,18.747,0,0,0,.206,2.91l.111.674.029.167.033.154.067.308.137.615.07.307c.022.1.048.205.08.313q.182.64.379,1.274c.144.432.32.876.488,1.31l.131.327.156.334.321.666a14.074,14.074,0,0,0,.742,1.326c.137.219.26.438.416.654s.311.43.469.644.317.424.487.63.357.4.539.6Z" transform="translate(-272.922 -2661.28)" fill="none"/>
          </g>
          <path id="Trazado_98614" data-name="Trazado 98614" d="M284.221,2672.011l1.508.3c.133-.732.985-1.554,1.359-2.2l-1.908-.657A7.942,7.942,0,0,0,284.221,2672.011Z" transform="translate(-276.917 -2664.171)" fill="#3c415e" fill-rule="evenodd"/>
          <path id="Trazado_98615" data-name="Trazado 98615" d="M284.356,2679.341l1.5-.353a9.8,9.8,0,0,1-.343-2.338l-1.535.054A13.111,13.111,0,0,0,284.356,2679.341Z" transform="translate(-276.83 -2666.714)" fill="#3c415e" fill-rule="evenodd"/>
          <path id="Trazado_98616" data-name="Trazado 98616" d="M286.8,2685.965l1.246-.9-.171-.229-.147-.247c-.1-.166-.2-.327-.3-.495l-.252-.524c-.041-.088-.088-.172-.124-.263l-.1-.275-1.429.566.12.313c.042.1.1.2.143.3l.873.488c.111.2-.35.506-.235.7l.175.29Z" transform="translate(-277.378 -2668.971)" fill="#3c415e" fill-rule="evenodd"/>
        </g>
        <g id="Grupo_53349" data-name="Grupo 53349" transform="translate(3.244 10.452)">
          <g id="Grupo_53348" data-name="Grupo 53348">
            <path id="Trazado_98617" data-name="Trazado 98617" d="M290.07,2666.268h0c-.006,0,.014-.008.016-.016s.024-.022.039-.038l.023-.026c.012-.008.025-.018.037-.028a3.1,3.1,0,0,1,.431-.306,7.794,7.794,0,0,1,.723-.381c.29-.129.61-.261.963-.388a20.679,20.679,0,0,1,2.413-.676c.881-.2,1.826-.362,2.806-.5l-2.156-15.213c-1.3.184-2.623.41-3.988.715a35.768,35.768,0,0,0-4.227,1.2c-.73.261-1.478.561-2.235.906a22.84,22.84,0,0,0-2.324,1.237,18.452,18.452,0,0,0-2.367,1.71l-.292.25-.291.27c-.193.182-.383.358-.577.565s-.383.4-.57.617-.374.438-.551.664Z" transform="translate(-277.941 -2648.697)" fill="none"/>
          </g>
          <path id="Trazado_98618" data-name="Trazado 98618" d="M300.923,2660.36l.339,1.5c1.387-.314,2.213-.433,2.456-.472l-.246-1.517C302.62,2660.007,301.769,2660.169,300.923,2660.36Z" transform="translate(-286.066 -2652.647)" fill="#3c415e" fill-rule="evenodd"/>
          <path id="Trazado_98619" data-name="Trazado 98619" d="M294,2662.253l.607,1.412a20.746,20.746,0,0,1,2.3-.824l.142-1.591C296.218,2661.5,294.811,2661.906,294,2662.253Z" transform="translate(-283.619 -2653.135)" fill="#3c415e" fill-rule="evenodd"/>
          <path id="Trazado_98620" data-name="Trazado 98620" d="M287.809,2665.884l1.079,1.094a9.946,9.946,0,0,1,1.846-1.4l-.786-1.32A10.129,10.129,0,0,0,287.809,2665.884Z" transform="translate(-281.43 -2654.198)" fill="#3c415e" fill-rule="evenodd"/>
        </g>
        <g id="Grupo_53351" data-name="Grupo 53351" transform="translate(20.668 9.502)">
          <g id="Grupo_53350" data-name="Grupo 53350">
            <path id="Trazado_98621" data-name="Trazado 98621" d="M307.05,2663.391c1.961-.278,4.055-.451,6.212-.568s4.381-.178,6.675-.235l-.385-15.36c-2.307.058-4.686.12-7.123.253s-4.936.33-7.534.7Z" transform="translate(-304.894 -2647.228)" fill="none"/>
          </g>
          <path id="Trazado_98622" data-name="Trazado 98622" d="M322.3,2658.383l.632,1.418,2.554-.075-.62-1.418Z" transform="translate(-311.047 -2651.145)" fill="#3c415e" fill-rule="evenodd"/>
          <path id="Trazado_98623" data-name="Trazado 98623" d="M315.8,2658.57l-.48,1.651q1.266-.083,2.539-.139l-.069-1.535C316.937,2658.585,316.66,2658.514,315.8,2658.57Z" transform="translate(-308.581 -2651.23)" fill="#3c415e" fill-rule="evenodd"/>
          <path id="Trazado_98624" data-name="Trazado 98624" d="M308.063,2659.27l.769,1.407c.834-.1,1.092-.072,1.933-.144l-.133-1.531Q309.346,2659.112,308.063,2659.27Z" transform="translate(-306.014 -2651.391)" fill="#3c415e" fill-rule="evenodd"/>
        </g>
        <g id="Grupo_53353" data-name="Grupo 53353" transform="translate(35.325 7.962)">
          <g id="Grupo_53352" data-name="Grupo 53352">
            <path id="Trazado_98625" data-name="Trazado 98625" d="M327.952,2661.746l3.514-.1.453-.015.229-.009.332-.022q.665-.046,1.328-.106c.447-.054.9-.133,1.354-.207s.908-.186,1.363-.3a19.32,19.32,0,0,0,5.283-2.209,19.88,19.88,0,0,0,4.312-3.581l-11.35-10.356a4.508,4.508,0,0,1-.973.826,3.934,3.934,0,0,1-1.065.432,6.053,6.053,0,0,1-.672.129c-.131,0-.262.014-.392.027l-.1.011-.2.007-.41.015-3.388.093Z" transform="translate(-327.567 -2644.845)" fill="none"/>
          </g>
          <path id="Trazado_98626" data-name="Trazado 98626" d="M342.793,2654.837l.786,1.32c.2-.113.39-.252.584-.377s.969-.372,1.147-.52l-.034-.312c.174-.151.342-.309.513-.464l-1.05-1.121c-.152.137-.3.277-.454.412l-.481.377a5.356,5.356,0,0,1-.5.354C343.134,2654.615,342.971,2654.738,342.793,2654.837Z" transform="translate(-332.95 -2647.856)" fill="#3c415e" fill-rule="evenodd"/>
          <path id="Trazado_98627" data-name="Trazado 98627" d="M336.431,2657.534l.227,1.52.681-.11c.226-.043.449-.108.674-.162l.336-.085.167-.043.165-.056.657-.226-.539-1.439-.577.2-.144.05.432-.08-.877.192c-.2.046-.394.105-.6.143Z" transform="translate(-330.701 -2649.119)" fill="#3c415e" fill-rule="evenodd"/>
          <path id="Trazado_98628" data-name="Trazado 98628" d="M329.462,2658.187l.619,1.418,2.571-.074-.633-1.418Z" transform="translate(-328.237 -2649.536)" fill="#3c415e" fill-rule="evenodd"/>
        </g>
        <g id="Grupo_53355" data-name="Grupo 53355" transform="translate(42.527)">
          <g id="Grupo_53354" data-name="Grupo 53354">
            <path id="Trazado_98629" data-name="Trazado 98629" d="M350.057,2650.848a23.155,23.155,0,0,0,3.014-4.185,28.423,28.423,0,0,0,1.973-4.3,33.264,33.264,0,0,0,1.238-4.291c.16-.716.293-1.434.407-2.167.029-.182.057-.366.081-.554s.051-.372.073-.565.045-.389.065-.588l.029-.318.015-.18.017-.25-15.34-.869,0-.048v.013l0,.035-.01.111-.03.269c-.01.093-.023.191-.037.291s-.028.2-.045.3c-.063.4-.139.818-.231,1.225a17.953,17.953,0,0,1-.671,2.338,10.3,10.3,0,0,1-1.9,3.379Z" transform="translate(-338.707 -2632.53)" fill="none"/>
          </g>
          <path id="Trazado_98630" data-name="Trazado 98630" d="M353.423,2637.211l1.5.337c.194-.863.929-1.851,1.043-2.733l-2.1-.076C353.753,2635.568,353.607,2636.394,353.423,2637.211Z" transform="translate(-343.91 -2633.311)" fill="#52298a" fill-rule="evenodd"/>
          <path id="Trazado_98631" data-name="Trazado 98631" d="M351.311,2643.894l1.412.605a23.714,23.714,0,0,0,.913-2.508l-1.469-.449A17.316,17.316,0,0,1,351.311,2643.894Z" transform="translate(-343.163 -2635.716)" fill="#3c415e" fill-rule="evenodd"/>
          <path id="Trazado_98632" data-name="Trazado 98632" d="M347.874,2649.975l1.209.948a18.558,18.558,0,0,0,1.5-2.269l-1.343-.746A14.128,14.128,0,0,1,347.874,2649.975Z" transform="translate(-341.948 -2637.967)" fill="#3c415e" fill-rule="evenodd"/>
        </g>
      </g>
      <g id="Grupo_53357" data-name="Grupo 53357" transform="translate(43.269)">
        <path id="Trazado_98633" data-name="Trazado 98633" d="M339.855,2616.185l5.515,3.411,23.182-15.217Z" transform="translate(-339.855 -2604.379)" fill="#ff0062"/>
        <path id="Trazado_98634" data-name="Trazado 98634" d="M352.485,2628.994l-4.1-9.4,23.182-15.217L353.4,2622.517Z" transform="translate(-342.871 -2604.379)" fill="#b7004b"/>
        <path id="Trazado_98635" data-name="Trazado 98635" d="M365.152,2627.375l-9.014-4.859,18.171-18.137Z" transform="translate(-345.612 -2604.379)" fill="#ff0062"/>
      </g>
    </g>
    <g id="Grupo_53359" data-name="Grupo 53359" transform="translate(168.758 2670.765)">
      <rect id="Rectángulo_5042" data-name="Rectángulo 5042" width="153.41" height="94.406" transform="translate(17.701 11.801)" fill="#faf9f9"/>
      <path id="Trazado_98636" data-name="Trazado 98636" d="M197.306,2720.631v107.4a2.949,2.949,0,0,0,2.95,2.951H371.367a2.949,2.949,0,0,0,2.95-2.951v-107.4a13.59,13.59,0,0,0-13.59-13.559H210.9A13.593,13.593,0,0,0,197.306,2720.631Zm162.261,92.648H212.057a2.95,2.95,0,0,1-2.95-2.95v-88.506a2.95,2.95,0,0,1,2.95-2.95h147.51a2.95,2.95,0,0,1,2.95,2.95v88.506A2.95,2.95,0,0,1,359.567,2813.279Z" transform="translate(-191.406 -2707.072)" fill="url(#linear-gradient)"/>
      <path id="Trazado_98637" data-name="Trazado 98637" d="M191.129,2889.619H374.041a2.948,2.948,0,0,1,2.95,2.95h0a11.824,11.824,0,0,1-11.812,11.812H199.992a11.824,11.824,0,0,1-11.813-11.812h0A2.948,2.948,0,0,1,191.129,2889.619Z" transform="translate(-188.179 -2771.612)" fill="#3c415e"/>
      <path id="Trazado_98638" data-name="Trazado 98638" d="M336.336,2895.52h-23.6a5.9,5.9,0,0,1-5.9-5.9h35.4A5.9,5.9,0,0,1,336.336,2895.52Z" transform="translate(-230.129 -2771.612)" fill="#dfe2e2"/>
    </g>
    <g id="Grupo_53360" data-name="Grupo 53360" transform="translate(222.399 2720.406)">
      <path id="Trazado_98639" data-name="Trazado 98639" d="M271.157,2805.694v-21.83h4.408v8.592H284.2v-8.592h4.408v21.83H284.2v-9.545h-8.637v9.545Z" transform="translate(-271.157 -2783.864)" fill="#3366c2"/>
      <path id="Trazado_98640" data-name="Trazado 98640" d="M309.263,2805.694v-18.137h-6.477v-3.693h17.348v3.693h-6.463v18.137Z" transform="translate(-282.339 -2783.864)" fill="#3366c2"/>
      <path id="Trazado_98641" data-name="Trazado 98641" d="M333.929,2805.694v-21.83h6.6l3.961,14.892,3.916-14.892h6.612v21.83h-4.1V2788.51l-4.333,17.184h-4.244l-4.318-17.184v17.184Z" transform="translate(-293.35 -2783.864)" fill="#3366c2"/>
      <path id="Trazado_98642" data-name="Trazado 98642" d="M373.5,2805.792V2784.14h4.408v17.973h10.96v3.678Z" transform="translate(-307.342 -2783.961)" fill="#3366c2"/>
    </g>
    <g id="Grupo_53361" data-name="Grupo 53361" transform="translate(341.626 2724.375)">
      <path id="Trazado_98643" data-name="Trazado 98643" d="M487.6,2826.2l-10.976-1.025s-2.634-1.317-4.683,0-2.2,2.341-1.61,2.488,2.341-1.61,3.219-1.463c.345.057.4.3.332.564a.509.509,0,0,0,.612.627l1.837-.459,4.684,1.669,5.268.672Z" transform="translate(-460.695 -2802.232)" fill="#ffe1bd"/>
      <path id="Trazado_98644" data-name="Trazado 98644" d="M495.255,2809.841s-5.358,8.147-3.017,13.416,3.512,4.243,3.512,4.243,6.146.147,7.464.147-.293-9.074-1.171-10.1S495.255,2809.841,495.255,2809.841Z" transform="translate(-468.338 -2797.016)" fill="#dfe2e2"/>
      <path id="Trazado_98645" data-name="Trazado 98645" d="M493.4,2803.4s-4.391.133-3.784-5.944a2.627,2.627,0,0,1,1.4-2.1,2.684,2.684,0,0,1,2.38-.009c2.341,1.025,3.658,2.2,3.512,3.952S493.4,2803.4,493.4,2803.4Z" transform="translate(-467.602 -2791.798)" fill="#ffe1bd"/>
      <path id="Trazado_98646" data-name="Trazado 98646" d="M491.3,2794.584s-2.2-.146-.293-3.659c1.285-2.373,7.171.147,7.463,3.952s.879,6.732,3.22,7.9,3.366,8.488,4.683,8.635-5.122,2.635-6.878,2.635.22-2.708-2.268-6.66-3.951-7.463-3.073-8.78c.287-.43.573-.876.829-1.281a1.173,1.173,0,0,0-.745-1.776A12.049,12.049,0,0,1,491.3,2794.584Z" transform="translate(-467.838 -2790.001)" fill="#3c415e"/>
      <path id="Trazado_98647" data-name="Trazado 98647" d="M495.128,2883.776h2.342s3.658-19.464,3.219-26.927,1.2-19.409,1.2-19.409l-5.443-.055s-2.268,9.586-1.39,15.586S495.128,2883.776,495.128,2883.776Z" transform="translate(-469.472 -2806.754)" fill="#3366c2"/>
      <path id="Trazado_98648" data-name="Trazado 98648" d="M502.764,2883.81h2.342s1.756-8.342.878-14.781-1.025-11.561.292-16.537,2.634-11.122-1.171-15.22h-7.9s.219,13.1,2.561,21.732S502.764,2883.81,502.764,2883.81Z" transform="translate(-470.303 -2806.714)" fill="#3366c2"/>
      <path id="Trazado_98649" data-name="Trazado 98649" d="M492.918,2909.035l-4.376,3.161a.356.356,0,0,0,.209.645h6.02a.357.357,0,0,0,.356-.342l.133-3.463Z" transform="translate(-467.188 -2832.085)" fill="#738598"/>
      <path id="Trazado_98650" data-name="Trazado 98650" d="M504.034,2908.923l-3.871,2.8a.315.315,0,0,0,.184.57h5.325a.315.315,0,0,0,.315-.3l.118-3.063Z" transform="translate(-471.303 -2832.046)" fill="#738598"/>
      <path id="Trazado_98651" data-name="Trazado 98651" d="M488.639,2816.821s-1.9-1.024-2.487,2.489-1.317,6.439-1.317,6.439l-18.732.732s-1.537.8,4.976,1.61a86.925,86.925,0,0,0,15,.065,1.524,1.524,0,0,0,1.224-.788C488.444,2825.277,491.4,2819.225,488.639,2816.821Z" transform="translate(-459.251 -2799.434)" fill="#ffe1bd"/>
      <path id="Trazado_98652" data-name="Trazado 98652" d="M472.247,2826h0a.365.365,0,0,0-.366-.365H461.564l-5.246-9.074a.389.389,0,0,0-.482-.167h0a.389.389,0,0,0-.192.557l5.481,9.416h10.756A.366.366,0,0,0,472.247,2826Z" transform="translate(-455.591 -2799.324)" fill="#3c415e"/>
    </g>
    <g id="Grupo_53363" data-name="Grupo 53363" transform="translate(150.88 2737.495)">
      <g id="Grupo_53362" data-name="Grupo 53362" transform="translate(0 0)">
        <path id="Trazado_98653" data-name="Trazado 98653" d="M213.854,2855.215a6.738,6.738,0,0,1,.974,3.422c.016.118.027.381.041.65q.282-.886.554-1.778c.12-.394.235-.791.352-1.187-.195-.231-.427-.823-.867-1.393-.519-.674-.988-.809-.838-1.8.141-.936.885-1.747,1.63-.853a3.726,3.726,0,0,1,.424,2.894,17.5,17.5,0,0,1,1.449-3.523c-.257-3.4,2.86-6.977,5.779-8.24a1.427,1.427,0,0,1,.886-.156c.644.158.791,1.035.595,1.668a4.536,4.536,0,0,1-1.674,2.169c-.738.563-1.566,1-2.334,1.517a10.459,10.459,0,0,0-1.7,1.486.184.184,0,0,1-.019.04,12.646,12.646,0,0,0-1.742,3.383,10.018,10.018,0,0,1,1.655-1.582,5.458,5.458,0,0,1,3.274-1.267.6.6,0,0,1,.579.99,3.936,3.936,0,0,1-2.119,1.94c-1.174.447-2.482.471-3.674.869a.334.334,0,0,1-.019-.042c-.227.725-.428,1.461-.624,2.192a8.4,8.4,0,0,1,2.353-1.527,2.314,2.314,0,0,1,1.325-.157,1.089,1.089,0,0,1,.867.919,1.136,1.136,0,0,1-.253.731,3.547,3.547,0,0,1-2.228,1.067c-.824.174-1.657.389-2.489.528-.025.088-.05.175-.075.262q-.553,1.9-1.157,3.778a14.431,14.431,0,0,1,1.47-1.662,8.536,8.536,0,0,1,3.808-2.224,3.114,3.114,0,0,1,1.739-.009.669.669,0,0,1,.491.461.7.7,0,0,1-.07.375,3.284,3.284,0,0,1-1.772,1.577,24.446,24.446,0,0,1-3.665,1.047,7.144,7.144,0,0,0-2.137.856q-.636,1.945-1.354,3.859a15.1,15.1,0,0,1,3.023-3.024,3.522,3.522,0,0,1,3.248-.911,1.1,1.1,0,0,1,.432.27,1.169,1.169,0,0,1-.136,1.47,3.336,3.336,0,0,1-1.754,1.017c-.663.179-1.351.25-2.018.414a8.593,8.593,0,0,0-3.116,1.6q-.575,1.477-1.206,2.932a12.029,12.029,0,0,1,1.331-1.119,8.275,8.275,0,0,1,3.239-1.434,1.235,1.235,0,0,1,1.142.183,1.08,1.08,0,0,1,.167.993,2.863,2.863,0,0,1-1.68,1.976,5.636,5.636,0,0,1-1.71.312l-1.8.139a3.849,3.849,0,0,0-1.3.322q-.732,1.592-1.547,3.144a10.156,10.156,0,0,1,1.08-.98,5.5,5.5,0,0,1,2.987-1.233,1.387,1.387,0,0,1,1.059.283,1.079,1.079,0,0,1-.055,1.443,2.284,2.284,0,0,1-1.433.627,5.494,5.494,0,0,1-1.484-.01,4.323,4.323,0,0,0-1.054-.1,3.13,3.13,0,0,0-1.21.484l-.237.136c-.432.8-.879,1.615-1.35,2.412a5.55,5.55,0,0,1,2.813-.837c.579-.01,1.278.171,1.439.727a.881.881,0,0,1-.025.54,1.565,1.565,0,0,1-1.65.828c-.659-.056-1.28-.336-1.934-.441a9.421,9.421,0,0,0-1.2.1,26.57,26.57,0,0,1-2.581,3.519.323.323,0,0,1-.507-.4c.579-.947,1.171-1.88,1.759-2.816a28.141,28.141,0,0,1-2.146-2.107,1.31,1.31,0,0,1-.427-1.427,1.089,1.089,0,0,1,1.328-.456,2.121,2.121,0,0,1,1.083,1.042,7.364,7.364,0,0,1,.577,2.281c.6-.963,1.186-1.933,1.743-2.924a4.172,4.172,0,0,0-.52-.85c-.354-.4-.818-.689-1.164-1.1a1.34,1.34,0,0,1-.29-1.471,1.167,1.167,0,0,1,1.675-.183,2.567,2.567,0,0,1,.813,1.678c.03.2.081.481.107.778.043-.082.089-.163.131-.246q.347-.675.677-1.357a15.218,15.218,0,0,1-1.2-2.083,4.491,4.491,0,0,1-.871-1.859,1.306,1.306,0,0,1,1.069-1.5c.626-.012,1.086.594,1.3,1.184a7.54,7.54,0,0,1,.333,2.92q.677-1.464,1.3-2.954c-.5-1.1-2.1-1.951-2.372-3.294-.111-.541.03-1.465.735-1.585.554-.094,1.051.65,1.331,1.029a4.973,4.973,0,0,1,.837,2.552q.236-.59.466-1.183.295-.763.576-1.531a9.449,9.449,0,0,0-1.094-1.658c-.625-.731-1.456-1.39-1.108-2.493.318-1.009,1.569-2.137,2.251-.842a7.357,7.357,0,0,1,.571,3.27q.519-1.484,1-2.979a8.565,8.565,0,0,0-1.5-1.863c-.675-.565-1.872-1.014-1.663-2.042A1.262,1.262,0,0,1,213.854,2855.215Z" transform="translate(-175.67 -2821.939)" fill="#b9d4ef"/>
        <path id="Trazado_98654" data-name="Trazado 98654" d="M167.282,2862.023a6.742,6.742,0,0,1,3.515.547c.114.036.357.135.608.234q-.688-.627-1.383-1.246c-.308-.273-.62-.545-.932-.817-.292.08-.926.044-1.628.2-.829.189-1.148.56-1.988.008-.791-.52-1.217-1.534-.093-1.836a3.723,3.723,0,0,1,2.806.824,17.484,17.484,0,0,1-2.594-2.79c-3.2-1.187-5.142-5.515-5.068-8.695a1.425,1.425,0,0,1,.228-.871c.413-.518,1.271-.285,1.764.158a4.532,4.532,0,0,1,1.271,2.428c.2.906.251,1.839.4,2.755a10.442,10.442,0,0,0,.639,2.165.2.2,0,0,1,.028.035,12.644,12.644,0,0,0,2.345,3,10.085,10.085,0,0,1-.745-2.165,5.466,5.466,0,0,1,.218-3.5.756.756,0,0,1,.436-.471c.27-.069.528.144.7.36a3.935,3.935,0,0,1,.877,2.736c-.085,1.253-.61,2.451-.746,3.7a.37.37,0,0,1-.047,0c.564.51,1.148,1,1.731,1.483a8.4,8.4,0,0,1-.4-2.776,2.311,2.311,0,0,1,.411-1.269,1.09,1.09,0,0,1,1.2-.4,1.139,1.139,0,0,1,.559.536,3.551,3.551,0,0,1,.038,2.471c-.187.821-.34,1.668-.562,2.482l.207.178q1.49,1.294,2.947,2.63a14.481,14.481,0,0,1-.9-2.03,8.536,8.536,0,0,1-.428-4.389,3.111,3.111,0,0,1,.72-1.583.669.669,0,0,1,.624-.253.7.7,0,0,1,.312.221,3.285,3.285,0,0,1,.691,2.27,24.527,24.527,0,0,1-.58,3.766,7.135,7.135,0,0,0-.116,2.3q1.5,1.392,2.94,2.844a15.1,15.1,0,0,1-1.483-4.011,3.522,3.522,0,0,1,.53-3.332,1.1,1.1,0,0,1,.426-.28,1.171,1.171,0,0,1,1.279.738,3.342,3.342,0,0,1,.19,2.019c-.114.677-.338,1.332-.469,2.007a8.581,8.581,0,0,0,.154,3.5q1.1,1.141,2.159,2.323a11.881,11.881,0,0,1-.46-1.677,8.265,8.265,0,0,1,.052-3.542,1.236,1.236,0,0,1,.643-.961,1.08,1.08,0,0,1,.972.264,2.865,2.865,0,0,1,1.092,2.353,5.662,5.662,0,0,1-.432,1.685q-.314.846-.627,1.694a3.849,3.849,0,0,0-.252,1.317q1.14,1.332,2.209,2.72a10.23,10.23,0,0,1-.438-1.391,5.5,5.5,0,0,1,.129-3.229,1.389,1.389,0,0,1,.7-.844,1.079,1.079,0,0,1,1.288.653,2.281,2.281,0,0,1-.029,1.564,5.489,5.489,0,0,1-.63,1.344,4.354,4.354,0,0,0-.531.915,3.128,3.128,0,0,0-.066,1.3c.008.09.017.18.025.271.551.729,1.1,1.473,1.626,2.234a5.554,5.554,0,0,1,.416-2.906c.233-.53.69-1.089,1.262-1a.884.884,0,0,1,.48.249,1.563,1.563,0,0,1,.062,1.844c-.326.577-.841,1.023-1.21,1.573a9.674,9.674,0,0,0-.414,1.13,26.583,26.583,0,0,1,2.118,3.815.323.323,0,0,1-.574.294c-.618-.922-1.218-1.851-1.822-2.775a28.321,28.321,0,0,1-2.81,1.069,1.312,1.312,0,0,1-1.475-.21,1.088,1.088,0,0,1,.141-1.4,2.127,2.127,0,0,1,1.4-.549,7.361,7.361,0,0,1,2.314.429c-.624-.947-1.26-1.886-1.928-2.806a4.2,4.2,0,0,0-.989.117c-.51.154-.968.455-1.482.6a1.34,1.34,0,0,1-1.458-.352,1.167,1.167,0,0,1,.534-1.6,2.565,2.565,0,0,1,1.864-.036c.194.055.471.128.752.228-.056-.074-.111-.149-.168-.222-.312-.4-.63-.792-.95-1.183a15.1,15.1,0,0,1-2.393.216,4.483,4.483,0,0,1-2.052.014,1.306,1.306,0,0,1-.917-1.6,1.564,1.564,0,0,1,1.619-.689,7.54,7.54,0,0,1,2.793.919q-1.046-1.227-2.141-2.412c-1.209-.005-2.65,1.091-3.983.778-.539-.126-1.319-.641-1.133-1.33.145-.543,1.03-.683,1.491-.779a4.965,4.965,0,0,1,2.668.307q-.437-.462-.88-.918-.569-.587-1.149-1.164a9.486,9.486,0,0,0-1.964.3c-.926.262-1.872.741-2.728-.036-.783-.711-1.285-2.319.177-2.4a7.341,7.341,0,0,1,3.209.849q-1.131-1.092-2.289-2.153a8.581,8.581,0,0,0-2.318.581c-.8.376-1.7,1.276-2.55.657A1.263,1.263,0,0,1,167.282,2862.023Z" transform="translate(-160.524 -2823.376)" fill="#b9d4ef"/>
        <path id="Trazado_98655" data-name="Trazado 98655" d="M190.611,2827.658c1.56.627,2.836,2.766,3.2,4.713.145-.687.3-1.372.472-2.052.028-.112.058-.224.087-.337-.838-1.5-3.653-4.728-2.116-6.619,1.826.637,2.366,2.645,2.469,4.231.014.2.048.49.074.8.294-1.045.618-2.1.979-3.141a9.051,9.051,0,0,1-1.445-2.026c-.277-.55-1.241-3,.488-2.378.659.237,1.218,2.007,1.352,3.305q.412-1.1.889-2.17c.352-3.821-.4-8.841,3.467-11.161,3.936-2.363,2.528,3.873,1.685,5.429a21.549,21.549,0,0,1-4.526,6c-.308.784-.6,1.573-.864,2.376-.145.445-.282.892-.417,1.34,1.415-2.5,4.283-7.437,6.13-5.294,1.638,1.9-4.372,4.57-6.353,6.061-.385,1.344-.73,2.7-1.021,4.068-.076.355-.143.712-.211,1.068.657-1.05,1.1-2.542,2.088-3.357.872-.722,3.074-1.571,3.33-.14.365,2.037-2.537,2.782-3.922,3.39-1,.437-1.345.979-1.652.94q-.462,2.6-.67,5.237c.769-2.208,2.458-5.474,5.285-5.017.423,3.664-3.509,3.75-5.322,5.49a52.816,52.816,0,0,0-.111,5.395c0,.021,0,.043,0,.064.443-1.726.725-3.446,1.943-4.912,1.106-1.33,3.561-2.167,2.989.415-.418,1.882-2.159,2.783-3.546,3.974-.617.53-1.026,1.153-1.345,1.44a48.915,48.915,0,0,0,.546,5c.888-2.923,2.987-8.906,6.132-7.272.345,3.493-3.934,5.44-6.038,7.853.255,1.508.57,3.011.922,4.512a17.384,17.384,0,0,1,.914-3.748c.288-.921,2.222-3.8,3.632-2.13,1.39,1.649-1.742,3.766-2.668,4.529a5,5,0,0,0-1.625,2.405q.1.412.208.826c.362,1.421.739,2.854,1.078,4.294.251-2.619.139-7.433,3.641-7.1.373,1.971-.969,5.073-2.305,6.534-.435.476-.829.885-1.189,1.209.188.836.36,1.674.506,2.513.95-2.568,3.486-5.392,4.585-4.032,1.114,1.38-1.006,3.647-1.955,4.424a25.485,25.485,0,0,0-2.313,1.844,25.109,25.109,0,0,1,.152,3.011c-.01.719-1.155.663-1.2-.049a39.85,39.85,0,0,0-.465-4.132c-1.774-.68-5.344-.077-6.582-.775-1.722-.971-1.494-2.728.481-3.135,1.8-.369,4.365.963,5.879,2.651-.22-1.182-.478-2.359-.754-3.535-1.478-.965-3.612-.263-5.141-1.57-1.609-1.375-.576-3.391,1.508-2.744a7.834,7.834,0,0,1,3.2,2.53c-.206-.833-.416-1.667-.625-2.5q-.271-1.087-.511-2.174c-1.62-.675-4.751-.091-5.48-2.462-.511-1.661.981-3.115,2.57-1.954a12.488,12.488,0,0,1,2.559,2.727c-.264-1.359-.483-2.719-.648-4.084-1.82-1-5.442-.026-6.547-2.288-.9-1.845,1.494-2.7,3.058-1.976,1.538.714,2.521,2.3,3.429,3.746q-.169-1.528-.239-3.065c-1.416-1.037-4.086-1.455-4.918-3.382-.809-1.874.407-4.286,2.614-2.591a7.63,7.63,0,0,1,2.267,4q0-1.709.125-3.412a13.716,13.716,0,0,0-1.542-1.947c-.745-.767-1.769-1.457-1.851-2.577-.142-1.93,1.483-1.2,2.349-.06a7.425,7.425,0,0,1,1.18,3.034q.2-1.9.536-3.787C192.543,2832.1,188.258,2830.313,190.611,2827.658Z" transform="translate(-169.636 -2810.298)" fill="#b9d4ef"/>
      </g>
    </g>
    <g id="Grupo_53368" data-name="Grupo 53368" transform="translate(155.285 2777.125)">
      <g id="Grupo_53364" data-name="Grupo 53364" transform="translate(13.471 5.835)">
        <path id="Trazado_98656" data-name="Trazado 98656" d="M191.511,2901.374s-5.5-8.561-2.374-20.746c0,0,9,2,12,20.746Z" transform="translate(-188.176 -2880.627)" fill="#0991a1"/>
        <path id="Trazado_98657" data-name="Trazado 98657" d="M197.674,2905.338s-2.349-11.248-3.661-13.5c0,0,3.949,7.124,4.536,13.5Z" transform="translate(-190.24 -2884.592)" fill="#0991a1"/>
      </g>
      <g id="Grupo_53365" data-name="Grupo 53365" transform="translate(22.385 5.997)">
        <path id="Trazado_98658" data-name="Trazado 98658" d="M211.59,2901.624s5.5-8.561,2.374-20.746c0,0-9,2-12,20.746Z" transform="translate(-201.966 -2880.878)" fill="#0991a1"/>
        <path id="Trazado_98659" data-name="Trazado 98659" d="M210.034,2905.589s2.349-11.248,3.661-13.5c0,0-3.949,7.124-4.536,13.5Z" transform="translate(-204.509 -2884.843)" fill="#0991a1"/>
      </g>
      <g id="Grupo_53366" data-name="Grupo 53366" transform="translate(30.003)">
        <path id="Trazado_98660" data-name="Trazado 98660" d="M226.156,2898.344s7.089-11.036,3.061-26.743c0,0-11.6,2.578-15.466,26.743Z" transform="translate(-213.751 -2871.601)" fill="#11afb7"/>
        <path id="Trazado_98661" data-name="Trazado 98661" d="M224.149,2903.455s3.029-14.5,4.72-17.4c0,0-5.09,9.184-5.848,17.4Z" transform="translate(-217.029 -2876.712)" fill="#0991a1"/>
      </g>
      <g id="Grupo_53367" data-name="Grupo 53367">
        <path id="Trazado_98662" data-name="Trazado 98662" d="M171.638,2898.344s-7.089-11.036-3.061-26.743c0,0,11.6,2.578,15.466,26.743Z" transform="translate(-167.339 -2871.601)" fill="#11afb7"/>
        <path id="Trazado_98663" data-name="Trazado 98663" d="M179.581,2903.455s-3.028-14.5-4.72-17.4c0,0,5.09,9.184,5.848,17.4Z" transform="translate(-169.998 -2876.712)" fill="#0991a1"/>
      </g>
    </g>
    <path id="Trazado_98664" data-name="Trazado 98664" d="M408.4,2616.973l-3.08-.451a15.1,15.1,0,0,0,0,6.733l3.08-.451a12.229,12.229,0,0,0,1.439,3.472l-2.493,1.857a15.455,15.455,0,0,0,4.76,4.759l1.857-2.493a12.22,12.22,0,0,0,3.471,1.439l-.451,3.08a15.087,15.087,0,0,0,6.733,0l-.451-3.08a12.212,12.212,0,0,0,3.471-1.439l1.857,2.493a15.456,15.456,0,0,0,4.76-4.759l-2.493-1.857a12.212,12.212,0,0,0,1.439-3.472l3.08.451a15.1,15.1,0,0,0,0-6.733l-3.08.451a12.207,12.207,0,0,0-1.439-3.471l2.493-1.857a15.453,15.453,0,0,0-4.76-4.76l-1.857,2.493a12.233,12.233,0,0,0-3.471-1.439l.451-3.08a15.1,15.1,0,0,0-6.732,0l.451,3.08a12.235,12.235,0,0,0-3.471,1.439l-1.857-2.493a15.457,15.457,0,0,0-4.76,4.76l2.493,1.857A12.225,12.225,0,0,0,408.4,2616.973Zm3.771,2.915a8.179,8.179,0,1,1,8.179,8.179A8.179,8.179,0,0,1,412.167,2619.888Z" transform="translate(-96.056 -0.035)" fill="#738598" opacity="0.1"/>
    <g id="Grupo_53371" data-name="Grupo 53371" transform="translate(359.645 2652.456)" opacity="0.1">
      <g id="Grupo_53369" data-name="Grupo 53369">
        <path id="Trazado_98665" data-name="Trazado 98665" d="M485.464,2686.436a13.866,13.866,0,0,1,26.179,4.516h-3.437a10.466,10.466,0,0,0-20.158-1.933l1.933,1.933h-6.516v-6.515Z" transform="translate(-483.464 -2678.749)" fill="#738598"/>
      </g>
      <g id="Grupo_53370" data-name="Grupo 53370" transform="translate(0.638 15.548)">
        <path id="Trazado_98666" data-name="Trazado 98666" d="M498.222,2711.6a10.482,10.482,0,0,0,9.82-6.85L506.1,2702.8h6.516v6.516l-1.987-1.987a13.867,13.867,0,0,1-26.173-4.528h3.437A10.484,10.484,0,0,0,498.222,2711.6Z" transform="translate(-484.451 -2702.8)" fill="#738598"/>
      </g>
    </g>
    <g id="Grupo_53374" data-name="Grupo 53374" transform="translate(133.246 2647.835)" opacity="0.1">
      <g id="Grupo_53372" data-name="Grupo 53372" transform="translate(0 20.856)">
        <path id="Trazado_98667" data-name="Trazado 98667" d="M136.738,2725.138a14.318,14.318,0,0,0,1.383,3.328l-2.473,2.472,5.415,5.417,2.473-2.473a14.4,14.4,0,0,0,3.327,1.383v3.491h7.658v-3.491a14.358,14.358,0,0,0,3.328-1.383l2.473,2.473,5.415-5.417-2.472-2.472a14.345,14.345,0,0,0,1.383-3.328h3.491v-7.657h-3.491a14.364,14.364,0,0,0-1.383-3.328l2.472-2.472-5.415-5.416-2.473,2.473a14.313,14.313,0,0,0-3.328-1.382v-3.492h-7.658v3.492a14.35,14.35,0,0,0-3.327,1.382l-2.473-2.473-5.415,5.416,2.473,2.472a14.337,14.337,0,0,0-1.383,3.328h-3.492v7.657Zm7.14-3.828a6.814,6.814,0,1,1,6.814,6.815A6.822,6.822,0,0,1,143.878,2721.31Z" transform="translate(-133.246 -2703.864)" fill="#738598"/>
      </g>
      <g id="Grupo_53373" data-name="Grupo 53373" transform="translate(21.079 0)">
        <path id="Trazado_98668" data-name="Trazado 98668" d="M179.77,2694.423v-2.283a9.414,9.414,0,0,0,2.177-.906l1.617,1.617,3.543-3.541-1.617-1.617a9.4,9.4,0,0,0,.9-2.175h2.285v-5.01h-2.285a9.407,9.407,0,0,0-.9-2.177l1.617-1.617-3.543-3.541-1.617,1.616a9.431,9.431,0,0,0-2.177-.9V2671.6h-5.009v2.283a9.438,9.438,0,0,0-2.176.9l-1.617-1.616-3.543,3.541,1.617,1.618a9.411,9.411,0,0,0-.9,2.176h-2.284v5.01h2.284a9.426,9.426,0,0,0,.9,2.175l-1.617,1.617,3.543,3.541,1.615-1.617a9.454,9.454,0,0,0,2.177.906v2.283Zm-2.5-6.955a4.457,4.457,0,1,1,4.458-4.456A4.462,4.462,0,0,1,177.265,2687.468Z" transform="translate(-165.854 -2671.601)" fill="#738598"/>
      </g>
    </g>
  </g>
</svg>
