<svg xmlns="http://www.w3.org/2000/svg" width="256" height="285.166" viewBox="0 0 256 285.166">
  <g id="Grupo_53420" data-name="Grupo 53420" transform="translate(-650.45 -2596.583)">
    <ellipse id="Elipse_5464" data-name="Elipse 5464" cx="128" cy="13.786" rx="128" ry="13.786" transform="translate(650.45 2854.177)" opacity="0.15"/>
    <g id="Grupo_53407" data-name="Grupo 53407" transform="translate(775.609 2596.583)">
      <g id="Grupo_53405" data-name="Grupo 53405" transform="translate(0 18.582)">
        <g id="Grupo_53378" data-name="Grupo 53378" transform="translate(0 40.74)">
          <g id="Grupo_53377" data-name="Grupo 53377">
            <path id="Trazado_98669" data-name="Trazado 98669" d="M803.226,2669.456l-.045-.305-.033-.24-.056-.451c-.036-.3-.066-.582-.1-.868-.056-.571-.1-1.131-.141-1.691-.077-1.117-.121-2.226-.135-3.335a62.437,62.437,0,0,1,.267-6.661l13.187,1.255a49.1,49.1,0,0,0-.208,5.227c.011.874.045,1.749.1,2.611.03.43.065.858.106,1.275l.067.611.036.287.026.192Z" transform="translate(-802.715 -2655.905)" fill="none"/>
          </g>
          <path id="Trazado_98670" data-name="Trazado 98670" d="M809.845,2659.632l-1.324-.05c.031-.747.071-1.494.131-2.241l1.321.1C809.915,2658.173,809.875,2658.9,809.845,2659.632Z" transform="translate(-802.715 -2655.905)" fill-rule="evenodd"/>
          <path id="Trazado_98671" data-name="Trazado 98671" d="M809.837,2663.561l-1.324.044c-.026-.748-.033-1.5-.03-2.243l1.324.008C809.8,2662.1,809.811,2662.831,809.837,2663.561Z" transform="translate(-802.715 -2655.905)" fill-rule="evenodd"/>
          <path id="Trazado_98672" data-name="Trazado 98672" d="M810.115,2667.461l-1.316.152c-.087-.749-.15-1.5-.2-2.242l1.322-.087C809.97,2666.012,810.031,2666.739,810.115,2667.461Z" transform="translate(-802.715 -2655.905)" fill-rule="evenodd"/>
        </g>
        <g id="Grupo_53380" data-name="Grupo 53380" transform="translate(0.272 27.396)">
          <g id="Grupo_53379" data-name="Grupo 53379">
            <path id="Trazado_98673" data-name="Trazado 98673" d="M802.987,2655.905a54.531,54.531,0,0,1,1.051-6.691,45.426,45.426,0,0,1,2.007-6.653l12.345,4.8a36.8,36.8,0,0,0-2.216,9.795Z" transform="translate(-802.987 -2642.561)" fill="none"/>
          </g>
          <path id="Trazado_98674" data-name="Trazado 98674" d="M811.669,2648.018l-1.27-.376c.1-.363.224-.719.337-1.078s.241-.714.369-1.068l1.246.45c-.124.342-.249.683-.356,1.031S811.764,2647.667,811.669,2648.018Z" transform="translate(-802.987 -2642.561)" fill-rule="evenodd"/>
          <path id="Trazado_98675" data-name="Trazado 98675" d="M810.737,2651.823l-1.3-.256c.073-.368.144-.737.231-1.1s.161-.734.259-1.1l1.285.322c-.095.352-.168.709-.251,1.063S810.808,2651.466,810.737,2651.823Z" transform="translate(-802.987 -2642.561)" fill-rule="evenodd"/>
          <path id="Trazado_98676" data-name="Trazado 98676" d="M810.139,2655.688l-1.316-.148.138-1.115.163-1.112,1.308.207-.159,1.083Z" transform="translate(-802.987 -2642.561)" fill-rule="evenodd"/>
        </g>
        <g id="Grupo_53382" data-name="Grupo 53382" transform="translate(3.33 14.641)">
          <g id="Grupo_53381" data-name="Grupo 53381">
            <path id="Trazado_98677" data-name="Trazado 98677" d="M806.045,2642.561c.218-.548.433-1.1.68-1.638.121-.272.238-.544.363-.814l.393-.806c.244-.525.576-1.106.878-1.66.146-.279.334-.564.505-.844s.344-.561.537-.842l.6-.842c.1-.14.194-.279.31-.418l.34-.416.342-.414c.116-.137.224-.275.357-.41q.381-.405.771-.8c.065-.066.128-.133.2-.2l.213-.194.43-.384.434-.379c.146-.126.31-.242.466-.362.317-.236.628-.476.96-.7s.682-.426,1.026-.632l6.572,11.5a2.457,2.457,0,0,1-.241.147c-.081.053-.157.125-.241.181a1.351,1.351,0,0,0-.125.091c-.04.039-.081.077-.122.114s-.084.074-.126.11l-.065.053c-.022.021-.042.046-.063.068-.084.092-.17.182-.259.269a1.353,1.353,0,0,0-.13.153l-.13.16-.134.158c-.046.049-.087.122-.131.181-.087.124-.175.248-.266.37s-.171.277-.259.414-.18.268-.261.431l-.253.465c-.043.081-.086.146-.129.24l-.129.266-.26.531c-.083.18-.161.364-.242.546-.167.359-.311.736-.461,1.11Z" transform="translate(-806.045 -2629.806)" fill="none"/>
          </g>
          <path id="Trazado_98678" data-name="Trazado 98678" d="M817.031,2637.774l-.94-.934.2-.212.22-.2.443-.393a5.4,5.4,0,0,1,.465-.368l.478-.355.749,1.093-.424.316a4.666,4.666,0,0,0-.416.328l-.4.353-.2.176Z" transform="translate(-806.045 -2629.806)" fill="#0f0a3c" fill-rule="evenodd"/>
          <path id="Trazado_98679" data-name="Trazado 98679" d="M814.709,2640.829l-1.139-.677c.206-.325.4-.656.616-.976s.444-.632.679-.941l1.047.811c-.216.285-.418.582-.628.871S814.9,2640.526,814.709,2640.829Z" transform="translate(-806.045 -2629.806)" fill="#0f0a3c" fill-rule="evenodd"/>
          <path id="Trazado_98680" data-name="Trazado 98680" d="M812.984,2644.306l-1.222-.512.457-1.037c.154-.344.328-.68.492-1.021l1.184.592c-.156.328-.324.65-.471.981Z" transform="translate(-806.045 -2629.806)" fill-rule="evenodd"/>
        </g>
        <g id="Grupo_53384" data-name="Grupo 53384" transform="translate(13.13 12.313)">
          <g id="Grupo_53383" data-name="Grupo 53383">
            <path id="Trazado_98681" data-name="Trazado 98681" d="M815.845,2629.806a17.882,17.882,0,0,1,4.462-1.78c.381-.092.759-.16,1.14-.235.189-.033.382-.076.568-.1l.558-.066.559-.061c.187-.02.374-.039.552-.043q.54-.024,1.082-.038c.09,0,.182-.007.27-.006l.26.008.521.016c.345.015.7.019,1.029.057l1,.1.249.027.239.036.478.074c.316.052.643.1.949.158l.915.191.457.1c.15.034.294.074.441.111l.878.227-3.491,12.779-.562-.146c-.094-.024-.189-.051-.281-.073l-.271-.055-.541-.115c-.179-.037-.345-.054-.518-.084l-.257-.041-.129-.022-.121-.011-.483-.047a4.348,4.348,0,0,0-.456-.024l-.223-.009-.111-.006c-.037,0-.068,0-.1,0-.135.008-.27.012-.4.014a.934.934,0,0,0-.189.016l-.181.022-.181.016c-.061,0-.108.024-.163.033-.1.025-.218.037-.319.061a4.662,4.662,0,0,0-1.049.416Z" transform="translate(-815.845 -2627.478)" fill="none"/>
          </g>
          <path id="Trazado_98682" data-name="Trazado 98682" d="M827.617,2634.786l.2-1.311c.759.107,1.5.269,2.242.441l-.312,1.287C829.038,2635.04,828.33,2634.885,827.617,2634.786Z" transform="translate(-815.845 -2627.478)" fill="#0f0a3c" fill-rule="evenodd"/>
          <path id="Trazado_98683" data-name="Trazado 98683" d="M823.778,2634.627l-.116-1.32c.2-.027.39-.029.584-.037l.585-.02c.2-.013.388,0,.582.009l.581.02-.077,1.323-.537-.019c-.178,0-.358-.021-.536-.008l-.534.019A4.771,4.771,0,0,0,823.778,2634.627Z" transform="translate(-815.845 -2627.478)" fill="#0f0a3c" fill-rule="evenodd"/>
          <path id="Trazado_98684" data-name="Trazado 98684" d="M820.13,2635.57l-.556-1.2a4.751,4.751,0,0,1,.549-.234l.557-.214c.187-.066.38-.113.57-.17s.381-.115.574-.157l.3,1.29c-.173.037-.34.095-.51.141s-.341.091-.507.15l-.493.19A3.9,3.9,0,0,0,820.13,2635.57Z" transform="translate(-815.845 -2627.478)" fill="#0f0a3c" fill-rule="evenodd"/>
        </g>
        <g id="Grupo_53386" data-name="Grupo 53386" transform="translate(26.244 13.414)">
          <g id="Grupo_53385" data-name="Grupo 53385">
            <path id="Trazado_98685" data-name="Trazado 98685" d="M832.45,2628.579a50.175,50.175,0,0,1,6.449,2.288c2.02.862,3.944,1.793,5.82,2.756l-6.068,11.775c-1.653-.849-3.3-1.645-4.935-2.341a37.164,37.164,0,0,0-4.757-1.7Z" transform="translate(-828.959 -2628.579)" fill="none"/>
          </g>
          <path id="Trazado_98686" data-name="Trazado 98686" d="M838.716,2638.564l.567-1.2c.676.312,1.339.648,2,.98l-.6,1.182C840.034,2639.2,839.38,2638.871,838.716,2638.564Z" transform="translate(-828.959 -2628.579)" fill="#0f0a3c" fill-rule="evenodd"/>
          <path id="Trazado_98687" data-name="Trazado 98687" d="M835.116,2636.976l.5-1.229,1.035.429c.347.14.683.3,1.025.449l-.539,1.211c-.335-.146-.666-.3-1-.441Z" transform="translate(-828.959 -2628.579)" fill="#0f0a3c" fill-rule="evenodd"/>
          <path id="Trazado_98688" data-name="Trazado 98688" d="M831.435,2635.669l.383-1.268c.726.208,1.431.466,2.142.709l-.452,1.245C832.819,2636.12,832.134,2635.869,831.435,2635.669Z" transform="translate(-828.959 -2628.579)" fill="#0f0a3c" fill-rule="evenodd"/>
        </g>
        <g id="Grupo_53388" data-name="Grupo 53388" transform="translate(35.936 18.458)">
          <g id="Grupo_53387" data-name="Grupo 53387">
            <path id="Trazado_98689" data-name="Trazado 98689" d="M844.719,2633.623c3.744,1.933,7.285,4.006,10.761,6.123l-6.9,11.3c-3.3-2.011-6.616-3.946-9.925-5.653Z" transform="translate(-838.651 -2633.623)" fill="none"/>
          </g>
          <path id="Trazado_98690" data-name="Trazado 98690" d="M849.142,2644.209l.676-1.14.954.566.948.575-.687,1.133-.943-.572Z" transform="translate(-838.651 -2633.623)" fill="#0f0a3c" fill-rule="evenodd"/>
          <path id="Trazado_98691" data-name="Trazado 98691" d="M845.722,2642.228l.65-1.154c.649.359,1.285.735,1.927,1.1l-.665,1.145C847,2642.958,846.364,2642.583,845.722,2642.228Z" transform="translate(-838.651 -2633.623)" fill="#0f0a3c" fill-rule="evenodd"/>
          <path id="Trazado_98692" data-name="Trazado 98692" d="M842.267,2640.342l.616-1.172c.661.338,1.306.7,1.96,1.052l-.637,1.162C843.559,2641.037,842.919,2640.676,842.267,2640.342Z" transform="translate(-838.651 -2633.623)" fill="#0f0a3c" fill-rule="evenodd"/>
        </g>
        <g id="Grupo_53390" data-name="Grupo 53390" transform="translate(45.861 24.581)">
          <g id="Grupo_53389" data-name="Grupo 53389">
            <path id="Trazado_98693" data-name="Trazado 98693" d="M855.48,2639.746l2.509,1.522c.833.5,1.666,1,2.5,1.488s1.666.97,2.5,1.452,1.666.946,2.5,1.4l-6.37,11.614c-.912-.495-1.8-1-2.7-1.508s-1.774-1.02-2.647-1.538-1.747-1.036-2.616-1.557l-2.579-1.565Z" transform="translate(-848.576 -2639.746)" fill="none"/>
          </g>
          <path id="Trazado_98694" data-name="Trazado 98694" d="M859.372,2650.31l.658-1.15,1.915,1.081-.644,1.158Z" transform="translate(-848.576 -2639.746)" fill="#0f0a3c" fill-rule="evenodd"/>
          <path id="Trazado_98695" data-name="Trazado 98695" d="M855.942,2648.309l.677-1.139,1.9,1.116-.667,1.145Z" transform="translate(-848.576 -2639.746)" fill="#0f0a3c" fill-rule="evenodd"/>
          <path id="Trazado_98696" data-name="Trazado 98696" d="M852.555,2646.267l.69-1.131c.628.38,1.254.767,1.885,1.142l-.683,1.135C853.813,2647.036,853.186,2646.649,852.555,2646.267Z" transform="translate(-848.576 -2639.746)" fill="#0f0a3c" fill-rule="evenodd"/>
        </g>
        <g id="Grupo_53392" data-name="Grupo 53392" transform="translate(56.4 30.44)">
          <g id="Grupo_53391" data-name="Grupo 53391">
            <path id="Trazado_98697" data-name="Trazado 98697" d="M865.485,2645.6c1.663.911,3.326,1.789,4.972,2.58a52.327,52.327,0,0,0,4.838,2.07l-4.481,12.466a65.225,65.225,0,0,1-6.106-2.6c-1.93-.928-3.776-1.9-5.593-2.9Z" transform="translate(-859.115 -2645.605)" fill="none"/>
          </g>
          <path id="Trazado_98698" data-name="Trazado 98698" d="M870,2655.773l.526-1.216c.331.151.668.281,1,.421l.5.207.506.193-.473,1.238-.521-.2-.516-.213C870.685,2656.061,870.337,2655.927,870,2655.773Z" transform="translate(-859.115 -2645.605)" fill="#0f0a3c" fill-rule="evenodd"/>
          <path id="Trazado_98699" data-name="Trazado 98699" d="M866.387,2654.086l.589-1.187.982.483.989.465-.558,1.2-1.006-.473Z" transform="translate(-859.115 -2645.605)" fill="#0f0a3c" fill-rule="evenodd"/>
          <path id="Trazado_98700" data-name="Trazado 98700" d="M862.868,2652.258l.63-1.165c.647.341,1.289.693,1.94,1.025l-.61,1.177C864.17,2652.958,863.521,2652.6,862.868,2652.258Z" transform="translate(-859.115 -2645.605)" fill="#0f0a3c" fill-rule="evenodd"/>
        </g>
        <g id="Grupo_53394" data-name="Grupo 53394" transform="translate(68.099 35.09)">
          <g id="Grupo_53393" data-name="Grupo 53393">
            <path id="Trazado_98701" data-name="Trazado 98701" d="M875.295,2650.255c.77.265,1.537.524,2.24.694l.265.069.133.035.125.024.5.1a2.1,2.1,0,0,0,.237.04l.229.034.229.037c.073.009.137.01.206.017l.2.018a1.271,1.271,0,0,0,.2.014c.117,0,.233,0,.35.009s.192-.017.289-.018a.543.543,0,0,0,.07,0l.055-.011a.969.969,0,0,1,.11-.016,1.39,1.39,0,0,0,.491-.158l6.705,11.424c-.2.118-.4.234-.6.347s-.419.2-.63.3-.423.192-.636.285-.429.157-.644.233-.432.147-.649.216-.428.115-.644.17a12.674,12.674,0,0,1-1.276.262l-.627.089-.313.04c-.1.012-.2.016-.3.024-.4.025-.8.052-1.2.062s-.759-.01-1.138-.02c-.194,0-.367-.021-.547-.035l-.537-.046c-.178-.017-.361-.031-.534-.053l-.507-.073-.507-.077c-.169-.026-.34-.051-.5-.086l-.959-.2-.239-.051-.227-.057-.456-.116c-1.224-.3-2.34-.679-3.444-1.063Z" transform="translate(-870.814 -2650.255)" fill="none"/>
          </g>
          <path id="Trazado_98702" data-name="Trazado 98702" d="M881.744,2658.32l-.2-1.311a8.149,8.149,0,0,0,.976-.2c.16-.043.312-.1.468-.155l.233-.079c.075-.032.149-.068.223-.1l.534,1.213c-.089.04-.178.082-.268.12l-.276.095c-.185.061-.368.132-.555.184A9.773,9.773,0,0,1,881.744,2658.32Z" transform="translate(-870.814 -2650.255)" fill="#0f0a3c" fill-rule="evenodd"/>
          <path id="Trazado_98703" data-name="Trazado 98703" d="M877.654,2658.22l.215-1.307c.346.047.693.116,1.038.135l.519.046c.172.012.343.009.515.014l-.021,1.325c-.19-.006-.382,0-.572-.016l-.568-.05C878.4,2658.344,878.029,2658.272,877.654,2658.22Z" transform="translate(-870.814 -2650.255)" fill="#0f0a3c" fill-rule="evenodd"/>
          <path id="Trazado_98704" data-name="Trazado 98704" d="M873.76,2657.225l.417-1.258c.339.123.684.214,1.026.321s.688.192,1.032.281l-.321,1.286c-.363-.094-.728-.182-1.084-.3S874.111,2657.351,873.76,2657.225Z" transform="translate(-870.814 -2650.255)" fill="#0f0a3c" fill-rule="evenodd"/>
        </g>
        <g id="Grupo_53396" data-name="Grupo 53396" transform="translate(78.507 29.121)">
          <g id="Grupo_53395" data-name="Grupo 53395">
            <path id="Trazado_98705" data-name="Trazado 98705" d="M881.222,2651.144a1.86,1.86,0,0,0,.469-.432c.053-.078.112-.139.173-.223s.122-.192.189-.285a.394.394,0,0,0,.048-.08l.048-.088.1-.175.051-.086.026-.043.017-.036c.022-.047.045-.093.069-.139a2.864,2.864,0,0,0,.168-.425c.029-.1.04-.155.036-.137h0L895,2644.286a13.086,13.086,0,0,1,.816,5.841c-.026.247-.054.493-.086.739s-.079.474-.123.711-.1.455-.152.678-.111.443-.177.65a16,16,0,0,1-.906,2.346l-.262.528-.066.13-.066.119-.133.237-.268.472-.136.235c-.043.078-.091.157-.145.238q-.312.48-.635.955c-.228.319-.485.64-.733.955l-.191.236-.213.237-.432.467a12.272,12.272,0,0,1-.948.905c-.168.146-.326.3-.508.434s-.365.276-.55.411-.368.27-.561.4-.4.243-.6.361Z" transform="translate(-881.222 -2644.286)" fill="none"/>
          </g>
          <path id="Trazado_98706" data-name="Trazado 98706" d="M889.669,2649.721l-1.318-.135a5.558,5.558,0,0,0-.116-1.911l1.291-.3A6.852,6.852,0,0,1,889.669,2649.721Z" transform="translate(-881.222 -2644.286)" fill="#0f0a3c" fill-rule="evenodd"/>
          <path id="Trazado_98707" data-name="Trazado 98707" d="M888.275,2653.609l-1.144-.669a9.956,9.956,0,0,0,.874-1.84l1.252.432A11.23,11.23,0,0,1,888.275,2653.609Z" transform="translate(-881.222 -2644.286)" fill="#0f0a3c" fill-rule="evenodd"/>
          <path id="Trazado_98708" data-name="Trazado 98708" d="M885.606,2656.729l-.8-1.056.2-.145.184-.166c.122-.112.248-.219.368-.333l.341-.369c.056-.062.116-.12.169-.185l.155-.2,1.035.828-.178.227c-.061.075-.13.143-.194.215l-.395.425c-.141.134-.288.262-.432.392l-.217.194Z" transform="translate(-881.222 -2644.286)" fill="#0f0a3c" fill-rule="evenodd"/>
        </g>
        <g id="Grupo_53398" data-name="Grupo 53398" transform="translate(74.356 18.009)">
          <g id="Grupo_53397" data-name="Grupo 53397">
            <path id="Trazado_98709" data-name="Trazado 98709" d="M882.615,2649h0c.005,0-.01-.011-.009-.017s-.014-.025-.023-.041l-.012-.027a.33.33,0,0,1-.024-.033,2.584,2.584,0,0,0-.277-.36,6.48,6.48,0,0,0-.5-.5c-.206-.18-.436-.37-.7-.563a17.777,17.777,0,0,0-1.817-1.168c-.677-.386-1.415-.76-2.186-1.122l5.625-11.993c1.024.481,2.058,1,3.106,1.6a30.942,30.942,0,0,1,3.181,2.057c.536.4,1.076.836,1.613,1.313a19.755,19.755,0,0,1,1.6,1.607,15.8,15.8,0,0,1,1.518,2.008l.178.28.172.3c.113.2.225.392.333.612s.215.423.314.653.2.455.286.686Z" transform="translate(-877.071 -2633.174)" fill="none"/>
          </g>
          <path id="Trazado_98710" data-name="Trazado 98710" d="M882.861,2640.18l-.659,1.15c-.621-.356-1.258-.692-1.905-1.011l.586-1.188C881.551,2639.461,882.212,2639.808,882.861,2640.18Z" transform="translate(-877.071 -2633.174)" fill="#0f0a3c" fill-rule="evenodd"/>
          <path id="Trazado_98711" data-name="Trazado 98711" d="M886.193,2642.47l-.858,1.01a17.887,17.887,0,0,0-1.688-1.262l.733-1.1A19.384,19.384,0,0,1,886.193,2642.47Z" transform="translate(-877.071 -2633.174)" fill="#0f0a3c" fill-rule="evenodd"/>
          <path id="Trazado_98712" data-name="Trazado 98712" d="M888.842,2645.6l-1.166.629a8.514,8.514,0,0,0-1.167-1.622l.982-.889A9.832,9.832,0,0,1,888.842,2645.6Z" transform="translate(-877.071 -2633.174)" fill="#0f0a3c" fill-rule="evenodd"/>
        </g>
        <g id="Grupo_53400" data-name="Grupo 53400" transform="translate(63.938 13.518)">
          <g id="Grupo_53399" data-name="Grupo 53399">
            <path id="Trazado_98713" data-name="Trazado 98713" d="M877.071,2645.167c-1.546-.725-3.229-1.4-4.976-2.039s-3.566-1.255-5.442-1.883l4.2-12.562c1.887.632,3.832,1.285,5.807,2.011s3.985,1.521,6.033,2.48Z" transform="translate(-866.653 -2628.683)" fill="none"/>
          </g>
          <path id="Trazado_98714" data-name="Trazado 98714" d="M871.833,2635.511l-.431,1.252-2.086-.708.422-1.256Z" transform="translate(-866.653 -2628.683)" fill="#0f0a3c" fill-rule="evenodd"/>
          <path id="Trazado_98715" data-name="Trazado 98715" d="M875.576,2636.858l-.471,1.238q-1.023-.389-2.057-.756l.445-1.248Q874.537,2636.464,875.576,2636.858Z" transform="translate(-866.653 -2628.683)" fill="#0f0a3c" fill-rule="evenodd"/>
          <path id="Trazado_98716" data-name="Trazado 98716" d="M879.255,2638.367l-.541,1.209q-.993-.444-2.005-.852l.5-1.228Q878.237,2637.913,879.255,2638.367Z" transform="translate(-866.653 -2628.683)" fill="#0f0a3c" fill-rule="evenodd"/>
        </g>
        <g id="Grupo_53402" data-name="Grupo 53402" transform="translate(50.621 10.426)">
          <g id="Grupo_53401" data-name="Grupo 53401">
            <path id="Trazado_98717" data-name="Trazado 98717" d="M866.653,2641.245l-2.872-.968-.368-.128-.187-.064-.268-.1q-.535-.207-1.068-.424c-.355-.157-.711-.338-1.064-.513s-.7-.383-1.047-.591a16.613,16.613,0,0,1-3.795-3.158,17.11,17.11,0,0,1-2.648-4.041l11.975-5.665a3.863,3.863,0,0,0,.592.927,3.408,3.408,0,0,0,.769.626,5.319,5.319,0,0,0,.522.277c.107.037.212.077.316.122l.078.034.165.057.335.116,2.768.933Z" transform="translate(-853.336 -2625.591)" fill="none"/>
          </g>
          <path id="Trazado_98718" data-name="Trazado 98718" d="M861.368,2630.676l-.982.889c-.138-.144-.257-.306-.386-.458a5.368,5.368,0,0,1-.366-.475l-.341-.492c-.105-.169-.2-.341-.305-.512l1.15-.659c.09.151.177.3.269.455l.3.432a4.679,4.679,0,0,0,.321.417C861.143,2630.407,861.246,2630.55,861.368,2630.676Z" transform="translate(-853.336 -2625.591)" fill="#0f0a3c" fill-rule="evenodd"/>
          <path id="Trazado_98719" data-name="Trazado 98719" d="M864.394,2632.9l-.571,1.2-.533-.264c-.176-.092-.343-.2-.514-.3l-.256-.155-.127-.078-.122-.088-.484-.353.808-1.05.426.311.106.078.113.068.226.136c.151.089.3.187.454.269Z" transform="translate(-853.336 -2625.591)" fill="#0f0a3c" fill-rule="evenodd"/>
          <path id="Trazado_98720" data-name="Trazado 98720" d="M868.048,2634.234l-.421,1.256-2.1-.711.432-1.252Z" transform="translate(-853.336 -2625.591)" fill="#0f0a3c" fill-rule="evenodd"/>
        </g>
        <g id="Grupo_53404" data-name="Grupo 53404" transform="translate(48.622)">
          <g id="Grupo_53403" data-name="Grupo 53403">
            <path id="Trazado_98721" data-name="Trazado 98721" d="M853.336,2631.256a20,20,0,0,1-1.426-4.212,24.544,24.544,0,0,1-.537-4.045,28.788,28.788,0,0,1,.065-3.85c.05-.631.122-1.256.213-1.889q.033-.235.073-.477c.026-.159.053-.319.083-.484s.062-.332.095-.5l.057-.27.033-.152.05-.211,12.863,3.165.009-.04,0,.011-.007.029-.019.094-.043.23c-.015.079-.029.163-.043.249s-.027.17-.039.259c-.051.349-.093.709-.12,1.067a15.425,15.425,0,0,0-.038,2.1,8.857,8.857,0,0,0,.708,3.265Z" transform="translate(-851.336 -2615.165)" fill="none"/>
          </g>
          <path id="Trazado_98722" data-name="Trazado 98722" d="M858.5,2619.838l-1.321-.1q.087-1.141.28-2.272l1.305.226C858.641,2618.4,858.553,2619.118,858.5,2619.838Z" transform="translate(-851.336 -2615.165)" fill-rule="evenodd"/>
          <path id="Trazado_98723" data-name="Trazado 98723" d="M858.541,2623.709l-1.317.142a20.6,20.6,0,0,1-.119-2.3l1.325,0A19.338,19.338,0,0,0,858.541,2623.709Z" transform="translate(-851.336 -2615.165)" fill="#0f0a3c" fill-rule="evenodd"/>
          <path id="Trazado_98724" data-name="Trazado 98724" d="M859.4,2627.428l-1.236.475a16.039,16.039,0,0,1-.659-2.248l1.3-.275A14.841,14.841,0,0,0,859.4,2627.428Z" transform="translate(-851.336 -2615.165)" fill="#0f0a3c" fill-rule="evenodd"/>
        </g>
      </g>
      <g id="Grupo_53406" data-name="Grupo 53406" transform="translate(44.95)">
        <path id="Trazado_98725" data-name="Trazado 98725" d="M868.33,2613.574l-5.408,1.416-15.257-18.406Z" transform="translate(-847.665 -2596.583)" fill="#3366c2"/>
        <path id="Trazado_98726" data-name="Trazado 98726" d="M857.166,2621.7l5.756-6.709-15.257-18.406,10.388,19.545Z" transform="translate(-847.665 -2596.583)" fill="#2b588e"/>
        <path id="Trazado_98727" data-name="Trazado 98727" d="M849.394,2617.853l8.659-1.724-10.388-19.546Z" transform="translate(-847.665 -2596.583)" fill="#3366c2"/>
      </g>
    </g>
    <g id="Grupo_53408" data-name="Grupo 53408" transform="translate(706.734 2626.074)">
      <path id="Trazado_98728" data-name="Trazado 98728" d="M737.117,2907.131h105a14.2,14.2,0,0,0,14.194-14.194V2679.553a14.2,14.2,0,0,0-14.194-14.193h-105a14.2,14.2,0,0,0-14.2,14.193v213.38A14.2,14.2,0,0,0,737.117,2907.131Z" transform="translate(-722.924 -2665.36)" fill="#3c415e"/>
      <rect id="Rectángulo_5050" data-name="Rectángulo 5050" width="119.309" height="182.244" transform="translate(7.041 25.01)" fill="#faf9f9"/>
      <path id="Trazado_98729" data-name="Trazado 98729" d="M781.282,2682.033h16.674a4.168,4.168,0,1,0,0-8.337H781.282a4.168,4.168,0,0,0,0,8.337Z" transform="translate(-722.924 -2665.36)" fill="#faf9f9"/>
    </g>
    <g id="Grupo_53410" data-name="Grupo 53410" transform="translate(713.558 2697.291)">
      <circle id="Elipse_5465" data-name="Elipse 5465" cx="42.455" cy="42.455" r="42.455" transform="translate(0 60.041) rotate(-45)" fill="#ff0062"/>
      <g id="Grupo_53409" data-name="Grupo 53409" transform="translate(41.212 43.03)">
        <path id="Trazado_98730" data-name="Trazado 98730" d="M771.145,2798.489v-34.2h9.114v34.2Z" transform="translate(-771.145 -2764.287)" fill="#fff"/>
        <path id="Trazado_98731" data-name="Trazado 98731" d="M811.863,2780.163a9.366,9.366,0,0,1-2.694,3.48,12.188,12.188,0,0,1-4.263,2.155,19.966,19.966,0,0,1-5.635.735h-3.578v11.956H786.58v-34.2h10.829q7.986,0,11.687,2.72t3.7,8.5A11.168,11.168,0,0,1,811.863,2780.163Zm-8.648-7.056a3.716,3.716,0,0,0-1.249-1.4,5.3,5.3,0,0,0-1.838-.735,10.861,10.861,0,0,0-2.23-.221h-2.205v9.31h2.255a7.047,7.047,0,0,0,4.239-1.1,4.179,4.179,0,0,0,1.494-3.6A4.816,4.816,0,0,0,803.215,2773.107Z" transform="translate(-771.145 -2764.287)" fill="#fff"/>
      </g>
    </g>
    <g id="Grupo_53411" data-name="Grupo 53411" transform="translate(728.143 2746.997)">
      <path id="Trazado_98732" data-name="Trazado 98732" d="M781.14,2852.075s2.552,20.629,1.7,31.049-1.7,19.99-1.7,19.99h-4.253l-1.6-26.9-3.722-8.825-1.115,8.645a7.937,7.937,0,0,1-4.809,6.306l-19.17,8.016-1.913-3.4,16.3-11.33a2.863,2.863,0,0,0,1.223-2.177l1.192-19.668Z" transform="translate(-741.728 -2786.283)" fill="#738598"/>
      <path id="Trazado_98733" data-name="Trazado 98733" d="M792.558,2812.839l-3.19-3.828s-11.909,6.38-13.823,7.869-13.61,3.19-16.162,9.144-6.167,14.249-6.167,14.249l4.891,2.977,5.423-8.4-.425,18.927s9.357,5.954,17.863-1.7l.425-26.157Z" transform="translate(-741.728 -2786.283)" fill="#698cf2"/>
      <path id="Trazado_98734" data-name="Trazado 98734" d="M792.837,2812.733l3.19-3.828-4.466-16.375s.212-3.615-1.276-4.891-2.34-1.7-3.4-1.063,2.339,2.126,1.276,4.04c0,0-1.276-.638-1.489-1.276s-1.488-.212-.85.851a26.5,26.5,0,0,0,2.764,3.19l2.765,13.185-1.7,2.339Z" transform="translate(-741.728 -2786.283)" fill="#c69c6d"/>
      <path id="Trazado_98735" data-name="Trazado 98735" d="M758.386,2843.144l-9.783,13.61a3.062,3.062,0,0,1-2.339,1.7,3.434,3.434,0,0,0-2.765,2.552c-.425,1.064-1.7,1.7-1.276-1.489a4.94,4.94,0,0,1,4.041-4.465l7.23-14.887Z" transform="translate(-741.728 -2786.283)" fill="#c69c6d"/>
      <path id="Trazado_98736" data-name="Trazado 98736" d="M777.08,2831.268a3.613,3.613,0,0,0,3.544.183c2.167-1.038,4.982-2.688,4.982-4.257,0-2.552.213-5.1-3.615-7.018a16.206,16.206,0,0,1-8.294-10c-1.063-4.253-1.914-7.443-4.678-7.868s-7.869.425-8.082,4.891,1.064,15.737,3.19,19.565,3.19,9.144,6.806,8.081,2.126-2.765,2.977-3.4A2.831,2.831,0,0,1,777.08,2831.268Z" transform="translate(-741.728 -2786.283)" fill="#333"/>
      <path id="Trazado_98737" data-name="Trazado 98737" d="M781.14,2903.114l2.081,2.23a.57.57,0,0,1-.417.96h-5.346a.571.571,0,0,1-.571-.571v-2.619Z" transform="translate(-741.728 -2786.283)" fill="#333"/>
      <path id="Trazado_98738" data-name="Trazado 98738" d="M746.476,2890.354v2.626a.57.57,0,0,1-1.016.357l-3.607-4.508a.571.571,0,0,1,.234-.887l2.476-.99Z" transform="translate(-741.728 -2786.283)" fill="#333"/>
    </g>
    <g id="Grupo_53412" data-name="Grupo 53412" transform="translate(828.037 2761.607)">
      <path id="Trazado_98739" data-name="Trazado 98739" d="M898.688,2832.425l-14.437-1.347s-3.465-1.733-6.16,0-2.887,3.08-2.117,3.272,3.08-2.117,4.235-1.925c.453.076.521.389.436.742a.67.67,0,0,0,.8.825l2.417-.6,6.16,2.2,6.93.885Z" transform="translate(-863.305 -2800.893)" fill="#c69c6d"/>
      <path id="Trazado_98740" data-name="Trazado 98740" d="M898.71,2817.762s-7.048,10.717-3.968,17.647,4.62,5.582,4.62,5.582,8.085.193,9.817.193-.385-11.935-1.54-13.282S898.71,2817.762,898.71,2817.762Z" transform="translate(-863.305 -2800.893)" fill="#0991a1"/>
      <path id="Trazado_98741" data-name="Trazado 98741" d="M897.245,2816.159s-5.776.175-4.978-7.818a3.458,3.458,0,0,1,1.847-2.758,3.532,3.532,0,0,1,3.131-.011c3.079,1.347,4.812,2.887,4.619,5.2S897.245,2816.159,897.245,2816.159Z" transform="translate(-863.305 -2800.893)" fill="#c69c6d"/>
      <path id="Trazado_98742" data-name="Trazado 98742" d="M894.165,2806.919s-2.888-.192-.385-4.812c1.69-3.121,9.432.193,9.817,5.2s1.155,8.855,4.235,10.4,4.427,11.165,6.16,11.358-6.738,3.465-9.048,3.465.289-3.562-2.983-8.759-5.2-9.817-4.043-11.55c.377-.565.754-1.152,1.091-1.685a1.543,1.543,0,0,0-.98-2.336A15.859,15.859,0,0,1,894.165,2806.919Z" transform="translate(-863.305 -2800.893)" fill="#333"/>
      <path id="Trazado_98743" data-name="Trazado 98743" d="M897.052,2902.206h3.08s4.812-25.6,4.235-35.42,1.577-25.53,1.577-25.53l-7.16-.072s-2.983,12.609-1.828,20.5S897.052,2902.206,897.052,2902.206Z" transform="translate(-863.305 -2800.893)" fill="#3c415e"/>
      <path id="Trazado_98744" data-name="Trazado 98744" d="M906,2902.3h3.08s2.31-10.973,1.155-19.442-1.347-15.208.385-21.753,3.465-14.629-1.54-20.019h-10.4s.289,17.228,3.369,28.585S906,2902.3,906,2902.3Z" transform="translate(-863.305 -2800.893)" fill="#3c415e"/>
      <path id="Trazado_98745" data-name="Trazado 98745" d="M897.148,2902.109l-5.756,4.157a.468.468,0,0,0,.274.848h7.919a.468.468,0,0,0,.468-.45l.175-4.555Z" transform="translate(-863.305 -2800.893)" fill="#333"/>
      <path id="Trazado_98746" data-name="Trazado 98746" d="M906.359,2902.013l-5.092,3.678a.414.414,0,0,0,.242.75h7.005a.414.414,0,0,0,.414-.4l.155-4.029Z" transform="translate(-863.305 -2800.893)" fill="#333"/>
      <path id="Trazado_98747" data-name="Trazado 98747" d="M901.961,2823.763s-2.5-1.348-3.273,3.272-1.732,8.47-1.732,8.47l-24.64.963s-2.021,1.058,6.545,2.117c7.222.893,16.6.32,19.724.086a2.007,2.007,0,0,0,1.611-1.036C901.705,2834.886,905.6,2826.924,901.961,2823.763Z" transform="translate(-863.305 -2800.893)" fill="#c69c6d"/>
      <path id="Trazado_98748" data-name="Trazado 98748" d="M885.213,2835.986h0a.481.481,0,0,0-.481-.481H871.161l-6.9-11.936a.514.514,0,0,0-.634-.219h0a.512.512,0,0,0-.252.733l7.209,12.385h14.148A.481.481,0,0,0,885.213,2835.986Z" transform="translate(-863.305 -2800.893)" fill="#333"/>
    </g>
    <path id="Trazado_98749" data-name="Trazado 98749" d="M904.6,2726.492" transform="translate(-35.268 -15.73)" fill="#ff666a"/>
    <g id="Grupo_53414" data-name="Grupo 53414" transform="translate(781.661 2796.234)">
      <g id="Grupo_53413" data-name="Grupo 53413">
        <path id="Trazado_98750" data-name="Trazado 98750" d="M846.1,2871.751c.816.977.9,2.52,1.06,3.726.017.129.029.415.045.708q.308-.966.6-1.936c.13-.429.257-.861.384-1.293-.212-.252-.466-.9-.944-1.516-.565-.734-1.076-.881-.913-1.962.154-1.02.963-1.9,1.774-.929a4.053,4.053,0,0,1,.462,3.15,19.039,19.039,0,0,1,1.578-3.835c-.28-3.7,3.114-7.6,6.293-8.971a1.556,1.556,0,0,1,.964-.172c.7.173.861,1.128.647,1.817a4.93,4.93,0,0,1-1.822,2.362c-.8.613-1.7,1.086-2.542,1.652a11.4,11.4,0,0,0-1.85,1.618.257.257,0,0,1-.022.044,13.737,13.737,0,0,0-1.9,3.683,10.926,10.926,0,0,1,1.8-1.723,5.948,5.948,0,0,1,3.565-1.379.649.649,0,0,1,.63,1.078,4.288,4.288,0,0,1-2.308,2.113c-1.278.486-2.7.513-4,.946a.316.316,0,0,1-.021-.046c-.247.79-.466,1.591-.679,2.387a9.17,9.17,0,0,1,2.562-1.663,2.521,2.521,0,0,1,1.443-.171,1.185,1.185,0,0,1,.943,1,1.243,1.243,0,0,1-.275.8,3.859,3.859,0,0,1-2.427,1.162c-.9.189-1.8.423-2.711.575-.027.1-.053.191-.081.285q-.6,2.064-1.26,4.113a15.741,15.741,0,0,1,1.6-1.81,9.29,9.29,0,0,1,4.145-2.421,3.382,3.382,0,0,1,1.894-.009.727.727,0,0,1,.535.5.764.764,0,0,1-.077.409,3.579,3.579,0,0,1-1.93,1.716,26.718,26.718,0,0,1-3.989,1.141,7.761,7.761,0,0,0-2.327.932q-.693,2.116-1.474,4.2a16.367,16.367,0,0,1,3.291-3.293c1.009-.791,2.338-1.445,3.537-.993a1.2,1.2,0,0,1,.471.294,1.275,1.275,0,0,1-.148,1.6,3.639,3.639,0,0,1-1.91,1.106c-.722.2-1.472.273-2.2.451a9.34,9.34,0,0,0-3.393,1.746q-.625,1.608-1.313,3.193a12.926,12.926,0,0,1,1.449-1.218,9.026,9.026,0,0,1,3.527-1.562,1.349,1.349,0,0,1,1.243.2,1.178,1.178,0,0,1,.182,1.082,3.116,3.116,0,0,1-1.829,2.151,6.139,6.139,0,0,1-1.863.34l-1.962.151a4.185,4.185,0,0,0-1.416.351q-.8,1.734-1.685,3.423a11.2,11.2,0,0,1,1.176-1.067,5.99,5.99,0,0,1,3.253-1.342,1.507,1.507,0,0,1,1.153.308,1.175,1.175,0,0,1-.059,1.572,2.493,2.493,0,0,1-1.56.683,5.99,5.99,0,0,1-1.616-.012,4.791,4.791,0,0,0-1.147-.109,3.408,3.408,0,0,0-1.318.527l-.257.148c-.47.877-.956,1.758-1.47,2.626a6.05,6.05,0,0,1,3.064-.91c.63-.011,1.391.186,1.567.792a.966.966,0,0,1-.028.587,1.7,1.7,0,0,1-1.8.9c-.719-.06-1.394-.366-2.106-.48a10.447,10.447,0,0,0-1.3.1,29,29,0,0,1-2.81,3.832.351.351,0,0,1-.552-.434c.63-1.031,1.276-2.047,1.915-3.066a31.12,31.12,0,0,1-2.336-2.293,1.428,1.428,0,0,1-.465-1.554,1.184,1.184,0,0,1,1.445-.5,2.314,2.314,0,0,1,1.18,1.134,8.033,8.033,0,0,1,.629,2.484c.652-1.048,1.291-2.1,1.9-3.184a4.588,4.588,0,0,0-.566-.925c-.385-.434-.891-.75-1.267-1.193a1.459,1.459,0,0,1-.315-1.6,1.271,1.271,0,0,1,1.823-.2,2.792,2.792,0,0,1,.885,1.826c.033.217.088.524.117.848.047-.09.1-.178.143-.268.252-.49.5-.983.737-1.478a16.568,16.568,0,0,1-1.3-2.268,4.873,4.873,0,0,1-.948-2.024,1.421,1.421,0,0,1,1.163-1.635c.682-.013,1.183.647,1.418,1.288a8.2,8.2,0,0,1,.363,3.18q.737-1.593,1.411-3.216c-.545-1.2-2.286-2.124-2.583-3.585-.12-.591.033-1.6.8-1.727.6-.1,1.145.708,1.449,1.12a5.408,5.408,0,0,1,.912,2.779q.256-.643.508-1.288.321-.831.627-1.667a10.27,10.27,0,0,0-1.191-1.806c-.681-.8-1.586-1.513-1.207-2.714.347-1.1,1.709-2.327,2.451-.916a7.994,7.994,0,0,1,.622,3.56q.564-1.615,1.087-3.244a9.32,9.32,0,0,0-1.63-2.028c-.734-.616-2.038-1.1-1.811-2.223A1.374,1.374,0,0,1,846.1,2871.751Z" transform="translate(-804.527 -2835.52)" fill="#b9d4ef"/>
        <path id="Trazado_98751" data-name="Trazado 98751" d="M811.885,2877.6c1.228-.333,2.665.236,3.827.595.125.039.389.147.663.255q-.75-.683-1.507-1.357c-.335-.3-.675-.593-1.014-.889-.317.087-1.008.048-1.772.223-.9.206-1.25.609-2.164.008-.862-.565-1.325-1.67-.1-2a4.055,4.055,0,0,1,3.055.9,19.031,19.031,0,0,1-2.824-3.037c-3.48-1.293-5.6-6-5.518-9.467a1.556,1.556,0,0,1,.247-.948c.45-.564,1.384-.31,1.921.172a4.935,4.935,0,0,1,1.384,2.643c.22.987.273,2,.438,3a11.408,11.408,0,0,0,.7,2.357.193.193,0,0,1,.031.038,13.8,13.8,0,0,0,2.553,3.263,10.914,10.914,0,0,1-.811-2.358,5.947,5.947,0,0,1,.237-3.815.827.827,0,0,1,.476-.513c.294-.076.574.157.767.392a4.283,4.283,0,0,1,.954,2.979c-.092,1.364-.664,2.669-.812,4.029a.274.274,0,0,1-.051,0c.614.555,1.25,1.089,1.884,1.615a9.171,9.171,0,0,1-.439-3.022,2.52,2.52,0,0,1,.448-1.382,1.189,1.189,0,0,1,1.3-.439,1.245,1.245,0,0,1,.608.584,3.869,3.869,0,0,1,.041,2.69c-.2.893-.37,1.816-.612,2.7l.226.194q1.623,1.408,3.209,2.864a15.706,15.706,0,0,1-.975-2.211,9.291,9.291,0,0,1-.466-4.778,3.387,3.387,0,0,1,.784-1.724.728.728,0,0,1,.679-.276.763.763,0,0,1,.34.241,3.575,3.575,0,0,1,.752,2.471,26.7,26.7,0,0,1-.632,4.1,7.788,7.788,0,0,0-.127,2.5q1.635,1.514,3.2,3.1a16.388,16.388,0,0,1-1.615-4.367c-.3-1.247-.335-2.727.577-3.628a1.2,1.2,0,0,1,.464-.3,1.273,1.273,0,0,1,1.392.8,3.636,3.636,0,0,1,.207,2.2c-.125.738-.368,1.451-.51,2.185a9.339,9.339,0,0,0,.168,3.812q1.2,1.241,2.351,2.529a13.015,13.015,0,0,1-.5-1.827,9.02,9.02,0,0,1,.056-3.856,1.345,1.345,0,0,1,.7-1.046,1.175,1.175,0,0,1,1.058.287,3.118,3.118,0,0,1,1.19,2.561,6.144,6.144,0,0,1-.47,1.834l-.683,1.845a4.187,4.187,0,0,0-.274,1.434q1.242,1.449,2.4,2.961a11.077,11.077,0,0,1-.477-1.514,5.99,5.99,0,0,1,.14-3.516,1.513,1.513,0,0,1,.763-.919,1.176,1.176,0,0,1,1.4.711,2.489,2.489,0,0,1-.032,1.7,5.946,5.946,0,0,1-.687,1.463,4.783,4.783,0,0,0-.578,1,3.4,3.4,0,0,0-.072,1.418c.009.1.018.2.027.295.6.794,1.2,1.6,1.77,2.433a6.051,6.051,0,0,1,.454-3.163c.254-.577.751-1.186,1.375-1.092a.955.955,0,0,1,.522.271,1.7,1.7,0,0,1,.067,2.008c-.355.627-.915,1.113-1.316,1.712a10.443,10.443,0,0,0-.451,1.23,28.949,28.949,0,0,1,2.306,4.154.351.351,0,0,1-.625.32c-.673-1-1.326-2.015-1.984-3.022a30.761,30.761,0,0,1-3.06,1.164,1.427,1.427,0,0,1-1.606-.228,1.184,1.184,0,0,1,.153-1.52,2.315,2.315,0,0,1,1.524-.6,8.045,8.045,0,0,1,2.519.467c-.68-1.03-1.372-2.052-2.1-3.054a4.579,4.579,0,0,0-1.077.127c-.556.168-1.054.5-1.613.653a1.46,1.46,0,0,1-1.588-.384,1.271,1.271,0,0,1,.582-1.74,2.8,2.8,0,0,1,2.029-.04c.211.06.513.14.819.248-.062-.08-.121-.161-.184-.241-.339-.434-.685-.862-1.034-1.288a16.527,16.527,0,0,1-2.605.235,4.877,4.877,0,0,1-2.235.015,1.421,1.421,0,0,1-1-1.74,1.705,1.705,0,0,1,1.763-.75,8.217,8.217,0,0,1,3.041,1q-1.14-1.335-2.332-2.626c-1.317-.006-2.885,1.188-4.337.847-.587-.138-1.436-.7-1.234-1.449.159-.591,1.122-.744,1.624-.848a5.416,5.416,0,0,1,2.905.334q-.477-.5-.958-1-.621-.639-1.252-1.267a10.313,10.313,0,0,0-2.138.328c-1.008.285-2.038.807-2.97-.04-.853-.774-1.4-2.525.192-2.609a8.016,8.016,0,0,1,3.494.924q-1.23-1.188-2.492-2.344a9.328,9.328,0,0,0-2.523.632c-.867.41-1.856,1.39-2.777.716A1.374,1.374,0,0,1,811.885,2877.6Z" transform="translate(-804.527 -2835.52)" fill="#b9d4ef"/>
        <path id="Trazado_98752" data-name="Trazado 98752" d="M827.364,2854.422c1.7.683,3.088,3.011,3.484,5.131.159-.748.326-1.494.514-2.234.031-.121.063-.244.095-.366-.914-1.635-3.978-5.148-2.3-7.208,1.987.694,2.576,2.881,2.689,4.607.014.219.052.533.08.875.32-1.138.673-2.284,1.065-3.42a9.891,9.891,0,0,1-1.573-2.206c-.3-.6-1.35-3.265.532-2.59.718.258,1.326,2.185,1.471,3.6q.45-1.2.969-2.362c.383-4.16-.437-9.626,3.775-12.153,4.285-2.572,2.753,4.217,1.835,5.911-.79,1.458-2.726,4.774-4.928,6.529-.335.854-.657,1.713-.941,2.587-.158.484-.307.971-.454,1.459,1.541-2.72,4.663-8.1,6.674-5.764,1.784,2.069-4.76,4.976-6.916,6.6-.419,1.464-.8,2.941-1.112,4.429-.083.387-.156.775-.231,1.163.717-1.144,1.2-2.768,2.274-3.655.95-.786,3.347-1.71,3.626-.153.4,2.217-2.763,3.03-4.271,3.692-1.083.475-1.464,1.065-1.8,1.023q-.5,2.829-.73,5.7c.838-2.4,2.676-5.96,5.755-5.463.461,3.989-3.821,4.082-5.795,5.978a57.781,57.781,0,0,0-.121,5.874l0,.069c.483-1.879.789-3.752,2.116-5.348,1.205-1.448,3.877-2.36,3.254.452-.454,2.05-2.35,3.03-3.861,4.327-.672.577-1.117,1.255-1.464,1.568a53.183,53.183,0,0,0,.594,5.444c.967-3.183,3.253-9.7,6.677-7.918.375,3.8-4.283,5.923-6.574,8.55.278,1.642.62,3.279,1,4.914a18.9,18.9,0,0,1,.995-4.082c.314-1,2.42-4.14,3.955-2.319,1.514,1.8-1.9,4.1-2.9,4.931a5.45,5.45,0,0,0-1.769,2.619q.111.449.226.9c.394,1.547.8,3.107,1.173,4.675.273-2.851.151-8.093,3.965-7.735.406,2.146-1.055,5.524-2.51,7.115-.473.518-.9.963-1.295,1.317.206.91.392,1.822.551,2.736,1.034-2.8,3.8-5.871,4.992-4.39,1.214,1.5-1.094,3.971-2.128,4.817a27.8,27.8,0,0,0-2.518,2.007,27.266,27.266,0,0,1,.165,3.279c-.011.783-1.258.723-1.3-.053a43.3,43.3,0,0,0-.505-4.5c-1.932-.739-5.819-.083-7.166-.843-1.875-1.057-1.627-2.971.523-3.413,1.956-.4,4.753,1.048,6.4,2.886-.241-1.287-.52-2.568-.821-3.849-1.61-1.05-3.933-.286-5.6-1.709-1.752-1.5-.627-3.692,1.642-2.988a8.539,8.539,0,0,1,3.486,2.754c-.224-.907-.453-1.815-.681-2.726q-.3-1.184-.556-2.367c-1.764-.735-5.173-.1-5.967-2.68-.556-1.809,1.069-3.392,2.8-2.128a13.629,13.629,0,0,1,2.787,2.969c-.287-1.479-.526-2.96-.706-4.446-1.981-1.088-5.924-.029-7.129-2.492-.982-2.009,1.627-2.943,3.331-2.152,1.674.778,2.744,2.5,3.734,4.078q-.185-1.663-.261-3.337c-1.541-1.129-4.449-1.584-5.354-3.681-.881-2.041.443-4.667,2.846-2.821a8.314,8.314,0,0,1,2.468,4.355q0-1.86.137-3.714a14.863,14.863,0,0,0-1.68-2.119c-.811-.836-1.926-1.587-2.015-2.807-.155-2.1,1.614-1.3,2.556-.066a8.083,8.083,0,0,1,1.286,3.3q.215-2.073.583-4.123C829.468,2859.257,824.8,2857.313,827.364,2854.422Z" transform="translate(-804.527 -2835.52)" fill="#b9d4ef"/>
      </g>
    </g>
    <g id="Grupo_53419" data-name="Grupo 53419" transform="translate(786.017 2839.383)">
      <g id="Grupo_53415" data-name="Grupo 53415" transform="translate(14.667 6.353)">
        <path id="Trazado_98753" data-name="Trazado 98753" d="M827.621,2907.611s-5.987-9.321-2.585-22.589c0,0,9.8,2.177,13.063,22.589Z" transform="translate(-823.99 -2885.022)" fill="#0991a1"/>
        <path id="Trazado_98754" data-name="Trazado 98754" d="M832.084,2907.611s-2.558-12.247-3.986-14.7c0,0,4.3,7.756,4.939,14.7Z" transform="translate(-823.99 -2885.022)" fill="#0991a1"/>
      </g>
      <g id="Grupo_53416" data-name="Grupo 53416" transform="translate(24.373 6.53)">
        <path id="Trazado_98755" data-name="Trazado 98755" d="M844.175,2907.788s5.987-9.322,2.585-22.589c0,0-9.8,2.177-13.064,22.589Z" transform="translate(-833.696 -2885.199)" fill="#0991a1"/>
        <path id="Trazado_98756" data-name="Trazado 98756" d="M839.711,2907.788s2.558-12.247,3.987-14.7c0,0-4.3,7.757-4.939,14.7Z" transform="translate(-833.696 -2885.199)" fill="#0991a1"/>
      </g>
      <g id="Grupo_53417" data-name="Grupo 53417" transform="translate(32.668)">
        <path id="Trazado_98757" data-name="Trazado 98757" d="M855.5,2907.788s7.718-12.016,3.333-29.119c0,0-12.63,2.807-16.84,29.119Z" transform="translate(-841.991 -2878.669)" fill="#11afb7"/>
        <path id="Trazado_98758" data-name="Trazado 98758" d="M849.745,2907.788s3.3-15.788,5.139-18.945c0,0-5.542,10-6.367,18.945Z" transform="translate(-841.991 -2878.669)" fill="#0991a1"/>
      </g>
      <g id="Grupo_53418" data-name="Grupo 53418">
        <path id="Trazado_98759" data-name="Trazado 98759" d="M814,2907.788s-7.718-12.016-3.333-29.119c0,0,12.63,2.807,16.84,29.119Z" transform="translate(-809.323 -2878.669)" fill="#11afb7"/>
        <path id="Trazado_98760" data-name="Trazado 98760" d="M819.757,2907.788s-3.3-15.788-5.139-18.945c0,0,5.542,10,6.367,18.945Z" transform="translate(-809.323 -2878.669)" fill="#0991a1"/>
      </g>
    </g>
  </g>
</svg>
