<svg xmlns="http://www.w3.org/2000/svg" width="81.508" height="81.508" viewBox="0 0 81.508 81.508">
  <g id="Grupo_54323" data-name="Grupo 54323" transform="translate(-826 -4179)">
    <g id="Grupo_54224" data-name="Grupo 54224" transform="translate(551 2789.234)">
      <g id="Grupo_53840" data-name="Grupo 53840" transform="translate(-2810.658 2535.223)">
        <path id="Trazado_99475" data-name="Trazado 99475" d="M40.754,0A40.754,40.754,0,1,1,0,40.754,40.754,40.754,0,0,1,40.754,0Z" transform="translate(3085.658 -1145.457)" fill="#ff0062"/>
      </g>
    </g>
    <path id="Trazado_99483" data-name="Trazado 99483" d="M476.675,753.818H438.9a3.371,3.371,0,0,0-3.366,3.367v34.458a3.37,3.37,0,0,0,3.366,3.366h37.779a3.371,3.371,0,0,0,3.367-3.366V757.185A3.372,3.372,0,0,0,476.675,753.818Zm-37.779,2h37.779a1.369,1.369,0,0,1,1.367,1.367v1.24H437.53v-1.24A1.368,1.368,0,0,1,438.9,755.818Zm-1.366,23.731c1.735-.1,10.652-.105,20.846-.065l-.022.122h17.513l-.005-.023,2.18.016v7.834H437.53Zm14.021-4.95-.481.2,1.116,2.66c-2.408-.008-4.447-.013-6.175-.014l.969-2.694-.426-.153Zm-9.33-2v-6.977h13.968V772.6Zm24.889-2.079a2.78,2.78,0,1,1,2.78-2.78A2.783,2.783,0,0,1,467.11,770.52Zm6.232,7.046c-3.332-.022-7.786-.05-12.431-.071a6.674,6.674,0,0,1,12.431.071Zm2.112.014a8.669,8.669,0,0,0-5.688-5.87,4.779,4.779,0,1,0-5.312,0,8.666,8.666,0,0,0-5.657,5.776l-.691,0-4.549-.018.68-.285-1.083-2.581h5.035V763.622H440.221V774.6h4.689l-.946,2.63.608.218c-3.9.007-5.947.048-7.042.155V760.425h40.512V777.6Zm1.221,15.429H438.9a1.368,1.368,0,0,1-1.366-1.366v-2.21h40.512v2.21A1.369,1.369,0,0,1,476.675,793.009Z" transform="translate(408.471 3445.182)" fill="#fff"/>
  </g>
</svg>
