<svg xmlns="http://www.w3.org/2000/svg" width="81.508" height="81.508" viewBox="0 0 81.508 81.508">
  <g id="Grupo_54322" data-name="Grupo 54322" transform="translate(-458 -4179.249)">
    <g id="Grupo_54225" data-name="Grupo 54225" transform="translate(-178.436 2789.483)">
      <path id="Trazado_99476" data-name="Trazado 99476" d="M40.754,0A40.754,40.754,0,1,1,0,40.754,40.754,40.754,0,0,1,40.754,0Z" transform="translate(636.436 1389.766)" fill="#ff0062"/>
    </g>
    <g id="Grupo_54228" data-name="Grupo 54228" transform="translate(472.289 4206.465)">
      <g id="Grupo_54014" data-name="Grupo 54014" transform="translate(7.715 2.342)">
        <g id="Grupo_54013" data-name="Grupo 54013">
          <path id="Trazado_101566" data-name="Trazado 101566" d="M6566.721,3533.092c-1.04-2.165-4.754-5.17-8.344-8.077-2-1.619-3.9-3.146-5.1-4.355a1.1,1.1,0,0,0-1.152-.256c-.745.268-1.2.475-1.565.636a3.618,3.618,0,0,1-1.479.4,1.1,1.1,0,0,0-.807.485c-1.561,2.332-3.174,2.133-4.253,1.77-.343-.114-.4-.261-.44-.4-.228-.968.934-3.224,2.438-4.73,3.585-3.585,5.432-4.484,9.337-2.737,4.43,1.978,8.863,3.53,8.908,3.545a1.1,1.1,0,0,0,.729-2.084c-.047-.014-4.394-1.535-8.734-3.477-5.055-2.261-7.83-.774-11.8,3.193-1.509,1.508-3.556,4.561-3.026,6.8a2.725,2.725,0,0,0,1.892,1.986,5.512,5.512,0,0,0,6.477-2.215,5.594,5.594,0,0,0,1.66-.527c.2-.093.449-.2.77-.331,1.264,1.186,2.964,2.564,4.756,4.011,3.243,2.623,6.92,5.6,7.748,7.316a1.292,1.292,0,0,1-.329,1.658,1.219,1.219,0,0,1-1.359.266,1.1,1.1,0,0,0-1.722,1.023,1.328,1.328,0,0,1-.844,1.243,1.7,1.7,0,0,1-1.72.042,1.11,1.11,0,0,0-1.144-.226,1.1,1.1,0,0,0-.705.928,2.1,2.1,0,0,1-1.3,1.69,1.17,1.17,0,0,1-1.267-.2,1.111,1.111,0,0,0-1.006-.256,1.1,1.1,0,0,0-.776.7c-.041.11-.136.375-1.168.375a6.325,6.325,0,0,1-2.7-.926c-.777-.51-5.632-4.129-9.823-7.641-.589-.5-1.607-1.559-2.508-2.5-.8-.835-1.527-1.592-1.9-1.909a1.1,1.1,0,0,0-1.425,1.685c.341.29,1,.987,1.732,1.749.983,1.028,2,2.092,2.685,2.665,4.106,3.438,9.044,7.149,10.025,7.8a8.47,8.47,0,0,0,3.915,1.282,3.791,3.791,0,0,0,2.5-.735,3.441,3.441,0,0,0,2.508-.025,4.357,4.357,0,0,0,2.294-2.121,4.248,4.248,0,0,0,2.767-.4,3.737,3.737,0,0,0,1.844-1.923,3.6,3.6,0,0,0,2.529-.905A3.508,3.508,0,0,0,6566.721,3533.092Z" transform="translate(-6532.646 -3512.753)" fill="#fff"/>
        </g>
      </g>
      <g id="Grupo_54016" data-name="Grupo 54016" transform="translate(11.027 4.409)">
        <g id="Grupo_54015" data-name="Grupo 54015">
          <path id="Trazado_101567" data-name="Trazado 101567" d="M6545.024,3513.6H6535.1a1.1,1.1,0,0,0,0,2.208h9.923a1.1,1.1,0,1,0,0-2.208Z" transform="translate(-6533.998 -3513.597)" fill="#fff"/>
        </g>
      </g>
      <g id="Grupo_54018" data-name="Grupo 54018" transform="translate(39.78 19.845)">
        <g id="Grupo_54017" data-name="Grupo 54017">
          <path id="Trazado_101568" data-name="Trazado 101568" d="M6550.98,3520.389a1.1,1.1,0,0,0-1.53-.3l-3.226,2.164a1.1,1.1,0,0,0,.619,2.018,1.075,1.075,0,0,0,.613-.188l3.223-2.165A1.1,1.1,0,0,0,6550.98,3520.389Z" transform="translate(-6545.738 -3519.901)" fill="#fff"/>
        </g>
      </g>
      <g id="Grupo_54020" data-name="Grupo 54020" transform="translate(29.774 18.743)">
        <g id="Grupo_54019" data-name="Grupo 54019">
          <path id="Trazado_101569" data-name="Trazado 101569" d="M6550.059,3526.3c-.791-.622-4.324-4.237-6.506-6.511a1.1,1.1,0,1,0-1.592,1.523c.566.592,5.565,5.8,6.727,6.721a1.1,1.1,0,0,0,.682.236,1.1,1.1,0,0,0,.689-1.969Z" transform="translate(-6541.653 -3519.45)" fill="#fff"/>
        </g>
      </g>
      <g id="Grupo_54022" data-name="Grupo 54022" transform="translate(26.466 22.053)">
        <g id="Grupo_54021" data-name="Grupo 54021">
          <path id="Trazado_101570" data-name="Trazado 101570" d="M6547.606,3526.558c-1.319-1.056-4.64-4.582-5.391-5.4a1.1,1.1,0,1,0-1.624,1.49c.04.042,4,4.321,5.636,5.629a1.1,1.1,0,0,0,1.551-.172A1.1,1.1,0,0,0,6547.606,3526.558Z" transform="translate(-6540.301 -3520.802)" fill="#fff"/>
        </g>
      </g>
      <g id="Grupo_54024" data-name="Grupo 54024" transform="translate(22.054 24.257)">
        <g id="Grupo_54023" data-name="Grupo 54023">
          <path id="Trazado_101571" data-name="Trazado 101571" d="M6545.827,3527.474c-1.572-1.324-4.789-4.751-5.419-5.421a1.1,1.1,0,1,0-1.61,1.506c.9.968,3.983,4.232,5.607,5.6a1.1,1.1,0,1,0,1.422-1.687Z" transform="translate(-6538.501 -3521.702)" fill="#fff"/>
        </g>
      </g>
      <g id="Grupo_54026" data-name="Grupo 54026">
        <g id="Grupo_54025" data-name="Grupo 54025">
          <path id="Trazado_101572" data-name="Trazado 101572" d="M6542.383,3514.3c-1.891-1.79-9.447-2.371-11.719-2.5a1.1,1.1,0,0,0-1.171,1.1v19.848a1.105,1.105,0,0,0,1.1,1.1h6.616a1.1,1.1,0,0,0,1.049-.761c.161-.495,3.96-12.156,4.462-17.889A1.106,1.106,0,0,0,6542.383,3514.3Zm-5.977,17.34H6531.7V3514.08c3.542.28,7.367.89,8.758,1.565C6539.874,3520.475,6537.227,3529.055,6536.407,3531.644Z" transform="translate(-6529.494 -3511.797)" fill="#fff"/>
        </g>
      </g>
      <g id="Grupo_54028" data-name="Grupo 54028" transform="translate(37.531 2.205)">
        <g id="Grupo_54027" data-name="Grupo 54027">
          <path id="Trazado_101573" data-name="Trazado 101573" d="M6559.116,3512.7c-8.658,0-13.462,2.216-13.662,2.309a1.085,1.085,0,0,0-.589.687,1.1,1.1,0,0,0,.12.893c1.363,2.194,5.631,14.383,6.45,17.356a1.1,1.1,0,0,0,1.063.807h6.617a1.1,1.1,0,0,0,1.1-1.1V3513.8A1.1,1.1,0,0,0,6559.116,3512.7Zm-1.1,19.849h-4.69c-1.044-3.407-4.13-12.285-5.855-15.956a35.97,35.97,0,0,1,10.546-1.675Z" transform="translate(-6544.82 -3512.697)" fill="#fff"/>
        </g>
      </g>
    </g>
  </g>
</svg>
