<svg xmlns="http://www.w3.org/2000/svg" width="81.508" height="81.509" viewBox="0 0 81.508 81.509">
  <g id="Grupo_54472" data-name="Grupo 54472" transform="translate(-228 -10345.573)">
    <g id="Grupo_54344" data-name="Grupo 54344" transform="translate(-408.436 8955.808)">
      <path id="Trazado_99476" data-name="Trazado 99476" d="M40.754,0A40.754,40.754,0,1,1,0,40.754,40.754,40.754,0,0,1,40.754,0Z" transform="translate(636.436 1389.766)" fill="#ff0062"/>
    </g>
    <g id="Grupo_54373" data-name="Grupo 54373" transform="translate(-818.24 9618.185)">
      <path id="Trazado_101959" data-name="Trazado 101959" d="M1104.162,768.952v-3.395l-5.225-1.348a8.191,8.191,0,0,0-1.542-5.455,11.838,11.838,0,0,0-8.886-5.093v-2.674h12.735l-4.886-4.887,4.919-4.92h-14.617v12.428c-.221,0-.435,0-.663.018-8.664.557-10.19,8.115-10.456,10.509l-4.6,1.155v3.661h-7.729v21.5h19.918V788.6h-10.341v-2.114h29V788.6h-10.276v1.848h20.442v-21.5Zm-15.654-25.923h8.306l-3.072,3.071,3.038,3.039h-8.273Zm-2.394,12.443c5.934-.381,8.79,2.888,9.745,4.312a6.685,6.685,0,0,1,1.28,3.96l-9.881-2.551-9.8,2.461C1077.839,761.2,1079.429,755.9,1086.114,755.472Zm-13.326,11.26,14.465-3.631,15.06,3.888v1.963h-29.525Zm-1.848,17.906h-2.081v-2.114h2.081Zm-3.93-3.962v5.811h3.93V788.6h-5.88V770.8h9.614v13.837h-1.885v-3.962Zm9.512,3.962V770.8h2.147v13.837Zm4,0V770.8h4.242v13.837Zm6.091,0V770.8h2.213v13.837Zm4.061,0V770.8h4.309v13.837Zm6.157-13.576h2.08v13.576h-2.08Zm13.28,17.538h-6.47v-2.114h4.323v-5.811h-6.171v3.962h-1.033V770.8h9.351Zm-6.47-3.962v-2.114h2.474v2.114Z" transform="translate(0)" fill="#fff"/>
      <path id="Trazado_101960" data-name="Trazado 101960" d="M1073.1,775.905h-5.778v6.106h5.778Zm-1.848,4.258h-2.081v-2.409h2.081Z" transform="translate(-0.311 -2.631)" fill="#fff"/>
      <path id="Trazado_101961" data-name="Trazado 101961" d="M1110.871,775.905h-5.778v6.106h5.778Zm-1.848,4.258h-2.081v-2.409h2.081Z" transform="translate(-3.173 -2.631)" fill="#fff"/>
    </g>
  </g>
</svg>
