<svg xmlns="http://www.w3.org/2000/svg" width="139.999" height="120.647" viewBox="0 0 139.999 120.647">
  <g id="Grupo_54246" data-name="Grupo 54246" transform="translate(-1360.833 -1291.746)">
    <path id="Trazado_101950" data-name="Trazado 101950" d="M1406.2,1349.306A22.992,22.992,0,1,0,1429.2,1372.3,23.018,23.018,0,0,0,1406.2,1349.306Zm0,41.721a18.728,18.728,0,1,1,18.729-18.729A18.75,18.75,0,0,1,1406.2,1391.027Z" transform="translate(-1.477 -3.799)" fill="#ff0062"/>
    <path id="Trazado_101951" data-name="Trazado 101951" d="M1446.9,1365.007l-8.464-1.661a34.15,34.15,0,0,0-4.658-11.178l4.8-7.14a2.137,2.137,0,0,0-.262-2.7l-5.179-5.179a2.135,2.135,0,0,0-2.7-.261l-7.161,4.811a34.112,34.112,0,0,0-11.2-4.614l-1.655-8.436a2.134,2.134,0,0,0-2.092-1.724h-7.324a2.134,2.134,0,0,0-2.093,1.722l-1.661,8.465a34.075,34.075,0,0,0-11.178,4.657l-7.14-4.8a2.146,2.146,0,0,0-2.7.262l-5.179,5.18a2.136,2.136,0,0,0-.263,2.7l4.812,7.162a34.108,34.108,0,0,0-4.616,11.2l-8.433,1.656a2.129,2.129,0,0,0-1.727,2.09v7.325a2.136,2.136,0,0,0,1.723,2.092l8.465,1.663a34.057,34.057,0,0,0,4.656,11.177l-4.8,7.139a2.138,2.138,0,0,0,.262,2.7l5.179,5.179a2.142,2.142,0,0,0,2.7.262l7.162-4.812a34.1,34.1,0,0,0,11.195,4.615l1.657,8.44a2.14,2.14,0,0,0,2.093,1.719h7.323a2.133,2.133,0,0,0,2.093-1.722l1.662-8.464a34.084,34.084,0,0,0,11.177-4.657l7.139,4.8a2.136,2.136,0,0,0,2.7-.26l5.179-5.181a2.138,2.138,0,0,0,.261-2.7l-4.81-7.163a34.16,34.16,0,0,0,4.615-11.193l8.436-1.657a2.136,2.136,0,0,0,1.723-2.092V1367.1A2.144,2.144,0,0,0,1446.9,1365.007ZM1434.543,1376a29.932,29.932,0,0,1-5.009,12.153,2.144,2.144,0,0,0-.025,2.412l4.63,6.892-2.7,2.7-6.877-4.618a2.143,2.143,0,0,0-2.416.027,29.908,29.908,0,0,1-12.135,5.055,2.148,2.148,0,0,0-1.722,1.689l-1.6,8.146h-3.815l-1.594-8.127a2.142,2.142,0,0,0-1.733-1.688,29.948,29.948,0,0,1-12.155-5.011,2.124,2.124,0,0,0-2.41-.023l-6.892,4.63-2.7-2.7,4.618-6.874a2.145,2.145,0,0,0-.028-2.417,29.855,29.855,0,0,1-5.054-12.134,2.142,2.142,0,0,0-1.69-1.722l-8.146-1.6v-3.815l8.124-1.594a2.14,2.14,0,0,0,1.691-1.731,29.9,29.9,0,0,1,5.009-12.154,2.146,2.146,0,0,0,.023-2.412l-4.629-6.892,2.7-2.7,6.876,4.619a2.144,2.144,0,0,0,2.418-.027,29.9,29.9,0,0,1,12.135-5.057,2.149,2.149,0,0,0,1.723-1.688l1.6-8.147h3.816l1.594,8.124a2.139,2.139,0,0,0,1.732,1.69,29.919,29.919,0,0,1,12.155,5.011,2.122,2.122,0,0,0,2.41.023l6.892-4.63,2.7,2.7-4.619,6.875a2.146,2.146,0,0,0,.028,2.417,29.894,29.894,0,0,1,5.056,12.134,2.119,2.119,0,0,0,1.69,1.724l8.145,1.6v3.813l-8.124,1.594A2.144,2.144,0,0,0,1434.543,1376Z" transform="translate(0 -2.322)" fill="#ff0062"/>
    <path id="Trazado_101952" data-name="Trazado 101952" d="M1473.54,1308.71a17.716,17.716,0,1,0,17.716,17.715A17.736,17.736,0,0,0,1473.54,1308.71Zm0,31.625a13.91,13.91,0,1,1,13.911-13.91A13.926,13.926,0,0,1,1473.54,1340.335Z" transform="translate(-6.27 -1.12)" fill="#ff0062"/>
    <path id="Trazado_101953" data-name="Trazado 101953" d="M1504.444,1320.618l-6.233-1.223a26.109,26.109,0,0,0-3.427-8.225l3.533-5.257a1.912,1.912,0,0,0-.234-2.407l-3.927-3.925a1.9,1.9,0,0,0-2.407-.234l-5.273,3.543a26.142,26.142,0,0,0-8.237-3.4l-1.218-6.208a1.9,1.9,0,0,0-1.866-1.54H1469.6a1.9,1.9,0,0,0-1.866,1.537l-1.224,6.233a26.128,26.128,0,0,0-8.225,3.427l-5.258-3.532a1.908,1.908,0,0,0-2.406.234l-3.925,3.926a1.9,1.9,0,0,0-.235,2.407l3.543,5.274a26.148,26.148,0,0,0-3.4,8.238l-6.207,1.218a1.9,1.9,0,0,0-1.542,1.866v5.553a1.9,1.9,0,0,0,1.537,1.866l6.234,1.225a26.094,26.094,0,0,0,3.426,8.225l-3.532,5.257a1.907,1.907,0,0,0,.234,2.407l3.926,3.925a1.9,1.9,0,0,0,2.408.235l5.273-3.544a26.1,26.1,0,0,0,8.236,3.4l1.221,6.215a1.909,1.909,0,0,0,1.867,1.534h5.552a1.9,1.9,0,0,0,1.866-1.536l1.224-6.234a26.088,26.088,0,0,0,8.225-3.426l5.255,3.531a1.9,1.9,0,0,0,2.408-.233l3.927-3.926a1.908,1.908,0,0,0,.233-2.407l-3.543-5.273a26.144,26.144,0,0,0,3.4-8.237l6.211-1.218a1.908,1.908,0,0,0,1.537-1.867v-5.554A1.91,1.91,0,0,0,1504.444,1320.618Zm-9.7,8.561h0a22.387,22.387,0,0,1-3.749,9.1,1.918,1.918,0,0,0-.022,2.153l3.379,5.029-1.711,1.712-5.018-3.371a1.912,1.912,0,0,0-2.156.026,22.4,22.4,0,0,1-9.083,3.785,1.913,1.913,0,0,0-1.537,1.506l-1.166,5.944h-2.423l-1.163-5.926a1.912,1.912,0,0,0-1.544-1.51,22.4,22.4,0,0,1-9.1-3.75,1.892,1.892,0,0,0-2.151-.021l-5.029,3.378-1.71-1.712,3.368-5.016a1.91,1.91,0,0,0-.025-2.156,22.369,22.369,0,0,1-3.783-9.082,1.908,1.908,0,0,0-1.508-1.537l-5.943-1.166v-2.421l5.927-1.164a1.91,1.91,0,0,0,1.507-1.545,22.391,22.391,0,0,1,3.749-9.1,1.921,1.921,0,0,0,.023-2.155l-3.379-5.027,1.711-1.712,5.017,3.37a1.917,1.917,0,0,0,2.157-.026,22.378,22.378,0,0,1,9.083-3.784A1.912,1.912,0,0,0,1470,1301.5l1.167-5.946h2.422l1.164,5.928a1.909,1.909,0,0,0,1.544,1.508,22.4,22.4,0,0,1,9.1,3.751,1.9,1.9,0,0,0,2.15.021l5.028-3.378,1.713,1.712-3.37,5.016a1.915,1.915,0,0,0,.025,2.157,22.394,22.394,0,0,1,3.785,9.081,1.908,1.908,0,0,0,1.506,1.538l5.944,1.167v2.421l-5.929,1.163A1.916,1.916,0,0,0,1494.739,1329.179Z" transform="translate(-5.15)" fill="#ff0062"/>
  </g>
</svg>
