<svg xmlns="http://www.w3.org/2000/svg" width="81.508" height="81.509" viewBox="0 0 81.508 81.509">
  <g id="Grupo_54477" data-name="Grupo 54477" transform="translate(-174.246 -12530)">
    <g id="Grupo_54346" data-name="Grupo 54346" transform="translate(-462.189 11140.234)">
      <path id="Trazado_99476" data-name="Trazado 99476" d="M40.754,0A40.754,40.754,0,1,1,0,40.754,40.754,40.754,0,0,1,40.754,0Z" transform="translate(636.436 1389.766)" fill="#ff0062"/>
    </g>
    <g id="Grupo_54407" data-name="Grupo 54407" transform="translate(-1089.297 11884.486)">
      <g id="Grupo_54390" data-name="Grupo 54390" transform="translate(1290.575 666.735)">
        <g id="Grupo_54389" data-name="Grupo 54389">
          <path id="Trazado_102004" data-name="Trazado 102004" d="M1312.99,670.723a13.638,13.638,0,0,0-9.675-3.988h-.1a13.731,13.731,0,0,0-9.8,23.248,11.3,11.3,0,0,1,3.138,7.88v5.727a2.506,2.506,0,0,0,1.913,2.431v.764a2.651,2.651,0,0,0,2.649,2.648h4.379a2.65,2.65,0,0,0,2.648-2.648v-.76a2.506,2.506,0,0,0,1.932-2.436v-5.727a11.594,11.594,0,0,1,3.225-7.971,13.733,13.733,0,0,0-.309-19.171Zm-6.516,36.065a.98.98,0,0,1-.979.979h-4.379a.981.981,0,0,1-.981-.979v-.693h6.339Zm1.932-3.2a.835.835,0,0,1-.833.835h-8.517a.835.835,0,0,1-.833-.835v-4.743h10.184v4.743Zm-6.4-6.411V686.632h2.6v10.549Zm10.082-8.432a13.286,13.286,0,0,0-3.661,8.432h-2.154V686.632h.75a2.42,2.42,0,0,0,2.418-2.418v-.129a2.418,2.418,0,1,0-4.835,0v.878H1302v-.878a2.42,2.42,0,0,0-2.417-2.418h-.164a2.42,2.42,0,0,0-2.418,2.418v.129a2.42,2.42,0,0,0,2.418,2.418h.914v10.549H1298.2a12.924,12.924,0,0,0-3.587-8.353,11.981,11.981,0,0,1-3.364-8.7,12.158,12.158,0,0,1,11.973-11.726,12.063,12.063,0,0,1,8.859,20.344Zm-5.816-3.784v-.878a.75.75,0,0,1,1.5,0v.129a.75.75,0,0,1-.75.75Zm-5.934-.878v.878h-.914a.75.75,0,0,1-.75-.75v-.129a.75.75,0,0,1,.75-.75h.164A.75.75,0,0,1,1300.336,684.086Z" transform="translate(-1289.582 -666.735)" fill="#fff"/>
        </g>
      </g>
      <g id="Grupo_54392" data-name="Grupo 54392" transform="translate(1303.38 670.801)">
        <g id="Grupo_54391" data-name="Grupo 54391">
          <path id="Trazado_102005" data-name="Trazado 102005" d="M1310.588,676.328a9.668,9.668,0,0,0-9.039-6.056.834.834,0,0,0,.006,1.668h.064a7.957,7.957,0,0,1,7.422,5.011.834.834,0,0,0,.774.523.825.825,0,0,0,.312-.061A.834.834,0,0,0,1310.588,676.328Z" transform="translate(-1300.721 -670.272)" fill="#fff"/>
        </g>
      </g>
      <g id="Grupo_54394" data-name="Grupo 54394" transform="translate(1312.276 679.633)">
        <g id="Grupo_54393" data-name="Grupo 54393">
          <path id="Trazado_102006" data-name="Trazado 102006" d="M1309.883,678.2a.833.833,0,1,0,.245.59A.839.839,0,0,0,1309.883,678.2Z" transform="translate(-1308.46 -677.955)" fill="#fff"/>
        </g>
      </g>
      <g id="Grupo_54396" data-name="Grupo 54396" transform="translate(1318.703 670.645)">
        <g id="Grupo_54395" data-name="Grupo 54395">
          <path id="Trazado_102007" data-name="Trazado 102007" d="M1317.027,670.381a.833.833,0,0,0-1.179,0l-1.554,1.553a.834.834,0,1,0,1.18,1.179l1.554-1.553A.835.835,0,0,0,1317.027,670.381Z" transform="translate(-1314.05 -670.136)" fill="#fff"/>
        </g>
      </g>
      <g id="Grupo_54398" data-name="Grupo 54398" transform="translate(1318.703 687.068)">
        <g id="Grupo_54397" data-name="Grupo 54397">
          <path id="Trazado_102008" data-name="Trazado 102008" d="M1317.027,686.22l-1.554-1.554a.834.834,0,0,0-1.18,1.18l1.554,1.554a.834.834,0,0,0,1.179-1.18Z" transform="translate(-1314.05 -684.422)" fill="#fff"/>
        </g>
      </g>
      <g id="Grupo_54400" data-name="Grupo 54400" transform="translate(1321.782 679.633)">
        <g id="Grupo_54399" data-name="Grupo 54399">
          <path id="Trazado_102009" data-name="Trazado 102009" d="M1319.76,677.955h-2.2a.834.834,0,0,0,0,1.668h2.2a.834.834,0,0,0,0-1.668Z" transform="translate(-1316.729 -677.955)" fill="#fff"/>
        </g>
      </g>
      <g id="Grupo_54402" data-name="Grupo 54402" transform="translate(1286.67 670.646)">
        <g id="Grupo_54401" data-name="Grupo 54401">
          <path id="Trazado_102010" data-name="Trazado 102010" d="M1289.163,671.934l-1.554-1.553a.834.834,0,0,0-1.18,1.179l1.554,1.553a.834.834,0,0,0,1.18-1.179Z" transform="translate(-1286.186 -670.137)" fill="#fff"/>
        </g>
      </g>
      <g id="Grupo_54404" data-name="Grupo 54404" transform="translate(1286.67 687.068)">
        <g id="Grupo_54403" data-name="Grupo 54403">
          <path id="Trazado_102011" data-name="Trazado 102011" d="M1289.163,684.666a.835.835,0,0,0-1.18,0l-1.554,1.554a.834.834,0,0,0,1.18,1.18l1.554-1.554A.835.835,0,0,0,1289.163,684.666Z" transform="translate(-1286.186 -684.422)" fill="#fff"/>
        </g>
      </g>
      <g id="Grupo_54406" data-name="Grupo 54406" transform="translate(1282.947 679.633)">
        <g id="Grupo_54405" data-name="Grupo 54405">
          <path id="Trazado_102012" data-name="Trazado 102012" d="M1285.978,677.955h-2.2a.834.834,0,1,0,0,1.668h2.2a.834.834,0,1,0,0-1.668Z" transform="translate(-1282.947 -677.955)" fill="#fff"/>
        </g>
      </g>
    </g>
  </g>
</svg>
