<svg xmlns="http://www.w3.org/2000/svg" width="81.508" height="81.509" viewBox="0 0 81.508 81.509">
  <g id="Grupo_54478" data-name="Grupo 54478" transform="translate(-174 -12738)">
    <g id="Grupo_54347" data-name="Grupo 54347" transform="translate(-462.436 11348.234)">
      <path id="Trazado_99476" data-name="Trazado 99476" d="M40.754,0A40.754,40.754,0,1,1,0,40.754,40.754,40.754,0,0,1,40.754,0Z" transform="translate(636.436 1389.766)" fill="#ff0062"/>
    </g>
    <g id="Grupo_54388" data-name="Grupo 54388" transform="translate(-890.797 12119.022)">
      <path id="Trazado_101995" data-name="Trazado 101995" d="M1116.672,643.115a22.97,22.97,0,0,0-9.263-5.676l-.35-.106a.859.859,0,1,0-.5,1.644l.32.1a21.468,21.468,0,0,1,10.668,33.162,3.522,3.522,0,0,0-3.914.639,3.441,3.441,0,1,0,5.241.46A23.172,23.172,0,0,0,1116.672,643.115Zm.609,33.408a1.76,1.76,0,0,1-2.43,0,1.718,1.718,0,1,1,2.43,0Z" transform="translate(5.522 0.177)" fill="#fff"/>
      <path id="Trazado_101996" data-name="Trazado 101996" d="M1094.565,639.731a.846.846,0,0,0,.33-.067c.507-.21,1.03-.4,1.546-.575a.859.859,0,0,0-.537-1.632c-.563.184-1.124.395-1.671.622a.859.859,0,0,0,.332,1.652Z" transform="translate(2.625 0.205)" fill="#fff"/>
      <path id="Trazado_101997" data-name="Trazado 101997" d="M1102.659,638.265c.544.036,1.1.093,1.643.172a.859.859,0,1,0,.242-1.7c-.589-.087-1.186-.146-1.772-.184a.861.861,0,1,0-.114,1.718Z" transform="translate(4.553 0)" fill="#fff"/>
      <path id="Trazado_101998" data-name="Trazado 101998" d="M1098.561,638.512a.78.78,0,0,0,.141-.011c.537-.087,1.088-.158,1.64-.206a.861.861,0,0,0-.152-1.715c-.592.052-1.187.127-1.767.223a.859.859,0,0,0,.138,1.706Z" transform="translate(3.571 0.006)" fill="#fff"/>
      <path id="Trazado_101999" data-name="Trazado 101999" d="M1104.665,672.4c-.543.085-1.094.158-1.64.205a.86.86,0,1,0,.073,1.718.741.741,0,0,0,.075,0c.59-.051,1.185-.125,1.77-.221a.859.859,0,0,0,.708-.987.85.85,0,0,0-.963-.718Z" transform="translate(4.635 8.479)" fill="#fff"/>
      <path id="Trazado_102000" data-name="Trazado 102000" d="M1108.45,671.313c-.51.211-1.031.4-1.547.575a.859.859,0,1,0,.5,1.643l.035-.011c.56-.184,1.123-.393,1.673-.621a.859.859,0,1,0-.66-1.587Z" transform="translate(5.604 8.209)" fill="#fff"/>
      <path id="Trazado_102001" data-name="Trazado 102001" d="M1100.7,672.626c-.55-.037-1.1-.094-1.641-.173a.859.859,0,0,0-.247,1.7c.584.086,1.181.148,1.774.187h.058a.859.859,0,0,0,.056-1.718Z" transform="translate(3.662 8.493)" fill="#fff"/>
      <path id="Trazado_102002" data-name="Trazado 102002" d="M1099.5,679.473q-.569-.172-1.135-.382a21.466,21.466,0,0,1-9.853-32.866,3.429,3.429,0,0,0,3.924-5.509,3.515,3.515,0,0,0-4.859,0,3.419,3.419,0,0,0-.381,4.4,23.19,23.19,0,0,0,10.574,35.589q.608.224,1.226.413a.8.8,0,0,0,.252.037.859.859,0,0,0,.251-1.679Zm-10.71-37.543a1.718,1.718,0,0,1,2.472,2.387l-.042.042a1.759,1.759,0,0,1-2.43,0A1.718,1.718,0,0,1,1088.785,641.93Z" transform="translate(0 0.755)" fill="#fff"/>
      <path id="Trazado_102003" data-name="Trazado 102003" d="M1118,665.4a15.369,15.369,0,0,0,0-14.358c-.009-.023-.021-.044-.031-.067a15.447,15.447,0,0,0-27.3,0,.73.73,0,0,0-.032.067,15.37,15.37,0,0,0,0,14.358.732.732,0,0,0,.032.067,15.447,15.447,0,0,0,27.3,0C1117.974,665.447,1117.989,665.426,1118,665.4Zm-19.428-19.647-.557,1.855c-.286.953-.528,1.916-.736,2.883h-4.316A13.821,13.821,0,0,1,1098.57,645.755Zm-6.593,6.455h4.976a36.727,36.727,0,0,0-.487,5.154h-5.85A13.626,13.626,0,0,1,1091.977,652.21Zm-1.361,6.872h5.85a36.727,36.727,0,0,0,.487,5.154h-4.976A13.626,13.626,0,0,1,1090.616,659.082Zm2.346,6.872h4.316c.208.967.45,1.929.736,2.883l.557,1.855A13.821,13.821,0,0,1,1092.962,665.954Zm10.5,5.969a13.606,13.606,0,0,1-2.869-.484l-.927-3.1c-.239-.791-.444-1.588-.625-2.389h4.421Zm0-7.687h-4.745a34.984,34.984,0,0,1-.511-5.154h5.256Zm0-6.872H1098.2a35.15,35.15,0,0,1,.511-5.154h4.745Zm0-6.872h-4.421c.181-.8.386-1.6.625-2.389l.927-3.1a13.6,13.6,0,0,1,2.869-.484Zm14.56,6.872h-5.98a36.725,36.725,0,0,0-.486-5.154h5.106A13.643,13.643,0,0,1,1118.016,657.365Zm-2.346-6.872h-4.444c-.208-.967-.45-1.929-.737-2.883l-.579-1.928A13.811,13.811,0,0,1,1115.671,650.493Zm-10.5-5.969a13.586,13.586,0,0,1,2.728.448l.941,3.132c.236.791.441,1.588.622,2.389h-4.291Zm0,7.687h4.616a34.949,34.949,0,0,1,.51,5.154h-5.126Zm3.669,16.133-.94,3.132a13.7,13.7,0,0,1-2.729.448v-5.969h4.295C1109.286,666.755,1109.081,667.552,1108.845,668.343Zm-3.669-4.107v-5.154h5.126a34.95,34.95,0,0,1-.51,5.154Zm4.735,6.528.579-1.928c.287-.953.529-1.916.737-2.883h4.444A13.819,13.819,0,0,1,1109.91,670.764Zm1.64-6.528a36.725,36.725,0,0,0,.486-5.154h5.98a13.643,13.643,0,0,1-1.36,5.154Z" transform="translate(1.477 1.469)" fill="#fff"/>
    </g>
  </g>
</svg>
