<svg xmlns="http://www.w3.org/2000/svg" width="81.508" height="81.508" viewBox="0 0 81.508 81.508">
  <g id="Grupo_54724" data-name="Grupo 54724" transform="translate(-683 -2169)">
    <g id="Grupo_54517" data-name="Grupo 54517" transform="translate(-8 726)">
      <g id="Grupo_54477" data-name="Grupo 54477" transform="translate(54.564 53.234)">
        <path id="Trazado_99476" data-name="Trazado 99476" d="M40.754,0A40.754,40.754,0,1,1,0,40.754,40.754,40.754,0,0,1,40.754,0Z" transform="translate(636.436 1389.766)" fill="#ff0062"/>
      </g>
    </g>
    <g id="Grupo_54520" data-name="Grupo 54520" transform="translate(-524.926 1093.471)">
      <g id="Grupo_54519" data-name="Grupo 54519">
        <path id="Trazado_102098" data-name="Trazado 102098" d="M1266.148,1130.666h-35.9a5.328,5.328,0,0,1-5.323-5.323v-25.49a5.329,5.329,0,0,1,5.323-5.324h35.9a5.33,5.33,0,0,1,5.324,5.324v25.49A5.33,5.33,0,0,1,1266.148,1130.666Zm-35.9-33.843a3.032,3.032,0,0,0-3.027,3.028v25.49a3.032,3.032,0,0,0,3.027,3.028h35.9a3.032,3.032,0,0,0,3.028-3.028v-25.49a3.033,3.033,0,0,0-3.028-3.028Z" fill="#fff"/>
        <rect id="Rectángulo_5261" data-name="Rectángulo 5261" width="44.255" height="2.296" transform="translate(1226.07 1121.428)" fill="#fff"/>
        <path id="Trazado_102099" data-name="Trazado 102099" d="M1231.334,1122.577h-2.3v-24.47h39.175v23.818h-2.3v-21.518h-34.575Z" fill="#fff"/>
        <path id="Trazado_102100" data-name="Trazado 102100" d="M1251.342,1126.328H1246.2a1.15,1.15,0,0,1,0-2.3h5.143a1.15,1.15,0,1,1,0,2.3Z" fill="#fff"/>
        <path id="Trazado_102101" data-name="Trazado 102101" d="M1245.061,1135.167c-3.926,0-3.983-.35-4.115-1.141a1.217,1.217,0,0,1,.953-1.375c.8-.241,1.593-1.931,1.881-2.995a1.149,1.149,0,0,1,2.219.594h0a10.4,10.4,0,0,1-1.122,2.593c1.86,0,4.534-.063,7.281-.148a3.425,3.425,0,0,1-.523-3.722,1.149,1.149,0,0,1,2.018,1.1h0c-.366.676.98,2.131,1.837,2.755a1.148,1.148,0,0,1-.633,2.075C1250.182,1135.073,1247.1,1135.167,1245.061,1135.167Z" fill="#fff"/>
        <path id="Trazado_102102" data-name="Trazado 102102" d="M1257.755,1138.8h-19.006a2.979,2.979,0,0,1,0-5.958h19.006a2.979,2.979,0,0,1,0,5.958Zm-19.006-3.662a.684.684,0,1,0-.054,1.366h19.06a.683.683,0,0,0,0-1.366Z" fill="#fff"/>
        <g id="Grupo_54520-2" data-name="Grupo 54520">
          <path id="Trazado_102105" data-name="Trazado 102105" d="M1248.768,1106.394a4.763,4.763,0,1,0,4.764,4.763A4.769,4.769,0,0,0,1248.768,1106.394Zm0,8.5a3.74,3.74,0,1,1,3.741-3.741A3.745,3.745,0,0,1,1248.768,1114.9Z" fill="#fff"/>
          <path id="Trazado_102106" data-name="Trazado 102106" d="M1248.768,1116.046a4.888,4.888,0,1,1,4.889-4.889A4.894,4.894,0,0,1,1248.768,1116.046Zm0-9.526a4.638,4.638,0,1,0,4.639,4.637A4.642,4.642,0,0,0,1248.768,1106.52Zm0,8.5a3.865,3.865,0,1,1,3.865-3.865A3.87,3.87,0,0,1,1248.768,1115.022Zm0-7.48a3.615,3.615,0,1,0,3.615,3.615A3.62,3.62,0,0,0,1248.768,1107.542Z" fill="#fff"/>
        </g>
        <g id="Grupo_54521" data-name="Grupo 54521">
          <path id="Trazado_102107" data-name="Trazado 102107" d="M1257.379,1109.9l-1.676-.329a7.019,7.019,0,0,0-.922-2.211l.95-1.414a.513.513,0,0,0-.063-.647l-1.055-1.055a.512.512,0,0,0-.648-.063l-1.418.952a7.019,7.019,0,0,0-2.215-.913l-.327-1.669a.511.511,0,0,0-.5-.414h-1.493a.511.511,0,0,0-.5.413l-.329,1.676a7.02,7.02,0,0,0-2.211.922l-1.414-.95a.513.513,0,0,0-.647.063l-1.055,1.055a.512.512,0,0,0-.063.648l.952,1.418a7.015,7.015,0,0,0-.913,2.215l-1.669.327a.511.511,0,0,0-.414.5v1.493a.513.513,0,0,0,.413.5l1.676.329a7.028,7.028,0,0,0,.921,2.211l-.949,1.414a.511.511,0,0,0,.063.647l1.055,1.055a.51.51,0,0,0,.647.063l1.418-.952a7,7,0,0,0,2.215.912l.328,1.672a.514.514,0,0,0,.5.412h1.493a.512.512,0,0,0,.5-.413l.329-1.676a7.034,7.034,0,0,0,2.211-.921l1.413.949a.511.511,0,0,0,.648-.063l1.056-1.055a.513.513,0,0,0,.062-.647l-.952-1.418a7.034,7.034,0,0,0,.913-2.215l1.67-.328a.512.512,0,0,0,.413-.5V1110.4A.513.513,0,0,0,1257.379,1109.9Zm-2.61,2.3h0a6.008,6.008,0,0,1-1.008,2.446.518.518,0,0,0-.006.579l.909,1.352-.46.46-1.349-.906a.516.516,0,0,0-.58.007,6.012,6.012,0,0,1-2.442,1.017.516.516,0,0,0-.414.4l-.313,1.6h-.652l-.312-1.594a.515.515,0,0,0-.416-.406,6.028,6.028,0,0,1-2.446-1.008.509.509,0,0,0-.579-.006l-1.352.909-.459-.461.905-1.348a.512.512,0,0,0-.007-.58,6.036,6.036,0,0,1-1.017-2.442.513.513,0,0,0-.405-.414l-1.6-.313v-.651l1.594-.313a.512.512,0,0,0,.4-.415,6.02,6.02,0,0,1,1.008-2.446.514.514,0,0,0,.006-.579l-.908-1.352.46-.46,1.349.906a.516.516,0,0,0,.58-.007,6.029,6.029,0,0,1,2.442-1.018.511.511,0,0,0,.413-.4l.314-1.6h.651l.313,1.594a.514.514,0,0,0,.415.405,6.027,6.027,0,0,1,2.447,1.009.513.513,0,0,0,.578.005l1.352-.908.461.46-.907,1.349a.516.516,0,0,0,.007.58,6.026,6.026,0,0,1,1.018,2.442.511.511,0,0,0,.405.413l1.6.314v.651l-1.6.313A.515.515,0,0,0,1254.769,1112.2Z" fill="#fff"/>
          <path id="Trazado_102108" data-name="Trazado 102108" d="M1249.527,1120.306h-1.493a.637.637,0,0,1-.624-.513l-.313-1.592a7.163,7.163,0,0,1-2.105-.868l-1.351.908a.633.633,0,0,1-.806-.079l-1.055-1.055a.636.636,0,0,1-.078-.805l.9-1.346a7.188,7.188,0,0,1-.876-2.1l-1.6-.313a.638.638,0,0,1-.514-.625v-1.493a.637.637,0,0,1,.516-.625l1.589-.312a7.115,7.115,0,0,1,.867-2.1l-.907-1.352a.637.637,0,0,1,.079-.805l1.055-1.055a.638.638,0,0,1,.805-.079l1.346.9a7.192,7.192,0,0,1,2.1-.875l.314-1.6a.636.636,0,0,1,.624-.513h1.493a.635.635,0,0,1,.624.515l.312,1.589a7.166,7.166,0,0,1,2.106.868l1.351-.907a.638.638,0,0,1,.805.077l1.055,1.056a.64.64,0,0,1,.079.806l-.9,1.345a7.159,7.159,0,0,1,.876,2.1l1.6.313a.639.639,0,0,1,.514.625v1.494a.639.639,0,0,1-.514.625l-1.59.311a7.188,7.188,0,0,1-.868,2.1l.907,1.351a.639.639,0,0,1-.078.8l-1.056,1.056a.632.632,0,0,1-.806.078l-1.345-.9a7.115,7.115,0,0,1-2.1.875l-.314,1.6A.635.635,0,0,1,1249.527,1120.306Zm-4.54-3.271.069.044a6.89,6.89,0,0,0,2.175.9l.08.017.344,1.751a.386.386,0,0,0,.379.312h1.493a.387.387,0,0,0,.379-.312l.345-1.756.079-.018a6.872,6.872,0,0,0,2.172-.905l.069-.044,1.481,1a.393.393,0,0,0,.49-.047l1.055-1.057a.386.386,0,0,0,.048-.489l-1-1.486.043-.068a6.932,6.932,0,0,0,.9-2.176l.018-.08,1.75-.343a.386.386,0,0,0,.312-.378V1110.4a.386.386,0,0,0-.312-.378l-1.756-.345-.018-.08a6.912,6.912,0,0,0-.905-2.172l-.044-.07.995-1.48a.39.39,0,0,0-.048-.49l-1.055-1.055a.388.388,0,0,0-.489-.048l-1.485,1-.069-.044a6.936,6.936,0,0,0-2.176-.9l-.079-.018-.344-1.749a.387.387,0,0,0-.379-.313h-1.493a.387.387,0,0,0-.379.311l-.345,1.757-.079.019a6.893,6.893,0,0,0-2.172.9l-.069.044-1.482-1a.389.389,0,0,0-.488.049l-1.056,1.054a.391.391,0,0,0-.047.491l1,1.485-.043.068a6.911,6.911,0,0,0-.9,2.176l-.018.08-1.749.343a.385.385,0,0,0-.313.379v1.493a.386.386,0,0,0,.312.379l1.756.345.018.08a6.9,6.9,0,0,0,.9,2.171l.044.069-.995,1.481a.387.387,0,0,0,.047.489l1.056,1.055a.382.382,0,0,0,.488.049Zm4.221,2.247h-.857l-.332-1.693a.389.389,0,0,0-.314-.308,6.153,6.153,0,0,1-2.5-1.029.384.384,0,0,0-.437,0l-1.437.966-.6-.606.962-1.433a.391.391,0,0,0,0-.439,6.132,6.132,0,0,1-1.039-2.493.386.386,0,0,0-.306-.311l-1.7-.334v-.857l1.7-.333a.387.387,0,0,0,.306-.312,6.128,6.128,0,0,1,1.029-2.5.39.39,0,0,0,0-.439l-.965-1.436.6-.607,1.435.964a.388.388,0,0,0,.437-.006,6.164,6.164,0,0,1,2.494-1.038.389.389,0,0,0,.312-.306l.333-1.7h.857l.333,1.7a.387.387,0,0,0,.313.306,6.147,6.147,0,0,1,2.5,1.03.391.391,0,0,0,.438,0l1.436-.965.606.606-.964,1.434a.391.391,0,0,0,.006.439,6.146,6.146,0,0,1,1.038,2.491.387.387,0,0,0,.306.313l1.7.334v.855l-1.7.334a.388.388,0,0,0-.306.314h0a6.141,6.141,0,0,1-1.028,2.5.387.387,0,0,0-.005.437l.966,1.438-.606.6-1.434-.964a.393.393,0,0,0-.437.005,6.129,6.129,0,0,1-2.494,1.039.391.391,0,0,0-.312.307Zm-.651-.25H1249l.294-1.5a.642.642,0,0,1,.515-.5,5.89,5.89,0,0,0,2.392-1,.645.645,0,0,1,.72-.009l1.265.85.314-.314-.851-1.268a.641.641,0,0,1,.008-.72,5.89,5.89,0,0,0,.987-2.4h0a.641.641,0,0,1,.5-.517l1.494-.293v-.445l-1.5-.293a.644.644,0,0,1-.5-.516,5.889,5.889,0,0,0-1-2.39.643.643,0,0,1-.009-.722l.849-1.264-.315-.315-1.266.851a.634.634,0,0,1-.719-.006,5.922,5.922,0,0,0-2.4-.989.641.641,0,0,1-.517-.5l-.293-1.493h-.445l-.294,1.5a.64.64,0,0,1-.514.5,5.9,5.9,0,0,0-2.392,1,.637.637,0,0,1-.722.008l-1.263-.849-.315.316.851,1.266a.643.643,0,0,1-.008.721,5.9,5.9,0,0,0-.987,2.4.637.637,0,0,1-.5.516l-1.493.292v.447l1.5.293a.64.64,0,0,1,.505.514,5.892,5.892,0,0,0,1,2.392.639.639,0,0,1,.008.721l-.848,1.264.314.315,1.267-.851a.634.634,0,0,1,.719.006,5.9,5.9,0,0,0,2.4.988.639.639,0,0,1,.516.506Z" fill="#fff"/>
        </g>
      </g>
    </g>
  </g>
</svg>
