<svg xmlns="http://www.w3.org/2000/svg" width="81.508" height="81.508" viewBox="0 0 81.508 81.508">
  <g id="Grupo_54494" data-name="Grupo 54494" transform="translate(-783 -1585.08)">
    <g id="Grupo_54481" data-name="Grupo 54481" transform="translate(146.564 195.314)">
      <path id="Trazado_99476" data-name="Trazado 99476" d="M40.754,0A40.754,40.754,0,1,1,0,40.754,40.754,40.754,0,0,1,40.754,0Z" transform="translate(636.436 1389.766)" fill="#ff0062"/>
    </g>
    <g id="Grupo_54486" data-name="Grupo 54486" transform="translate(69.078 249.202)">
      <g id="Grupo_54485" data-name="Grupo 54485" transform="translate(732.999 1356)">
        <path id="Trazado_102061" data-name="Trazado 102061" d="M1047.437,1175.2h-32.7a4.854,4.854,0,0,1-4.848-4.849v-23.215a4.854,4.854,0,0,1,4.848-4.849h32.7a4.855,4.855,0,0,1,4.849,4.849v23.215A4.855,4.855,0,0,1,1047.437,1175.2Zm-32.7-30.822a2.761,2.761,0,0,0-2.757,2.758v23.215a2.761,2.761,0,0,0,2.757,2.758h32.7a2.761,2.761,0,0,0,2.758-2.758v-23.215a2.761,2.761,0,0,0-2.758-2.758Z" transform="translate(-1009.89 -1142.283)" fill="#fff"/>
        <rect id="Rectángulo_5225" data-name="Rectángulo 5225" width="40.305" height="2.091" transform="translate(1.045 24.5)" fill="#fff"/>
        <path id="Trazado_102062" data-name="Trazado 102062" d="M1015.571,1167.686h-2.091V1145.4h35.678v21.692h-2.091v-19.6h-31.5Z" transform="translate(-1009.727 -1142.141)" fill="#fff"/>
        <path id="Trazado_102063" data-name="Trazado 102063" d="M1033.154,1170.075h-4.684a1.046,1.046,0,0,1,0-2.091h4.684a1.046,1.046,0,0,1,0,2.091Z" transform="translate(-1009.092 -1141.114)" fill="#fff"/>
        <path id="Trazado_102064" data-name="Trazado 102064" d="M1027.6,1177.953c-3.576,0-3.628-.319-3.748-1.039a1.107,1.107,0,0,1,.868-1.253c.725-.219,1.451-1.758,1.714-2.728a1.046,1.046,0,0,1,2.021.54,9.471,9.471,0,0,1-1.022,2.361c1.694,0,4.13-.057,6.632-.135a3.121,3.121,0,0,1-.477-3.39,1.046,1.046,0,1,1,1.838,1c-.333.615.892,1.941,1.673,2.509a1.046,1.046,0,0,1-.576,1.89C1032.26,1177.867,1029.453,1177.953,1027.6,1177.953Z" transform="translate(-1009.255 -1140.942)" fill="#fff"/>
        <path id="Trazado_102065" data-name="Trazado 102065" d="M1039.362,1181.086h-17.31a2.714,2.714,0,1,1,0-5.427h17.31a2.714,2.714,0,0,1,0,5.427Zm-17.31-3.336a.623.623,0,1,0,0,1.245h17.31a.623.623,0,0,0,0-1.245Z" transform="translate(-1009.46 -1140.765)" fill="#fff"/>
        <path id="Trazado_102066" data-name="Trazado 102066" d="M1021.878,1167.588l-1.959-.728c.518-1.4,1.506-5.5-.111-7.636-.918-1.212-2.63-1.728-5.1-1.527l-.167-2.086c3.221-.257,5.56.535,6.936,2.357C1024.115,1161.457,1021.971,1167.34,1021.878,1167.588Z" transform="translate(-1009.678 -1141.679)" fill="#fff"/>
        <path id="Trazado_102067" data-name="Trazado 102067" d="M1027.517,1167.625l-.156-.536-3.37-2.754,3.237-1.942v-1.14l-2.133-.913-1.478-2.879,1.836-1.653-.631-.779-2.095.546-2.415-1.736v-2.127l-1.364-.45-1.34,1.654h-2.326v-2.091h1.329l1.622-2,4.169,1.377v2.566l.746.537,2.449-.64,2.728,3.37-2.115,1.9.4.776,2.708,1.16v3.7l-1.7,1.021,1.569,1.281.338,1.159Z" transform="translate(-1009.645 -1141.985)" fill="#fff"/>
        <path id="Trazado_102068" data-name="Trazado 102068" d="M1044.712,1157.568h-13.846v-5.648h13.846Zm-11.755-2.091h9.664v-1.466h-9.664Z" transform="translate(-1008.936 -1141.844)" fill="#fff"/>
        <path id="Trazado_102069" data-name="Trazado 102069" d="M1044.712,1164.183h-13.846v-5.648h13.846Zm-11.755-2.091h9.664v-1.466h-9.664Z" transform="translate(-1008.936 -1141.544)" fill="#fff"/>
      </g>
    </g>
  </g>
</svg>
