<svg xmlns="http://www.w3.org/2000/svg" width="81.508" height="81.508" viewBox="0 0 81.508 81.508">
  <g id="Grupo_54493" data-name="Grupo 54493" transform="translate(-139 -1443.418)">
    <g id="Grupo_54484" data-name="Grupo 54484" transform="translate(-497.436 53.652)">
      <path id="Trazado_99476" data-name="Trazado 99476" d="M40.754,0A40.754,40.754,0,1,1,0,40.754,40.754,40.754,0,0,1,40.754,0Z" transform="translate(636.436 1389.766)" fill="#ff0062"/>
    </g>
    <g id="Grupo_54482" data-name="Grupo 54482" transform="translate(-376.568 -8913.127)">
      <g id="Grupo_54374" data-name="Grupo 54374" transform="translate(532.999 10379)">
        <path id="Trazado_101962" data-name="Trazado 101962" d="M1039.59,893.694l-42.3-.026c-.159-.037-3.894-.976-4.215-6.225-.279-4.559-.014-25.606,0-26.5l0-.193.075-.177a6.056,6.056,0,0,1,3.266-3.114,6.357,6.357,0,0,1,5.2.661l.528.279v27.745l-1.3-.439c-.158-.052-3.969-1.271-5.568,1.6l-.236-.132c0,.052.006.1.009.15.206,3.361,2.156,4.235,2.614,4.4h39.955V866.745h1.977Zm-44.547-32.5c-.025,1.984-.2,16.658-.082,23.477a6.85,6.85,0,0,1,5.206-1.142V859.613a4.137,4.137,0,0,0-3.07-.3A4,4,0,0,0,995.043,861.189Z" transform="translate(-992.944 -857.098)" fill="#fff"/>
        <rect id="Rectángulo_5207" data-name="Rectángulo 5207" width="27.735" height="1.977" transform="translate(8.21 8.005)" fill="#fff"/>
        <path id="Trazado_101963" data-name="Trazado 101963" d="M1032.507,891.32l-3.719-7.055V859.206l.051-.152a2.9,2.9,0,0,1,3.441-1.891c1.366.037,3.183.238,3.736,1.427a1.661,1.661,0,0,1-.022,1.417v24.339Zm-1.742-7.545,1.7,3.218,1.557-3.113.008-24.5a6.4,6.4,0,0,0-1.89-.244l-.222-.031a.961.961,0,0,0-1.148.447Z" transform="translate(-993.363 -857.097)" fill="#fff"/>
        <rect id="Rectángulo_5208" data-name="Rectángulo 5208" width="5.229" height="1.977" transform="translate(36.412 25.094)" fill="#fff"/>
        <rect id="Rectángulo_5209" data-name="Rectángulo 5209" width="4.576" height="1.977" transform="translate(36.412 5.017)" fill="#fff"/>
        <path id="Trazado_101964" data-name="Trazado 101964" d="M1013.194,878.424h-9.541v-9.447h9.541Zm-7.565-1.977h5.588v-5.494h-5.588Z" transform="translate(-993.07 -857.236)" fill="#fff"/>
        <path id="Trazado_101965" data-name="Trazado 101965" d="M1027.006,891.063h-24.2v-7.019h5.7v-4.3h8.046v2.708h5.23v1.588h5.23Zm-22.226-1.977h20.249v-3.066h-5.23v-1.588h-5.23v-2.708h-4.093v4.3h-5.7Z" transform="translate(-993.06 -857.362)" fill="#fff"/>
        <rect id="Rectángulo_5210" data-name="Rectángulo 5210" width="10.366" height="1.977" transform="translate(22.592 12.3)" fill="#fff"/>
        <rect id="Rectángulo_5211" data-name="Rectángulo 5211" width="10.366" height="1.977" transform="translate(22.592 16.036)" fill="#fff"/>
        <rect id="Rectángulo_5212" data-name="Rectángulo 5212" width="1.977" height="5.977" transform="translate(26.786 26.082)" fill="#fff"/>
        <rect id="Rectángulo_5213" data-name="Rectángulo 5213" width="1.977" height="8.218" transform="translate(21.51 23.841)" fill="#fff"/>
        <rect id="Rectángulo_5214" data-name="Rectángulo 5214" width="1.977" height="9.338" transform="translate(15.44 23.374)" fill="#fff"/>
      </g>
    </g>
  </g>
</svg>
