<svg xmlns="http://www.w3.org/2000/svg" width="258.999" height="241.217" viewBox="0 0 258.999 241.217">
  <g id="Grupo_53539" data-name="Grupo 53539" transform="translate(-763.739 -3204.995)">
    <g id="Grupo_53493" data-name="Grupo 53493" transform="translate(801.847 3223.18)">
      <g id="Grupo_53484" data-name="Grupo 53484" transform="translate(18.894 19.524)">
        <g id="Grupo_53482" data-name="Grupo 53482" transform="translate(0.002)">
          <path id="Trazado_98864" data-name="Trazado 98864" d="M906.411,3314.742s3.617-22.091-13.914-38.836-39.933-11.357-39.933-11.357-1.688,19.443,14.389,38.471S906.411,3314.742,906.411,3314.742Z" transform="translate(-852.513 -3263.722)" fill="#0dcece"/>
        </g>
        <g id="Grupo_53483" data-name="Grupo 53483" transform="translate(0 0.247)">
          <path id="Trazado_98865" data-name="Trazado 98865" d="M870.615,3307l-1.168-1.051,21.6-4.859-17.754-16.549-15.84,3.5-.532-1.145,15.321-3.339-19.728-18.39.02-.465.931-.266,11.533,10.75,1.185-11.089,1.176.125-1.279,11.972,16.558,15.434,5.258-19.443,1.161.868-5.441,19.486,22.977,21.418-.177.913-.413.154-13.909-12.966Z" transform="translate(-852.51 -3264.106)" fill="#0991a1"/>
        </g>
      </g>
      <g id="Grupo_53488" data-name="Grupo 53488" transform="translate(0 42.498)">
        <g id="Grupo_53486" data-name="Grupo 53486" transform="translate(0.015)">
          <g id="Grupo_53485" data-name="Grupo 53485">
            <path id="Trazado_98866" data-name="Trazado 98866" d="M895.323,3326.123s-8.566-20.681-32.291-25.676-39.924,11.39-39.924,11.39,8.81,17.414,32.5,25.115S895.323,3326.123,895.323,3326.123Z" transform="translate(-823.109 -3299.5)" fill="#11afb7"/>
          </g>
        </g>
        <g id="Grupo_53487" data-name="Grupo 53487" transform="translate(0 0.103)">
          <path id="Trazado_98867" data-name="Trazado 98867" d="M860.743,3338.349l-1.546-.278,15.794-15.51-23.81-4.71-11.615,11.325-1.056-.693,11.261-10.911-26.457-5.234-.228-.406.651-.716,15.467,3.06-4.836-10.049,1.066-.513,5.221,10.849,22.205,4.393-5.777-19.3,1.444.127,5.643,19.428,30.814,6.1.33.869-.27.348-18.654-3.69Z" transform="translate(-823.086 -3299.66)" fill="#0991a1"/>
        </g>
      </g>
      <g id="Grupo_53492" data-name="Grupo 53492" transform="translate(42.819)">
        <g id="Grupo_53490" data-name="Grupo 53490" transform="translate(0.246 0.502)">
          <g id="Grupo_53489" data-name="Grupo 53489">
            <path id="Trazado_98868" data-name="Trazado 98868" d="M920.129,3304.152s13.911-17.538,6.745-40.7-29.358-29.356-29.358-29.356-10.937,16.164-6.152,40.611S920.129,3304.152,920.129,3304.152Z" transform="translate(-890.153 -3234.098)" fill="#0991a1"/>
          </g>
        </g>
        <g id="Grupo_53491" data-name="Grupo 53491">
          <path id="Trazado_98869" data-name="Trazado 98869" d="M892.046,3279.064l-.509-1.487,21.231,6.265-7.456-23.1L889.77,3256.1l.092-1.26,15.009,4.539-8.285-25.666.244-.4.942.221,4.843,15,6.432-9.111.966.682-6.943,9.836,6.953,21.541,14.056-14.427.591,1.323-14.237,14.375,9.649,29.893-.6.711-.436-.066-5.841-18.1Z" transform="translate(-889.77 -3233.316)" fill="#0b686d"/>
        </g>
      </g>
    </g>
    <ellipse id="Elipse_5467" data-name="Elipse 5467" cx="129.5" cy="8.719" rx="129.5" ry="8.719" transform="translate(763.739 3425.276)" opacity="0.15"/>
    <g id="Grupo_53494" data-name="Grupo 53494" transform="translate(846.934 3246.57)">
      <path id="Trazado_98870" data-name="Trazado 98870" d="M904.243,3456.1h80.935a10.943,10.943,0,0,0,10.94-10.94V3280.682a10.943,10.943,0,0,0-10.94-10.94H904.247a10.944,10.944,0,0,0-10.944,10.94v164.47A10.943,10.943,0,0,0,904.243,3456.1Z" transform="translate(-893.303 -3269.742)" fill="#3c415e"/>
      <rect id="Rectángulo_5054" data-name="Rectángulo 5054" width="91.961" height="140.471" transform="translate(5.427 19.278)" fill="#faf9f9"/>
      <path id="Trazado_98871" data-name="Trazado 98871" d="M961.564,3286.175h12.852a3.213,3.213,0,0,0,0-6.426H961.564a3.213,3.213,0,0,0,0,6.426Z" transform="translate(-916.583 -3273.323)" fill="#faf9f9"/>
    </g>
    <g id="Grupo_53495" data-name="Grupo 53495" transform="translate(884.229 3337.467)">
      <path id="Trazado_98872" data-name="Trazado 98872" d="M951.686,3423.7l-.3,3.383a35.8,35.8,0,0,0,4.153,2.278l.625,1.956s-2.313,3.911-2.157,4.093l2.234,2.61a36,36,0,0,0,4.563-1.259l1.858.952s1.2,4.377,1.438,4.4l3.454.308c.235.021,2.311-4.054,2.311-4.054l2-.609s4,2.276,4.186,2.129l2.66-2.178a34.607,34.607,0,0,0-1.3-4.479l.962-1.812s4.467-1.156,4.488-1.393l.3-3.386a36.173,36.173,0,0,0-4.151-2.271l-.627-1.957s2.308-3.915,2.154-4.094l-2.231-2.61a35.871,35.871,0,0,0-4.571,1.256l-1.852-.951s-1.2-4.377-1.438-4.4l-3.454-.307c-.234-.021-2.31,4.057-2.31,4.057l-1.994.606s-4-2.275-4.188-2.126l-2.661,2.172a34.476,34.476,0,0,0,1.3,4.482l-.963,1.818S951.705,3423.462,951.686,3423.7Zm16.021-1.775a4.958,4.958,0,1,1-5.486,4.487A5.019,5.019,0,0,1,967.708,3421.922Z" transform="translate(-951.385 -3411.301)" fill="#698cf2"/>
    </g>
    <g id="Grupo_53496" data-name="Grupo 53496" transform="translate(863.637 3303.65)">
      <path id="Trazado_98873" data-name="Trazado 98873" d="M919.316,3375.256v4.119c0,.277,5.262,2.306,5.262,2.306l.966,2.3s-2.374,4.973-2.167,5.177l2.979,2.914c.2.193,5.378-2.012,5.378-2.012l2.348.95s1.917,5.16,2.209,5.16H940.5c.286,0,2.356-5.146,2.356-5.146l2.346-.95s5.084,2.319,5.286,2.122l2.98-2.917c.2-.2-2.055-5.272-2.055-5.272l.968-2.292s5.272-1.877,5.272-2.165v-4.123c0-.273-5.259-2.3-5.259-2.3l-.968-2.3s2.368-4.977,2.163-5.178l-2.976-2.913c-.2-.2-5.387,2.008-5.387,2.008l-2.34-.949s-1.916-5.16-2.209-5.16h-4.206c-.284,0-2.355,5.149-2.355,5.149l-2.344.946s-5.082-2.318-5.288-2.118l-2.981,2.91c-.2.2,2.053,5.275,2.053,5.275l-.968,2.3S919.314,3374.969,919.316,3375.256Zm19.166-3.865a6.014,6.014,0,1,1-6.145,6.01A6.088,6.088,0,0,1,938.482,3371.39Z" transform="translate(-919.316 -3358.636)" fill="#3366c2"/>
    </g>
    <g id="Grupo_53497" data-name="Grupo 53497" transform="translate(877.883 3204.995)">
      <path id="Trazado_98874" data-name="Trazado 98874" d="M989.617,3237.369l.939,4.356a3.734,3.734,0,0,1-1.234,3.635l-3.426,2.907-2.181-1.789,2.309-3.592-1.411-3.336Z" transform="translate(-956.608 -3216.581)" fill="#c69c6d"/>
      <path id="Trazado_98875" data-name="Trazado 98875" d="M958.743,3239.293l-4.491-1.924-1.126,4.507a3.734,3.734,0,0,0,1.108,3.667l3.482,3.171v-5.9Z" transform="translate(-945.621 -3216.581)" fill="#c69c6d"/>
      <path id="Trazado_98876" data-name="Trazado 98876" d="M969.569,3225.98l-2.438,3.464-1.924-3.464-4.324.408a4.563,4.563,0,0,0-3.622,2.441l-2.319,4.464,4.491,1.924-1.027,2.566v6.854l9.11,4.245,5.773-3.271,2.438-6.8-1.411-3.335,5-2.182-2.971-4.736a4.566,4.566,0,0,0-3.249-2.1Z" transform="translate(-946.311 -3212.505)" fill="#b9d4ef"/>
      <path id="Trazado_98877" data-name="Trazado 98877" d="M978.1,3252.189v-7.826H958.339v7.826l10.392,3.271Z" transform="translate(-947.527 -3219.084)" fill="#dfe2e2"/>
      <path id="Trazado_98878" data-name="Trazado 98878" d="M959.338,3263.79s19.759-2.182,26.686-5.774-.513-7.056-6.928-5-19.759,7.056-19.759,7.056Z" transform="translate(-947.884 -3221.96)" fill="#3c415e"/>
      <path id="Trazado_98879" data-name="Trazado 98879" d="M971.173,3264.073l.464-3.134s-22.66-10.338-28.818-7.131S953.083,3262.918,971.173,3264.073Z" transform="translate(-941.501 -3222.244)" fill="#3c415e"/>
      <path id="Trazado_98880" data-name="Trazado 98880" d="M988.16,3265.022l-.449,3.144s8.147,1.026,8.789.706,2.759-1.732,1.411-3.08S990.021,3264.381,988.16,3265.022Z" transform="translate(-958.039 -3226.337)" fill="#333"/>
      <path id="Trazado_98881" data-name="Trazado 98881" d="M953.245,3265.5l.449,3.015s-8.147,1.027-8.789.706-2.759-1.731-1.411-3.079S951.384,3264.854,953.245,3265.5Z" transform="translate(-942.056 -3226.49)" fill="#333"/>
      <path id="Trazado_98882" data-name="Trazado 98882" d="M975.289,3224.335l-2.438,4.17-1.925-4.17v-2.951h4.362Z" transform="translate(-952.032 -3210.861)" fill="#a67c52"/>
      <path id="Trazado_98883" data-name="Trazado 98883" d="M973.078,3218.475s3.031-1.916,3.375-4.271.344-4.29-.448-4.468-6.071-1.39-6.378-1.23a12.315,12.315,0,0,0-1.442,4.271c-.1,2.2,2.229,5.514,2.913,5.9S973.078,3218.475,973.078,3218.475Z" transform="translate(-951.05 -3206.247)" fill="#c69c6d"/>
      <path id="Trazado_98884" data-name="Trazado 98884" d="M976.026,3213.219a8.145,8.145,0,0,0,1.369-3.474c.193-1.86-.649-3.639-1.346-3.977-3.978-1.924-5.517.513-8.917-.77a21.088,21.088,0,0,0,.641,2.374,5.23,5.23,0,0,1,.229,3.087s1.054-1.676,1.952-1.933,4.234.834,5,0C974.957,3208.527,976.517,3208.739,976.026,3213.219Z" transform="translate(-950.673 -3204.995)" fill="#333"/>
    </g>
    <g id="Grupo_53498" data-name="Grupo 53498" transform="translate(886.022 3381.423)">
      <circle id="Elipse_5468" data-name="Elipse 5468" cx="23.348" cy="23.348" r="23.348" transform="matrix(0.831, -0.557, 0.557, 0.831, 0, 26)" fill="#4c78ff"/>
      <path id="Trazado_98885" data-name="Trazado 98885" d="M1032.415,3520.056c-1.934.013-3.049-3.2-2.057-5.778s2.228-1.556,2.252-2.485-1.444-.824-1.863-2.029.636-3.314.636-3.314a23.236,23.236,0,0,1,5.45,12.072A10.867,10.867,0,0,1,1032.415,3520.056Z" transform="translate(-981.308 -3489.309)" fill="#b9d4ef"/>
      <path id="Trazado_98886" data-name="Trazado 98886" d="M1009.658,3498.123c1.621,2.892,2.807.54,3.7-.509s3.634-.975,3.634-.975a23.243,23.243,0,0,0-7.88-2.5S1008.037,3495.23,1009.658,3498.123Z" transform="translate(-973.712 -3484.902)" fill="#b9d4ef"/>
      <path id="Trazado_98887" data-name="Trazado 98887" d="M976.413,3506.822c.632.923.759,3.118,3.556,5.656.976.886,3.095,1.089,4.325,2.687a3.571,3.571,0,0,0,3.019,1.774c1.022.112,2.295-1.042,3.244.312s1.939,1.766,2.086,1.312-1.114-2.2-2.256-2.551-2.147.3-3.08-.67.318-2.274,1.022-2.666a3.061,3.061,0,0,1,2.647-.027c.393.409.933.966,1.417.815s-.572-1.1-.672-2.433,2.226-4.01,4.255-6.393-.4-2.892-3.4-3.91-1.4,2.045-1.747,2.6-2.174.72-3.774.1-1.617-1.965-.36-3.233,1.627-2.243.129-2.121-5.259,2.154-5.695,1.431,1.462-1.606,3.662-2.751a6.368,6.368,0,0,1,6.262.864c.839.9,2.118,2.234,2.669,1.653s1.813-1.512-1.383-2.713-1.757-2.368-1.757-2.368a23.291,23.291,0,0,0-16.307,10.272A21.077,21.077,0,0,1,976.413,3506.822Z" transform="translate(-961.369 -3484.919)" fill="#b9d4ef"/>
      <path id="Trazado_98888" data-name="Trazado 98888" d="M1004.807,3535.65c.756,1.832,2.737,2.148,3.274,3s.388,4.661.311,5.934-.856,3.568.716,5.2,1.957.152,1.957.152c-1.165-.514-1.136-1.528-.867-3.247s1.477-2.729,2.414-3.868a41.747,41.747,0,0,0,3.669-6.986c.955-2.236-.019-3.2-1.976-3.347s-2.179-.542-3.566-1.446a8.162,8.162,0,0,0-3.9-.81C1004.408,3530,1004.049,3533.819,1004.807,3535.65Z" transform="translate(-972.169 -3497.818)" fill="#b9d4ef"/>
    </g>
    <g id="Grupo_53529" data-name="Grupo 53529" transform="translate(922.867 3226.884)">
      <g id="Grupo_53527" data-name="Grupo 53527" transform="translate(0 11.844)">
        <g id="Grupo_53500" data-name="Grupo 53500" transform="translate(4.003 60.567)">
          <g id="Grupo_53499" data-name="Grupo 53499">
            <path id="Trazado_98889" data-name="Trazado 98889" d="M1024.714,3369.792l-.193-.265-.15-.208-.276-.4c-.18-.259-.35-.514-.519-.768-.335-.507-.655-1.01-.968-1.516-.625-1.011-1.214-2.029-1.775-3.063a66.176,66.176,0,0,1-3.042-6.383l13-5.34a52.005,52.005,0,0,0,2.389,5.008c.442.815.907,1.619,1.39,2.4.24.389.485.773.73,1.144l.364.54.176.252.119.166Z" transform="translate(-1017.791 -3351.853)" fill="none"/>
          </g>
          <path id="Trazado_98890" data-name="Trazado 98890" d="M1029.427,3359.159l-1.267.607c-.34-.717-.671-1.437-.984-2.167l1.291-.555C1028.772,3357.755,1029.1,3358.459,1029.427,3359.159Z" transform="translate(-1021.15 -3353.711)" fill="#52298a" fill-rule="evenodd"/>
          <path id="Trazado_98891" data-name="Trazado 98891" d="M1032.382,3364.948l-1.221.7c-.395-.688-.771-1.386-1.137-2.089l1.247-.647C1031.629,3363.593,1032,3364.276,1032.382,3364.948Z" transform="translate(-1022.169 -3355.809)" fill="#52298a" fill-rule="evenodd"/>
          <path id="Trazado_98892" data-name="Trazado 98892" d="M1035.735,3370.487l-1.16.792c-.451-.66-.879-1.329-1.3-2l1.2-.735C1034.883,3369.2,1035.3,3369.851,1035.735,3370.487Z" transform="translate(-1023.334 -3357.825)" fill="#52298a" fill-rule="evenodd"/>
        </g>
        <g id="Grupo_53502" data-name="Grupo 53502" transform="translate(0.278 50.28)">
          <g id="Grupo_53501" data-name="Grupo 53501">
            <path id="Trazado_98893" data-name="Trazado 98893" d="M1015.715,3351.46a57.861,57.861,0,0,1-2.32-6.8,48.045,48.045,0,0,1-1.4-7.235l13.959-1.594a39.053,39.053,0,0,0,2.761,10.287Z" transform="translate(-1011.99 -3335.833)" fill="none"/>
          </g>
          <path id="Trazado_98894" data-name="Trazado 98894" d="M1023.419,3340.69l-1.378.273c-.087-.389-.145-.785-.216-1.178s-.126-.788-.182-1.185l1.391-.193c.053.382.1.764.176,1.144S1023.335,3340.313,1023.419,3340.69Z" transform="translate(-1015.445 -3336.754)" fill="#52298a" fill-rule="evenodd"/>
          <path id="Trazado_98895" data-name="Trazado 98895" d="M1024.876,3346.993l-1.346.4c-.114-.381-.229-.762-.328-1.149s-.211-.768-.3-1.157l1.365-.333c.084.377.191.749.29,1.123S1024.766,3346.623,1024.876,3346.993Z" transform="translate(-1015.896 -3339.026)" fill="#52298a" fill-rule="evenodd"/>
          <path id="Trazado_98896" data-name="Trazado 98896" d="M1026.892,3353.132l-1.309.511-.422-1.115-.4-1.125,1.33-.452.386,1.094Z" transform="translate(-1016.562 -3341.244)" fill="#52298a" fill-rule="evenodd"/>
        </g>
        <g id="Grupo_53504" data-name="Grupo 53504" transform="translate(0 35.06)">
          <g id="Grupo_53503" data-name="Grupo 53503">
            <path id="Trazado_98897" data-name="Trazado 98897" d="M1011.835,3328.944c-.067-.622-.136-1.243-.172-1.874-.021-.314-.046-.627-.062-.943l-.03-.951c-.03-.614-.006-1.322,0-1.992,0-.333.035-.694.057-1.041s.045-.7.087-1.056l.146-1.086c.028-.182.044-.358.085-.546l.112-.559.117-.557c.041-.187.075-.369.132-.561q.157-.569.326-1.136c.029-.094.055-.189.086-.284l.1-.287.213-.573.22-.57c.074-.19.171-.38.257-.57.182-.378.355-.757.557-1.129s.429-.736.651-1.1l11.852,7.545a2.646,2.646,0,0,1-.153.257c-.049.09-.086.2-.137.288a1.444,1.444,0,0,0-.073.147c-.018.057-.037.113-.058.168s-.042.111-.065.166l-.035.082c-.01.03-.016.064-.025.1q-.049.192-.109.38a1.3,1.3,0,0,0-.047.207l-.043.215-.048.215c-.019.068-.021.157-.034.234-.02.16-.042.319-.066.479s-.024.345-.039.517-.036.34-.031.534l-.008.561c0,.1-.009.179,0,.289l.01.313.018.627c.011.21.03.421.043.631.021.421.072.846.116,1.27Z" transform="translate(-1011.557 -3312.13)" fill="none"/>
          </g>
          <path id="Trazado_98898" data-name="Trazado 98898" d="M1023.611,3321.337l-1.343-.413.086-.3.109-.294.221-.587a5.671,5.671,0,0,1,.255-.575l.272-.569,1.244.654-.242.506a4.707,4.707,0,0,0-.227.514l-.2.527-.1.263Z" transform="translate(-1015.39 -3314.446)" fill="#52298a" fill-rule="evenodd"/>
          <path id="Trazado_98899" data-name="Trazado 98899" d="M1022.536,3327.715l-1.4-.073c.032-.406.052-.813.1-1.219s.1-.813.172-1.219l1.384.243c-.062.374-.105.752-.159,1.128S1022.567,3327.335,1022.536,3327.715Z" transform="translate(-1014.984 -3316.809)" fill="#52298a" fill-rule="evenodd"/>
          <path id="Trazado_98900" data-name="Trazado 98900" d="M1022.623,3334.238l-1.4.124-.083-1.2c-.026-.4-.029-.8-.044-1.2l1.4-.03c.015.385.017.77.042,1.154Z" transform="translate(-1014.97 -3319.217)" fill="#52298a" fill-rule="evenodd"/>
        </g>
        <g id="Grupo_53506" data-name="Grupo 53506" transform="translate(3.17 25.702)">
          <g id="Grupo_53505" data-name="Grupo 53505">
            <path id="Trazado_98901" data-name="Trazado 98901" d="M1016.494,3306.914a18.969,18.969,0,0,1,3.308-3.876c.311-.275.632-.525.953-.783.161-.125.322-.26.484-.374l.491-.338.494-.333c.165-.111.331-.222.5-.313q.5-.289,1-.571c.083-.046.168-.1.25-.138l.248-.122.5-.242c.331-.156.668-.329.993-.455l.986-.4.247-.1.242-.085.485-.167c.322-.107.651-.227.969-.321l.953-.273.477-.134c.157-.041.312-.076.468-.114l.936-.22,3.04,13.717-.6.141c-.1.024-.2.045-.3.071l-.281.082-.565.159c-.186.053-.351.12-.528.178l-.262.088-.131.043-.119.05-.476.194a4.466,4.466,0,0,0-.44.2l-.213.1-.107.05c-.035.017-.063.037-.094.055-.123.073-.247.145-.372.212a1.015,1.015,0,0,0-.17.109l-.159.11-.162.1c-.054.035-.09.076-.137.112-.086.075-.186.142-.269.215a4.925,4.925,0,0,0-.778.909Z" transform="translate(-1016.494 -3297.556)" fill="none"/>
          </g>
          <path id="Trazado_98902" data-name="Trazado 98902" d="M1037.272,3309.22l-.464-1.326c.765-.275,1.543-.49,2.322-.695l.344,1.362C1038.731,3308.757,1037.99,3308.96,1037.272,3309.22Z" transform="translate(-1023.764 -3301.007)" fill="#52298a" fill-rule="evenodd"/>
          <path id="Trazado_98903" data-name="Trazado 98903" d="M1031.374,3311.754l-.761-1.181a5.94,5.94,0,0,1,.53-.324l.539-.308c.177-.109.367-.187.55-.28l.555-.268.582,1.279-.512.248c-.169.085-.347.157-.507.258l-.492.281A5.28,5.28,0,0,0,1031.374,3311.754Z" transform="translate(-1021.547 -3301.792)" fill="#52298a" fill-rule="evenodd"/>
          <path id="Trazado_98904" data-name="Trazado 98904" d="M1026.57,3315.755l-1.116-.854a5,5,0,0,1,.4-.49l.417-.477c.143-.155.3-.294.451-.442s.3-.3.461-.43l.919,1.062c-.144.12-.272.256-.41.384s-.274.254-.4.391l-.368.422A4.211,4.211,0,0,0,1026.57,3315.755Z" transform="translate(-1019.701 -3303.106)" fill="#52298a" fill-rule="evenodd"/>
        </g>
        <g id="Grupo_53508" data-name="Grupo 53508" transform="translate(18.146 24.371)">
          <g id="Grupo_53507" data-name="Grupo 53507">
            <path id="Trazado_98905" data-name="Trazado 98905" d="M1039.816,3296.814a53.218,53.218,0,0,1,7.183-1.041c2.321-.189,4.587-.267,6.823-.29l.126,14.049c-1.971.021-3.914.089-5.788.243a39.419,39.419,0,0,0-5.3.756Z" transform="translate(-1039.816 -3295.484)" fill="none"/>
          </g>
          <path id="Trazado_98906" data-name="Trazado 98906" d="M1056.627,3306.5l-.06-1.4c.789-.041,1.577-.053,2.365-.071l.024,1.405C1058.179,3306.451,1057.4,3306.462,1056.627,3306.5Z" transform="translate(-1045.811 -3298.899)" fill="#52298a" fill-rule="evenodd"/>
          <path id="Trazado_98907" data-name="Trazado 98907" d="M1050.1,3306.887l-.143-1.4,1.184-.108c.395-.04.789-.056,1.184-.085l.093,1.4c-.386.028-.775.044-1.16.083Z" transform="translate(-1043.444 -3298.995)" fill="#52298a" fill-rule="evenodd"/>
          <path id="Trazado_98908" data-name="Trazado 98908" d="M1043.641,3307.711l-.267-1.379c.785-.164,1.573-.271,2.361-.394l.191,1.392C1045.162,3307.45,1044.4,3307.553,1043.641,3307.711Z" transform="translate(-1041.089 -3299.225)" fill="#52298a" fill-rule="evenodd"/>
        </g>
        <g id="Grupo_53510" data-name="Grupo 53510" transform="translate(32.152 24.367)">
          <g id="Grupo_53509" data-name="Grupo 53509">
            <path id="Trazado_98909" data-name="Trazado 98909" d="M1061.629,3295.481c4.469-.037,8.816.159,13.125.426l-.892,14.021c-4.091-.255-8.158-.433-12.107-.4Z" transform="translate(-1061.629 -3295.477)" fill="none"/>
          </g>
          <path id="Trazado_98910" data-name="Trazado 98910" d="M1076.242,3306.768l.071-1.4,1.175.06,1.174.071-.084,1.4-1.167-.07Z" transform="translate(-1066.859 -3299.015)" fill="#52298a" fill-rule="evenodd"/>
          <path id="Trazado_98911" data-name="Trazado 98911" d="M1069.718,3306.5l.04-1.4c.785.016,1.569.054,2.353.083l-.058,1.4C1071.275,3306.559,1070.5,3306.52,1069.718,3306.5Z" transform="translate(-1064.524 -3298.921)" fill="#52298a" fill-rule="evenodd"/>
          <path id="Trazado_98912" data-name="Trazado 98912" d="M1063.217,3306.406V3305c.787-.01,1.573.014,2.359.019l-.024,1.4C1064.774,3306.42,1063.995,3306.4,1063.217,3306.406Z" transform="translate(-1062.197 -3298.885)" fill="#52298a" fill-rule="evenodd"/>
        </g>
        <g id="Grupo_53512" data-name="Grupo 53512" transform="translate(44.385 24.798)">
          <g id="Grupo_53511" data-name="Grupo 53511">
            <path id="Trazado_98913" data-name="Trazado 98913" d="M1081.573,3296.148l3.106.189c1.029.057,2.058.115,3.08.16s2.043.087,3.064.127,2.031.064,3.034.077l-.237,14.047c-1.1-.013-2.186-.051-3.276-.082s-2.169-.08-3.244-.135-2.152-.109-3.224-.168l-3.2-.194Z" transform="translate(-1080.68 -3296.148)" fill="none"/>
          </g>
          <path id="Trazado_98914" data-name="Trazado 98914" d="M1095.888,3307.808l.049-1.4,2.332.067-.032,1.4Z" transform="translate(-1086.123 -3299.818)" fill="#52298a" fill-rule="evenodd"/>
          <path id="Trazado_98915" data-name="Trazado 98915" d="M1089.336,3307.524l.072-1.4,2.333.11-.06,1.4Z" transform="translate(-1083.778 -3299.717)" fill="#52298a" fill-rule="evenodd"/>
          <path id="Trazado_98916" data-name="Trazado 98916" d="M1082.813,3307.148l.089-1.4c.778.046,1.556.1,2.333.14l-.08,1.4C1084.374,3307.249,1083.594,3307.195,1082.813,3307.148Z" transform="translate(-1081.443 -3299.583)" fill="#52298a" fill-rule="evenodd"/>
        </g>
        <g id="Grupo_53514" data-name="Grupo 53514" transform="translate(57.324 24.866)">
          <g id="Grupo_53513" data-name="Grupo 53513">
            <path id="Trazado_98917" data-name="Trazado 98917" d="M1101.068,3296.739c2.011.033,4.006.035,5.942-.037a55.417,55.417,0,0,0,5.562-.448l1.958,13.913a69.087,69.087,0,0,1-7.016.576c-2.271.083-4.486.079-6.682.043Z" transform="translate(-1100.831 -3296.254)" fill="none"/>
          </g>
          <path id="Trazado_98918" data-name="Trazado 98918" d="M1115.566,3307.489l-.107-1.4c.385-.022.766-.067,1.149-.1l.573-.054.57-.069.168,1.4-.588.071-.588.056C1116.351,3307.42,1115.959,3307.467,1115.566,3307.489Z" transform="translate(-1106.066 -3299.693)" fill="#52298a" fill-rule="evenodd"/>
          <path id="Trazado_98919" data-name="Trazado 98919" d="M1109.029,3307.88l-.033-1.4,1.16-.032,1.157-.052.071,1.4-1.178.053Z" transform="translate(-1103.753 -3299.882)" fill="#52298a" fill-rule="evenodd"/>
          <path id="Trazado_98920" data-name="Trazado 98920" d="M1102.5,3307.964l.016-1.4c.776,0,1.552.013,2.328,0l.009,1.4C1104.064,3307.977,1103.281,3307.965,1102.5,3307.964Z" transform="translate(-1101.427 -3299.942)" fill="#52298a" fill-rule="evenodd"/>
        </g>
        <g id="Grupo_53516" data-name="Grupo 53516" transform="translate(69.065 22.771)">
          <g id="Grupo_53515" data-name="Grupo 53515">
            <path id="Trazado_98921" data-name="Trazado 98921" d="M1119.116,3295.086c.855-.131,1.7-.268,2.445-.456l.283-.067.142-.033.13-.039.519-.149a2.508,2.508,0,0,0,.243-.08l.231-.082.233-.079c.073-.027.134-.059.2-.086l.2-.083a1.466,1.466,0,0,0,.189-.083q.164-.089.333-.166c.094-.056.172-.111.263-.159a.6.6,0,0,0,.064-.036l.046-.038c.031-.025.062-.048.1-.07a1.434,1.434,0,0,0,.383-.39l11.939,7.406q-.195.316-.4.625c-.145.2-.293.4-.443.591s-.3.39-.457.581-.324.36-.489.538-.333.351-.5.524-.345.318-.52.477a13.246,13.246,0,0,1-1.068.876l-.544.394-.275.193c-.091.062-.18.114-.271.171-.361.221-.728.446-1.092.649q-.536.278-1.078.543c-.184.094-.355.163-.531.239l-.527.222c-.175.072-.354.149-.527.214l-.512.182-.514.179c-.171.059-.344.12-.508.165l-1,.289-.25.071-.242.059-.484.117c-1.3.319-2.532.52-3.757.7Z" transform="translate(-1119.116 -3292.991)" fill="none"/>
          </g>
          <path id="Trazado_98922" data-name="Trazado 98922" d="M1134.286,3301.64l-.832-1.133a8.762,8.762,0,0,0,.818-.67c.128-.119.24-.252.361-.377l.18-.189c.055-.067.106-.137.159-.206l1.1.875c-.064.082-.126.165-.191.245l-.213.226c-.143.148-.28.306-.43.446A10.309,10.309,0,0,1,1134.286,3301.64Z" transform="translate(-1124.248 -3295.165)" fill="#52298a" fill-rule="evenodd"/>
          <path id="Trazado_98923" data-name="Trazado 98923" d="M1128.448,3304.867l-.444-1.333c.348-.127.708-.233,1.042-.385l.509-.213c.167-.074.326-.163.49-.242l.636,1.253c-.182.089-.361.187-.545.268l-.557.234C1129.209,3304.615,1128.826,3304.73,1128.448,3304.867Z" transform="translate(-1122.297 -3296.463)" fill="#52298a" fill-rule="evenodd"/>
          <path id="Trazado_98924" data-name="Trazado 98924" d="M1122.111,3306.6l-.23-1.386c.379-.052.747-.137,1.121-.206s.74-.159,1.107-.246l.334,1.365c-.387.092-.773.189-1.163.259S1122.5,3306.542,1122.111,3306.6Z" transform="translate(-1120.105 -3297.202)" fill="#52298a" fill-rule="evenodd"/>
        </g>
        <g id="Grupo_53518" data-name="Grupo 53518" transform="translate(75.067 9.526)">
          <g id="Grupo_53517" data-name="Grupo 53517">
            <path id="Trazado_98925" data-name="Trazado 98925" d="M1128.463,3285.609a1.97,1.97,0,0,0,.227-.637c.011-.1.037-.187.053-.3s.019-.241.036-.36a.469.469,0,0,0,.006-.1l0-.106.006-.213.005-.106,0-.053,0-.042c0-.055,0-.11,0-.165a2.987,2.987,0,0,0-.053-.481c-.025-.113-.039-.165-.035-.146,0,0,0,0,0,0l9.294-10.54a13.876,13.876,0,0,1,3.652,5.078q.148.366.285.736c.087.244.16.484.236.728s.134.476.193.711.116.471.155.7a17.082,17.082,0,0,1,.31,2.65l.015.625,0,.155,0,.144-.008.288-.019.575-.011.289c0,.094-.008.192-.019.294q-.056.6-.124,1.21c-.056.412-.139.84-.216,1.259l-.062.315-.083.328-.175.652a12.842,12.842,0,0,1-.442,1.318c-.086.22-.16.438-.262.658s-.206.44-.313.658-.213.436-.331.65-.252.424-.382.634Z" transform="translate(-1128.463 -3272.364)" fill="none"/>
          </g>
          <path id="Trazado_98926" data-name="Trazado 98926" d="M1138.4,3283.221l-1.3.524a5.873,5.873,0,0,0-1.053-1.735l1.061-.922A7.246,7.246,0,0,1,1138.4,3283.221Z" transform="translate(-1131.175 -3275.486)" fill="#52298a" fill-rule="evenodd"/>
          <path id="Trazado_98927" data-name="Trazado 98927" d="M1139.837,3289.808l-1.4-.062a10.655,10.655,0,0,0-.09-2.159l1.389-.213A12.024,12.024,0,0,1,1139.837,3289.808Z" transform="translate(-1131.999 -3277.736)" fill="#52298a" fill-rule="evenodd"/>
          <path id="Trazado_98928" data-name="Trazado 98928" d="M1138.461,3296.324l-1.273-.6.115-.234.091-.247c.059-.165.124-.327.181-.494l.137-.514c.022-.086.049-.17.067-.258l.047-.265,1.379.265-.055.3c-.02.1-.051.2-.076.3l-.161.594c-.065.2-.141.387-.211.581l-.109.29Z" transform="translate(-1131.586 -3280.006)" fill="#52298a" fill-rule="evenodd"/>
        </g>
        <g id="Grupo_53520" data-name="Grupo 53520" transform="translate(67.569 5.122)">
          <g id="Grupo_53519" data-name="Grupo 53519">
            <path id="Trazado_98929" data-name="Trazado 98929" d="M1124.529,3280.449h0c.005,0-.014,0-.017-.011s-.026-.016-.042-.028a.214.214,0,0,1-.025-.019l-.038-.019a2.733,2.733,0,0,0-.439-.2,6.967,6.967,0,0,0-.714-.22c-.282-.067-.593-.132-.931-.185a18.931,18.931,0,0,0-2.283-.2c-.825-.028-1.7-.015-2.606.027l-.649-14.035c1.2-.055,2.427-.077,3.705-.035a32.8,32.8,0,0,1,4,.358c.7.11,1.423.253,2.163.435a20.874,20.874,0,0,1,2.3.716,16.768,16.768,0,0,1,2.417,1.134l.306.175.308.193c.2.131.405.257.615.41s.411.291.617.458.41.33.608.5Z" transform="translate(-1116.785 -3265.506)" fill="none"/>
          </g>
          <path id="Trazado_98930" data-name="Trazado 98930" d="M1121.1,3275.694l-.05,1.4c-.759-.027-1.522-.027-2.287-.007l-.037-1.4C1119.511,3275.666,1120.3,3275.666,1121.1,3275.694Z" transform="translate(-1117.478 -3269.144)" fill="#52298a" fill-rule="evenodd"/>
          <path id="Trazado_98931" data-name="Trazado 98931" d="M1127.65,3276.279l-.305,1.372a18.911,18.911,0,0,0-2.209-.35l.143-1.4A20.391,20.391,0,0,1,1127.65,3276.279Z" transform="translate(-1119.774 -3269.227)" fill="#52298a" fill-rule="evenodd"/>
          <path id="Trazado_98932" data-name="Trazado 98932" d="M1133.839,3278.41l-.783,1.167a9.1,9.1,0,0,0-1.9-.945l.482-1.319A10.492,10.492,0,0,1,1133.839,3278.41Z" transform="translate(-1121.929 -3269.731)" fill="#52298a" fill-rule="evenodd"/>
        </g>
        <g id="Grupo_53522" data-name="Grupo 53522" transform="translate(54.238 5.179)">
          <g id="Grupo_53521" data-name="Grupo 53521">
            <path id="Trazado_98933" data-name="Trazado 98933" d="M1110,3279.629c-1.809.083-3.72.284-5.678.546s-3.966.584-6.037.923l-2.265-13.866c2.083-.34,4.231-.689,6.444-.983s4.491-.542,6.887-.654Z" transform="translate(-1096.025 -3265.594)" fill="none"/>
          </g>
          <path id="Trazado_98934" data-name="Trazado 98934" d="M1101.417,3277.37l.214,1.389-2.307.367-.225-1.387Z" transform="translate(-1097.125 -3269.809)" fill="#52298a" fill-rule="evenodd"/>
          <path id="Trazado_98935" data-name="Trazado 98935" d="M1107.915,3276.458l.171,1.4q-1.153.141-2.305.307l-.2-1.391Q1106.746,3276.6,1107.915,3276.458Z" transform="translate(-1099.445 -3269.482)" fill="#52298a" fill-rule="evenodd"/>
          <path id="Trazado_98936" data-name="Trazado 98936" d="M1114.442,3275.832l.09,1.4c-.767.049-1.535.114-2.3.191l-.14-1.4Q1113.262,3275.909,1114.442,3275.832Z" transform="translate(-1101.774 -3269.258)" fill="#52298a" fill-rule="evenodd"/>
        </g>
        <g id="Grupo_53524" data-name="Grupo 53524" transform="translate(39.068 6.656)">
          <g id="Grupo_53523" data-name="Grupo 53523">
            <path id="Trazado_98937" data-name="Trazado 98937" d="M1089.835,3281.921l-3.173.51-.409.063-.207.031-.3.038q-.6.071-1.211.13c-.412.028-.835.034-1.252.044s-.848-.012-1.275-.037a17.671,17.671,0,0,1-5.122-1.087,18.167,18.167,0,0,1-4.483-2.484l8.438-11.234a4.084,4.084,0,0,0,1.015.577,3.55,3.55,0,0,0,1.031.207,5.216,5.216,0,0,0,.626,0q.178-.027.357-.042l.091-.006.183-.028.371-.056,3.059-.493Z" transform="translate(-1072.4 -3267.895)" fill="none"/>
          </g>
          <path id="Trazado_98938" data-name="Trazado 98938" d="M1082.159,3277.807l-.482,1.32c-.2-.067-.393-.16-.589-.24a5.913,5.913,0,0,1-.577-.264l-.563-.293c-.182-.106-.36-.22-.539-.331l.753-1.186c.159.1.317.2.478.293l.5.257a4.723,4.723,0,0,0,.507.233C1081.815,3277.665,1081.983,3277.749,1082.159,3277.807Z" transform="translate(-1074.908 -3271.087)" fill="#52298a" fill-rule="evenodd"/>
          <path id="Trazado_98939" data-name="Trazado 98939" d="M1088.451,3279.2l.055,1.4-.63.016c-.211,0-.422-.021-.633-.031l-.317-.019-.158-.01-.157-.022-.629-.093.24-1.384.552.081.138.021.14.008.279.016c.186.009.372.027.559.028Z" transform="translate(-1077.26 -3271.893)" fill="#52298a" fill-rule="evenodd"/>
          <path id="Trazado_98940" data-name="Trazado 98940" d="M1094.906,3278.418l.226,1.387-2.322.37-.214-1.389Z" transform="translate(-1079.628 -3271.661)" fill="#52298a" fill-rule="evenodd"/>
        </g>
        <g id="Grupo_53526" data-name="Grupo 53526" transform="translate(29.901)">
          <g id="Grupo_53525" data-name="Grupo 53525">
            <path id="Trazado_98941" data-name="Trazado 98941" d="M1067.291,3275.419a21.208,21.208,0,0,1-3.419-3.247,26.01,26.01,0,0,1-2.5-3.531,30.5,30.5,0,0,1-1.842-3.645c-.265-.616-.507-1.239-.734-1.877-.057-.159-.113-.32-.167-.484s-.109-.326-.162-.5-.106-.342-.159-.518l-.08-.281-.044-.159-.058-.222,13.635-3.388-.011-.042,0,.011.008.031.028.1.073.237c.026.082.054.167.083.255s.058.173.091.262c.125.353.264.712.415,1.061a16.464,16.464,0,0,0,1,1.987,9.407,9.407,0,0,0,2.278,2.714Z" transform="translate(-1058.123 -3257.529)" fill="none"/>
          </g>
          <path id="Trazado_98942" data-name="Trazado 98942" d="M1069.957,3263.535l-1.29.557c-.321-.743-.608-1.5-.86-2.271l1.337-.433C1069.381,3262.114,1069.653,3262.832,1069.957,3263.535Z" transform="translate(-1061.589 -3258.91)" fill-rule="evenodd"/>
          <path id="Trazado_98943" data-name="Trazado 98943" d="M1072.853,3269.258l-1.166.785a21.74,21.74,0,0,1-1.247-2.1l1.245-.653A20.212,20.212,0,0,0,1072.853,3269.258Z" transform="translate(-1062.531 -3261.023)" fill="#52298a" fill-rule="evenodd"/>
          <path id="Trazado_98944" data-name="Trazado 98944" d="M1076.842,3274.22l-.926,1.057a16.987,16.987,0,0,1-1.729-1.784l1.08-.9A15.583,15.583,0,0,0,1076.842,3274.22Z" transform="translate(-1063.872 -3262.92)" fill="#52298a" fill-rule="evenodd"/>
        </g>
      </g>
      <g id="Grupo_53528" data-name="Grupo 53528" transform="translate(16.61)">
        <path id="Trazado_98945" data-name="Trazado 98945" d="M1065.214,3244.813l-4.375,4-23.415-9.732Z" transform="translate(-1037.424 -3239.084)" fill="#ff0062"/>
        <path id="Trazado_98946" data-name="Trazado 98946" d="M1058.754,3257.957l2.086-9.141-23.415-9.732,19.409,13.208Z" transform="translate(-1037.424 -3239.084)" fill="#b7004b"/>
        <path id="Trazado_98947" data-name="Trazado 98947" d="M1049.559,3258.189l7.274-5.9-19.409-13.207Z" transform="translate(-1037.424 -3239.084)" fill="#ff0062"/>
      </g>
    </g>
    <g id="Grupo_53533" data-name="Grupo 53533" transform="translate(911.31 3303.421)">
      <g id="Grupo_53530" data-name="Grupo 53530" transform="translate(36.939 34.528)">
        <path id="Trazado_98948" data-name="Trazado 98948" d="M1062.583,3428.064l-7.5-11.017-1.836.918,7.04,13.771,2.294,2.907,3.519.612,1.224-3.52Z" transform="translate(-1051.861 -3413.839)" fill="#3366c2"/>
        <path id="Trazado_98949" data-name="Trazado 98949" d="M1054.312,3415.26s.395-1.442.153-1.683c-.459-.459-.459.612-.459.612a12.2,12.2,0,0,0-1.225-1.836c-.459-.458-1.836-.458-1.683.459a14.925,14.925,0,0,0,1.377,3.366Z" transform="translate(-1051.087 -3412.051)" fill="#c69c6d"/>
      </g>
      <g id="Grupo_53531" data-name="Grupo 53531">
        <path id="Trazado_98950" data-name="Trazado 98950" d="M993.559,3379.782v5.329c0,.358,6.807,2.985,6.807,2.985l1.25,2.97s-3.071,6.435-2.8,6.7l3.855,3.77c.259.25,6.959-2.6,6.959-2.6l3.037,1.229s2.481,6.676,2.858,6.676h5.443c.37,0,3.048-6.658,3.048-6.658l3.035-1.229s6.577,3,6.839,2.746l3.855-3.774c.255-.253-2.658-6.821-2.658-6.821l1.252-2.965s6.821-2.429,6.821-2.8V3380c0-.354-6.8-2.975-6.8-2.975l-1.252-2.971s3.065-6.439,2.8-6.7l-3.85-3.77c-.257-.255-6.97,2.6-6.97,2.6l-3.028-1.229s-2.479-6.676-2.857-6.676h-5.443c-.367,0-3.046,6.662-3.046,6.662l-3.032,1.225s-6.575-3-6.842-2.741l-3.857,3.766c-.257.252,2.656,6.825,2.656,6.825l-1.252,2.975S993.557,3379.412,993.559,3379.782Zm24.8-5a7.781,7.781,0,1,1-7.951,7.776A7.877,7.877,0,0,1,1018.356,3374.78Z" transform="translate(-993.559 -3358.279)" fill="#ff0062"/>
      </g>
      <path id="Trazado_98951" data-name="Trazado 98951" d="M1072.619,3440.383l-.306,2.754,2.3.306,1.224-3.519Z" transform="translate(-1021.744 -3387.498)" fill="#a67c52"/>
      <path id="Trazado_98952" data-name="Trazado 98952" d="M1077.053,3507.36s-.765,9.18,0,10.864,3.826,12.087,3.519,18.361h-2.448s-2.465-10.711-5.057-13.771l-2.9-3.213,2.9-12.24Z" transform="translate(-1020.976 -3411.633)" fill="#a67c52"/>
      <path id="Trazado_98953" data-name="Trazado 98953" d="M1075.411,3470.663l1.544,4.631a13.249,13.249,0,0,1-.563,9.793h0a10.446,10.446,0,0,0-.981,4.419v4.721h-11.017s-.612-19.585,1.224-23.564Z" transform="translate(-1018.875 -3398.5)" fill="#3c415e"/>
      <path id="Trazado_98954" data-name="Trazado 98954" d="M1073.02,3507.36s-1.224,10.4-1.224,13.464-.153,15.76-.153,15.76H1069.2s-2.6-15.148-2.6-16.832V3507.36Z" transform="translate(-1019.697 -3411.633)" fill="#c69c6d"/>
      <g id="Grupo_53532" data-name="Grupo 53532" transform="translate(32.952 34.253)">
        <path id="Trazado_98955" data-name="Trazado 98955" d="M1058.071,3437.978l-7.192-6.885-3.825-11.935,1.989-.918,5.662,11.017s5.661,5.355,7.65,5.355a32.9,32.9,0,0,1,5.967,1.071l.918,16.219h-9.792S1059.295,3439.2,1058.071,3437.978Z" transform="translate(-1045.656 -3413.991)" fill="#3366c2"/>
        <path id="Trazado_98956" data-name="Trazado 98956" d="M1048.264,3415.871s-.153-1.988-.459-1.988-.306.765-.306.765a5.767,5.767,0,0,1-.918-2.142.8.8,0,0,0-1.224-.765c-.612.306-.612,1.989-.153,3.213a5.486,5.486,0,0,0,1.071,1.836Z" transform="translate(-1044.876 -3411.623)" fill="#c69c6d"/>
      </g>
      <path id="Trazado_98957" data-name="Trazado 98957" d="M1069.965,3436.724s-2.755,0-3.519-1.377.306-5.355.918-5.967,3.366-2.295,4.9-.765,1.377,3.826,1.224,5.814S1070.271,3436.724,1069.965,3436.724Z" transform="translate(-1019.549 -3383.227)" fill="#c69c6d"/>
      <path id="Trazado_98958" data-name="Trazado 98958" d="M1069.184,3429.244a1.034,1.034,0,0,1-.75-.872c-.083-.753.123-1.892,1.873-2.475,2.754-.918,6.274-.306,7.038,3.979s-1.224,14.383,4.284,18.972c0,0-4.437,2.143-7.191-1.683s-.153-14.842-1.377-15.76-1.683.613-1.683.613S1071.782,3430,1069.184,3429.244Z" transform="translate(-1020.35 -3382.347)" fill="#333"/>
      <path id="Trazado_98959" data-name="Trazado 98959" d="M1083.1,3552.873h-2.448c-.118,1.418-2.333,3.292-3.338,4.072a.225.225,0,0,0,.128.4c1.314.053,4.333.01,5.046-1.416v1.377h.612Z" transform="translate(-1023.501 -3427.921)" fill="#333"/>
      <path id="Trazado_98960" data-name="Trazado 98960" d="M1071.184,3552.873h-2.448c-.118,1.418-2.334,3.292-3.338,4.072a.226.226,0,0,0,.128.4c1.314.053,4.333.01,5.046-1.416v1.377h.613Z" transform="translate(-1019.237 -3427.921)" fill="#333"/>
    </g>
    <path id="Trazado_98961" data-name="Trazado 98961" d="M788.679,3469.635c1.9.764,3.453,3.367,3.9,5.737.177-.836.364-1.67.574-2.5.035-.136.071-.273.106-.41-1.022-1.828-4.448-5.757-2.576-8.06,2.222.776,2.881,3.221,3.006,5.151.016.245.058.6.09.979.358-1.272.753-2.554,1.192-3.824a11,11,0,0,1-1.759-2.466c-.338-.671-1.51-3.652.594-2.9.8.288,1.483,2.443,1.646,4.024q.5-1.34,1.083-2.642c.428-4.651-.488-10.764,4.221-13.589,4.793-2.876,3.078,4.715,2.052,6.61-.883,1.63-3.048,5.338-5.511,7.3-.374.955-.734,1.915-1.052,2.893-.176.542-.344,1.086-.507,1.632,1.722-3.042,5.214-9.054,7.463-6.446,1.995,2.313-5.323,5.564-7.734,7.379-.469,1.637-.889,3.288-1.243,4.953-.092.432-.174.866-.258,1.3.8-1.279,1.345-3.1,2.542-4.087,1.062-.879,3.742-1.912,4.054-.171.444,2.479-3.089,3.388-4.775,4.128-1.212.532-1.637,1.191-2.012,1.144q-.561,3.164-.815,6.375c.936-2.687,2.992-6.664,6.435-6.108.516,4.461-4.272,4.565-6.479,6.685a64.346,64.346,0,0,0-.135,6.568c0,.026,0,.052,0,.078.539-2.1.882-4.2,2.366-5.98,1.347-1.62,4.335-2.639,3.638.505-.508,2.292-2.628,3.388-4.317,4.838-.752.645-1.249,1.4-1.637,1.753a59.365,59.365,0,0,0,.665,6.087c1.081-3.559,3.638-10.843,7.465-8.854.42,4.252-4.789,6.623-7.351,9.561.311,1.836.693,3.666,1.123,5.495a21.162,21.162,0,0,1,1.113-4.565c.351-1.12,2.707-4.629,4.422-2.593,1.693,2.009-2.121,4.585-3.248,5.514a6.086,6.086,0,0,0-1.978,2.928q.124.5.252,1.006c.441,1.729.9,3.474,1.312,5.228.306-3.189.17-9.05,4.433-8.649.455,2.4-1.18,6.177-2.806,7.956-.53.578-1.009,1.077-1.448,1.472.23,1.018.439,2.037.616,3.06,1.156-3.126,4.244-6.564,5.582-4.908,1.357,1.679-1.224,4.439-2.38,5.385a31.287,31.287,0,0,0-2.816,2.244,30.488,30.488,0,0,1,.185,3.667c-.012.875-1.407.808-1.456-.06a48.461,48.461,0,0,0-.565-5.031c-2.16-.827-6.507-.093-8.013-.943-2.1-1.183-1.82-3.322.585-3.817,2.187-.45,5.315,1.173,7.158,3.228-.268-1.439-.581-2.872-.918-4.3-1.8-1.174-4.4-.32-6.259-1.911-1.959-1.674-.7-4.128,1.836-3.341a9.542,9.542,0,0,1,3.9,3.081c-.25-1.015-.507-2.031-.761-3.049q-.33-1.323-.622-2.647c-1.973-.822-5.784-.11-6.672-3-.622-2.023,1.194-3.793,3.128-2.379a15.206,15.206,0,0,1,3.117,3.319c-.322-1.653-.589-3.31-.789-4.971-2.216-1.216-6.625-.033-7.971-2.786-1.1-2.247,1.819-3.291,3.724-2.406,1.872.87,3.069,2.8,4.175,4.56q-.205-1.86-.291-3.731c-1.724-1.263-4.974-1.772-5.987-4.117-.985-2.281.495-5.219,3.182-3.154a9.294,9.294,0,0,1,2.759,4.87q0-2.08.154-4.153a16.638,16.638,0,0,0-1.878-2.37c-.907-.935-2.153-1.773-2.253-3.138-.173-2.35,1.8-1.458,2.858-.074a9.05,9.05,0,0,1,1.438,3.7q.239-2.32.652-4.611C791.032,3475.042,785.815,3472.868,788.679,3469.635Z" transform="translate(-7.046 -87.146)" fill="#b9d4ef"/>
    <path id="Trazado_98962" data-name="Trazado 98962" d="M818.417,3504.971a4.96,4.96,0,0,1,2.42,3.564c.11-.52.227-1.038.357-1.551.021-.085.044-.17.066-.255-.635-1.136-2.764-3.577-1.6-5.008,1.381.482,1.79,2,1.868,3.2.01.152.037.37.056.608.222-.791.467-1.587.74-2.376a6.832,6.832,0,0,1-1.094-1.532c-.209-.417-.938-2.269.37-1.8.5.179.921,1.519,1.022,2.5.208-.554.432-1.1.673-1.641.266-2.891-.3-6.688,2.622-8.443,2.978-1.787,1.913,2.93,1.275,4.107a16.287,16.287,0,0,1-3.424,4.536c-.232.594-.457,1.19-.654,1.8-.11.336-.214.675-.315,1.014,1.07-1.89,3.24-5.625,4.637-4,1.24,1.437-3.307,3.457-4.8,4.585-.292,1.017-.552,2.043-.772,3.078-.058.268-.109.538-.161.808a9.863,9.863,0,0,1,1.58-2.54c.66-.546,2.325-1.188,2.519-.106.276,1.54-1.919,2.1-2.967,2.564-.753.33-1.018.74-1.25.711q-.349,1.966-.507,3.962c.582-1.67,1.859-4.141,4-3.8.321,2.772-2.654,2.836-4.025,4.153a40,40,0,0,0-.084,4.081c0,.017,0,.033,0,.049a8.73,8.73,0,0,1,1.47-3.716c.837-1.006,2.694-1.64,2.26.314-.315,1.424-1.633,2.1-2.682,3.006-.467.4-.776.872-1.018,1.09a36.992,36.992,0,0,0,.414,3.782c.672-2.212,2.26-6.738,4.638-5.5.261,2.642-2.976,4.115-4.567,5.94.193,1.141.43,2.277.7,3.414a13.134,13.134,0,0,1,.692-2.836c.218-.7,1.682-2.876,2.748-1.611,1.052,1.248-1.318,2.849-2.018,3.426a3.784,3.784,0,0,0-1.229,1.82q.077.312.157.624c.274,1.076.559,2.159.815,3.249.19-1.981.105-5.623,2.755-5.374.282,1.491-.733,3.838-1.744,4.943-.329.359-.627.669-.9.915.143.632.272,1.266.383,1.9.719-1.942,2.637-4.079,3.469-3.05s-.761,2.758-1.479,3.347a19.551,19.551,0,0,0-1.75,1.394,18.805,18.805,0,0,1,.114,2.279c-.007.543-.873.5-.9-.037a30.024,30.024,0,0,0-.351-3.126c-1.342-.514-4.043-.058-4.978-.586-1.3-.734-1.131-2.063.363-2.371,1.359-.28,3.3.728,4.448,2.005-.168-.895-.362-1.785-.571-2.675-1.119-.73-2.732-.2-3.889-1.187-1.217-1.041-.435-2.565,1.141-2.076a5.932,5.932,0,0,1,2.422,1.914c-.156-.63-.315-1.261-.473-1.894q-.205-.823-.386-1.645c-1.226-.51-3.595-.068-4.146-1.862-.386-1.256.743-2.356,1.944-1.478a9.451,9.451,0,0,1,1.936,2.063c-.2-1.027-.365-2.057-.49-3.089-1.377-.756-4.117-.02-4.953-1.731-.683-1.4,1.13-2.044,2.314-1.5a6.917,6.917,0,0,1,2.595,2.833q-.128-1.156-.181-2.318c-1.071-.785-3.091-1.1-3.72-2.558-.612-1.418.308-3.242,1.977-1.959a5.772,5.772,0,0,1,1.714,3.026q0-1.293.1-2.581a10.365,10.365,0,0,0-1.167-1.473c-.564-.581-1.338-1.1-1.4-1.949-.107-1.46,1.122-.907,1.777-.046a5.628,5.628,0,0,1,.893,2.3q.148-1.441.405-2.865C819.879,3508.331,816.636,3506.98,818.417,3504.971Z" transform="translate(-18.401 -102.657)" fill="#b9d4ef"/>
    <g id="Grupo_53538" data-name="Grupo 53538" transform="translate(839.579 3405.087)">
      <g id="Grupo_53534" data-name="Grupo 53534" transform="translate(15.662 6.785)">
        <path id="Trazado_98963" data-name="Trazado 98963" d="M910.118,3551.3s-6.394-9.954-2.76-24.122c0,0,10.462,2.325,13.95,24.122Z" transform="translate(-906.241 -3527.174)" fill="#0991a1"/>
        <path id="Trazado_98964" data-name="Trazado 98964" d="M917.329,3555.993s-2.732-13.078-4.258-15.694c0,0,4.591,8.282,5.274,15.694Z" transform="translate(-908.685 -3531.872)" fill="#0a777c"/>
      </g>
      <g id="Grupo_53535" data-name="Grupo 53535" transform="translate(26.027 6.973)">
        <path id="Trazado_98965" data-name="Trazado 98965" d="M933.571,3551.589s6.394-9.953,2.761-24.122c0,0-10.462,2.325-13.95,24.122Z" transform="translate(-922.382 -3527.467)" fill="#0991a1"/>
        <path id="Trazado_98966" data-name="Trazado 98966" d="M931.818,3556.286s2.732-13.078,4.257-15.693c0,0-4.59,8.282-5.274,15.693Z" transform="translate(-925.395 -3532.165)" fill="#0a777c"/>
      </g>
      <g id="Grupo_53536" data-name="Grupo 53536" transform="translate(34.884)">
        <path id="Trazado_98967" data-name="Trazado 98967" d="M950.6,3547.7s8.242-12.831,3.559-31.094c0,0-13.487,3-17.982,31.094Z" transform="translate(-936.176 -3516.608)" fill="#11afb7"/>
        <path id="Trazado_98968" data-name="Trazado 98968" d="M948.34,3553.758s3.521-16.858,5.488-20.23c0,0-5.918,10.677-6.8,20.23Z" transform="translate(-940.06 -3522.663)" fill="#0991a1"/>
      </g>
      <g id="Grupo_53537" data-name="Grupo 53537" transform="translate(0)">
        <path id="Trazado_98969" data-name="Trazado 98969" d="M886.847,3547.7s-8.242-12.831-3.559-31.094c0,0,13.486,3,17.982,31.094Z" transform="translate(-881.849 -3516.608)" fill="#11afb7"/>
        <path id="Trazado_98970" data-name="Trazado 98970" d="M896.142,3553.758s-3.521-16.858-5.488-20.23c0,0,5.918,10.677,6.8,20.23Z" transform="translate(-885 -3522.663)" fill="#0991a1"/>
      </g>
    </g>
  </g>
</svg>
