<svg xmlns="http://www.w3.org/2000/svg" width="81.508" height="81.508" viewBox="0 0 81.508 81.508">
  <g id="Grupo_54495" data-name="Grupo 54495" transform="translate(-179.754 -1808.868)">
    <g id="Grupo_54480" data-name="Grupo 54480" transform="translate(-456.682 419.103)">
      <path id="Trazado_99476" data-name="Trazado 99476" d="M40.754,0A40.754,40.754,0,1,1,0,40.754,40.754,40.754,0,0,1,40.754,0Z" transform="translate(636.436 1389.766)" fill="#ff0062"/>
    </g>
    <g id="Grupo_54490" data-name="Grupo 54490" transform="translate(-699.082 689.545)">
      <g id="Grupo_54487" data-name="Grupo 54487" transform="translate(896.834 1180.186)">
        <line id="Línea_164" data-name="Línea 164" x2="42.785" transform="translate(1.119 1.118)"/>
        <path id="Trazado_102070" data-name="Trazado 102070" d="M940.738,1177.9H897.952a1.118,1.118,0,0,1,0-2.236h42.786a1.118,1.118,0,0,1,0,2.236Z" transform="translate(-896.834 -1175.661)" fill="#fff"/>
      </g>
      <g id="Grupo_54488" data-name="Grupo 54488" transform="translate(936.292 1164.499)">
        <line id="Línea_165" data-name="Línea 165" y1="15.045" transform="translate(1.118 1.118)"/>
        <path id="Trazado_102071" data-name="Trazado 102071" d="M933.244,1178.912a1.118,1.118,0,0,1-1.118-1.118v-15.046a1.118,1.118,0,1,1,2.236,0v15.046A1.118,1.118,0,0,1,933.244,1178.912Z" transform="translate(-932.126 -1161.63)" fill="#fff"/>
      </g>
      <path id="Trazado_102072" data-name="Trazado 102072" d="M934.237,1167.615a2.03,2.03,0,0,1-.613-.092,4.548,4.548,0,0,1-3.113-1.631,5.732,5.732,0,0,1-.75-4.937c1.162-5.394,3.336-7.2,3.581-7.385a1.117,1.117,0,0,1,1.564.2c.154.2,3.751,4.9,2.421,10.225-.464,1.854-1.177,2.973-2.184,3.423A2.223,2.223,0,0,1,934.237,1167.615Zm.148-2.186h0Zm-.028-.013.028.013Zm-.459-9.074a15.041,15.041,0,0,0-1.95,5.085,3.918,3.918,0,0,0,.305,3.063,2.412,2.412,0,0,0,1.645.812,1.222,1.222,0,0,1,.349.068c.1-.063.536-.409.911-1.914A10.111,10.111,0,0,0,933.9,1156.342Z" transform="translate(3.861 1.89)" fill="#fff"/>
      <g id="Grupo_54489" data-name="Grupo 54489" transform="translate(899.719 1164.499)">
        <line id="Línea_166" data-name="Línea 166" y1="15.045" transform="translate(1.118 1.118)"/>
        <path id="Trazado_102073" data-name="Trazado 102073" d="M900.532,1178.912a1.117,1.117,0,0,1-1.118-1.118v-15.046a1.118,1.118,0,1,1,2.236,0v15.046A1.118,1.118,0,0,1,900.532,1178.912Z" transform="translate(-899.414 -1161.63)" fill="#fff"/>
      </g>
      <path id="Trazado_102074" data-name="Trazado 102074" d="M901.525,1167.615a2.037,2.037,0,0,1-.614-.092,4.544,4.544,0,0,1-3.112-1.631,5.732,5.732,0,0,1-.75-4.937c1.162-5.394,3.336-7.2,3.58-7.385a1.117,1.117,0,0,1,1.564.2c.154.2,3.751,4.9,2.421,10.225-.463,1.854-1.177,2.973-2.182,3.423A2.223,2.223,0,0,1,901.525,1167.615Zm.148-2.186h0Zm-.029-.013.029.013Zm-.458-9.073a15,15,0,0,0-1.95,5.084,3.917,3.917,0,0,0,.305,3.063,2.412,2.412,0,0,0,1.645.812,1.222,1.222,0,0,1,.349.068c.1-.063.534-.409.911-1.914A10.108,10.108,0,0,0,901.185,1156.343Z" transform="translate(0 1.89)" fill="#fff"/>
      <path id="Trazado_102075" data-name="Trazado 102075" d="M904.9,1178.491a1.118,1.118,0,0,1-1.118-1.118v-5.625a1.118,1.118,0,0,1,1.118-1.118h27.732a1.118,1.118,0,0,1,1.118,1.118v4.983a1.118,1.118,0,1,1-2.236,0v-3.865h-25.5v4.507A1.117,1.117,0,0,1,904.9,1178.491Z" transform="translate(0.82 3.931)" fill="#fff"/>
      <path id="Trazado_102076" data-name="Trazado 102076" d="M913.33,1178.491a1.118,1.118,0,0,1-1.118-1.118v-5.625a1.118,1.118,0,0,1,1.118-1.118h8.954a1.118,1.118,0,0,1,1.118,1.118v4.983a1.118,1.118,0,1,1-2.236,0v-3.865h-6.718v4.507A1.117,1.117,0,0,1,913.33,1178.491Z" transform="translate(1.815 3.931)" fill="#fff"/>
      <path id="Trazado_102077" data-name="Trazado 102077" d="M933.932,1173.859H902.984a1.118,1.118,0,0,1-1.118-1.118v-4.358a1.118,1.118,0,0,1,.232-.682c.073-.094,7.353-9.318,17.974-3.631,5.2,2.786,7.724,2.58,8.769,2.21a1.889,1.889,0,0,0,1.146-.907,1.153,1.153,0,0,1,.634-.628,1.129,1.129,0,0,1,.882.009l2.9,1.347a1.119,1.119,0,0,1,.647,1.015v5.625A1.118,1.118,0,0,1,933.932,1173.859Zm-29.83-2.236h28.712v-3.795l-1.385-.643a4.377,4.377,0,0,1-1.685,1.144c-2.476.969-6.087.2-10.729-2.287-8.054-4.317-13.7,1.36-14.913,2.746Z" transform="translate(0.594 2.939)" fill="#fff"/>
      <path id="Trazado_102078" data-name="Trazado 102078" d="M907.086,1168.776a1.118,1.118,0,0,1-1.118-1.118v-24.383a1.116,1.116,0,0,1,.7-1.036l11.895-4.833a1.119,1.119,0,0,1,1.538,1.037v27.828a1.118,1.118,0,0,1-2.236,0V1140.1l-9.658,3.923v23.632A1.118,1.118,0,0,1,907.086,1168.776Z" transform="translate(1.078)" fill="#fff"/>
      <path id="Trazado_102079" data-name="Trazado 102079" d="M926.139,1170.215a1.118,1.118,0,0,1-1.118-1.118v-20.663l-6.542-2.876a1.117,1.117,0,0,1,.9-2.046l7.21,3.17a1.117,1.117,0,0,1,.669,1.023V1169.1A1.118,1.118,0,0,1,926.139,1170.215Z" transform="translate(2.476 0.719)" fill="#fff"/>
      <path id="Trazado_102080" data-name="Trazado 102080" d="M914.987,1147.339a.922.922,0,0,1-.922-.921v-1.9a.922.922,0,0,1,1.844,0v1.9A.921.921,0,0,1,914.987,1147.339Z" transform="translate(2.034 0.74)" fill="#fff"/>
      <path id="Trazado_102081" data-name="Trazado 102081" d="M912.384,1147.339a.921.921,0,0,1-.921-.921v-1.9a.921.921,0,0,1,1.843,0v1.9A.921.921,0,0,1,912.384,1147.339Z" transform="translate(1.727 0.74)" fill="#fff"/>
      <path id="Trazado_102082" data-name="Trazado 102082" d="M909.743,1147.339a.922.922,0,0,1-.922-.921v-1.9a.922.922,0,0,1,1.844,0v1.9A.921.921,0,0,1,909.743,1147.339Z" transform="translate(1.415 0.74)" fill="#fff"/>
      <path id="Trazado_102083" data-name="Trazado 102083" d="M914.987,1150.9a.922.922,0,0,1-.922-.921v-1.9a.922.922,0,0,1,1.844,0v1.9A.921.921,0,0,1,914.987,1150.9Z" transform="translate(2.034 1.161)" fill="#fff"/>
      <path id="Trazado_102084" data-name="Trazado 102084" d="M912.384,1150.9a.921.921,0,0,1-.921-.921v-1.9a.921.921,0,0,1,1.843,0v1.9A.921.921,0,0,1,912.384,1150.9Z" transform="translate(1.727 1.161)" fill="#fff"/>
      <path id="Trazado_102085" data-name="Trazado 102085" d="M909.743,1150.9a.922.922,0,0,1-.922-.921v-1.9a.922.922,0,0,1,1.844,0v1.9A.921.921,0,0,1,909.743,1150.9Z" transform="translate(1.415 1.161)" fill="#fff"/>
      <path id="Trazado_102086" data-name="Trazado 102086" d="M914.987,1154.662a.923.923,0,0,1-.922-.922v-1.9a.922.922,0,0,1,1.844,0v1.9A.922.922,0,0,1,914.987,1154.662Z" transform="translate(2.034 1.604)" fill="#fff"/>
      <path id="Trazado_102087" data-name="Trazado 102087" d="M912.384,1154.662a.922.922,0,0,1-.921-.922v-1.9a.921.921,0,0,1,1.843,0v1.9A.922.922,0,0,1,912.384,1154.662Z" transform="translate(1.727 1.604)" fill="#fff"/>
      <path id="Trazado_102088" data-name="Trazado 102088" d="M909.743,1154.662a.923.923,0,0,1-.922-.922v-1.9a.922.922,0,0,1,1.844,0v1.9A.922.922,0,0,1,909.743,1154.662Z" transform="translate(1.415 1.604)" fill="#fff"/>
      <path id="Trazado_102089" data-name="Trazado 102089" d="M914.987,1158.324a.922.922,0,0,1-.922-.921v-1.9a.922.922,0,0,1,1.844,0v1.9A.921.921,0,0,1,914.987,1158.324Z" transform="translate(2.034 2.036)" fill="#fff"/>
      <path id="Trazado_102090" data-name="Trazado 102090" d="M912.384,1158.324a.921.921,0,0,1-.921-.921v-1.9a.921.921,0,0,1,1.843,0v1.9A.921.921,0,0,1,912.384,1158.324Z" transform="translate(1.727 2.036)" fill="#fff"/>
      <path id="Trazado_102091" data-name="Trazado 102091" d="M909.743,1158.324a.922.922,0,0,1-.922-.921v-1.9a.922.922,0,0,1,1.844,0v1.9A.921.921,0,0,1,909.743,1158.324Z" transform="translate(1.415 2.036)" fill="#fff"/>
      <path id="Trazado_102092" data-name="Trazado 102092" d="M922.754,1154.662a.922.922,0,0,1-.921-.922v-1.9a.921.921,0,0,1,1.843,0v1.9A.922.922,0,0,1,922.754,1154.662Z" transform="translate(2.951 1.604)" fill="#fff"/>
      <path id="Trazado_102093" data-name="Trazado 102093" d="M920.113,1154.662a.923.923,0,0,1-.922-.922v-1.9a.922.922,0,0,1,1.844,0v1.9A.922.922,0,0,1,920.113,1154.662Z" transform="translate(2.639 1.604)" fill="#fff"/>
      <path id="Trazado_102094" data-name="Trazado 102094" d="M922.754,1158.324a.921.921,0,0,1-.921-.921v-1.9a.921.921,0,0,1,1.843,0v1.9A.921.921,0,0,1,922.754,1158.324Z" transform="translate(2.951 2.036)" fill="#fff"/>
      <path id="Trazado_102095" data-name="Trazado 102095" d="M920.113,1158.324a.922.922,0,0,1-.922-.921v-1.9a.922.922,0,0,1,1.844,0v1.9A.921.921,0,0,1,920.113,1158.324Z" transform="translate(2.639 2.036)" fill="#fff"/>
    </g>
  </g>
</svg>
