<svg xmlns="http://www.w3.org/2000/svg" width="88.06" height="121.689" viewBox="0 0 88.06 121.689">
  <g id="Grupo_54530" data-name="Grupo 54530" transform="translate(-1088.402 -1611.145)">
    <path id="Trazado_102124" data-name="Trazado 102124" d="M1176.462,1732.834H1088.4V1611.145h67.258l20.8,20.318Zm-84.942-3.118h81.824v-96.941l-18.954-18.512h-62.87Z" fill="#ff0062"/>
    <g id="Grupo_54529" data-name="Grupo 54529">
      <path id="Trazado_102125" data-name="Trazado 102125" d="M1137.95,1660.785a10.869,10.869,0,0,0-7.059-2.5h-15.159c-5.841.017-10.4,4.118-10.39,9.332v26.464a17.05,17.05,0,0,0,4.921,12.1,16.85,16.85,0,0,0,12.037,4.905h1.947a16.681,16.681,0,0,0,16.886-17.01v-26.464a8.874,8.874,0,0,0-3.183-6.827Zm-7.088,1.044h.024a7.334,7.334,0,0,1,4.768,1.656,5.319,5.319,0,0,1,1.936,4.132v15.238h-12.521V1678.5a6.9,6.9,0,0,0,0-12.31v-4.358Zm-7.565,7.56c1.088,0,2.008,1.352,2.008,2.953s-.92,2.953-2.008,2.953-2.008-1.352-2.008-2.953S1122.208,1669.389,1123.3,1669.389Zm-7.56-7.56h5.788v4.357a6.9,6.9,0,0,0,0,12.311v4.358h-12.639v-15.243C1108.876,1664.005,1112.364,1661.839,1115.737,1661.829Zm8.5,45.713h-1.932a13.331,13.331,0,0,1-9.533-3.864,13.526,13.526,0,0,1-3.886-9.6V1686.4h28.7v7.683A13.113,13.113,0,0,1,1124.237,1707.542Z" fill="#ff0062"/>
      <path id="Trazado_102126" data-name="Trazado 102126" d="M1154.231,1661.231a1.771,1.771,0,0,0-2.352-.863l-6,2.779a1.772,1.772,0,1,0,1.489,3.215l6-2.779A1.771,1.771,0,0,0,1154.231,1661.231Z" fill="#ff0062"/>
      <path id="Trazado_102127" data-name="Trazado 102127" d="M1145.49,1659.362l2.516-6.328a1.772,1.772,0,1,0-3.293-1.309l-2.516,6.328a1.772,1.772,0,0,0,3.293,1.309Z" fill="#ff0062"/>
      <path id="Trazado_102128" data-name="Trazado 102128" d="M1156.216,1671.3l-6.21-2.28a1.772,1.772,0,0,0-1.221,3.327l6.21,2.279a1.772,1.772,0,1,0,1.221-3.326Z" fill="#ff0062"/>
    </g>
  </g>
</svg>
