<svg xmlns="http://www.w3.org/2000/svg" width="260" height="220" viewBox="0 0 260 220">
  <g id="Grupo_54721" data-name="Grupo 54721" transform="translate(-139 -396)">
    <rect id="Rectángulo_5020" data-name="Rectángulo 5020" width="260" height="220" rx="8" transform="translate(139 396)" fill="#e8e8e8"/>
    <g id="Grupo_54535" data-name="Grupo 54535" transform="translate(-6.57 1.92)">
      <g id="Grupo_54534" data-name="Grupo 54534" transform="translate(-760.148 -940.699)">
        <path id="Trazado_99165" data-name="Trazado 99165" d="M1076.771,1491.05v-37.113h-10.6l-6.921-10.381a48.088,48.088,0,0,0-40.039-21.43H989.291l-24.314,24.314a7.5,7.5,0,0,0,10.6,10.6l5.757-5.756,2.039,6.792A35.1,35.1,0,0,0,1017,1483.095h38.56Z" transform="translate(0.238 2.022)" fill="#f6ccbf"/>
        <g id="Grupo_53273" data-name="Grupo 53273" transform="translate(957.719 1506.326)">
          <path id="Trazado_99166" data-name="Trazado 99166" d="M1016.039,1505.945H960.37a2.651,2.651,0,1,1,0-5.3h55.669a2.651,2.651,0,0,1,0,5.3Z" transform="translate(-957.719 -1500.643)" fill="#3e5e7a"/>
          <path id="Trazado_99167" data-name="Trazado 99167" d="M1026.339,1505.945h-2.651a2.651,2.651,0,0,1,0-5.3h2.651a2.651,2.651,0,0,1,0,5.3Z" transform="translate(-954.766 -1500.643)" fill="#3e5e7a"/>
        </g>
        <path id="Trazado_99168" data-name="Trazado 99168" d="M1035.7,1446.283a24.969,24.969,0,0,0-19.133-8.981h-22.8l-13.249,13.272,2.039,6.792a35.1,35.1,0,0,0,33.626,25.015h25.3v-20.113A24.962,24.962,0,0,0,1035.7,1446.283Z" transform="translate(1.063 2.729)" fill="#e7b7a8"/>
        <rect id="Rectángulo_5262" data-name="Rectángulo 5262" width="66.691" height="66.691" transform="translate(1008.972 1383.293) rotate(45)" fill="#ff0062"/>
        <rect id="Rectángulo_5263" data-name="Rectángulo 5263" width="66.691" height="14.965" transform="translate(998.39 1467.026) rotate(-45)" fill="#cb0d56"/>
        <path id="Trazado_99173" data-name="Trazado 99173" d="M1077.505,1489.751v-37.113h-29.16l-10.6-2.651h-25.865a7.954,7.954,0,1,0-.01,15.909h17.923l4.544,7.954,2.755,4.814a22,22,0,0,0,19.1,11.086Z" transform="translate(2.155 3.321)" fill="#f6ccbf"/>
        <path id="Trazado_99174" data-name="Trazado 99174" d="M1071.694,1442.39H1108.8v53.017h-37.107Z" transform="translate(5.315 2.967)" fill="#249dac"/>
        <path id="Trazado_99175" data-name="Trazado 99175" d="M1089.658,1485.917a5.3,5.3,0,1,1,5.3-5.3,5.3,5.3,0,0,1-5.3,5.3Z" transform="translate(5.906 4.502)" fill="#f8f6f7"/>
        <path id="Trazado_102130" data-name="Trazado 102130" d="M1047.3,1397.15a2.094,2.094,0,0,0-2.093,2.093v1.177l-17.454-17.455h1.425a2.093,2.093,0,0,0,0-4.187H1022.7c-.044,0-.085.01-.129.014s-.093.007-.141.014a2.068,2.068,0,0,0-.518.13l-.013,0h0a2.086,2.086,0,0,0-.475.286c-.033.026-.066.052-.1.08a2.13,2.13,0,0,0-.362.4l-.006.01a2.1,2.1,0,0,0-.227.478c-.015.042-.027.083-.039.125a2.08,2.08,0,0,0-.083.551v5.984a2.093,2.093,0,0,0,4.187,0v-.93L1042,1403.132h-1.176a2.093,2.093,0,0,0,0,4.187h6.478a2.093,2.093,0,0,0,2.093-2.093v-5.982A2.093,2.093,0,0,0,1047.3,1397.15Z" transform="translate(2.933 0)" fill="#3e5e7a"/>
      </g>
    </g>
  </g>
</svg>
