<svg xmlns="http://www.w3.org/2000/svg" xmlns:xlink="http://www.w3.org/1999/xlink" width="227.416" height="159.961" viewBox="0 0 227.416 159.961">
  <defs>
    <linearGradient id="linear-gradient" x1="-34.37" y1="0.5" x2="-33.37" y2="0.5" gradientUnits="objectBoundingBox">
      <stop offset="0" stop-color="#738598"/>
      <stop offset="1" stop-color="#3c415e"/>
    </linearGradient>
  </defs>
  <g id="Grupo_53723" data-name="Grupo 53723" transform="translate(-65.568 -5183.716)">
    <ellipse id="Elipse_5475" data-name="Elipse 5475" cx="113.708" cy="5.593" rx="113.708" ry="5.593" transform="translate(65.568 5332.489)" opacity="0.15"/>
    <g id="Grupo_53712" data-name="Grupo 53712" transform="translate(211.828 5183.715)">
      <g id="Grupo_53710" data-name="Grupo 53710" transform="translate(0)">
        <g id="Grupo_53683" data-name="Grupo 53683" transform="translate(31.549 56.206)">
          <g id="Grupo_53682" data-name="Grupo 53682">
            <path id="Trazado_99249" data-name="Trazado 99249" d="M309.136,5273.192l.214-.119.167-.095.311-.182c.2-.119.4-.239.592-.358.385-.238.76-.479,1.13-.725.74-.489,1.458-1,2.162-1.52a49.4,49.4,0,0,0,4.059-3.375l-7.137-7.686a38.771,38.771,0,0,1-3.186,2.647c-.555.414-1.122.813-1.692,1.191-.285.188-.57.373-.853.547l-.416.252-.2.116-.133.075Z" transform="translate(-304.156 -5259.134)" fill="none"/>
          </g>
          <path id="Trazado_99250" data-name="Trazado 99250" d="M314.851,5265.683l.668.808c.455-.379.9-.764,1.345-1.16l-.7-.78C315.734,5264.937,315.294,5265.313,314.851,5265.683Z" transform="translate(-306.881 -5260.513)" fill="#3c415e" fill-rule="evenodd"/>
          <path id="Trazado_99251" data-name="Trazado 99251" d="M311.541,5268.26l.61.853c.483-.343.956-.7,1.425-1.06l-.643-.829C312.475,5267.577,312.013,5267.925,311.541,5268.26Z" transform="translate(-306.037 -5261.194)" fill="#3c415e" fill-rule="evenodd"/>
          <path id="Trazado_99252" data-name="Trazado 99252" d="M308.071,5270.583l.539.9c.512-.307,1.011-.626,1.505-.954l-.582-.873C309.053,5269.976,308.566,5270.287,308.071,5270.583Z" transform="translate(-305.153 -5261.814)" fill="#3c415e" fill-rule="evenodd"/>
        </g>
        <g id="Grupo_53685" data-name="Grupo 53685" transform="translate(38.027 50.098)">
          <g id="Grupo_53684" data-name="Grupo 53684">
            <path id="Trazado_99253" data-name="Trazado 99253" d="M319.985,5264.732a42.931,42.931,0,0,0,3.7-3.881,35.859,35.859,0,0,0,3.217-4.464l-8.962-5.449a29.124,29.124,0,0,1-5.091,6.108Z" transform="translate(-312.848 -5250.938)" fill="none"/>
          </g>
          <path id="Trazado_99254" data-name="Trazado 99254" d="M323.469,5256.542l.848.617c.18-.237.344-.486.515-.731s.332-.495.494-.745l-.883-.567c-.155.243-.309.486-.477.72S323.643,5256.313,323.469,5256.542Z" transform="translate(-315.554 -5252.002)" fill="#3c415e" fill-rule="evenodd"/>
          <path id="Trazado_99255" data-name="Trazado 99255" d="M320.861,5259.821l.787.694c.2-.224.393-.445.581-.676s.384-.455.565-.691l-.821-.653c-.175.229-.364.447-.548.67S321.052,5259.6,320.861,5259.821Z" transform="translate(-314.889 -5252.863)" fill="#3c415e" fill-rule="evenodd"/>
          <path id="Trazado_99256" data-name="Trazado 99256" d="M317.987,5262.854l.727.756.634-.624.621-.638-.76-.723-.6.621Z" transform="translate(-314.157 -5253.661)" fill="#3c415e" fill-rule="evenodd"/>
        </g>
        <g id="Grupo_53687" data-name="Grupo 53687" transform="translate(43.117 43.246)">
          <g id="Grupo_53686" data-name="Grupo 53686">
            <path id="Trazado_99257" data-name="Trazado 99257" d="M328.641,5254.045c.24-.4.481-.8.7-1.216.113-.207.227-.411.337-.621l.317-.634c.212-.406.418-.894.622-1.352.1-.225.193-.481.287-.724s.187-.485.271-.743l.241-.781c.037-.133.081-.257.113-.4l.1-.413.1-.415c.03-.139.065-.273.086-.422q.072-.435.135-.872c.01-.073.022-.146.031-.219l.019-.228.035-.456.029-.455c.009-.152,0-.312,0-.467-.005-.312,0-.624-.025-.939s-.06-.633-.1-.949l-10.394,1.4a2.006,2.006,0,0,0,.024.222c.006.077,0,.16,0,.239a.951.951,0,0,1,0,.123c-.005.044-.01.088-.013.132s-.007.088-.008.133l0,.066c0,.023-.009.048-.013.072-.018.1-.033.194-.045.292a.923.923,0,0,1-.034.155l-.038.16-.035.16c-.008.052-.034.112-.05.169-.036.113-.072.229-.105.344s-.092.243-.135.363-.082.242-.146.372l-.171.383c-.03.065-.05.124-.089.2l-.105.209-.209.419c-.073.138-.151.276-.227.414-.145.279-.313.551-.475.824Z" transform="translate(-319.679 -5241.744)" fill="none"/>
          </g>
          <path id="Trazado_99258" data-name="Trazado 99258" d="M328.647,5245.3l1.039.141.036-.23.018-.234.034-.467a4.284,4.284,0,0,0,.007-.469l-.007-.471-1.048.055.005.418a3.589,3.589,0,0,1-.006.42l-.031.419-.016.209Z" transform="translate(-321.964 -5242.209)" fill="#3c415e" fill-rule="evenodd"/>
          <path id="Trazado_99259" data-name="Trazado 99259" d="M327.569,5249.27l.974.39c.106-.286.219-.567.317-.856s.184-.583.265-.88l-1.014-.268c-.075.273-.164.542-.245.814S327.667,5249,327.569,5249.27Z" transform="translate(-321.689 -5243.25)" fill="#3c415e" fill-rule="evenodd"/>
          <path id="Trazado_99260" data-name="Trazado 99260" d="M325.75,5253l.911.521.432-.786c.142-.264.27-.534.405-.8l-.943-.459c-.13.256-.252.517-.39.77Z" transform="translate(-321.226 -5244.223)" fill="#3c415e" fill-rule="evenodd"/>
        </g>
        <g id="Grupo_53689" data-name="Grupo 53689" transform="translate(41.806 32.217)">
          <g id="Grupo_53688" data-name="Grupo 53688">
            <path id="Trazado_99261" data-name="Trazado 99261" d="M331.494,5237.974a14.181,14.181,0,0,0-1.029-3.662c-.125-.283-.265-.554-.4-.829-.07-.136-.136-.277-.211-.406l-.227-.383-.23-.38c-.078-.127-.156-.254-.238-.367q-.246-.352-.5-.7c-.042-.056-.083-.117-.127-.171l-.13-.16-.262-.319c-.175-.21-.35-.433-.531-.62l-.543-.58-.136-.144-.138-.133-.276-.266c-.185-.174-.37-.357-.556-.52l-.561-.484-.281-.24c-.094-.078-.188-.15-.282-.224l-.565-.442-6.353,8.346.363.284c.06.047.122.093.18.141l.165.144.333.285c.11.094.2.191.3.285l.15.142.075.071.065.071.262.28a3.369,3.369,0,0,1,.235.276l.113.135.057.067c.019.023.031.045.047.067q.089.133.186.261a.767.767,0,0,1,.081.127l.074.125.077.121c.026.04.037.08.058.118.034.078.081.155.115.23a3.658,3.658,0,0,1,.243.86Z" transform="translate(-317.919 -5226.945)" fill="none"/>
          </g>
          <path id="Trazado_99262" data-name="Trazado 99262" d="M323.89,5234.363l.73-.754c-.432-.426-.893-.814-1.356-1.2l-.66.815C323.046,5233.593,323.484,5233.962,323.89,5234.363Z" transform="translate(-319.112 -5228.338)" fill="#3c415e" fill-rule="evenodd"/>
          <path id="Trazado_99263" data-name="Trazado 99263" d="M326.6,5237.468l.886-.562a4.44,4.44,0,0,0-.259-.386l-.269-.377c-.086-.13-.189-.242-.285-.362l-.292-.355-.794.686.27.328c.088.111.186.215.263.333l.246.345A3.976,3.976,0,0,1,326.6,5237.468Z" transform="translate(-319.871 -5229.106)" fill="#3c415e" fill-rule="evenodd"/>
          <path id="Trazado_99264" data-name="Trazado 99264" d="M328.323,5241.164l1.023-.229a3.752,3.752,0,0,0-.117-.458l-.133-.453c-.049-.149-.112-.293-.168-.44s-.111-.295-.178-.436l-.955.432c.06.126.1.259.157.388s.107.259.15.391l.118.4A3.086,3.086,0,0,1,328.323,5241.164Z" transform="translate(-320.435 -5230.053)" fill="#3c415e" fill-rule="evenodd"/>
        </g>
        <g id="Grupo_53691" data-name="Grupo 53691" transform="translate(34.601 26.932)">
          <g id="Grupo_53690" data-name="Grupo 53690">
            <path id="Trazado_99265" data-name="Trazado 99265" d="M321.809,5225.138a39.805,39.805,0,0,0-4.543-2.953c-1.514-.854-3.025-1.616-4.534-2.331l-4.481,9.482c1.329.63,2.625,1.286,3.847,1.975a29.5,29.5,0,0,1,3.358,2.173Z" transform="translate(-308.251 -5219.854)" fill="none"/>
          </g>
          <path id="Trazado_99266" data-name="Trazado 99266" d="M313.442,5227.52l.48-.932c-.522-.275-1.052-.53-1.581-.789l-.456.945C312.4,5227,312.929,5227.25,313.442,5227.52Z" transform="translate(-309.177 -5221.369)" fill="#3c415e" fill-rule="evenodd"/>
          <path id="Trazado_99267" data-name="Trazado 99267" d="M317.122,5229.512l.534-.9-.768-.445c-.255-.151-.517-.285-.776-.428l-.5.921c.253.14.511.272.76.419Z" transform="translate(-310.126 -5221.862)" fill="#3c415e" fill-rule="evenodd"/>
          <path id="Trazado_99268" data-name="Trazado 99268" d="M320.63,5231.746l.613-.851c-.481-.356-.982-.675-1.477-1.005l-.565.884C319.681,5231.093,320.168,5231.4,320.63,5231.746Z" transform="translate(-311.04 -5222.41)" fill="#3c415e" fill-rule="evenodd"/>
        </g>
        <g id="Grupo_53693" data-name="Grupo 53693" transform="translate(26.27 23.115)">
          <g id="Grupo_53692" data-name="Grupo 53692">
            <path id="Trazado_99269" data-name="Trazado 99269" d="M309.885,5218.549c-3.017-1.424-6.025-2.651-9.029-3.818l-3.783,9.782c2.852,1.107,5.665,2.26,8.33,3.519Z" transform="translate(-297.073 -5214.731)" fill="none"/>
          </g>
          <path id="Trazado_99270" data-name="Trazado 99270" d="M301.923,5222.407l.391-.974-.815-.327-.818-.32-.382.977.813.318Z" transform="translate(-297.895 -5216.273)" fill="#3c415e" fill-rule="evenodd"/>
          <path id="Trazado_99271" data-name="Trazado 99271" d="M305.808,5224l.412-.964c-.537-.235-1.081-.454-1.621-.68l-.4.97C304.736,5223.553,305.276,5223.77,305.808,5224Z" transform="translate(-298.889 -5216.674)" fill="#3c415e" fill-rule="evenodd"/>
          <path id="Trazado_99272" data-name="Trazado 99272" d="M309.637,5225.688l.44-.952c-.531-.252-1.07-.483-1.6-.726l-.424.959C308.578,5225.21,309.113,5225.438,309.637,5225.688Z" transform="translate(-299.869 -5217.095)" fill="#3c415e" fill-rule="evenodd"/>
        </g>
        <g id="Grupo_53695" data-name="Grupo 53695" transform="translate(17.319 19.646)">
          <g id="Grupo_53694" data-name="Grupo 53694">
            <path id="Trazado_99273" data-name="Trazado 99273" d="M297.8,5213.545l-2.164-.844c-.715-.284-1.431-.566-2.138-.855s-1.412-.581-2.116-.872-1.4-.592-2.081-.9l-4.235,9.6c.75.334,1.5.649,2.246.97s1.495.625,2.241.923,1.492.6,2.238.9l2.226.868Z" transform="translate(-285.062 -5210.076)" fill="none"/>
          </g>
          <path id="Trazado_99274" data-name="Trazado 99274" d="M290.173,5217.707l.406-.967-1.6-.684-.418.961Z" transform="translate(-285.953 -5211.6)" fill="#3c415e" fill-rule="evenodd"/>
          <path id="Trazado_99275" data-name="Trazado 99275" d="M294.072,5219.315l.39-.974-1.616-.655-.4.97Z" transform="translate(-286.944 -5212.015)" fill="#3c415e" fill-rule="evenodd"/>
          <path id="Trazado_99276" data-name="Trazado 99276" d="M297.98,5220.859l.379-.978c-.542-.213-1.086-.42-1.626-.635l-.385.976C296.891,5220.438,297.436,5220.646,297.98,5220.859Z" transform="translate(-287.937 -5212.412)" fill="#3c415e" fill-rule="evenodd"/>
        </g>
        <g id="Grupo_53697" data-name="Grupo 53697" transform="translate(8.229 15.717)">
          <g id="Grupo_53696" data-name="Grupo 53696">
            <path id="Trazado_99277" data-name="Trazado 99277" d="M286.19,5208.733c-1.374-.607-2.726-1.229-4.015-1.884s-2.526-1.335-3.63-2.044l-5.68,8.816a51.323,51.323,0,0,0,4.574,2.586c1.513.767,3.016,1.458,4.516,2.121Z" transform="translate(-272.865 -5204.805)" fill="none"/>
          </g>
          <path id="Trazado_99278" data-name="Trazado 99278" d="M278.73,5212.225l.511-.916c-.254-.134-.129-.121-.378-.263l-.742-.381-.364-.225-.551.893.376.232.382.222C278.22,5211.933,278.471,5212.087,278.73,5212.225Z" transform="translate(-273.971 -5206.241)" fill="#3c415e" fill-rule="evenodd"/>
          <path id="Trazado_99279" data-name="Trazado 99279" d="M282.471,5214.2l.462-.941-.776-.385-.768-.4-.487.929,1.151.569Z" transform="translate(-274.912 -5206.76)" fill="#3c415e" fill-rule="evenodd"/>
          <path id="Trazado_99280" data-name="Trazado 99280" d="M286.278,5216.006l.429-.957c-.526-.242-1.056-.478-1.578-.726l-.446.949C285.211,5215.524,285.746,5215.761,286.278,5216.006Z" transform="translate(-275.875 -5207.23)" fill="#3c415e" fill-rule="evenodd"/>
        </g>
        <g id="Grupo_53699" data-name="Grupo 53699" transform="translate(0.088 12.419)">
          <g id="Grupo_53698" data-name="Grupo 53698">
            <path id="Trazado_99281" data-name="Trazado 99281" d="M275.762,5203.678c-.537-.357-1.069-.715-1.514-1.075l-.171-.133-.086-.067-.075-.067-.306-.265a1.649,1.649,0,0,1-.139-.129l-.132-.127-.133-.126c-.041-.042-.073-.082-.11-.122l-.11-.12a1.007,1.007,0,0,1-.1-.115c-.056-.074-.113-.146-.174-.216s-.082-.129-.128-.19c-.01-.015-.025-.031-.033-.045l-.019-.04c-.013-.026-.028-.051-.043-.077a1.069,1.069,0,0,1-.137-.384l-10.409,1.284c.022.183.046.365.073.547s.075.36.116.54.083.358.127.537.107.345.163.517.116.343.177.513.134.325.2.486a9.655,9.655,0,0,0,.449.929l.246.437.125.217c.043.07.086.133.13.2.175.262.354.53.537.782s.371.473.56.706c.095.122.189.221.285.328l.288.315c.1.1.193.212.29.31l.291.283.291.282c.1.095.2.19.293.271l.585.508.147.126.146.115.291.23c.782.623,1.554,1.145,2.327,1.653Z" transform="translate(-261.941 -5200.379)" fill="none"/>
          </g>
          <path id="Trazado_99282" data-name="Trazado 99282" d="M269.655,5204.067l.548-.672a6.688,6.688,0,0,1-.344-.71c-.049-.121-.084-.246-.127-.368l-.063-.185c-.016-.062-.028-.126-.043-.189l-1.02.248c.018.075.034.151.053.226l.074.22c.051.146.094.295.152.438C269.013,5203.354,269.495,5203.807,269.655,5204.067Z" transform="translate(-263.639 -5200.777)" fill="#3c415e" fill-rule="evenodd"/>
          <path id="Trazado_99283" data-name="Trazado 99283" d="M271.824,5207.285l.718-.765c-.2-.194-.037-.215-.215-.422l-.648-.469c-.09-.1-.171-.212-.256-.317l-.823.65c.1.118.186.239.285.353l.3.333C271.388,5206.876,271.611,5207.074,271.824,5207.285Z" transform="translate(-264.147 -5201.635)" fill="#3c415e" fill-rule="evenodd"/>
          <path id="Trazado_99284" data-name="Trazado 99284" d="M275.108,5209.961l.59-.867c-.24-.154-.464-.327-.7-.491s-.452-.339-.674-.513l-.654.82c.234.183.834.535,1.077.7S274.86,5209.8,275.108,5209.961Z" transform="translate(-264.93 -5202.343)" fill="#3c415e" fill-rule="evenodd"/>
        </g>
        <g id="Grupo_53701" data-name="Grupo 53701" transform="translate(0 0.457)">
          <g id="Grupo_53700" data-name="Grupo 53700">
            <path id="Trazado_99285" data-name="Trazado 99285" d="M272.32,5196.291a1.49,1.49,0,0,1,.045-.5c.024-.072.034-.138.057-.217s.063-.169.089-.256a.386.386,0,0,1,.027-.068l.032-.073.063-.146.03-.074.014-.037.015-.027c.019-.037.036-.073.054-.11a2.386,2.386,0,0,1,.186-.311c.052-.068.078-.1.069-.088h0l-3-10.051a10.356,10.356,0,0,0-4.065,2.3c-.143.134-.284.271-.423.409s-.26.278-.388.42-.239.281-.353.421-.225.284-.323.424a12.834,12.834,0,0,0-1.039,1.7l-.206.418-.05.1-.042.1-.086.2-.168.4-.082.2c-.028.064-.055.133-.08.206q-.152.428-.3.859c-.09.3-.168.613-.247.921l-.057.233-.045.248-.086.5a9.584,9.584,0,0,0-.113,1.032c-.01.177-.029.348-.028.528s0,.362.007.543.007.363.02.545.039.365.061.549Z" transform="translate(-261.823 -5184.329)" fill="none"/>
          </g>
          <path id="Trazado_99286" data-name="Trazado 99286" d="M271.652,5191.979l.72.763a6.038,6.038,0,0,1,1.626-.682l-.8-1.123A5.422,5.422,0,0,0,271.652,5191.979Z" transform="translate(-264.327 -5186.012)" fill="#3c415e" fill-rule="evenodd"/>
          <path id="Trazado_99287" data-name="Trazado 99287" d="M269.273,5195.469l.971.4a6.681,6.681,0,0,1,.736-1.435l-.875-.579A8.951,8.951,0,0,0,269.273,5195.469Z" transform="translate(-263.721 -5186.755)" fill="#3c415e" fill-rule="evenodd"/>
          <path id="Trazado_99288" data-name="Trazado 99288" d="M268.363,5199.666l1.049-.006,0-.194.016-.2c.012-.13.019-.26.032-.392l.068-.391c.012-.065.019-.13.035-.2l.051-.195-1.019-.251-.057.22c-.018.074-.028.15-.042.226l.292.617c-.016.153-.395.143-.408.3l-.018.229Z" transform="translate(-263.488 -5187.772)" fill="#3c415e" fill-rule="evenodd"/>
        </g>
        <g id="Grupo_53703" data-name="Grupo 53703" transform="translate(8.176)">
          <g id="Grupo_53702" data-name="Grupo 53702">
            <path id="Trazado_99289" data-name="Trazado 99289" d="M275.8,5194.224h0s.011,0,.015,0,.022,0,.037-.006l.023-.005h.032a2.118,2.118,0,0,1,.36,0,5.246,5.246,0,0,1,.553.074c.213.043.443.1.689.167a14.231,14.231,0,0,1,1.609.58c.568.24,1.158.523,1.757.834l4.831-9.309c-.8-.413-1.621-.812-2.5-1.184a24.8,24.8,0,0,0-2.824-1.009c-.51-.145-1.044-.273-1.6-.382a15.651,15.651,0,0,0-1.781-.233,12.509,12.509,0,0,0-1.994.012l-.262.023-.269.035c-.18.025-.355.047-.546.086s-.369.068-.561.116-.381.1-.569.151Z" transform="translate(-272.794 -5183.715)" fill="none"/>
          </g>
          <path id="Trazado_99290" data-name="Trazado 99290" d="M283.959,5191.915l-.405.967c.9.375,1.4.636,1.552.711l.465-.941C285.042,5192.392,284.506,5192.144,283.959,5191.915Z" transform="translate(-275.535 -5185.804)" fill="#3c415e" fill-rule="evenodd"/>
          <path id="Trazado_99291" data-name="Trazado 99291" d="M279.938,5190.584l-.222,1.024a14.353,14.353,0,0,1,1.606.455l.709-.828C281.469,5191.042,280.525,5190.71,279.938,5190.584Z" transform="translate(-274.557 -5185.465)" fill="#3c415e" fill-rule="evenodd"/>
          <path id="Trazado_99292" data-name="Trazado 99292" d="M275.663,5190.338l.165,1.035a6.768,6.768,0,0,1,1.581-.046l.086-1.046A6.921,6.921,0,0,0,275.663,5190.338Z" transform="translate(-273.525 -5185.379)" fill="#3c415e" fill-rule="evenodd"/>
        </g>
        <g id="Grupo_53705" data-name="Grupo 53705" transform="translate(16.253 2.842)">
          <g id="Grupo_53704" data-name="Grupo 53704">
            <path id="Trazado_99293" data-name="Trazado 99293" d="M283.631,5196.837c1.2.623,2.432,1.357,3.677,2.146s2.506,1.638,3.8,2.516l5.873-8.69c-1.3-.881-2.652-1.79-4.059-2.682s-2.874-1.773-4.463-2.6Z" transform="translate(-283.631 -5187.529)" fill="none"/>
          </g>
          <path id="Trazado_99294" data-name="Trazado 99294" d="M295.087,5198.2l-.211,1.038,1.449.971.217-1.034Z" transform="translate(-286.496 -5190.248)" fill="#3c415e" fill-rule="evenodd"/>
          <path id="Trazado_99295" data-name="Trazado 99295" d="M291.786,5196.135l-.921.728q.737.456,1.466.929l.57-.881C292.409,5196.593,292.285,5196.443,291.786,5196.135Z" transform="translate(-285.474 -5189.721)" fill="#3c415e" fill-rule="evenodd"/>
          <path id="Trazado_99296" data-name="Trazado 99296" d="M287.911,5193.786l-.13,1.087c.5.272.635.393,1.131.686l.533-.9Q288.687,5194.207,287.911,5193.786Z" transform="translate(-284.688 -5189.123)" fill="#3c415e" fill-rule="evenodd"/>
        </g>
        <g id="Grupo_53707" data-name="Grupo 53707" transform="translate(23.733 8.123)">
          <g id="Grupo_53706" data-name="Grupo 53706">
            <path id="Trazado_99297" data-name="Trazado 99297" d="M293.668,5203.3l1.991,1.338.258.17.13.086.193.12q.388.238.78.467c.27.147.555.285.835.422s.578.257.876.375a13.185,13.185,0,0,0,3.812.866,13.573,13.573,0,0,0,3.816-.281l-2.2-10.255a3.066,3.066,0,0,1-.868.074,2.652,2.652,0,0,1-.763-.183,3.991,3.991,0,0,1-.425-.194c-.075-.049-.151-.1-.23-.14l-.059-.033-.116-.076-.233-.155-1.92-1.292Z" transform="translate(-293.668 -5194.615)" fill="none"/>
          </g>
          <path id="Trazado_99298" data-name="Trazado 99298" d="M305.967,5203.889l-.086,1.046c.157.017.316.014.474.022s.686.177.844.166l.1-.187c.157-.015.312-.037.469-.055l-.139-1.04c-.139.016-.276.036-.415.05l-.417.019a3.825,3.825,0,0,1-.417,0C306.245,5203.9,306.105,5203.9,305.967,5203.889Z" transform="translate(-296.779 -5196.965)" fill="#3c415e" fill-rule="evenodd"/>
          <path id="Trazado_99299" data-name="Trazado 99299" d="M302,5202.79l-.476.935.423.208c.142.065.292.117.438.177l.221.086.11.043.114.034.455.135.271-1.014-.4-.118-.1-.029.272.127-.564-.242c-.129-.052-.261-.1-.388-.155Z" transform="translate(-295.67 -5196.698)" fill="#3c415e" fill-rule="evenodd"/>
          <path id="Trazado_99300" data-name="Trazado 99300" d="M298.607,5200.569l-.218,1.034,1.458.978.21-1.039Z" transform="translate(-294.871 -5196.132)" fill="#3c415e" fill-rule="evenodd"/>
        </g>
        <g id="Grupo_53709" data-name="Grupo 53709" transform="translate(34.219 6.855)">
          <g id="Grupo_53708" data-name="Grupo 53708">
            <path id="Trazado_99301" data-name="Trazado 99301" d="M309.943,5206.434a15.851,15.851,0,0,0,3.334-1.131,19.383,19.383,0,0,0,2.8-1.61,22.846,22.846,0,0,0,2.389-1.894c.372-.335.731-.682,1.084-1.043q.133-.135.265-.275t.265-.285c.088-.095.179-.2.27-.3l.142-.166.08-.095.109-.132-8.181-6.562.02-.026-.005.007-.016.018-.05.057-.124.138c-.042.048-.088.1-.136.147s-.094.1-.144.149c-.2.2-.4.4-.613.589a12.342,12.342,0,0,1-1.3,1.034,7.034,7.034,0,0,1-2.394,1.126Z" transform="translate(-307.739 -5192.914)" fill="none"/>
          </g>
          <path id="Trazado_99302" data-name="Trazado 99302" d="M316.993,5198.917l.7.781c.45-.4,1.25-.66,1.663-1.1l-1.139-.876C317.828,5198.134,317.419,5198.535,316.993,5198.917Z" transform="translate(-310.096 -5194.137)" fill="#52298a" fill-rule="evenodd"/>
          <path id="Trazado_99303" data-name="Trazado 99303" d="M313.7,5201.46l.545.9a16.121,16.121,0,0,0,1.5-1.032l-.639-.833A11.822,11.822,0,0,1,313.7,5201.46Z" transform="translate(-309.258 -5194.844)" fill="#3c415e" fill-rule="evenodd"/>
          <path id="Trazado_99304" data-name="Trazado 99304" d="M310.006,5203.256l.3,1.006a12.874,12.874,0,0,0,1.73-.667l-.451-.947A9.61,9.61,0,0,1,310.006,5203.256Z" transform="translate(-308.317 -5195.394)" fill="#3c415e" fill-rule="evenodd"/>
        </g>
      </g>
      <g id="Grupo_53711" data-name="Grupo 53711" transform="translate(40.32 2.438)">
        <path id="Trazado_99305" data-name="Trazado 99305" d="M315.926,5186.987l1.713,4.082,18.915.731Z" transform="translate(-315.926 -5186.987)" fill="#ff0062"/>
        <path id="Trazado_99306" data-name="Trazado 99306" d="M316.283,5199.311l1.447-6.847,18.915.731-17.288,2.878Z" transform="translate(-316.017 -5188.382)" fill="#a00041"/>
        <path id="Trazado_99307" data-name="Trazado 99307" d="M323.493,5202.6l-3.085-6.273,17.288-2.879Z" transform="translate(-317.068 -5188.631)" fill="#ff0062"/>
      </g>
    </g>
    <g id="Grupo_53715" data-name="Grupo 53715" transform="translate(91.62 5197.77)">
      <g id="Grupo_53713" data-name="Grupo 53713" transform="translate(0 23.671)">
        <rect id="Rect치ngulo_5077" data-name="Rect치ngulo 5077" width="132.827" height="81.74" transform="translate(15.326 10.217)" fill="#b9d4ef"/>
        <path id="Trazado_99308" data-name="Trazado 99308" d="M107.38,5246.075v92.989a2.553,2.553,0,0,0,2.554,2.555H258.087a2.553,2.553,0,0,0,2.555-2.555v-92.989a11.766,11.766,0,0,0-11.767-11.739H119.151A11.768,11.768,0,0,0,107.38,5246.075Zm140.49,80.218H120.151a2.554,2.554,0,0,1-2.554-2.555v-76.63a2.554,2.554,0,0,1,2.554-2.554H247.87a2.554,2.554,0,0,1,2.554,2.554v76.63A2.555,2.555,0,0,1,247.87,5326.292Z" transform="translate(-102.271 -5234.336)" fill="url(#linear-gradient)"/>
        <path id="Trazado_99309" data-name="Trazado 99309" d="M103.079,5371.436h158.37A2.553,2.553,0,0,1,264,5373.99h0a10.238,10.238,0,0,1-10.227,10.228H110.752a10.238,10.238,0,0,1-10.227-10.228h0A2.553,2.553,0,0,1,103.079,5371.436Z" transform="translate(-100.525 -5269.262)" fill="#3c415e"/>
        <path id="Trazado_99310" data-name="Trazado 99310" d="M215.184,5376.545H194.749a5.109,5.109,0,0,1-5.109-5.109h30.652A5.109,5.109,0,0,1,215.184,5376.545Z" transform="translate(-123.227 -5269.262)" fill="#dfe2e2"/>
      </g>
      <g id="Grupo_53714" data-name="Grupo 53714" transform="translate(40.019)">
        <path id="Trazado_99311" data-name="Trazado 99311" d="M154.223,5318.229h83.441V5202.574H172.707l-18.484,16.9Z" transform="translate(-154.223 -5202.574)" fill="#faf9f9"/>
        <path id="Trazado_99312" data-name="Trazado 99312" d="M172.707,5202.574v16.9H154.223Z" transform="translate(-154.223 -5202.574)" fill="#d5daeb"/>
        <rect id="Rect치ngulo_5078" data-name="Rect치ngulo 5078" width="34.855" height="24.821" transform="translate(59.148 41.72) rotate(180)" fill="#0991a1"/>
        <path id="Trazado_99313" data-name="Trazado 99313" d="M174.052,5272.7H227.39a2.113,2.113,0,0,0,2.113-2.112h0a2.113,2.113,0,0,0-2.113-2.113H174.052a2.113,2.113,0,0,0-2.113,2.113h0A2.112,2.112,0,0,0,174.052,5272.7Z" transform="translate(-158.736 -5219.362)" fill="#5258ac"/>
        <path id="Trazado_99314" data-name="Trazado 99314" d="M174.052,5286.165H227.39a2.113,2.113,0,0,0,2.113-2.112h0a2.113,2.113,0,0,0-2.113-2.113H174.052a2.113,2.113,0,0,0-2.113,2.113h0A2.112,2.112,0,0,0,174.052,5286.165Z" transform="translate(-158.736 -5222.792)" fill="#5258ac"/>
        <path id="Trazado_99315" data-name="Trazado 99315" d="M174.052,5299.628H227.39a2.113,2.113,0,0,0,2.113-2.112h0a2.113,2.113,0,0,0-2.113-2.113H174.052a2.113,2.113,0,0,0-2.113,2.113h0A2.112,2.112,0,0,0,174.052,5299.628Z" transform="translate(-158.736 -5226.222)" fill="#5258ac"/>
        <path id="Trazado_99316" data-name="Trazado 99316" d="M174.052,5313.093H227.39a2.113,2.113,0,0,0,2.113-2.113h0a2.113,2.113,0,0,0-2.113-2.112H174.052a2.112,2.112,0,0,0-2.113,2.112h0A2.113,2.113,0,0,0,174.052,5313.093Z" transform="translate(-158.736 -5229.652)" fill="#5258ac"/>
        <path id="Trazado_99317" data-name="Trazado 99317" d="M174.052,5326.557H227.39a2.113,2.113,0,0,0,2.113-2.112h0a2.113,2.113,0,0,0-2.113-2.112H174.052a2.112,2.112,0,0,0-2.113,2.112h0A2.112,2.112,0,0,0,174.052,5326.557Z" transform="translate(-158.736 -5233.082)" fill="#5258ac"/>
        <path id="Trazado_99318" data-name="Trazado 99318" d="M174.052,5340.021H227.39a2.113,2.113,0,0,0,2.113-2.112h0a2.113,2.113,0,0,0-2.113-2.112H174.052a2.112,2.112,0,0,0-2.113,2.112h0A2.112,2.112,0,0,0,174.052,5340.021Z" transform="translate(-158.736 -5236.512)" fill="#5258ac"/>
      </g>
    </g>
    <g id="Grupo_53718" data-name="Grupo 53718" transform="translate(178.126 5289.121)">
      <circle id="Elipse_5476" data-name="Elipse 5476" cx="24.272" cy="24.272" r="24.272" transform="translate(0.104 0.078)" fill="#ff0062"/>
      <circle id="Elipse_5477" data-name="Elipse 5477" cx="20.692" cy="20.692" r="20.692" transform="matrix(0.16, -0.987, 0.987, 0.16, 0.637, 41.46)" fill="#faf9f9"/>
      <path id="Trazado_99319" data-name="Trazado 99319" d="M243.93,5368.182a15.738,15.738,0,1,0-15.738-15.737A15.756,15.756,0,0,0,243.93,5368.182Z" transform="translate(-219.554 -5328.095)" fill="#ff0062"/>
      <path id="Trazado_99320" data-name="Trazado 99320" d="M245.624,5364.922a10.784,10.784,0,1,0-10.785-10.784A10.8,10.8,0,0,0,245.624,5364.922Z" transform="translate(-221.247 -5329.789)" fill="#faf9f9"/>
      <path id="Trazado_99321" data-name="Trazado 99321" d="M247.317,5361.661a5.831,5.831,0,1,0-5.831-5.83A5.837,5.837,0,0,0,247.317,5361.661Z" transform="translate(-222.94 -5331.481)" fill="#ff0062"/>
      <path id="Trazado_99322" data-name="Trazado 99322" d="M222.509,5332.955l19.061,19.062a1.343,1.343,0,0,0,1.9,0h0a1.342,1.342,0,0,0,0-1.9L224.4,5331.06Z" transform="translate(-218.106 -5326.656)" fill="#738598"/>
      <path id="Trazado_99323" data-name="Trazado 99323" d="M222.509,5333.279l19.061,19.062a1.343,1.343,0,0,0,1.9,0h0l-20.009-20.01Z" transform="translate(-218.106 -5326.979)" fill="#3c415e"/>
      <path id="Trazado_99324" data-name="Trazado 99324" d="M234.1,5332.489l-7.338-7.337-1.712,4.4,7.338,7.339Z" transform="translate(-218.754 -5325.151)" fill="#488b8f"/>
      <g id="Grupo_53716" data-name="Grupo 53716" transform="translate(0 1.896)">
        <path id="Trazado_99325" data-name="Trazado 99325" d="M234.02,5332.406l-1.1-1.1-1.712,4.4,1.1,1.1Z" transform="translate(-220.322 -5328.615)" fill="#add2c9"/>
        <path id="Trazado_99326" data-name="Trazado 99326" d="M230.41,5328.795l-1.1-1.1-1.712,4.4,1.1,1.1Z" transform="translate(-219.402 -5327.695)" fill="#add2c9"/>
        <path id="Trazado_99327" data-name="Trazado 99327" d="M221,5333.6l7.338,7.338-4.4,1.712-7.338-7.338Z" transform="translate(-216.601 -5329.2)" fill="#488b8f"/>
      </g>
      <g id="Grupo_53717" data-name="Grupo 53717" transform="translate(1.896 8.195)">
        <path id="Trazado_99328" data-name="Trazado 99328" d="M223.548,5336.146l1.1,1.1-4.4,1.713-1.1-1.1Z" transform="translate(-219.145 -5336.146)" fill="#add2c9"/>
        <path id="Trazado_99329" data-name="Trazado 99329" d="M227.158,5339.757l1.1,1.1-4.4,1.712-1.1-1.1Z" transform="translate(-220.065 -5337.066)" fill="#add2c9"/>
      </g>
    </g>
    <g id="Grupo_53722" data-name="Grupo 53722" transform="translate(119.642 5249.736)">
      <path id="Trazado_99330" data-name="Trazado 99330" d="M145.914,5304.316l-.328,5.877a3.877,3.877,0,0,0,.271,1.657l2.276,5.69,1.483-1.483-1.483-5.655.318-5.638Z" transform="translate(-140.024 -5280.459)" fill="#ffe1bd"/>
      <g id="Grupo_53719" data-name="Grupo 53719" transform="translate(7.144 33.561)">
        <path id="Trazado_99331" data-name="Trazado 99331" d="M155.464,5322.792l-6.789-5.456a12.722,12.722,0,0,0-.329,7.863c.622,1.979-.039,3.386.3,4.324.313.877,2.614,13.333,2.487,14.25s-1.142,3.5-1.488,6.2c-.381,2.968-.133,12.025-.329,15.7h-.006a16.878,16.878,0,0,1-.471,3.344,5.542,5.542,0,0,0-.807,2.092,1.28,1.28,0,0,0,.783,1.223c.545.262.9-.033,1.093-.015,1.131.11,1.351.96,3.293,1.234a2.959,2.959,0,0,0,2.022-.564.444.444,0,0,0,.068-.6c-.118-.176-1.557-.631-2.211-1.027a5.154,5.154,0,0,1-1.424-1.82,1.979,1.979,0,0,1-.013-.71h0c.073-.577.155-1.178.245-1.8.078-.467.142-.81.142-.81l-.02,0c1.219-8,3.593-18.583,3.909-22.221C156.267,5339.948,155.909,5332.554,155.464,5322.792Z" transform="translate(-147.749 -5317.337)" fill="#ffe1bd"/>
        <path id="Trazado_99332" data-name="Trazado 99332" d="M155.336,5390.958c.135-.244.162-.61.029-.7a10.987,10.987,0,0,0-1.221-.7c-.379-.164-.979-.3-.766-.194s-.163.541-.515.528c-1.214-.045-2.128-.83-2.822-.986a2.373,2.373,0,0,1-1.5-1.582,4.66,4.66,0,0,0-.683,1.382,2.393,2.393,0,0,0-.123,1.045,2.414,2.414,0,0,1,.135.992,1.9,1.9,0,0,0,.722.241,2.8,2.8,0,0,0,.772-.008l.071-.628a2.827,2.827,0,0,1,.619.046,3.32,3.32,0,0,1,.952.417c.142.162.26.46.446.548a3.864,3.864,0,0,0,1.6.358C154.356,5391.771,155.105,5391.375,155.336,5390.958Z" transform="translate(-147.711 -5335.167)" fill="#3c415e"/>
      </g>
      <g id="Grupo_53720" data-name="Grupo 53720" transform="translate(8.427 32.409)">
        <path id="Trazado_99333" data-name="Trazado 99333" d="M165.63,5372.109c-.145-.157-1.689-.392-2.415-.687a4.158,4.158,0,0,1-1.7-1.589,17.353,17.353,0,0,1-.137-3.218c.086-5.756,1.008-19.833,1.128-23.2.208-5.856-.613-11.892-2.961-21.268l-8.453-6.353s-2.305,4.39-1.476,8.558c.481,2.418,2.494,2.771,2.843,3.708s5.577,16.066,5.577,16.066a28.575,28.575,0,0,0-.975,6.887c-.018,3.07,1.467,12.314,1.761,15.838a11.575,11.575,0,0,1-.025,2.865c-.242.646-.869,1.409-.829,2.221a1.25,1.25,0,0,0,.964,1.1c.6.177.925-.17,1.128-.18,1.182-.061,1.518.749,3.559.728a3.237,3.237,0,0,0,2.018-.864A.431.431,0,0,0,165.63,5372.109Z" transform="translate(-149.433 -5315.792)" fill="#ffe1bd"/>
        <path id="Trazado_99334" data-name="Trazado 99334" d="M168.652,5391.445c.109-.263.091-.63-.058-.7a11.834,11.834,0,0,0-1.35-.505c-.413-.105-1.049-.153-.816-.077s-.1.561-.465.6c-1.261.138-2.3-.5-3.042-.553a1.936,1.936,0,0,1-1.54-1.345,4.884,4.884,0,0,0-.738,1.475,2.293,2.293,0,0,0,.005,1.055,2.3,2.3,0,0,1,.265.962,2.012,2.012,0,0,0,.777.13,3.1,3.1,0,0,0,.8-.123l-.006-.633a3.069,3.069,0,0,1,.645-.048,2.142,2.142,0,0,1,1.043.358c.174.128.359.346.565.4a4.269,4.269,0,0,0,1.658.109C167.742,5392.4,168.466,5391.893,168.652,5391.445Z" transform="translate(-152.273 -5334.408)" fill="#3c415e"/>
      </g>
      <g id="Grupo_53721" data-name="Grupo 53721" transform="translate(16.617 10.118)">
        <path id="Trazado_99335" data-name="Trazado 99335" d="M188.9,5290.327a2.873,2.873,0,0,0,2.146-.92.955.955,0,0,0,.16-.609c.207-.244.563-1.1-.056-.924a2.638,2.638,0,0,0,.973-1.8c.058-.244-.224-.317-.519.166a2.742,2.742,0,0,1-1.85,1.235c-.052-.133.127-.177.259-.459.148-.313.051-.532-.089-.584-.106-.039-.347.319-.429.389l-.936.795a1.953,1.953,0,0,0-.678.923c-.026.071-.19.79.118.689" transform="translate(-167.4 -5285.882)" fill="#ffe1bd"/>
        <path id="Trazado_99336" data-name="Trazado 99336" d="M161.569,5297.933c3.149-.036,8.787-.575,9.562-.727,3.054-.6,10.856-5.949,10.856-5.949a1.486,1.486,0,0,0-1.041-1.594c-1.979,1.605-9.064,3.641-10.007,4.214-.612.372-10.517-.033-10.517-.033" transform="translate(-160.422 -5286.845)" fill="#ffe1bd"/>
      </g>
      <path id="Trazado_99337" data-name="Trazado 99337" d="M147.282,5295.567a40.208,40.208,0,0,0-1.776,6.459l3.237.509v-4.585" transform="translate(-140.005 -5278.23)" fill="#f9b253"/>
      <path id="Trazado_99338" data-name="Trazado 99338" d="M158.613,5315.29c.056.515,2.815,6.281,3.156,12.465a53.2,53.2,0,0,1-.034,9.408c-2.878,1.7-9.237,1.894-12.369-.377a49.705,49.705,0,0,0-.982-7.751c-.147-.943-1.1-3.537-1.224-4.479-.47-3.565.426-6.907,2.759-8.92Z" transform="translate(-140.396 -5283.255)" fill="#3c415e"/>
      <path id="Trazado_99339" data-name="Trazado 99339" d="M158.645,5303.448a29.345,29.345,0,0,0,.154,4.688,9.362,9.362,0,0,1,.154,1.237.71.71,0,0,1-.244.482,3.425,3.425,0,0,1-1.7.656c-2.319.419-5.987.139-7.021.342-.972.2-1.97-.132-1.97-.727,0-.412.377-.642.412-1.453a48.013,48.013,0,0,0-.308-7.616,39.228,39.228,0,0,1-.608-4.5,5.535,5.535,0,0,1,5.387-5.9c1.383-.032,2.555-.048,2.76-.014a8.646,8.646,0,0,1,3.277,4.709,9.789,9.789,0,0,1,.818,1.635,2.881,2.881,0,0,1-.007,2.236A15.834,15.834,0,0,0,158.645,5303.448Z" transform="translate(-140.514 -5276.971)" fill="#dfe2e2"/>
      <path id="Trazado_99340" data-name="Trazado 99340" d="M162.259,5305.623a29.349,29.349,0,0,0,.154,4.688,9.347,9.347,0,0,1,.154,1.237.71.71,0,0,1-.244.482v-.008c.209-.468-.294-2.794-.51-4.1a14.786,14.786,0,0,1,.308-5.442c.461-1.6.636-2.362.636-2.362s.363-.545.615-.957a2.88,2.88,0,0,1-.007,2.235A15.832,15.832,0,0,0,162.259,5305.623Z" transform="translate(-144.127 -5279.146)" fill="#ccc"/>
      <path id="Trazado_99341" data-name="Trazado 99341" d="M158.933,5292.7a6.974,6.974,0,0,1,3.105.468,16.161,16.161,0,0,0,4.217,1.282,20.656,20.656,0,0,1-.133,4.508,17.143,17.143,0,0,0-3.755.156,25.447,25.447,0,0,0-6.78,2.239Z" transform="translate(-142.574 -5277.497)" fill="#dfe2e2"/>
      <path id="Trazado_99342" data-name="Trazado 99342" d="M158.295,5277.059c-.695-1.33-1.8-3.21-4.428-2.949s-4.887,1.92-4.855,3.893,1.368,4.349,1.883,5.714a8.986,8.986,0,0,1,.3,3.395l5.6-.168a8.771,8.771,0,0,1,.437-2.5,9.359,9.359,0,0,1,1.888-1.816,1.936,1.936,0,0,0,.478-2.029,15.128,15.128,0,0,0-.709-2.7C158.725,5277.571,158.445,5277.349,158.295,5277.059Z" transform="translate(-140.898 -5272.758)" fill="#ffe1bd"/>
      <path id="Trazado_99343" data-name="Trazado 99343" d="M154.021,5275.829c.882-.51,1.391-2.78-1.3-3.337s-9.085-.37-8.158,7.694-5.324,12.463-5.933,12.978c-1.205,1.02-.185,3.152,2.225,1.946s1.761,1.669,2.781,1.947,1.815.157,3.225-.9,1.567.573,2.615.71c2.132.278,2.41-2.039,1.854-3.338s-2.874-11.957-.186-14a2.36,2.36,0,0,1,2.033-.388.256.256,0,0,0,.3-.346C153.151,5278.008,152.777,5276.549,154.021,5275.829Z" transform="translate(-138.125 -5272.304)" fill="#002b55"/>
    </g>
  </g>
</svg>
