<svg xmlns="http://www.w3.org/2000/svg" width="85" height="86.75" viewBox="0 0 85 86.75">
  <g id="Grupo_53742" data-name="Grupo 53742" transform="translate(-415.578 -3132.389)">
    <path id="Trazado_99353" data-name="Trazado 99353" d="M480.231,3132.393c-.1,0-.194,0-.289,0H424.581a9.015,9.015,0,0,0-9,8.934v71.469a6.354,6.354,0,0,0,6.348,6.346h46.09a6.354,6.354,0,0,0,6.348-6.346v-52.945h10.422a4.2,4.2,0,0,0,4.2-4.193v-14.108a9.145,9.145,0,0,0-8.751-9.154Zm-9.256,8.93v71.469a2.961,2.961,0,0,1-2.96,2.958h-46.09a2.961,2.961,0,0,1-2.96-2.958v-71.4a5.621,5.621,0,0,1,5.615-5.615h48.356a8.918,8.918,0,0,0-1.962,5.543Zm14.618,14.332a.808.808,0,0,1-.806.805H474.364v-15.066a5.611,5.611,0,0,1,5.6-5.615h.016c.054,0,.105,0,.157,0a5.732,5.732,0,0,1,5.458,5.765Zm0,0" transform="translate(0 0)" fill="#ff0062"/>
    <path id="Trazado_99354" data-name="Trazado 99354" d="M434.217,3138.132a13.4,13.4,0,1,0,13.4,13.4,13.412,13.412,0,0,0-13.4-13.4Zm0,23.405a10.008,10.008,0,1,1,10.008-10.007,10.019,10.019,0,0,1-10.008,10.007Zm0,0" transform="translate(3.819 4.184)" fill="#ff0062"/>
    <path id="Trazado_99355" data-name="Trazado 99355" d="M430.991,3150.657a2.355,2.355,0,1,1,0-4.711,1.694,1.694,0,1,0,0-3.388,5.743,5.743,0,1,0,0,11.487,1.694,1.694,0,1,0,0-3.388Zm0,0" transform="translate(7.045 7.41)" fill="#ff0062"/>
    <path id="Trazado_99356" data-name="Trazado 99356" d="M458.414,3157.443h-35.9a1.694,1.694,0,0,0,0,3.389h35.9a1.694,1.694,0,0,0,0-3.389Zm0,0" transform="translate(3.819 18.258)" fill="#ff0062"/>
    <path id="Trazado_99357" data-name="Trazado 99357" d="M458.414,3161.6h-35.9a1.694,1.694,0,0,0,0,3.389h35.9a1.694,1.694,0,0,0,0-3.389Zm0,0" transform="translate(3.819 21.286)" fill="#ff0062"/>
    <path id="Trazado_99358" data-name="Trazado 99358" d="M441.151,3165.986H422.513a1.694,1.694,0,1,0,0,3.388h18.637a1.694,1.694,0,1,0,0-3.388Zm0,0" transform="translate(3.819 24.483)" fill="#ff0062"/>
    <path id="Trazado_99359" data-name="Trazado 99359" d="M469.144,3180.1v-5.093l2.863-5.6a1.7,1.7,0,0,0,.007-1.528l-7.456-14.927a1.694,1.694,0,0,0-1.514-.937h0a1.7,1.7,0,0,0-1.516.942l-7.456,15.058a1.7,1.7,0,0,0,.017,1.537l2.858,5.468v5.081a6.065,6.065,0,0,0-4.756,5.913c0,.057,0,.112.009.167l1.7,17.124a1.694,1.694,0,0,0,1.686,1.527H470.5a1.693,1.693,0,0,0,1.686-1.527l1.708-17.124c.005-.055.009-.11.009-.167a6.065,6.065,0,0,0-4.756-5.913Zm-7.8-19.151v7.079a1.694,1.694,0,1,0,3.388,0V3160.9l3.864,7.734-2.187,4.279H459.66l-2.173-4.161Zm4.408,15.346v3.661h-5.427V3176.3Zm3.208,25.146H457.121l-1.544-15.5a2.671,2.671,0,0,1,2.666-2.593h9.6a2.671,2.671,0,0,1,2.666,2.593Zm0,0" transform="translate(26.678 14.305)" fill="#ff0062"/>
    <path id="Trazado_99360" data-name="Trazado 99360" d="M441.3,3176.783a1.7,1.7,0,0,0-2.3-.671,1.016,1.016,0,0,1-1.151-.124,4.4,4.4,0,0,0-4.4-.828l-2.863,1.041a.567.567,0,0,1-.553-.192l-.377-.406a3.931,3.931,0,0,0-4.078-1.113l-3.347,1.041a1.694,1.694,0,0,0,1.008,3.235l3.345-1.04a.56.56,0,0,1,.588.182l.375.406a3.936,3.936,0,0,0,4.045,1.124c.031-.009.061-.019.09-.029l2.923-1.062a1.01,1.01,0,0,1,1.011.188,4.411,4.411,0,0,0,5.015.55,1.694,1.694,0,0,0,.669-2.3Zm0,0" transform="translate(3.98 30.549)" fill="#ff0062"/>
    <path id="Trazado_99361" data-name="Trazado 99361" d="M437.1,3176.773a1.694,1.694,0,1,1-1.694-1.694,1.695,1.695,0,0,1,1.694,1.694Zm0,0" transform="translate(13.216 31.11)" fill="#ff0062"/>
  </g>
</svg>
