<svg xmlns="http://www.w3.org/2000/svg" width="81.508" height="81.509" viewBox="0 0 81.508 81.509">
  <g id="Grupo_54473" data-name="Grupo 54473" transform="translate(-504 -10345.573)">
    <g id="Grupo_54341" data-name="Grupo 54341" transform="translate(-132.436 8955.808)">
      <path id="Trazado_99476" data-name="Trazado 99476" d="M40.754,0A40.754,40.754,0,1,1,0,40.754,40.754,40.754,0,0,1,40.754,0Z" transform="translate(636.436 1389.766)" fill="#ff0062"/>
    </g>
    <g id="Grupo_54374" data-name="Grupo 54374" transform="translate(-14 -12.685)">
      <g id="Grupo_54374-2" data-name="Grupo 54374" transform="translate(532.999 10379)">
        <path id="Trazado_101962" data-name="Trazado 101962" d="M1045.875,898.616l-48-.029c-.181-.043-4.419-1.108-4.783-7.064-.316-5.173-.016-29.056,0-30.071l0-.219.085-.2a6.872,6.872,0,0,1,3.707-3.534,7.212,7.212,0,0,1,5.9.75l.6.316v31.483l-1.479-.5c-.179-.059-4.5-1.442-6.318,1.816l-.268-.15c0,.059.007.117.01.17.233,3.814,2.446,4.805,2.966,4.987h45.339V868.036h2.243Zm-50.549-36.884c-.028,2.251-.223,18.9-.093,26.641a7.772,7.772,0,0,1,5.907-1.3V859.944a4.7,4.7,0,0,0-3.483-.34A4.543,4.543,0,0,0,995.326,861.732Z" transform="translate(-992.944 -857.09)" fill="#fff"/>
        <rect id="Rectángulo_5207" data-name="Rectángulo 5207" width="31.472" height="2.243" transform="translate(9.317 9.083)" fill="#fff"/>
        <path id="Trazado_101963" data-name="Trazado 101963" d="M1033.008,895.931l-4.22-8.006V859.49l.057-.173a3.288,3.288,0,0,1,3.905-2.145c1.55.042,3.612.27,4.239,1.619a1.884,1.884,0,0,1-.025,1.608v27.618Zm-1.977-8.561,1.924,3.651,1.766-3.533.009-27.8a7.259,7.259,0,0,0-2.144-.277l-.252-.035a1.091,1.091,0,0,0-1.3.507Z" transform="translate(-988.59 -857.097)" fill="#fff"/>
        <rect id="Rectángulo_5208" data-name="Rectángulo 5208" width="5.934" height="2.243" transform="translate(41.318 28.475)" fill="#fff"/>
        <rect id="Rectángulo_5209" data-name="Rectángulo 5209" width="5.192" height="2.243" transform="translate(41.318 5.692)" fill="#fff"/>
        <path id="Trazado_101964" data-name="Trazado 101964" d="M1014.48,879.7h-10.827v-10.72h10.827Zm-8.584-2.243h6.341V871.22H1005.9Z" transform="translate(-991.644 -855.654)" fill="#fff"/>
        <path id="Trazado_101965" data-name="Trazado 101965" d="M1030.267,892.588H1002.8v-7.965h6.464v-4.875h9.13v3.073h5.935v1.8h5.935Zm-25.221-2.243h22.978v-3.479h-5.935v-1.8h-5.935v-3.073h-4.644v4.875h-6.464Z" transform="translate(-991.747 -854.346)" fill="#fff"/>
        <rect id="Rectángulo_5210" data-name="Rectángulo 5210" width="11.762" height="2.243" transform="translate(25.635 13.958)" fill="#fff"/>
        <rect id="Rectángulo_5211" data-name="Rectángulo 5211" width="11.762" height="2.243" transform="translate(25.635 18.196)" fill="#fff"/>
        <rect id="Rectángulo_5212" data-name="Rectángulo 5212" width="2.243" height="6.782" transform="translate(30.395 29.596)" fill="#fff"/>
        <rect id="Rectángulo_5213" data-name="Rectángulo 5213" width="2.243" height="9.325" transform="translate(24.408 27.053)" fill="#fff"/>
        <rect id="Rectángulo_5214" data-name="Rectángulo 5214" width="2.243" height="10.596" transform="translate(17.52 26.523)" fill="#fff"/>
      </g>
    </g>
  </g>
</svg>
