<svg xmlns="http://www.w3.org/2000/svg" width="90.57" height="124.02" viewBox="0 0 90.57 124.02">
  <g id="Grupo_54245" data-name="Grupo 54245" transform="translate(-1658.569 -1285.428)">
    <g id="Grupo_54317" data-name="Grupo 54317">
      <path id="Trazado_101941" data-name="Trazado 101941" d="M1684.9,1342.441a26.448,26.448,0,1,0-.242-37.4,26.478,26.478,0,0,0,.242,37.4Zm2.733-2.768a22.558,22.558,0,1,1,31.9-.206,22.584,22.584,0,0,1-31.9.206Z" fill="#ff0062"/>
      <path id="Trazado_101942" data-name="Trazado 101942" d="M1696.545,1406.4a10.567,10.567,0,0,0,17.991-7.588l-.191-29.579a1.946,1.946,0,0,0-1.958-1.932l-.948.006-.057-8.8a35.81,35.81,0,1,0-15.349.1l.057,8.8-.947.006a1.946,1.946,0,0,0-1.932,1.958l.191,29.578a10.5,10.5,0,0,0,3.143,7.452Zm29.634-60.377a31.893,31.893,0,1,1-.292-45.1A31.929,31.929,0,0,1,1726.179,1346.024Zm-18.63,21.309-7.57.049-.053-8.175a36.138,36.138,0,0,0,7.57-.049Zm-8.271,36.3a6.633,6.633,0,0,1-1.986-4.709l-.179-27.634,13.355-.086.178,27.634a6.677,6.677,0,0,1-11.368,4.8Z" fill="#ff0062"/>
    </g>
    <path id="Trazado_101943" data-name="Trazado 101943" d="M1703.481,1333.533a9.914,9.914,0,1,1,9.915-9.914A9.925,9.925,0,0,1,1703.481,1333.533Zm0-16.828a6.914,6.914,0,1,0,6.915,6.914A6.922,6.922,0,0,0,1703.481,1316.7Z" fill="#ff0062"/>
    <path id="Trazado_101944" data-name="Trazado 101944" d="M1671.607,1369.822c-4.271,0-7.714-1.25-10.041-3.8-4.192-4.6-3.354-12.974,2.358-23.591,5.326-9.9,14.326-20.882,25.344-30.93,20.489-18.687,47.371-32.95,56.835-22.575,5.444,5.97,3.56,15.745-5.6,29.054a2.352,2.352,0,0,1-3.875-2.668c5.331-7.746,10.7-18.061,6-23.216-5.39-5.908-27.328,2.035-50.188,22.882-10.635,9.7-19.291,20.24-24.371,29.682-4.557,8.471-5.688,15.272-3.024,18.193,3.658,4.011,14.6,3.373,30.793-7.1a2.353,2.353,0,0,1,2.555,3.951C1688.077,1366.371,1678.7,1369.822,1671.607,1369.822Z" fill="#ff0062"/>
    <path id="Trazado_101945" data-name="Trazado 101945" d="M1736.311,1369.972c-5.626,0-13.6-2.5-24.9-9.81a2.353,2.353,0,1,1,2.555-3.951c14.08,9.109,24.256,11.465,28.657,6.641,2.664-2.921,1.533-9.722-3.024-18.193-5.081-9.442-13.736-19.984-24.371-29.682-22.858-20.847-44.795-28.79-50.188-22.882-3.674,4.028-1.431,12.445,6.315,23.7a2.352,2.352,0,0,1-3.875,2.668c-9.377-13.623-11.367-23.561-5.917-29.537,9.462-10.379,36.345,3.888,56.835,22.575,11.018,10.048,20.018,21.032,25.344,30.93,5.712,10.617,6.55,18.995,2.358,23.591C1744.119,1368.2,1741.048,1369.972,1736.311,1369.972Z" fill="#ff0062"/>
  </g>
</svg>
