<svg xmlns="http://www.w3.org/2000/svg" width="81.508" height="81.509" viewBox="0 0 81.508 81.509">
  <g id="Grupo_54480" data-name="Grupo 54480" transform="translate(-174.246 -13234)">
    <g id="Grupo_54349" data-name="Grupo 54349" transform="translate(-462.189 11844.234)">
      <path id="Trazado_99476" data-name="Trazado 99476" d="M40.754,0A40.754,40.754,0,1,1,0,40.754,40.754,40.754,0,0,1,40.754,0Z" transform="translate(636.436 1389.766)" fill="#ff0062"/>
    </g>
    <g id="Grupo_54387" data-name="Grupo 54387" transform="translate(-935.189 12570.935)">
      <path id="Trazado_101984" data-name="Trazado 101984" d="M1166.851,717.2h-33.669a5,5,0,0,1-4.993-4.994V688.3a5,5,0,0,1,4.993-4.993h33.669a5,5,0,0,1,4.992,4.993v23.9A5,5,0,0,1,1166.851,717.2Zm-33.669-31.736a2.842,2.842,0,0,0-2.84,2.84v23.9a2.843,2.843,0,0,0,2.84,2.841h33.669a2.843,2.843,0,0,0,2.839-2.841V688.3a2.842,2.842,0,0,0-2.839-2.84Z" fill="#fff"/>
      <rect id="Rectángulo_5216" data-name="Rectángulo 5216" width="41.501" height="2.153" transform="translate(1129.266 708.533)" fill="#fff"/>
      <path id="Trazado_101985" data-name="Trazado 101985" d="M1133.932,709.371h-2.153V686.425h36.737v22.335h-2.153V688.578h-32.431Z" transform="translate(0.275 0.239)" fill="#fff"/>
      <path id="Trazado_101986" data-name="Trazado 101986" d="M1151.624,711.161H1146.8a1.077,1.077,0,0,1,0-2.153h4.823a1.077,1.077,0,1,1,0,2.153Z" transform="translate(1.342 1.966)" fill="#fff"/>
      <path id="Trazado_101987" data-name="Trazado 101987" d="M1146.007,719.161c-3.681,0-3.734-.328-3.859-1.07a1.14,1.14,0,0,1,.895-1.29c.746-.227,1.494-1.811,1.764-2.81a1.077,1.077,0,0,1,2.08.557,9.691,9.691,0,0,1-1.052,2.432c1.744,0,4.252-.059,6.829-.14a3.211,3.211,0,0,1-.492-3.489,1.077,1.077,0,0,1,1.892,1.027c-.344.633.919,2,1.722,2.584a1.076,1.076,0,0,1-.593,1.945C1150.809,719.072,1147.919,719.161,1146.007,719.161Z" transform="translate(1.067 2.255)" fill="#fff"/>
      <path id="Trazado_101988" data-name="Trazado 101988" d="M1158.255,722.271h-17.824a2.794,2.794,0,0,1,0-5.588h17.824a2.794,2.794,0,1,1,0,5.588Zm-17.824-3.435a.641.641,0,0,0,0,1.282h17.824a.641.641,0,1,0,0-1.282Z" transform="translate(0.723 2.553)" fill="#fff"/>
    </g>
  </g>
</svg>
