<svg xmlns="http://www.w3.org/2000/svg" width="81.508" height="81.508" viewBox="0 0 81.508 81.508">
  <g id="Grupo_54723" data-name="Grupo 54723" transform="translate(-133 -2169)">
    <g id="Grupo_54518" data-name="Grupo 54518" transform="translate(-558 726)">
      <g id="Grupo_54477" data-name="Grupo 54477" transform="translate(54.564 53.234)">
        <path id="Trazado_99476" data-name="Trazado 99476" d="M40.754,0A40.754,40.754,0,1,1,0,40.754,40.754,40.754,0,0,1,40.754,0Z" transform="translate(636.436 1389.766)" fill="#ff0062"/>
      </g>
    </g>
    <g id="Grupo_54522" data-name="Grupo 54522" transform="translate(-1074.084 1157.656)">
      <g id="Grupo_54520" data-name="Grupo 54520">
        <g id="Grupo_54519" data-name="Grupo 54519">
          <path id="Trazado_102098" data-name="Trazado 102098" d="M1266.307,1066.481h-35.9a5.329,5.329,0,0,1-5.323-5.324v-25.49a5.33,5.33,0,0,1,5.323-5.324h35.9a5.331,5.331,0,0,1,5.324,5.324v25.49A5.331,5.331,0,0,1,1266.307,1066.481Zm-35.9-33.843a3.032,3.032,0,0,0-3.027,3.028v25.49a3.032,3.032,0,0,0,3.027,3.028h35.9a3.032,3.032,0,0,0,3.028-3.028v-25.49a3.032,3.032,0,0,0-3.028-3.028Z" fill="#fff"/>
          <rect id="Rectángulo_5261" data-name="Rectángulo 5261" width="44.255" height="2.296" transform="translate(1226.229 1057.243)" fill="#fff"/>
          <path id="Trazado_102099" data-name="Trazado 102099" d="M1231.493,1058.392h-2.3v-24.47h39.175v23.818h-2.3v-21.518h-34.575Z" fill="#fff"/>
          <path id="Trazado_102100" data-name="Trazado 102100" d="M1251.5,1062.143h-5.145a1.15,1.15,0,0,1,0-2.3h5.143a1.15,1.15,0,1,1,0,2.3Z" fill="#fff"/>
          <path id="Trazado_102101" data-name="Trazado 102101" d="M1245.22,1070.982c-3.926,0-3.983-.35-4.115-1.141a1.216,1.216,0,0,1,.953-1.375c.8-.241,1.593-1.931,1.881-2.995a1.149,1.149,0,0,1,2.219.594h0a10.387,10.387,0,0,1-1.122,2.592c1.86,0,4.534-.062,7.281-.148a3.425,3.425,0,0,1-.523-3.722,1.149,1.149,0,0,1,2.018,1.1h0c-.366.675.98,2.131,1.837,2.755a1.148,1.148,0,0,1-.633,2.075C1250.341,1070.888,1247.259,1070.982,1245.22,1070.982Z" fill="#fff"/>
          <path id="Trazado_102102" data-name="Trazado 102102" d="M1257.914,1074.616h-19.006a2.979,2.979,0,1,1,0-5.959h19.006a2.979,2.979,0,0,1,0,5.959Zm-19.006-3.663a.684.684,0,0,0-.054,1.367.442.442,0,0,0,.054,0h19.006a.684.684,0,0,0,0-1.367Z" fill="#fff"/>
        </g>
      </g>
      <path id="Trazado_102109" data-name="Trazado 102109" d="M1256.072,1055.664h-15.429v-17.65h15.429Zm-13.961-1.469H1254.6v-14.713h-12.493Z" fill="#fff"/>
      <path id="Trazado_102110" data-name="Trazado 102110" d="M1251.952,1043.893h-7.189a.75.75,0,0,1,0-1.5h7.189a.75.75,0,0,1,0,1.5Z" fill="#fff"/>
      <path id="Trazado_102111" data-name="Trazado 102111" d="M1251.952,1047.325h-7.189a.75.75,0,0,1,0-1.5h7.189a.75.75,0,0,1,0,1.5Z" fill="#fff"/>
      <path id="Trazado_102112" data-name="Trazado 102112" d="M1251.952,1050.2h-7.189a.75.75,0,0,1,0-1.5h7.189a.75.75,0,0,1,0,1.5Z" fill="#fff"/>
    </g>
  </g>
</svg>
