<svg xmlns="http://www.w3.org/2000/svg" width="81.508" height="81.509" viewBox="0 0 81.508 81.509">
  <g id="Grupo_54474" data-name="Grupo 54474" transform="translate(-780 -10346)">
    <g id="Grupo_54339" data-name="Grupo 54339" transform="translate(143.564 8956.234)">
      <path id="Trazado_99476" data-name="Trazado 99476" d="M40.754,0A40.754,40.754,0,1,1,0,40.754,40.754,40.754,0,0,1,40.754,0Z" transform="translate(636.436 1389.766)" fill="#ff0062"/>
    </g>
    <g id="Grupo_54375" data-name="Grupo 54375" transform="translate(-96.053 9509.214)">
      <path id="Trazado_101966" data-name="Trazado 101966" d="M932.722,904.855H904.08a4.842,4.842,0,0,1-4.836-4.837v-41.8a4.841,4.841,0,0,1,4.836-4.836h28.643a4.841,4.841,0,0,1,4.836,4.836v41.8A4.842,4.842,0,0,1,932.722,904.855ZM904.08,855.631a2.593,2.593,0,0,0-2.59,2.59v41.8a2.594,2.594,0,0,0,2.59,2.591h28.643a2.594,2.594,0,0,0,2.59-2.591v-41.8a2.593,2.593,0,0,0-2.59-2.59Z" transform="translate(-1.191 -1.6)" fill="#fff"/>
      <path id="Trazado_101967" data-name="Trazado 101967" d="M909.332,893.783a3.852,3.852,0,1,1,3.851-3.851A3.856,3.856,0,0,1,909.332,893.783Zm0-5.591a1.739,1.739,0,1,0,1.738,1.739A1.741,1.741,0,0,0,909.332,888.192Z" transform="translate(0.29 1.766)" fill="#fff"/>
      <path id="Trazado_101968" data-name="Trazado 101968" d="M923.5,893.783a3.852,3.852,0,1,1,3.852-3.851A3.856,3.856,0,0,1,923.5,893.783Zm0-5.591a1.739,1.739,0,1,0,1.739,1.739A1.74,1.74,0,0,0,923.5,888.192Z" transform="translate(1.092 1.766)" fill="#fff"/>
      <path id="Trazado_101969" data-name="Trazado 101969" d="M923.5,881.5a3.852,3.852,0,1,1,3.852-3.851A3.856,3.856,0,0,1,923.5,881.5Zm0-5.591a1.739,1.739,0,1,0,1.739,1.739A1.741,1.741,0,0,0,923.5,875.908Z" transform="translate(1.092 1.07)" fill="#fff"/>
      <path id="Trazado_101970" data-name="Trazado 101970" d="M927.76,898.752H906.422a3.969,3.969,0,0,1-3.966-3.965V860.47a3.97,3.97,0,0,1,3.966-3.965H927.76a3.971,3.971,0,0,1,3.967,3.965v34.317A3.97,3.97,0,0,1,927.76,898.752Zm-21.337-40.135a1.854,1.854,0,0,0-1.852,1.852v34.317a1.854,1.854,0,0,0,1.852,1.852H927.76a1.855,1.855,0,0,0,1.853-1.852V860.47a1.855,1.855,0,0,0-1.853-1.852Z" transform="translate(0.119 0.091)" fill="#fff"/>
      <path id="Trazado_101971" data-name="Trazado 101971" d="M925.214,888.245H923.1v-1.839H908.126V871.115H923.1V866.48h2.113v6.747H910.239v11.065h14.975Z" transform="translate(0.439 0.656)" fill="#fff"/>
      <path id="Trazado_101972" data-name="Trazado 101972" d="M925.854,869.6a1.053,1.053,0,0,1-.747-.31l-1.723-1.723-1.537,1.536a1.056,1.056,0,0,1-1.494-1.494l2.284-2.283a1.087,1.087,0,0,1,1.494,0l2.47,2.47a1.057,1.057,0,0,1-.747,1.8Z" transform="translate(1.114 0.574)" fill="#fff"/>
      <path id="Trazado_101973" data-name="Trazado 101973" d="M915.81,862.4h-9.934a1.057,1.057,0,1,1,0-2.113h9.934a1.057,1.057,0,1,1,0,2.113Z" transform="translate(0.252 0.305)" fill="#fff"/>
      <path id="Trazado_101974" data-name="Trazado 101974" d="M915.81,865.467h-9.934a1.057,1.057,0,1,1,0-2.113h9.934a1.057,1.057,0,1,1,0,2.113Z" transform="translate(0.252 0.479)" fill="#fff"/>
    </g>
  </g>
</svg>
