<svg xmlns="http://www.w3.org/2000/svg" width="166" height="166" viewBox="0 0 166 166">
  <g id="Grupo_54477" data-name="Grupo 54477" transform="translate(-875 -14339)">
    <circle id="Elipse_5504" data-name="Elipse 5504" cx="83" cy="83" r="83" transform="translate(875 14339)" fill="#fff"/>
    <g id="Grupo_54469" data-name="Grupo 54469" transform="translate(-753.088 13335)">
      <g id="Grupo_54448" data-name="Grupo 54448">
        <g id="Grupo_54440" data-name="Grupo 54440">
          <path id="Trazado_102038" data-name="Trazado 102038" d="M1776.434,1121.113H1654.147v-58.88a9.058,9.058,0,0,1,9.058-9.058h104.171a9.058,9.058,0,0,1,9.058,9.058Z" fill="#443d4a"/>
        </g>
        <g id="Grupo_54441" data-name="Grupo 54441">
          <path id="Trazado_102039" data-name="Trazado 102039" d="M1767.376,1121.113H1654.147v-58.88a9.058,9.058,0,0,1,9.058-9.058h95.113a9.059,9.059,0,0,1,9.058,9.058Z" fill="#565a6c"/>
        </g>
        <g id="Grupo_54442" data-name="Grupo 54442">
          <path id="Trazado_102040" data-name="Trazado 102040" d="M1663.2,1132.435h104.171a9.057,9.057,0,0,0,9.058-9.058v-2.264H1654.147v2.264A9.058,9.058,0,0,0,1663.2,1132.435Z" fill="#a9c2d9"/>
        </g>
        <g id="Grupo_54443" data-name="Grupo 54443">
          <path id="Trazado_102041" data-name="Trazado 102041" d="M1758.318,1132.435H1663.2a9.058,9.058,0,0,1-9.058-9.058v-2.264h113.229v2.264A9.058,9.058,0,0,1,1758.318,1132.435Z" fill="#d9e5ee"/>
        </g>
        <g id="Grupo_54444" data-name="Grupo 54444">
          <path id="Trazado_102042" data-name="Trazado 102042" d="M1701.7,1132.435h20.381v9.059H1701.7Z" fill="#a9c2d9"/>
        </g>
        <g id="Grupo_54445" data-name="Grupo 54445">
          <path id="Trazado_102043" data-name="Trazado 102043" d="M1701.7,1136.965h13.588v4.529H1701.7Z" fill="#d9e5ee"/>
        </g>
        <g id="Grupo_54446" data-name="Grupo 54446">
          <path id="Trazado_102044" data-name="Trazado 102044" d="M1733.407,1148.288h-45.291v-2.265a4.528,4.528,0,0,1,4.529-4.529h36.233a4.528,4.528,0,0,1,4.529,4.529Z" fill="#d9e5ee"/>
        </g>
        <g id="Grupo_54447" data-name="Grupo 54447">
          <path id="Trazado_102045" data-name="Trazado 102045" d="M1733.407,1148.288H1719.82v-2.265a4.528,4.528,0,0,1,4.529-4.529h4.529a4.528,4.528,0,0,1,4.529,4.529Z" fill="#a9c2d9"/>
        </g>
      </g>
      <g id="Grupo_54449" data-name="Grupo 54449">
        <path id="Trazado_102046" data-name="Trazado 102046" d="M1749.259,1107.525h-77a4.529,4.529,0,0,1-4.529-4.529v-72.467a4.529,4.529,0,0,1,4.529-4.529h77a4.53,4.53,0,0,1,4.53,4.529V1103A4.53,4.53,0,0,1,1749.259,1107.525Z" fill="#d9e5ee"/>
      </g>
      <g id="Grupo_54450" data-name="Grupo 54450">
        <path id="Trazado_102047" data-name="Trazado 102047" d="M1753.789,1035.058h-86.055v-4.529a4.529,4.529,0,0,1,4.529-4.529h77a4.53,4.53,0,0,1,4.53,4.529Z" fill="#565a6c"/>
      </g>
      <g id="Grupo_54451" data-name="Grupo 54451">
        <circle id="Elipse_5508" data-name="Elipse 5508" cx="2.265" cy="2.265" r="2.265" transform="translate(1674.528 1028.265)" fill="#4c99be"/>
      </g>
      <g id="Grupo_54452" data-name="Grupo 54452">
        <circle id="Elipse_5509" data-name="Elipse 5509" cx="2.265" cy="2.265" r="2.265" transform="translate(1683.586 1028.265)" fill="#ed7791"/>
      </g>
      <g id="Grupo_54453" data-name="Grupo 54453">
        <circle id="Elipse_5510" data-name="Elipse 5510" cx="2.265" cy="2.265" r="2.265" transform="translate(1692.645 1028.265)" fill="#d9e5ee"/>
      </g>
      <g id="Grupo_54454" data-name="Grupo 54454">
        <path id="Trazado_102048" data-name="Trazado 102048" d="M1742.466,1071.292H1678.3a2.265,2.265,0,0,1-2.264-2.265v-22.646a2.265,2.265,0,0,1,2.264-2.264h64.164a2.265,2.265,0,0,1,2.264,2.264v22.646A2.265,2.265,0,0,1,1742.466,1071.292Z" fill="#a9c2d9"/>
      </g>
      <g id="Grupo_54455" data-name="Grupo 54455">
        <path id="Trazado_102049" data-name="Trazado 102049" d="M1706.232,1098.467H1678.3a2.265,2.265,0,0,1-2.264-2.265v-18.117a2.264,2.264,0,0,1,2.264-2.264h27.93a2.265,2.265,0,0,1,2.265,2.264V1096.2A2.265,2.265,0,0,1,1706.232,1098.467Z" fill="#a9c2d9"/>
      </g>
      <g id="Grupo_54456" data-name="Grupo 54456">
        <path id="Trazado_102050" data-name="Trazado 102050" d="M1742.466,1080.35h-27.93a2.264,2.264,0,1,1,0-4.529h27.93a2.264,2.264,0,0,1,0,4.529Z" fill="#a9c2d9"/>
      </g>
      <g id="Grupo_54457" data-name="Grupo 54457">
        <path id="Trazado_102051" data-name="Trazado 102051" d="M1742.466,1089.408h-27.93a2.264,2.264,0,1,1,0-4.529h27.93a2.264,2.264,0,0,1,0,4.529Z" fill="#a9c2d9"/>
      </g>
      <g id="Grupo_54458" data-name="Grupo 54458">
        <path id="Trazado_102052" data-name="Trazado 102052" d="M1742.466,1098.467h-27.93a2.265,2.265,0,1,1,0-4.529h27.93a2.265,2.265,0,0,1,0,4.529Z" fill="#a9c2d9"/>
      </g>
      <g id="Grupo_54459" data-name="Grupo 54459">
        <circle id="Elipse_5511" data-name="Elipse 5511" cx="4.529" cy="4.529" r="4.529" transform="translate(1676.793 1134.7)" fill="#d9e5ee"/>
      </g>
      <g id="Grupo_54460" data-name="Grupo 54460">
        <path id="Trazado_102053" data-name="Trazado 102053" d="M1681.322,1134.7v9.058a4.529,4.529,0,0,0,0-9.058Z" fill="#a9c2d9"/>
      </g>
      <g id="Grupo_54461" data-name="Grupo 54461">
        <path id="Trazado_102054" data-name="Trazado 102054" d="M1685.851,1107.525h-9.058a31.7,31.7,0,1,1,0-63.408h9.058a31.7,31.7,0,1,1,0,63.408Z" fill="#c12b59"/>
      </g>
      <g id="Grupo_54462" data-name="Grupo 54462">
        <circle id="Elipse_5512" data-name="Elipse 5512" cx="31.704" cy="31.704" r="31.704" transform="translate(1645.089 1044.117)" fill="#ea3464"/>
      </g>
      <g id="Grupo_54463" data-name="Grupo 54463">
        <circle id="Elipse_5513" data-name="Elipse 5513" cx="21.891" cy="21.891" r="21.891" transform="translate(1654.902 1053.93)" fill="#d9e5ee"/>
      </g>
      <g id="Grupo_54464" data-name="Grupo 54464">
        <circle id="Elipse_5514" data-name="Elipse 5514" cx="4.529" cy="4.529" r="4.529" transform="translate(1663.205 1062.233)" fill="#fff"/>
      </g>
      <g id="Grupo_54465" data-name="Grupo 54465">
        <path id="Trazado_102055" data-name="Trazado 102055" d="M1676.793,1107.525h9.058v4.529h-9.058Z" fill="#d9e5ee"/>
      </g>
      <g id="Grupo_54466" data-name="Grupo 54466">
        <path id="Trazado_102056" data-name="Trazado 102056" d="M1676.793,1107.525v2.265h2.264a2.265,2.265,0,0,1,2.265,2.264h4.529v-4.529Z" fill="#a9c2d9"/>
      </g>
      <g id="Grupo_54467" data-name="Grupo 54467">
        <path id="Trazado_102057" data-name="Trazado 102057" d="M1685.851,1139.229h-9.058a2.265,2.265,0,0,1-2.265-2.264v-22.646a2.265,2.265,0,0,1,2.265-2.265h9.058a2.265,2.265,0,0,1,2.265,2.265v22.646A2.265,2.265,0,0,1,1685.851,1139.229Z" fill="#ea3464"/>
      </g>
      <g id="Grupo_54468" data-name="Grupo 54468">
        <path id="Trazado_102058" data-name="Trazado 102058" d="M1685.851,1139.229h-4.529v-27.175h4.529a2.265,2.265,0,0,1,2.265,2.265v22.646A2.265,2.265,0,0,1,1685.851,1139.229Z" fill="#c12b59"/>
      </g>
    </g>
  </g>
</svg>
