<svg xmlns="http://www.w3.org/2000/svg" width="178" height="178" viewBox="0 0 178 178">
  <g id="Grupo_54476" data-name="Grupo 54476" transform="translate(-319 -14333)">
    <circle id="Elipse_5503" data-name="Elipse 5503" cx="89" cy="89" r="89" transform="translate(319 14333)" fill="#fff"/>
    <g id="Grupo_54439" data-name="Grupo 54439" transform="translate(-1145.396 13339)">
      <g id="Grupo_54416" data-name="Grupo 54416" transform="translate(1497.396 1051.097)">
        <g id="Grupo_54408" data-name="Grupo 54408">
          <path id="Trazado_102013" data-name="Trazado 102013" d="M1610.332,1115.9H1497.4v-54.377a8.366,8.366,0,0,1,8.365-8.366h96.206a8.366,8.366,0,0,1,8.365,8.366Z" transform="translate(-1497.396 -1053.16)" fill="#443d4a"/>
        </g>
        <g id="Grupo_54409" data-name="Grupo 54409">
          <path id="Trazado_102014" data-name="Trazado 102014" d="M1601.967,1115.9H1497.4v-54.377a8.366,8.366,0,0,1,8.365-8.366h87.84a8.366,8.366,0,0,1,8.366,8.366Z" transform="translate(-1497.396 -1053.16)" fill="#565a6c"/>
        </g>
        <g id="Grupo_54410" data-name="Grupo 54410" transform="translate(0 62.743)">
          <path id="Trazado_102015" data-name="Trazado 102015" d="M1505.761,1131.518h96.206a8.365,8.365,0,0,0,8.365-8.365v-2.092H1497.4v2.092A8.365,8.365,0,0,0,1505.761,1131.518Z" transform="translate(-1497.396 -1121.061)" fill="#a9c2d9"/>
        </g>
        <g id="Grupo_54411" data-name="Grupo 54411" transform="translate(0 62.743)">
          <path id="Trazado_102016" data-name="Trazado 102016" d="M1593.6,1131.518h-87.84a8.365,8.365,0,0,1-8.365-8.365v-2.092h104.571v2.092A8.365,8.365,0,0,1,1593.6,1131.518Z" transform="translate(-1497.396 -1121.061)" fill="#d9e5ee"/>
        </g>
        <g id="Grupo_54412" data-name="Grupo 54412" transform="translate(43.919 73.2)">
          <path id="Trazado_102017" data-name="Trazado 102017" d="M1544.926,1132.378h18.823v8.366h-18.823Z" transform="translate(-1544.926 -1132.378)" fill="#a9c2d9"/>
        </g>
        <g id="Grupo_54413" data-name="Grupo 54413" transform="translate(43.919 77.383)">
          <path id="Trazado_102018" data-name="Trazado 102018" d="M1544.926,1136.905h12.548v4.183h-12.548Z" transform="translate(-1544.926 -1136.905)" fill="#d9e5ee"/>
        </g>
        <g id="Grupo_54414" data-name="Grupo 54414" transform="translate(31.371 81.566)">
          <path id="Trazado_102019" data-name="Trazado 102019" d="M1573.174,1147.706h-41.828v-2.092a4.183,4.183,0,0,1,4.183-4.182h33.463a4.182,4.182,0,0,1,4.182,4.182Z" transform="translate(-1531.346 -1141.432)" fill="#d9e5ee"/>
        </g>
        <g id="Grupo_54415" data-name="Grupo 54415" transform="translate(60.651 81.566)">
          <path id="Trazado_102020" data-name="Trazado 102020" d="M1575.581,1147.706h-12.548v-2.092a4.183,4.183,0,0,1,4.183-4.182h4.183a4.182,4.182,0,0,1,4.182,4.182Z" transform="translate(-1563.033 -1141.432)" fill="#a9c2d9"/>
        </g>
      </g>
      <g id="Grupo_54427" data-name="Grupo 54427" transform="translate(1505.761 1026)">
        <g id="Grupo_54417" data-name="Grupo 54417">
          <path id="Trazado_102021" data-name="Trazado 102021" d="M1559.432,1101.291h-48.8a4.182,4.182,0,0,1-4.183-4.182v-66.926a4.183,4.183,0,0,1,4.183-4.183h48.8a4.183,4.183,0,0,1,4.182,4.183v66.926A4.182,4.182,0,0,1,1559.432,1101.291Z" transform="translate(-1506.449 -1026)" fill="#d9e5ee"/>
        </g>
        <g id="Grupo_54418" data-name="Grupo 54418">
          <path id="Trazado_102022" data-name="Trazado 102022" d="M1563.614,1034.365h-57.165v-4.182a4.183,4.183,0,0,1,4.183-4.183h48.8a4.183,4.183,0,0,1,4.182,4.183Z" transform="translate(-1506.449 -1026)" fill="#565a6c"/>
        </g>
        <g id="Grupo_54419" data-name="Grupo 54419" transform="translate(6.274 2.091)">
          <circle id="Elipse_5505" data-name="Elipse 5505" cx="2.091" cy="2.091" r="2.091" fill="#4c99be"/>
        </g>
        <g id="Grupo_54420" data-name="Grupo 54420" transform="translate(14.64 2.091)">
          <circle id="Elipse_5506" data-name="Elipse 5506" cx="2.091" cy="2.091" r="2.091" fill="#ed7791"/>
        </g>
        <g id="Grupo_54421" data-name="Grupo 54421" transform="translate(23.006 2.091)">
          <circle id="Elipse_5507" data-name="Elipse 5507" cx="2.091" cy="2.091" r="2.091" fill="#d9e5ee"/>
        </g>
        <g id="Grupo_54422" data-name="Grupo 54422" transform="translate(7.669 16.732)">
          <path id="Trazado_102023" data-name="Trazado 102023" d="M1553.788,1069.2h-36.949a2.091,2.091,0,0,1-2.091-2.091V1046.2a2.091,2.091,0,0,1,2.091-2.091h36.948a2.092,2.092,0,0,1,2.092,2.091v20.915a2.091,2.091,0,0,1-2.091,2.091Z" transform="translate(-1514.748 -1044.107)" fill="#a9c2d9"/>
        </g>
        <g id="Grupo_54423" data-name="Grupo 54423" transform="translate(7.669 46.011)">
          <path id="Trazado_102024" data-name="Trazado 102024" d="M1528.691,1096.709H1516.84a2.092,2.092,0,0,1-2.092-2.092v-16.731a2.092,2.092,0,0,1,2.092-2.091h11.851a2.092,2.092,0,0,1,2.092,2.091v16.731A2.092,2.092,0,0,1,1528.691,1096.709Z" transform="translate(-1514.748 -1075.794)" fill="#a9c2d9"/>
        </g>
        <g id="Grupo_54424" data-name="Grupo 54424" transform="translate(27.189 46.011)">
          <path id="Trazado_102025" data-name="Trazado 102025" d="M1555.393,1079.977h-17.429a2.092,2.092,0,0,1,0-4.183h17.429a2.092,2.092,0,0,1,0,4.183Z" transform="translate(-1535.873 -1075.794)" fill="#a9c2d9"/>
        </g>
        <g id="Grupo_54425" data-name="Grupo 54425" transform="translate(27.189 54.378)">
          <path id="Trazado_102026" data-name="Trazado 102026" d="M1555.393,1089.03h-17.429a2.091,2.091,0,0,1,0-4.182h17.429a2.091,2.091,0,0,1,0,4.182Z" transform="translate(-1535.873 -1084.848)" fill="#a9c2d9"/>
        </g>
        <g id="Grupo_54426" data-name="Grupo 54426" transform="translate(27.189 62.743)">
          <path id="Trazado_102027" data-name="Trazado 102027" d="M1555.393,1098.084h-17.429a2.092,2.092,0,0,1,0-4.183h17.429a2.092,2.092,0,0,1,0,4.183Z" transform="translate(-1535.873 -1093.901)" fill="#a9c2d9"/>
        </g>
      </g>
      <g id="Grupo_54438" data-name="Grupo 54438" transform="translate(1571.293 1026)">
        <g id="Grupo_54428" data-name="Grupo 54428" transform="translate(0 16.732)">
          <path id="Trazado_102028" data-name="Trazado 102028" d="M1577.368,1044.107h7.668v81.565h-7.668Z" transform="translate(-1577.368 -1044.107)" fill="#ef91ae"/>
        </g>
        <g id="Grupo_54429" data-name="Grupo 54429" transform="translate(7.669 16.732)">
          <path id="Trazado_102029" data-name="Trazado 102029" d="M1585.667,1044.107h6.972v81.565h-6.972Z" transform="translate(-1585.667 -1044.107)" fill="#ea3464"/>
        </g>
        <g id="Grupo_54430" data-name="Grupo 54430" transform="translate(14.64 16.732)">
          <path id="Trazado_102030" data-name="Trazado 102030" d="M1593.212,1044.107h7.668v81.565h-7.668Z" transform="translate(-1593.212 -1044.107)" fill="#c12b59"/>
        </g>
        <g id="Grupo_54431" data-name="Grupo 54431" transform="translate(0 98.297)">
          <path id="Trazado_102031" data-name="Trazado 102031" d="M1588.522,1132.378v12.548h-2.789l-8.365-12.548Z" transform="translate(-1577.368 -1132.378)" fill="#f0ba96"/>
        </g>
        <g id="Grupo_54432" data-name="Grupo 54432" transform="translate(11.154 98.297)">
          <path id="Trazado_102032" data-name="Trazado 102032" d="M1589.439,1132.378v12.548h2.789l8.365-12.548Z" transform="translate(-1589.439 -1132.378)" fill="#e39464"/>
        </g>
        <g id="Grupo_54433" data-name="Grupo 54433" transform="translate(8.365 110.845)">
          <path id="Trazado_102033" data-name="Trazado 102033" d="M1586.421,1145.958l1.918,2.878a1.046,1.046,0,0,0,1.741,0l1.918-2.878Z" transform="translate(-1586.421 -1145.958)" fill="#353743"/>
        </g>
        <g id="Grupo_54434" data-name="Grupo 54434" transform="translate(0 10.457)">
          <path id="Trazado_102034" data-name="Trazado 102034" d="M1577.368,1037.317h22.308v6.274h-22.308Z" transform="translate(-1577.368 -1037.317)" fill="#a9c2d9"/>
        </g>
        <g id="Grupo_54435" data-name="Grupo 54435" transform="translate(0 10.457)">
          <path id="Trazado_102035" data-name="Trazado 102035" d="M1577.368,1037.317h11.154v6.274h-11.154Z" transform="translate(-1577.368 -1037.317)" fill="#d9e5ee"/>
        </g>
        <g id="Grupo_54436" data-name="Grupo 54436">
          <path id="Trazado_102036" data-name="Trazado 102036" d="M1595.494,1026h-13.943a4.183,4.183,0,0,0-4.183,4.183v6.274h22.308v-6.274A4.183,4.183,0,0,0,1595.494,1026Z" transform="translate(-1577.368 -1026)" fill="#443d4a"/>
        </g>
        <g id="Grupo_54437" data-name="Grupo 54437">
          <path id="Trazado_102037" data-name="Trazado 102037" d="M1588.522,1026h-6.972a4.183,4.183,0,0,0-4.182,4.183v6.274h11.154Z" transform="translate(-1577.368 -1026)" fill="#565a6c"/>
        </g>
      </g>
    </g>
  </g>
</svg>
