<svg xmlns="http://www.w3.org/2000/svg" width="107.691" height="27.016" viewBox="0 0 107.691 27.016">
  <path id="Trazado_99362" data-name="Trazado 99362" d="M73.68,25.925l3.1-16.94h6.457L77.5,36H70.748L67.13,20.6,63.586,36H56.851L51.1,8.984h6.476l3.1,16.94,3.711-16.94h5.529Zm37.777,0,3.1-16.94h6.457L115.279,36h-6.754l-3.618-15.4L101.363,36H94.628L88.876,8.984h6.476l3.1,16.94,3.711-16.94h5.529Zm37.777,0,3.1-16.94h6.457L153.057,36H146.3l-3.618-15.4L139.141,36h-6.735L126.653,8.984h6.476l3.1,16.94,3.711-16.94h5.529Z" transform="translate(-51.099 -8.984)" fill="#3366c2"/>
</svg>
