<svg xmlns="http://www.w3.org/2000/svg" width="88.06" height="121.689" viewBox="0 0 88.06 121.689">
  <g id="Grupo_54525" data-name="Grupo 54525" transform="translate(-726 -2679)">
    <g id="Grupo_54524" data-name="Grupo 54524" transform="translate(-137.733 1067.855)">
      <g id="Grupo_54523" data-name="Grupo 54523">
        <path id="Trazado_102113" data-name="Trazado 102113" d="M929.352,1698.322H886.173a6.411,6.411,0,0,1-6.4-6.4v-30.655a6.41,6.41,0,0,1,6.4-6.4h43.179a6.41,6.41,0,0,1,6.4,6.4v30.655A6.411,6.411,0,0,1,929.352,1698.322Zm-43.179-40.7a3.646,3.646,0,0,0-3.642,3.642v30.655a3.647,3.647,0,0,0,3.642,3.643h43.179a3.646,3.646,0,0,0,3.642-3.643v-30.655a3.646,3.646,0,0,0-3.642-3.642Z" fill="#ff0062"/>
        <rect id="Rectángulo_5261" data-name="Rectángulo 5261" width="53.224" height="2.761" transform="translate(881.151 1687.212)" fill="#ff0062"/>
        <path id="Trazado_102114" data-name="Trazado 102114" d="M887.488,1688.592h-2.761v-29.427h47.114v28.645H929.08v-25.884H887.488Z" fill="#ff0062"/>
        <path id="Trazado_102115" data-name="Trazado 102115" d="M911.546,1693.1h-6.185a1.38,1.38,0,1,1,0-2.761h6.185a1.38,1.38,0,0,1,0,2.761Z" fill="#ff0062"/>
        <path id="Trazado_102116" data-name="Trazado 102116" d="M903.991,1703.734c-4.722,0-4.791-.421-4.95-1.372a1.462,1.462,0,0,1,1.146-1.655c.958-.29,1.917-2.321,2.263-3.6a1.381,1.381,0,0,1,2.668.714,12.478,12.478,0,0,1-1.348,3.118c2.236-.006,5.453-.075,8.757-.179a4.118,4.118,0,0,1-.63-4.475,1.381,1.381,0,0,1,2.427,1.317c-.441.812,1.179,2.562,2.209,3.313a1.381,1.381,0,0,1-.761,2.5C910.149,1703.62,906.442,1703.734,903.991,1703.734Z" fill="#ff0062"/>
        <path id="Trazado_102117" data-name="Trazado 102117" d="M919.257,1708.1H896.4a3.583,3.583,0,1,1,0-7.167h22.858a3.583,3.583,0,0,1,0,7.167ZM896.4,1703.7a.823.823,0,1,0,0,1.645h22.858a.823.823,0,0,0,0-1.645Z" fill="#ff0062"/>
      </g>
      <path id="Trazado_102118" data-name="Trazado 102118" d="M951.793,1732.834h-88.06V1611.145h67.258l20.8,20.318Zm-84.942-3.118h81.824v-96.941l-18.954-18.512h-62.87Z" fill="#ff0062"/>
      <path id="Trazado_102119" data-name="Trazado 102119" d="M948.961,1636.914h-21.9V1612.7h3.118V1633.8h18.78Z" fill="#ff0062"/>
    </g>
  </g>
</svg>
