<svg id="Grupo_53734" data-name="Grupo 53734" xmlns="http://www.w3.org/2000/svg" width="94.627" height="99.938" viewBox="0 0 94.627 99.938">
  <path id="Trazado_99344" data-name="Trazado 99344" d="M312.9,3926.493h-4.281v-62.162a5.254,5.254,0,0,0-5.248-5.247h-9.569a5.254,5.254,0,0,0-5.247,5.247v62.162H277.688v-34a5.254,5.254,0,0,0-5.247-5.248h-9.569a5.254,5.254,0,0,0-5.247,5.248v34H246.755v-17.607a5.253,5.253,0,0,0-5.247-5.247h-9.569a5.253,5.253,0,0,0-5.248,5.247v17.607h-4.512a1.952,1.952,0,0,0,0,3.9H312.9a1.952,1.952,0,1,0,0-3.9Zm-70.053,0H230.6v-17.607a1.345,1.345,0,0,1,1.342-1.344h9.571a1.345,1.345,0,0,1,1.342,1.344Zm30.935,0H261.528v-34a1.345,1.345,0,0,1,1.344-1.344h9.569a1.345,1.345,0,0,1,1.344,1.344Zm30.933,0H292.463v-62.162a1.344,1.344,0,0,1,1.342-1.342h9.569a1.344,1.344,0,0,1,1.344,1.342Zm0,0" transform="translate(-220.228 -3830.46)" fill="#ff0062"/>
  <path id="Trazado_99345" data-name="Trazado 99345" d="M302.641,3842.733a1.946,1.946,0,0,0-2.049-2.047c-.031,0-.062,0-.095,0H288.691a1.951,1.951,0,1,0,0,3.9h7.29l-19.3,19.3-7.278-7.276a1.949,1.949,0,0,0-2.759,0l-35.089,35.089a1.952,1.952,0,1,0,2.761,2.759l33.708-33.709,7.276,7.276a1.95,1.95,0,0,0,2.761,0l20.677-20.675v6.6a1.952,1.952,0,1,0,3.9,0v-11.117c0-.033,0-.062,0-.1Zm0,0" transform="translate(-214.252 -3840.682)" fill="#ff0062"/>
  <path id="Trazado_99346" data-name="Trazado 99346" d="M230.662,3879.44a1.952,1.952,0,1,1-1.952-1.952,1.952,1.952,0,0,1,1.952,1.952Zm0,0" transform="translate(-216.601 -3820.238)" fill="#ff0062"/>
</svg>
