<svg id="Grupo_53735" data-name="Grupo 53735" xmlns="http://www.w3.org/2000/svg" width="53.577" height="99.937" viewBox="0 0 53.577 99.937">
  <path id="Trazado_99347" data-name="Trazado 99347" d="M383.4,3895.538l-.028-.019a24.928,24.928,0,0,0-6.511-3.281,45.264,45.264,0,0,0-9.449-1.569c-3.9-.334-6.693-.65-8.3-.941a6.818,6.818,0,0,1-3.011-1.47,2.88,2.88,0,0,1-1.008-2.438v-2.284c0-3.941.79-5.212,1.129-5.576.4-.429,1.574-1.149,4.911-1.149h3.654c3.514,0,4.655.734,4.981,1.048.4.384,1.062,1.482,1.062,4.536v.8a4.036,4.036,0,0,0,4.351,4.349h9.706a4.035,4.035,0,0,0,4.349-4.349v-2.169c0-6.267-1.751-11.324-5.206-15.035a18.045,18.045,0,0,0-12.493-5.589v-7.125a4.036,4.036,0,0,0-4.349-4.349h-6.852a4.036,4.036,0,0,0-4.351,4.349v7.07h-.017a1.952,1.952,0,0,0,0,3.9h1.969a1.952,1.952,0,0,0,1.952-1.953v-9.021a.322.322,0,0,1,.446-.445h6.852a1.525,1.525,0,0,1,.4.042,1.6,1.6,0,0,1,.04.4v9.021a1.953,1.953,0,0,0,1.952,1.953h.229c4.883,0,8.6,1.44,11.361,4.4s4.158,7.125,4.158,12.374v2.168a1.526,1.526,0,0,1-.042.406,1.588,1.588,0,0,1-.4.04h-9.706a.322.322,0,0,1-.446-.446v-.8c0-3.475-.736-5.876-2.254-7.343-1.5-1.443-4.011-2.146-7.692-2.146h-3.654c-3.721,0-6.261.782-7.765,2.389-1.467,1.571-2.181,4.267-2.181,8.242v2.284a6.823,6.823,0,0,0,2.414,5.438,10.745,10.745,0,0,0,4.733,2.3l.05.009c1.744.319,4.587.644,8.69,1a42.476,42.476,0,0,1,8.591,1.4,21.028,21.028,0,0,1,5.467,2.762c3.467,2.5,5.225,7.185,5.225,13.936v4.34c0,5.445-1.434,9.51-4.388,12.429s-6.934,4.346-12.159,4.346h-.229a1.951,1.951,0,0,0-1.952,1.951v8.792a.322.322,0,0,1-.445.447h-6.852a1.565,1.565,0,0,1-.4-.042,1.5,1.5,0,0,1-.042-.4v-8.792a1.951,1.951,0,0,0-1.952-1.951h-.8c-5.287,0-9.256-1.432-12.136-4.381s-4.3-7.012-4.3-12.394v-2.17a1.6,1.6,0,0,1,.04-.4,1.53,1.53,0,0,1,.406-.042h9.706a.322.322,0,0,1,.445.447v.8c0,3.491.764,5.9,2.333,7.364,1.529,1.429,4.019,2.125,7.612,2.125h4.567c3.528,0,6.007-.739,7.583-2.263,1.59-1.54,2.363-4.089,2.363-7.8v-1.713a7.688,7.688,0,0,0-2.333-5.881,10.925,10.925,0,0,0-4.853-2.635l-.053-.014a82.025,82.025,0,0,0-8.287-1.064,51.379,51.379,0,0,1-8.608-1.361,20.081,20.081,0,0,1-5.511-2.66l-.026-.017c-3.648-2.346-5.5-7.209-5.5-14.459v-4.225a19.334,19.334,0,0,1,2.347-10.013,1.951,1.951,0,1,0-3.347-2.006,23.124,23.124,0,0,0-2.9,12.019v4.225c0,8.656,2.45,14.621,7.278,17.733a23.939,23.939,0,0,0,6.581,3.154,54.072,54.072,0,0,0,9.319,1.5c3.872.37,6.491.7,7.787.984a6.981,6.981,0,0,1,3.114,1.7,3.906,3.906,0,0,1,1.092,3.026v1.713c0,3.352-.736,4.567-1.174,4.991-.549.531-1.84,1.164-4.867,1.164h-4.567c-3.305,0-4.519-.672-4.949-1.073-.408-.381-1.092-1.473-1.092-4.511v-.8a4.035,4.035,0,0,0-4.349-4.349H341.15a4.036,4.036,0,0,0-4.351,4.349v2.17c0,6.362,1.82,11.451,5.408,15.123,3.378,3.458,8.007,5.318,13.775,5.533v6.862a4.037,4.037,0,0,0,4.351,4.351h6.852a4.036,4.036,0,0,0,4.349-4.351v-6.889c5.424-.314,9.852-2.136,13.179-5.425,3.682-3.636,5.548-8.752,5.548-15.2v-4.34c0-8.088-2.311-13.847-6.866-17.116Zm0,0" transform="translate(-336.684 -3848.926)" fill="#ff0062"/>
  <path id="Trazado_99348" data-name="Trazado 99348" d="M346.39,3859.383a1.952,1.952,0,1,1-1.952-1.953,1.952,1.952,0,0,1,1.952,1.953Zm0,0" transform="translate(-333.461 -3844.202)" fill="#ff0062"/>
</svg>
