<svg xmlns="http://www.w3.org/2000/svg" xmlns:xlink="http://www.w3.org/1999/xlink" width="254.999" height="190.808" viewBox="0 0 254.999 190.808">
  <defs>
    <linearGradient id="linear-gradient" x1="-20.039" y1="0.5" x2="-19.039" y2="0.5" gradientUnits="objectBoundingBox">
      <stop offset="0" stop-color="#738598"/>
      <stop offset="1" stop-color="#3c415e"/>
    </linearGradient>
    <linearGradient id="linear-gradient-2" x1="-18.284" y1="1.182" x2="-18.287" y2="0.026" xlink:href="#linear-gradient"/>
  </defs>
  <g id="Grupo_53480" data-name="Grupo 53480" transform="translate(-176.63 -3151.862)">
    <ellipse id="Elipse_5466" data-name="Elipse 5466" cx="107.29" cy="6.087" rx="107.29" ry="6.087" transform="translate(186.414 3330.497)" opacity="0.15"/>
    <g id="Grupo_53432" data-name="Grupo 53432" transform="translate(251.819 3165.312)">
      <g id="Grupo_53423" data-name="Grupo 53423" transform="translate(18.335 0)">
        <g id="Grupo_53421" data-name="Grupo 53421" transform="translate(0.06 0.004)">
          <path id="Trazado_98761" data-name="Trazado 98761" d="M401.253,3242.665s15.038-10.806,14.578-30.856-16.715-30-16.715-30-12.361,10.386-14.087,30.921S401.253,3242.665,401.253,3242.665Z" transform="translate(-384.912 -3181.805)" fill="#0dcece"/>
        </g>
        <g id="Grupo_53422" data-name="Grupo 53422">
          <path id="Trazado_98762" data-name="Trazado 98762" d="M384.848,3217.115l-.068-1.3,15.475,9.791-.7-20.066-11.316-7.215.359-.981,10.915,7.008-.783-22.3.284-.26.7.389.458,13.035,7.18-5.793.614.761-7.751,6.255.657,18.713,14.449-8.3.171,1.187-14.581,8.216.912,25.969-.638.431-.332-.152-.552-15.721Z" transform="translate(-384.779 -3181.795)" fill="#0991a1"/>
        </g>
      </g>
      <g id="Grupo_53427" data-name="Grupo 53427" transform="translate(0 9.078)">
        <g id="Grupo_53425" data-name="Grupo 53425" transform="translate(0 0.024)">
          <g id="Grupo_53424" data-name="Grupo 53424">
            <path id="Trazado_98763" data-name="Trazado 98763" d="M379.21,3252.653s7.087-17.109-3.869-33.908-30.016-16.691-30.016-16.691-5.033,15.34,4.322,33.7S379.21,3252.653,379.21,3252.653Z" transform="translate(-343.973 -3202.054)" fill="#11afb7"/>
          </g>
        </g>
        <g id="Grupo_53426" data-name="Grupo 53426" transform="translate(0.662)">
          <path id="Trazado_98764" data-name="Trazado 98764" d="M352.681,3239.518l-.742-1.067,18.312.167-11.173-16.683-13.419-.17-.212-1.023,12.97.205L346,3202.409l.1-.371.8-.038,7.258,10.837,3.049-8.707.923.323-3.292,9.4,10.419,15.558,7.908-14.666.771.918-8.064,14.666,14.459,21.591-.315.7-.362.046-8.753-13.071Z" transform="translate(-345.446 -3202)" fill="#0991a1"/>
        </g>
      </g>
      <g id="Grupo_53431" data-name="Grupo 53431" transform="translate(30.053 6.195)">
        <g id="Grupo_53429" data-name="Grupo 53429" transform="translate(0 0.615)">
          <g id="Grupo_53428" data-name="Grupo 53428">
            <path id="Trazado_98765" data-name="Trazado 98765" d="M415.679,3251.157s18.4-2.122,27.753-19.862,0-34.344,0-34.344-15.853,3.058-27.354,20.157S415.679,3251.157,415.679,3251.157Z" transform="translate(-410.859 -3196.951)" fill="#0991a1"/>
          </g>
        </g>
        <g id="Grupo_53430" data-name="Grupo 53430" transform="translate(2.984)">
          <path id="Trazado_98766" data-name="Trazado 98766" d="M417.5,3219.545l.572-1.167,8.754,16.084,9.15-17.872-6.374-11.81.791-.682,6.125,11.435,10.167-19.86.374-.089.422.68-5.944,11.61,9.092-1.567.166.964-9.815,1.692-8.533,16.668,16.661-.217-.428,1.12-16.736.081-11.842,23.13-.766.066-.216-.294,7.168-14Z" transform="translate(-417.501 -3195.583)" fill="#0991a1"/>
        </g>
      </g>
    </g>
    <g id="Grupo_53463" data-name="Grupo 53463" transform="translate(330.656 3151.862)">
      <g id="Grupo_53461" data-name="Grupo 53461" transform="translate(0 20.142)">
        <g id="Grupo_53434" data-name="Grupo 53434" transform="translate(0 44.161)">
          <g id="Grupo_53433" data-name="Grupo 53433">
            <path id="Trazado_98767" data-name="Trazado 98767" d="M519.988,3309.664l-.049-.331-.035-.26-.061-.489c-.039-.32-.072-.631-.1-.941-.062-.618-.111-1.225-.153-1.832-.084-1.212-.131-2.413-.146-3.616a67.72,67.72,0,0,1,.289-7.22l14.294,1.36A53.284,53.284,0,0,0,533.8,3302c.012.948.049,1.9.114,2.831.032.466.07.93.115,1.382l.072.662.039.312.028.207Z" transform="translate(-519.434 -3294.975)" fill="none"/>
          </g>
          <path id="Trazado_98768" data-name="Trazado 98768" d="M534.876,3300.924l-1.435-.054c.034-.81.078-1.62.142-2.428l1.432.112C534.952,3299.342,534.909,3300.133,534.876,3300.924Z" transform="translate(-527.147 -3296.884)" fill="#52298a" fill-rule="evenodd"/>
          <path id="Trazado_98769" data-name="Trazado 98769" d="M534.817,3310.523l-1.436.048c-.029-.811-.036-1.621-.033-2.432l1.436.009C534.781,3308.94,534.788,3309.733,534.817,3310.523Z" transform="translate(-527.096 -3302.225)" fill="#52298a" fill-rule="evenodd"/>
          <path id="Trazado_98770" data-name="Trazado 98770" d="M535.273,3319.962l-1.427.165c-.094-.812-.162-1.621-.217-2.431l1.433-.094C535.116,3318.391,535.182,3319.18,535.273,3319.962Z" transform="translate(-527.251 -3307.436)" fill-rule="evenodd"/>
        </g>
        <g id="Grupo_53436" data-name="Grupo 53436" transform="translate(0.295 29.696)">
          <g id="Grupo_53435" data-name="Grupo 53435">
            <path id="Trazado_98771" data-name="Trazado 98771" d="M520.09,3277.247a59.059,59.059,0,0,1,1.14-7.252,49.106,49.106,0,0,1,2.176-7.211l13.381,5.207a39.912,39.912,0,0,0-2.4,10.617Z" transform="translate(-520.09 -3262.783)" fill="none"/>
          </g>
          <path id="Trazado_98772" data-name="Trazado 98772" d="M539.349,3272.6l-1.377-.408c.107-.394.243-.779.365-1.168s.261-.774.4-1.158l1.351.488c-.133.371-.27.74-.386,1.117S539.452,3272.217,539.349,3272.6Z" transform="translate(-529.937 -3266.682)" fill="#52298a" fill-rule="evenodd"/>
          <path id="Trazado_98773" data-name="Trazado 98773" d="M537.06,3281.867l-1.409-.277c.079-.4.156-.8.251-1.195s.175-.795.281-1.188l1.393.349c-.1.381-.183.768-.272,1.153S537.137,3281.48,537.06,3281.867Z" transform="translate(-528.659 -3271.827)" fill="#52298a" fill-rule="evenodd"/>
          <path id="Trazado_98774" data-name="Trazado 98774" d="M535.6,3291.294l-1.427-.161.15-1.209.177-1.206,1.418.225-.172,1.174Z" transform="translate(-527.844 -3277.066)" fill="#52298a" fill-rule="evenodd"/>
        </g>
        <g id="Grupo_53438" data-name="Grupo 53438" transform="translate(3.61 15.87)">
          <g id="Grupo_53437" data-name="Grupo 53437">
            <path id="Trazado_98775" data-name="Trazado 98775" d="M527.469,3245.837c.235-.594.469-1.188.736-1.775.131-.294.258-.59.394-.882l.426-.874c.265-.569.624-1.2.952-1.8.158-.3.363-.61.548-.915s.372-.608.581-.912l.649-.913c.113-.151.211-.3.337-.453l.368-.451.371-.448c.126-.149.243-.3.386-.444q.414-.441.836-.873c.071-.072.14-.144.213-.215l.231-.21.466-.416.47-.411c.158-.136.336-.262.5-.392.344-.255.681-.516,1.041-.756s.739-.462,1.113-.685l7.124,12.468a2.735,2.735,0,0,1-.261.158c-.088.058-.171.136-.261.2a1.371,1.371,0,0,0-.135.1c-.044.042-.088.083-.133.124s-.091.08-.137.119l-.07.058c-.023.022-.045.05-.068.074q-.136.15-.28.292a1.381,1.381,0,0,0-.141.165l-.142.175-.145.171a2.314,2.314,0,0,0-.142.2q-.142.2-.288.4c-.1.137-.186.3-.282.449s-.194.291-.282.468l-.275.5c-.046.088-.093.158-.14.26l-.14.289-.282.575c-.09.195-.174.4-.262.592-.182.39-.338.8-.5,1.2Z" transform="translate(-527.469 -3232.011)" fill="none"/>
          </g>
          <path id="Trazado_98776" data-name="Trazado 98776" d="M552.724,3247.968l-1.019-1.013.221-.23.239-.214.48-.425a5.992,5.992,0,0,1,.5-.4l.518-.384.812,1.184-.46.343a4.832,4.832,0,0,0-.45.356l-.43.382-.215.191Z" transform="translate(-540.816 -3239.331)" fill="#52298a" fill-rule="evenodd"/>
          <path id="Trazado_98777" data-name="Trazado 98777" d="M546.857,3255.159l-1.234-.734c.222-.352.434-.71.667-1.057s.482-.686.736-1.02l1.135.879c-.234.309-.453.63-.681.944S547.066,3254.83,546.857,3255.159Z" transform="translate(-537.466 -3243.21)" fill="#52298a" fill-rule="evenodd"/>
          <path id="Trazado_98778" data-name="Trazado 98778" d="M542.585,3263.578l-1.324-.555.5-1.124c.167-.374.356-.738.533-1.107l1.284.642c-.169.355-.351.7-.511,1.063Z" transform="translate(-535.064 -3247.861)" fill="#52298a" fill-rule="evenodd"/>
        </g>
        <g id="Grupo_53440" data-name="Grupo 53440" transform="translate(14.233 13.347)">
          <g id="Grupo_53439" data-name="Grupo 53439">
            <path id="Trazado_98779" data-name="Trazado 98779" d="M551.112,3228.919a19.361,19.361,0,0,1,4.837-1.929c.412-.1.822-.174,1.235-.255.2-.036.414-.082.616-.108l.605-.072.606-.066c.2-.022.4-.043.6-.047q.587-.025,1.174-.042c.1,0,.2-.007.292-.005l.283.008.565.018c.374.016.761.02,1.115.062l1.082.107.27.029.259.039.518.08c.342.056.7.1,1.029.171l.992.207.5.106c.163.037.319.08.478.12l.951.246-3.784,13.852-.61-.158c-.1-.026-.2-.055-.3-.078l-.294-.06-.586-.125c-.195-.04-.375-.058-.563-.091l-.279-.045-.139-.024-.132-.011-.522-.052a4.647,4.647,0,0,0-.5-.026l-.241-.01-.12-.007c-.04,0-.074,0-.111.005q-.219.012-.439.015a1.1,1.1,0,0,0-.205.018l-.2.024-.2.018c-.066.005-.117.026-.177.036-.114.027-.236.04-.346.066a5.058,5.058,0,0,0-1.137.452Z" transform="translate(-551.112 -3226.395)" fill="none"/>
          </g>
          <path id="Trazado_98780" data-name="Trazado 98780" d="M579.51,3242.284l.213-1.42c.823.115,1.629.292,2.43.477l-.338,1.4C581.051,3242.56,580.284,3242.392,579.51,3242.284Z" transform="translate(-566.75 -3234.363)" fill="#52298a" fill-rule="evenodd"/>
          <path id="Trazado_98781" data-name="Trazado 98781" d="M570.094,3241.807l-.126-1.431a6.286,6.286,0,0,1,.634-.04l.634-.022c.212-.014.421.006.63.01l.63.022-.084,1.434-.581-.02c-.194,0-.388-.022-.581-.009l-.579.02A5.277,5.277,0,0,0,570.094,3241.807Z" transform="translate(-561.496 -3234.057)" fill="#52298a" fill-rule="evenodd"/>
          <path id="Trazado_98782" data-name="Trazado 98782" d="M560.709,3243.291l-.6-1.3a5.217,5.217,0,0,1,.6-.253l.6-.232c.2-.071.412-.123.618-.185s.412-.125.622-.17l.326,1.4c-.187.04-.368.1-.553.152s-.369.1-.55.162l-.534.207A4.335,4.335,0,0,0,560.709,3243.291Z" transform="translate(-556.065 -3234.519)" fill="#52298a" fill-rule="evenodd"/>
        </g>
        <g id="Grupo_53442" data-name="Grupo 53442" transform="translate(28.448 14.54)">
          <g id="Grupo_53441" data-name="Grupo 53441">
            <path id="Trazado_98783" data-name="Trazado 98783" d="M586.533,3229.051a54.5,54.5,0,0,1,6.991,2.48c2.189.934,4.274,1.943,6.308,2.988l-6.577,12.764c-1.792-.921-3.582-1.783-5.349-2.537a40.345,40.345,0,0,0-5.156-1.843Z" transform="translate(-582.749 -3229.051)" fill="none"/>
          </g>
          <path id="Trazado_98784" data-name="Trazado 98784" d="M606.287,3251.549l.615-1.3c.733.339,1.451.7,2.172,1.063l-.647,1.282C607.716,3252.241,607.007,3251.882,606.287,3251.549Z" transform="translate(-595.711 -3240.726)" fill="#52298a" fill-rule="evenodd"/>
          <path id="Trazado_98785" data-name="Trazado 98785" d="M597.6,3247.676l.537-1.332,1.122.465c.376.152.74.325,1.111.487l-.584,1.312c-.364-.159-.722-.329-1.089-.478Z" transform="translate(-590.929 -3238.574)" fill="#52298a" fill-rule="evenodd"/>
          <path id="Trazado_98786" data-name="Trazado 98786" d="M588.722,3244.472l.415-1.375c.788.226,1.552.5,2.323.768l-.491,1.35C590.222,3244.96,589.479,3244.688,588.722,3244.472Z" transform="translate(-586.038 -3236.786)" fill="#52298a" fill-rule="evenodd"/>
        </g>
        <g id="Grupo_53444" data-name="Grupo 53444" transform="translate(38.954 20.008)">
          <g id="Grupo_53443" data-name="Grupo 53443">
            <path id="Trazado_98787" data-name="Trazado 98787" d="M612.708,3241.221c4.059,2.094,7.9,4.342,11.665,6.637l-7.485,12.254c-3.577-2.179-7.171-4.277-10.758-6.127Z" transform="translate(-606.13 -3241.221)" fill="none"/>
          </g>
          <path id="Trazado_98788" data-name="Trazado 98788" d="M631.44,3265.245l.732-1.235,1.034.613,1.028.623-.744,1.229-1.022-.62Z" transform="translate(-620.068 -3253.771)" fill="#52298a" fill-rule="evenodd"/>
          <path id="Trazado_98789" data-name="Trazado 98789" d="M623.188,3260.447l.705-1.251c.7.388,1.393.8,2.089,1.2l-.722,1.242C624.57,3261.238,623.885,3260.832,623.188,3260.447Z" transform="translate(-615.524 -3251.12)" fill="#52298a" fill-rule="evenodd"/>
          <path id="Trazado_98790" data-name="Trazado 98790" d="M614.853,3255.873l.668-1.271c.717.367,1.416.761,2.125,1.14l-.691,1.26C616.254,3256.626,615.561,3256.235,614.853,3255.873Z" transform="translate(-610.934 -3248.59)" fill="#52298a" fill-rule="evenodd"/>
        </g>
        <g id="Grupo_53446" data-name="Grupo 53446" transform="translate(49.712 26.645)">
          <g id="Grupo_53445" data-name="Grupo 53445">
            <path id="Trazado_98791" data-name="Trazado 98791" d="M637.558,3255.992l2.719,1.65c.9.541,1.806,1.084,2.709,1.612s1.806,1.052,2.709,1.574,1.806,1.025,2.708,1.514l-6.9,12.59c-.989-.537-1.952-1.088-2.924-1.635s-1.923-1.105-2.869-1.667-1.893-1.123-2.835-1.687l-2.8-1.7Z" transform="translate(-630.073 -3255.992)" fill="none"/>
          </g>
          <path id="Trazado_98792" data-name="Trazado 98792" d="M656.12,3279.949l.713-1.247,2.076,1.171-.7,1.255Z" transform="translate(-644.417 -3268.498)" fill="#52298a" fill-rule="evenodd"/>
          <path id="Trazado_98793" data-name="Trazado 98793" d="M647.846,3275.136l.733-1.234,2.058,1.21-.723,1.241Z" transform="translate(-639.86 -3265.855)" fill="#52298a" fill-rule="evenodd"/>
          <path id="Trazado_98794" data-name="Trazado 98794" d="M639.673,3270.22l.748-1.226c.681.413,1.359.831,2.043,1.238l-.74,1.231C641.037,3271.054,640.357,3270.634,639.673,3270.22Z" transform="translate(-635.36 -3263.152)" fill="#52298a" fill-rule="evenodd"/>
        </g>
        <g id="Grupo_53448" data-name="Grupo 53448" transform="translate(61.136 32.996)">
          <g id="Grupo_53447" data-name="Grupo 53447">
            <path id="Trazado_98795" data-name="Trazado 98795" d="M662.4,3270.126c1.8.987,3.606,1.94,5.39,2.8a56.739,56.739,0,0,0,5.243,2.245l-4.856,13.512a70.633,70.633,0,0,1-6.619-2.821c-2.093-1.006-4.094-2.065-6.063-3.143Z" transform="translate(-655.5 -3270.126)" fill="none"/>
          </g>
          <path id="Trazado_98796" data-name="Trazado 98796" d="M681.76,3293.043l.57-1.319c.359.164.725.3,1.087.456l.544.225.549.209-.513,1.342-.566-.216-.559-.23C682.5,3293.354,682.126,3293.209,681.76,3293.043Z" transform="translate(-669.961 -3282.02)" fill="#52298a" fill-rule="evenodd"/>
          <path id="Trazado_98797" data-name="Trazado 98797" d="M673.044,3289.011l.639-1.286,1.065.523,1.072.5-.6,1.3-1.09-.513Z" transform="translate(-665.162 -3279.818)" fill="#52298a" fill-rule="evenodd"/>
          <path id="Trazado_98798" data-name="Trazado 98798" d="M664.553,3284.629l.683-1.263c.7.37,1.4.751,2.1,1.112l-.661,1.275C665.965,3285.387,665.262,3285,664.553,3284.629Z" transform="translate(-660.485 -3277.417)" fill="#52298a" fill-rule="evenodd"/>
        </g>
        <g id="Grupo_53450" data-name="Grupo 53450" transform="translate(73.818 38.037)">
          <g id="Grupo_53449" data-name="Grupo 53449">
            <path id="Trazado_98799" data-name="Trazado 98799" d="M688.581,3281.345c.835.288,1.667.568,2.429.752l.288.075.144.038.136.027.541.111a2.471,2.471,0,0,0,.257.044l.249.036.248.04c.079.01.149.011.224.019l.221.02a1.418,1.418,0,0,0,.211.015c.127,0,.253,0,.379.009s.209-.018.314-.019c.025,0,.054,0,.076,0l.059-.013c.04-.008.08-.013.12-.017a1.47,1.47,0,0,0,.532-.171l7.269,12.384q-.326.192-.656.376-.339.166-.683.324t-.69.308c-.231.092-.464.171-.7.252s-.468.159-.7.235-.464.124-.7.184a13.341,13.341,0,0,1-1.383.284l-.679.1-.34.044c-.112.012-.217.017-.326.025-.432.028-.871.057-1.3.067s-.823-.01-1.233-.021c-.21,0-.4-.022-.593-.037l-.582-.05c-.193-.019-.391-.034-.579-.058l-.55-.079-.549-.083c-.183-.028-.368-.056-.537-.092l-1.039-.214-.259-.055-.247-.062-.493-.125c-1.328-.33-2.537-.736-3.733-1.152Z" transform="translate(-683.725 -3281.345)" fill="none"/>
          </g>
          <path id="Trazado_98800" data-name="Trazado 98800" d="M709.833,3298.347l-.212-1.42a8.939,8.939,0,0,0,1.058-.217c.173-.047.337-.114.507-.169l.253-.085c.081-.035.161-.074.242-.111l.578,1.315c-.1.044-.192.089-.29.131l-.3.1c-.2.066-.4.143-.6.2A10.386,10.386,0,0,1,709.833,3298.347Z" transform="translate(-697.986 -3289.605)" fill="#52298a" fill-rule="evenodd"/>
          <path id="Trazado_98801" data-name="Trazado 98801" d="M700.226,3298.823l.233-1.417c.376.052.752.126,1.126.147l.562.05c.187.013.372.009.558.014l-.022,1.436c-.207-.006-.415,0-.62-.017l-.615-.054C701.034,3298.958,700.632,3298.88,700.226,3298.823Z" transform="translate(-692.812 -3290.19)" fill="#52298a" fill-rule="evenodd"/>
          <path id="Trazado_98802" data-name="Trazado 98802" d="M690.832,3296.488l.452-1.363c.368.134.741.232,1.112.348s.745.208,1.118.3l-.347,1.393c-.394-.1-.79-.2-1.175-.32S691.212,3296.626,690.832,3296.488Z" transform="translate(-687.639 -3288.933)" fill="#52298a" fill-rule="evenodd"/>
        </g>
        <g id="Grupo_53452" data-name="Grupo 53452" transform="translate(85.1 31.567)">
          <g id="Grupo_53451" data-name="Grupo 53451">
            <path id="Trazado_98803" data-name="Trazado 98803" d="M708.833,3274.379a2.025,2.025,0,0,0,.508-.468c.058-.085.122-.151.188-.242s.132-.208.2-.309a.485.485,0,0,0,.052-.086l.052-.1.107-.19.055-.094.028-.047.018-.038c.023-.051.048-.1.075-.15a3.141,3.141,0,0,0,.182-.461c.031-.114.043-.167.038-.149-.005,0,0,0,0,0l13.424-5.1a14.174,14.174,0,0,1,.884,6.331q-.04.4-.093.8c-.038.262-.086.514-.133.77s-.106.494-.165.735-.12.481-.191.7a17.455,17.455,0,0,1-.982,2.544l-.284.572-.072.142-.071.128-.144.257-.291.512-.147.255c-.047.084-.1.17-.158.257q-.338.521-.687,1.035c-.247.346-.526.695-.8,1.036l-.207.256-.231.257-.469.506a13.147,13.147,0,0,1-1.027.981c-.183.158-.353.32-.551.471s-.4.3-.6.446-.4.292-.608.43-.43.263-.647.392Z" transform="translate(-708.833 -3266.946)" fill="none"/>
          </g>
          <path id="Trazado_98804" data-name="Trazado 98804" d="M727.307,3276.936l-1.429-.147a6.017,6.017,0,0,0-.126-2.071l1.4-.328A7.41,7.41,0,0,1,727.307,3276.936Z" transform="translate(-718.15 -3271.045)" fill="#52298a" fill-rule="evenodd"/>
          <path id="Trazado_98805" data-name="Trazado 98805" d="M724.33,3286.1l-1.24-.725a10.882,10.882,0,0,0,.947-1.995l1.357.469A12.31,12.31,0,0,1,724.33,3286.1Z" transform="translate(-716.684 -3275.998)" fill="#52298a" fill-rule="evenodd"/>
          <path id="Trazado_98806" data-name="Trazado 98806" d="M718.348,3293.7l-.866-1.145.215-.157.2-.18c.132-.121.269-.237.4-.361l.369-.4c.061-.067.126-.13.183-.2l.169-.217,1.121.9-.193.247c-.066.081-.141.155-.211.232l-.428.461c-.152.145-.312.283-.468.424l-.236.21Z" transform="translate(-713.596 -3280.215)" fill="#52298a" fill-rule="evenodd"/>
        </g>
        <g id="Grupo_53454" data-name="Grupo 53454" transform="translate(80.6 19.521)">
          <g id="Grupo_53453" data-name="Grupo 53453">
            <path id="Trazado_98807" data-name="Trazado 98807" d="M704.828,3257.286h0c.005,0-.01-.011-.01-.018s-.016-.026-.025-.044a.252.252,0,0,1-.014-.03.413.413,0,0,1-.025-.035,2.833,2.833,0,0,0-.3-.391,7.13,7.13,0,0,0-.541-.539c-.223-.2-.473-.4-.754-.611a19.408,19.408,0,0,0-1.97-1.265c-.733-.418-1.533-.824-2.37-1.217l6.1-13c1.11.521,2.231,1.087,3.367,1.733a33.507,33.507,0,0,1,3.448,2.231c.581.433,1.166.906,1.749,1.423a21.383,21.383,0,0,1,1.737,1.742,17.135,17.135,0,0,1,1.645,2.177l.193.3.186.321c.123.216.244.425.361.664s.234.458.34.708.213.494.31.744Z" transform="translate(-698.818 -3240.136)" fill="none"/>
          </g>
          <path id="Trazado_98808" data-name="Trazado 98808" d="M709.38,3255.646l-.714,1.246c-.673-.386-1.363-.749-2.065-1.1l.635-1.288C707.962,3254.865,708.677,3255.242,709.38,3255.646Z" transform="translate(-703.105 -3248.051)" fill="#52298a" fill-rule="evenodd"/>
          <path id="Trazado_98809" data-name="Trazado 98809" d="M717.443,3260.763l-.929,1.095a19.377,19.377,0,0,0-1.831-1.368l.795-1.2A20.723,20.723,0,0,1,717.443,3260.763Z" transform="translate(-707.555 -3250.687)" fill="#52298a" fill-rule="evenodd"/>
          <path id="Trazado_98810" data-name="Trazado 98810" d="M724.118,3267.614l-1.264.682a9.3,9.3,0,0,0-1.266-1.758l1.065-.964A10.719,10.719,0,0,1,724.118,3267.614Z" transform="translate(-711.357 -3254.144)" fill="#52298a" fill-rule="evenodd"/>
        </g>
        <g id="Grupo_53456" data-name="Grupo 53456" transform="translate(69.307 14.653)">
          <g id="Grupo_53455" data-name="Grupo 53455">
            <path id="Trazado_98811" data-name="Trazado 98811" d="M684.978,3247.17c-1.675-.786-3.5-1.514-5.394-2.21s-3.865-1.36-5.9-2.041l4.557-13.617c2.045.684,4.153,1.392,6.294,2.179s4.32,1.648,6.539,2.688Z" transform="translate(-673.685 -3229.303)" fill="none"/>
          </g>
          <path id="Trazado_98812" data-name="Trazado 98812" d="M682.839,3244.829l-.468,1.358-2.261-.768.457-1.361Z" transform="translate(-677.223 -3237.428)" fill="#52298a" fill-rule="evenodd"/>
          <path id="Trazado_98813" data-name="Trazado 98813" d="M691.853,3248.006l-.51,1.342q-1.109-.421-2.23-.82l.483-1.353Q690.728,3247.58,691.853,3248.006Z" transform="translate(-682.181 -3239.146)" fill="#52298a" fill-rule="evenodd"/>
          <path id="Trazado_98814" data-name="Trazado 98814" d="M700.7,3251.508l-.586,1.311q-1.075-.482-2.173-.923l.539-1.331Q699.6,3251.016,700.7,3251.508Z" transform="translate(-687.045 -3241.011)" fill="#52298a" fill-rule="evenodd"/>
        </g>
        <g id="Grupo_53458" data-name="Grupo 53458" transform="translate(54.872 11.302)">
          <g id="Grupo_53457" data-name="Grupo 53457">
            <path id="Trazado_98815" data-name="Trazado 98815" d="M655.993,3238.812l-3.112-1.05-.4-.138-.2-.07-.291-.111q-.582-.223-1.157-.459c-.385-.171-.771-.366-1.153-.556s-.761-.415-1.136-.64a18.017,18.017,0,0,1-4.114-3.423,18.551,18.551,0,0,1-2.87-4.381l12.98-6.14a4.222,4.222,0,0,0,.643,1.005,3.681,3.681,0,0,0,.834.678,5.462,5.462,0,0,0,.565.3c.116.041.231.085.343.133l.084.037.179.063.363.125,3,1.012Z" transform="translate(-641.558 -3221.844)" fill="none"/>
          </g>
          <path id="Trazado_98816" data-name="Trazado 98816" d="M657.773,3231.843l-1.064.964c-.15-.157-.279-.332-.419-.5a5.867,5.867,0,0,1-.4-.514l-.37-.533c-.114-.184-.221-.37-.331-.556l1.246-.713c.1.164.192.33.292.492l.326.469a4.855,4.855,0,0,0,.348.452C657.53,3231.552,657.642,3231.706,657.773,3231.843Z" transform="translate(-649.067 -3226.332)" fill="#52298a" fill-rule="evenodd"/>
          <path id="Trazado_98817" data-name="Trazado 98817" d="M664.772,3238.021l-.62,1.3-.578-.286c-.19-.1-.371-.22-.557-.329l-.277-.168-.138-.084-.132-.1-.525-.383.876-1.138.461.336.115.084.123.074.245.147c.165.1.324.2.492.292Z" transform="translate(-652.785 -3230.098)" fill="#52298a" fill-rule="evenodd"/>
          <path id="Trazado_98818" data-name="Trazado 98818" d="M673.7,3241.754l-.456,1.361-2.276-.771.468-1.357Z" transform="translate(-657.755 -3232.386)" fill="#52298a" fill-rule="evenodd"/>
        </g>
        <g id="Grupo_53460" data-name="Grupo 53460" transform="translate(52.705)">
          <g id="Grupo_53459" data-name="Grupo 53459">
            <path id="Trazado_98819" data-name="Trazado 98819" d="M638.9,3214.132a21.66,21.66,0,0,1-1.545-4.565,26.516,26.516,0,0,1-.582-4.385,31.07,31.07,0,0,1,.07-4.173c.054-.684.132-1.361.231-2.047.024-.172.05-.343.079-.517s.057-.346.089-.525.067-.359.1-.543l.061-.293.036-.165.053-.229,13.943,3.431.011-.043,0,.012-.007.032-.021.1-.047.249c-.016.086-.031.177-.046.27s-.03.185-.043.281c-.055.379-.1.769-.13,1.157a16.831,16.831,0,0,0-.041,2.273,9.616,9.616,0,0,0,.767,3.539Z" transform="translate(-636.734 -3196.69)" fill="none"/>
          </g>
          <path id="Trazado_98820" data-name="Trazado 98820" d="M652.256,3204.809l-1.432-.11c.064-.825.164-1.645.3-2.464l1.415.245C652.411,3203.25,652.316,3204.029,652.256,3204.809Z" transform="translate(-644.493 -3199.743)" fill-rule="evenodd"/>
          <path id="Trazado_98821" data-name="Trazado 98821" d="M652.208,3214.437l-1.428.154a22.147,22.147,0,0,1-.128-2.491l1.436,0A20.782,20.782,0,0,0,652.208,3214.437Z" transform="translate(-644.399 -3205.176)" fill="#52298a" fill-rule="evenodd"/>
          <path id="Trazado_98822" data-name="Trazado 98822" d="M653.678,3223.552l-1.34.515a17.434,17.434,0,0,1-.713-2.436l1.4-.3A16.064,16.064,0,0,0,653.678,3223.552Z" transform="translate(-644.934 -3210.261)" fill="#52298a" fill-rule="evenodd"/>
        </g>
      </g>
      <g id="Grupo_53462" data-name="Grupo 53462" transform="translate(48.725)">
        <path id="Trazado_98823" data-name="Trazado 98823" d="M650.278,3170.279l-5.862,1.535-16.538-19.952Z" transform="translate(-627.877 -3151.862)" fill="#ff0062"/>
        <path id="Trazado_98824" data-name="Trazado 98824" d="M638.176,3179.087l6.239-7.272-16.538-19.952,11.261,21.187Z" transform="translate(-627.877 -3151.862)" fill="#b7004b"/>
        <path id="Trazado_98825" data-name="Trazado 98825" d="M629.752,3174.918l9.386-1.868-11.261-21.187Z" transform="translate(-627.877 -3151.862)" fill="#ff0062"/>
      </g>
    </g>
    <rect id="Rect치ngulo_5051" data-name="Rect치ngulo 5051" width="144.508" height="88.928" transform="translate(213.029 3220.119)" fill="#faf9f9"/>
    <rect id="Rect치ngulo_5052" data-name="Rect치ngulo 5052" width="144.508" height="22.232" transform="translate(213.029 3220.119)" fill="#afb9ca"/>
    <path id="Trazado_98826" data-name="Trazado 98826" d="M232.9,3291.808v101.168a2.777,2.777,0,0,0,2.779,2.779H396.863a2.777,2.777,0,0,0,2.779-2.779V3291.808a12.8,12.8,0,0,0-12.8-12.771H245.708A12.8,12.8,0,0,0,232.9,3291.808Zm152.846,87.273H246.8a2.779,2.779,0,0,1-2.779-2.779v-83.37a2.779,2.779,0,0,1,2.779-2.779h138.95a2.779,2.779,0,0,1,2.779,2.779v83.37A2.779,2.779,0,0,1,385.747,3379.08Z" transform="translate(-30.988 -70.033)" fill="url(#linear-gradient)"/>
    <path id="Trazado_98827" data-name="Trazado 98827" d="M223.311,3526.436h172.3a2.777,2.777,0,0,1,2.779,2.779h0a11.138,11.138,0,0,1-11.127,11.127h-155.6a11.139,11.139,0,0,1-11.127-11.127h0A2.777,2.777,0,0,1,223.311,3526.436Z" transform="translate(-24.176 -206.273)" fill="url(#linear-gradient-2)"/>
    <path id="Trazado_98828" data-name="Trazado 98828" d="M439.786,3421.833h47.243a2.779,2.779,0,0,0,2.779-2.779V3374.59a2.779,2.779,0,0,0-2.779-2.779H439.786a2.779,2.779,0,0,0-2.779,2.779v44.464A2.779,2.779,0,0,0,439.786,3421.833Z" transform="translate(-143.386 -121.123)" fill="#698cf2"/>
    <g id="Grupo_53464" data-name="Grupo 53464" transform="translate(226.925 3250.688)">
      <path id="Trazado_98829" data-name="Trazado 98829" d="M291.346,3377.369h52.8a2.779,2.779,0,1,0,0-5.558h-52.8a2.779,2.779,0,1,0,0,5.558Z" transform="translate(-288.567 -3371.811)" fill="#3366c2"/>
    </g>
    <g id="Grupo_53465" data-name="Grupo 53465" transform="translate(226.925 3261.804)">
      <path id="Trazado_98830" data-name="Trazado 98830" d="M291.346,3402.109h52.8a2.779,2.779,0,1,0,0-5.558h-52.8a2.779,2.779,0,1,0,0,5.558Z" transform="translate(-288.567 -3396.551)" fill="#3366c2"/>
    </g>
    <g id="Grupo_53466" data-name="Grupo 53466" transform="translate(226.925 3272.92)">
      <path id="Trazado_98831" data-name="Trazado 98831" d="M291.346,3426.849h52.8a2.779,2.779,0,0,0,0-5.558h-52.8a2.779,2.779,0,0,0,0,5.558Z" transform="translate(-288.567 -3421.291)" fill="#3366c2"/>
    </g>
    <g id="Grupo_53467" data-name="Grupo 53467" transform="translate(226.925 3284.036)">
      <path id="Trazado_98832" data-name="Trazado 98832" d="M291.346,3451.589h52.8a2.779,2.779,0,1,0,0-5.558h-52.8a2.779,2.779,0,1,0,0,5.558Z" transform="translate(-288.567 -3446.031)" fill="#3366c2"/>
    </g>
    <g id="Grupo_53468" data-name="Grupo 53468" transform="translate(226.925 3295.152)">
      <path id="Trazado_98833" data-name="Trazado 98833" d="M291.346,3476.329h52.8a2.779,2.779,0,1,0,0-5.558h-52.8a2.779,2.779,0,1,0,0,5.558Z" transform="translate(-288.567 -3470.771)" fill="#3366c2"/>
    </g>
    <path id="Trazado_98834" data-name="Trazado 98834" d="M409.132,3531.994H386.9a5.558,5.558,0,0,1-5.558-5.558H414.69A5.558,5.558,0,0,1,409.132,3531.994Z" transform="translate(-112.732 -206.273)" fill="#dfe2e2"/>
    <g id="Grupo_53470" data-name="Grupo 53470" transform="translate(196.2 3163.181)">
      <path id="Trazado_98835" data-name="Trazado 98835" d="M261.67,3199.253l.738,5.907,4.061-1.108L265,3197.847Z" transform="translate(-243.031 -3188.505)" fill="#fccb95"/>
      <path id="Trazado_98836" data-name="Trazado 98836" d="M242.767,3264.844l-8.971,2.019a6.548,6.548,0,0,0-5.06,7.2l2.217,17.733h4.43l.185-18.645h21.045v-8.491Z" transform="translate(-224.866 -3225.298)" fill="#738598"/>
      <path id="Trazado_98837" data-name="Trazado 98837" d="M280.567,3282.384a34.325,34.325,0,0,0-5.114.68c-.847.369-.847,1.477,0,1.477h5.665c.825,0,1.409-1.058,1.148-2.082l-.034-.134Z" transform="translate(-250.271 -3235.026)" fill="#ffe1bd"/>
      <path id="Trazado_98838" data-name="Trazado 98838" d="M265.233,3208.833l-2.715.814a3.5,3.5,0,0,0-2.491,3.349v21.027l8.106.608,2.6,7.515h3.323l-1.521-7.185,2.26.17s1.3-14.664-5.886-25.01A3.318,3.318,0,0,0,265.233,3208.833Z" transform="translate(-242.126 -3194.478)" fill="#0991a1"/>
      <path id="Trazado_98839" data-name="Trazado 98839" d="M285.734,3247.818l-5.987-9.043,3.874,12.77,2.033.153Z" transform="translate(-252.986 -3211.043)" opacity="0.35"/>
      <path id="Trazado_98840" data-name="Trazado 98840" d="M226.272,3325.054l-5.441,3.139a1.285,1.285,0,0,0,.642,2.4h8.86v-5.538Z" transform="translate(-220.186 -3258.556)" fill="#ff0062"/>
      <g id="Grupo_53469" data-name="Grupo 53469" transform="translate(12.084)">
        <path id="Trazado_98841" data-name="Trazado 98841" d="M250.367,3193.63s.273,1.244,3.447.76c2.244-.342,3.976-1.634,4.327-3.23.7-3.193-1.173-7.792-3.417-7.45s-2.934.19-4.151,2.432c-.776,1.429-1.481,2.535-1.89,3.148a.752.752,0,0,0,.08.951l.754.69S249.678,3193.478,250.367,3193.63Z" transform="translate(-247.89 -3180.709)" fill="#ffe1bd"/>
        <path id="Trazado_98842" data-name="Trazado 98842" d="M249.722,3182.672a5.738,5.738,0,0,1-2.642-4.409s2.556,1.52,3.447.76,3.563-3.041,6.808-1.369,1.953,4.258,1.953,4.258a3.5,3.5,0,0,1,.775,3.041,6.221,6.221,0,0,1-3.379,4.4s1.391-4.669-.172-6.054-1.678,2.416-1.678,2.416S254.462,3180.847,249.722,3182.672Z" transform="translate(-247.08 -3177.054)" fill="#3c415e"/>
      </g>
    </g>
    <g id="Grupo_53471" data-name="Grupo 53471" transform="translate(337.541 3283.588)">
      <path id="Trazado_98843" data-name="Trazado 98843" d="M617.145,3502.585l1.169,5.419a4.645,4.645,0,0,1-1.536,4.521l-4.262,3.616-2.713-2.224,2.873-4.469-1.756-4.149Z" transform="translate(-576.084 -3476.727)" fill="#ffe1bd"/>
      <path id="Trazado_98844" data-name="Trazado 98844" d="M562.352,3504.979l-5.586-2.394-1.4,5.606a4.646,4.646,0,0,0,1.379,4.561l4.332,3.944v-7.334Z" transform="translate(-546.029 -3476.727)" fill="#ffe1bd"/>
      <path id="Trazado_98845" data-name="Trazado 98845" d="M576.849,3482.338l-3.032,4.309-2.394-4.309-5.379.508a5.676,5.676,0,0,0-4.505,3.035l-2.884,5.554,5.586,2.394-1.277,3.192v8.526l11.331,5.28,7.182-4.07,3.032-8.459-1.756-4.149,6.224-2.713-3.7-5.89a5.677,5.677,0,0,0-4.042-2.608Z" transform="translate(-547.917 -3465.577)" fill="#ff0062"/>
      <path id="Trazado_98846" data-name="Trazado 98846" d="M589.271,3524.753v-9.736H564.693v9.736l12.928,4.07Z" transform="translate(-551.242 -3483.573)" fill="#b9d4ef"/>
      <path id="Trazado_98847" data-name="Trazado 98847" d="M566.469,3543.473s24.578-2.713,33.2-7.182-.638-8.778-8.618-6.224-24.578,8.778-24.578,8.778Z" transform="translate(-552.22 -3491.44)" fill="#3c415e"/>
      <path id="Trazado_98848" data-name="Trazado 98848" d="M571.668,3544.25l.578-3.9s-28.189-12.861-35.849-8.87S549.165,3542.813,571.668,3544.25Z" transform="translate(-534.757 -3492.216)" fill="#3c415e"/>
      <path id="Trazado_98849" data-name="Trazado 98849" d="M617.466,3551.536l-.558,3.91s10.135,1.277,10.933.878,3.432-2.155,1.755-3.83S619.781,3550.737,617.466,3551.536Z" transform="translate(-579.996 -3503.412)" fill="#738598"/>
      <path id="Trazado_98850" data-name="Trazado 98850" d="M550.2,3552.352l.559,3.751s-10.134,1.277-10.933.878-3.431-2.155-1.756-3.831S547.882,3551.554,550.2,3552.352Z" transform="translate(-536.278 -3503.83)" fill="#738598"/>
      <path id="Trazado_98851" data-name="Trazado 98851" d="M592.5,3477.84l-3.032,5.187-2.394-5.187v-3.671H592.5Z" transform="translate(-563.565 -3461.078)" fill="#fccb95"/>
      <path id="Trazado_98852" data-name="Trazado 98852" d="M588.281,3463.667s3.771-2.383,4.2-5.314.427-5.336-.557-5.558-7.552-1.729-7.933-1.531-1.729,3.937-1.793,5.313c-.126,2.739,2.773,6.859,3.623,7.336S588.281,3463.667,588.281,3463.667Z" transform="translate(-560.879 -3448.455)" fill="#ffe1bd"/>
      <path id="Trazado_98853" data-name="Trazado 98853" d="M591.386,3455.264a10.138,10.138,0,0,0,1.7-4.321c.24-2.314-.808-4.528-1.675-4.947-4.948-2.394-6.863.638-11.092-.958a26.241,26.241,0,0,0,.8,2.953,6.506,6.506,0,0,1,.285,3.84s1.311-2.085,2.428-2.4,5.267,1.038,6.224,0C590.057,3449.426,592,3449.69,591.386,3455.264Z" transform="translate(-559.849 -3445.033)" fill="#3c415e"/>
    </g>
    <g id="Grupo_53479" data-name="Grupo 53479" transform="translate(176.63 3297.769)">
      <g id="Grupo_53472" data-name="Grupo 53472" transform="translate(0 3.567)">
        <path id="Trazado_98854" data-name="Trazado 98854" d="M181.216,3497.891a5.88,5.88,0,0,1,2.994.821c.1.042.3.152.5.263q-.535-.612-1.077-1.217c-.24-.268-.484-.533-.727-.8-.261.04-.807-.053-1.432.017-.738.083-1.05.372-1.724-.188-.635-.529-.9-1.451.1-1.6a3.247,3.247,0,0,1,2.351.991,15.279,15.279,0,0,1-1.974-2.675c-2.654-1.344-3.914-5.288-3.537-8.039a1.247,1.247,0,0,1,.283-.732c.409-.408,1.13-.122,1.514.311a3.955,3.955,0,0,1,.863,2.23c.086.806.036,1.62.077,2.429a9.138,9.138,0,0,0,.341,1.939.176.176,0,0,1,.021.033,11.02,11.02,0,0,0,1.737,2.829,8.783,8.783,0,0,1-.433-1.95,4.768,4.768,0,0,1,.535-3.017.66.66,0,0,1,.425-.365c.241-.033.443.177.575.381a3.437,3.437,0,0,1,.491,2.459c-.2,1.078-.771,2.065-1.012,3.135a.31.31,0,0,1-.04-.005c.438.5.9.98,1.354,1.457a7.331,7.331,0,0,1-.076-2.447,2.02,2.02,0,0,1,.482-1.06.951.951,0,0,1,1.078-.231,1,1,0,0,1,.431.52,3.1,3.1,0,0,1-.211,2.145c-.244.693-.459,1.413-.732,2.1l.162.174q1.165,1.269,2.3,2.572a12.584,12.584,0,0,1-.576-1.849,7.449,7.449,0,0,1,.062-3.847,2.716,2.716,0,0,1,.78-1.3.583.583,0,0,1,.566-.158.608.608,0,0,1,.248.223,2.866,2.866,0,0,1,.375,2.035,21.356,21.356,0,0,1-.875,3.209,6.244,6.244,0,0,0-.327,1.982q1.164,1.354,2.269,2.755a13.131,13.131,0,0,1-.89-3.624,3.073,3.073,0,0,1,.788-2.836.957.957,0,0,1,.4-.2c.46-.093.879.324,1.036.766a2.91,2.91,0,0,1-.035,1.769c-.166.576-.424,1.122-.6,1.694a7.5,7.5,0,0,0-.212,3.05q.843,1.1,1.644,2.227a10.382,10.382,0,0,1-.233-1.5,7.214,7.214,0,0,1,.394-3.066c.12-.33.31-.692.653-.77a.944.944,0,0,1,.816.325,2.5,2.5,0,0,1,.715,2.147,4.917,4.917,0,0,1-.541,1.417l-.711,1.408a3.34,3.34,0,0,0-.348,1.116q.857,1.267,1.647,2.576a8.934,8.934,0,0,1-.243-1.249,4.8,4.8,0,0,1,.43-2.786,1.207,1.207,0,0,1,.69-.663.942.942,0,0,1,1.053.693,1.994,1.994,0,0,1-.18,1.353,4.781,4.781,0,0,1-.679,1.1,3.818,3.818,0,0,0-.551.74,2.736,2.736,0,0,0-.186,1.123c0,.079,0,.158,0,.238.405.687.807,1.385,1.189,2.1a4.848,4.848,0,0,1,.648-2.478c.254-.437.705-.876,1.193-.745a.773.773,0,0,1,.391.262,1.366,1.366,0,0,1-.128,1.606c-.34.468-.83.8-1.2,1.244a8.388,8.388,0,0,0-.47.938,23.227,23.227,0,0,1,1.46,3.517.281.281,0,0,1-.527.2c-.445-.86-.873-1.724-1.307-2.586a24.711,24.711,0,0,1-2.542.65,1.144,1.144,0,0,1-1.258-.327.949.949,0,0,1,.26-1.2,1.851,1.851,0,0,1,1.267-.338,6.42,6.42,0,0,1,1.963.6c-.447-.882-.906-1.759-1.395-2.623a3.67,3.67,0,0,0-.869,0c-.458.083-.884.3-1.343.373a1.169,1.169,0,0,1-1.229-.449,1.018,1.018,0,0,1,.62-1.333,2.239,2.239,0,0,1,1.619.152c.162.067.4.157.629.272-.042-.07-.082-.14-.124-.209-.231-.377-.468-.749-.707-1.12a13.227,13.227,0,0,1-2.1-.048,3.913,3.913,0,0,1-1.781-.19,1.139,1.139,0,0,1-.638-1.476,1.364,1.364,0,0,1,1.471-.438,6.6,6.6,0,0,1,2.331,1.072q-.787-1.166-1.618-2.3c-1.048-.125-2.406.685-3.531.282-.455-.163-1.08-.686-.851-1.266.18-.457.961-.49,1.37-.528a4.332,4.332,0,0,1,2.283.529q-.334-.443-.672-.883-.436-.565-.882-1.123a8.227,8.227,0,0,0-1.733.067c-.829.136-1.7.458-2.361-.3-.609-.693-.886-2.137.39-2.06a6.418,6.418,0,0,1,2.7,1.052q-.873-1.058-1.772-2.093a7.5,7.5,0,0,0-2.067.275c-.727.248-1.6.939-2.276.319A1.1,1.1,0,0,1,181.216,3497.891Z" transform="translate(-176.63 -3484.533)" fill="#b9d4ef"/>
      </g>
      <g id="Grupo_53473" data-name="Grupo 53473" transform="translate(13.305)">
        <path id="Trazado_98855" data-name="Trazado 98855" d="M207.724,3490.341a5.883,5.883,0,0,1,2.354,2.024c.068.079.2.265.343.454q-.222-.781-.452-1.561c-.1-.345-.208-.69-.314-1.034-.253-.075-.707-.394-1.3-.6-.7-.241-1.108-.114-1.477-.909-.348-.75-.2-1.7.776-1.4a3.249,3.249,0,0,1,1.7,1.9,15.259,15.259,0,0,1-.638-3.262c-1.822-2.352-1.272-6.456.247-8.779a1.244,1.244,0,0,1,.569-.541c.545-.194,1.073.374,1.235.929a3.959,3.959,0,0,1-.176,2.385c-.267.765-.661,1.479-.971,2.227a9.149,9.149,0,0,0-.523,1.9.18.18,0,0,1,0,.039,11.041,11.041,0,0,0,.359,3.3,8.784,8.784,0,0,1,.444-1.948,4.768,4.768,0,0,1,1.775-2.5.662.662,0,0,1,.541-.148c.232.073.324.35.357.591a3.434,3.434,0,0,1-.61,2.432c-.64.89-1.581,1.537-2.257,2.4l-.034-.022c.183.637.39,1.27.6,1.9a7.34,7.34,0,0,1,.979-2.244,2.022,2.022,0,0,1,.889-.751.952.952,0,0,1,1.073.252,1,1,0,0,1,.167.655,3.1,3.1,0,0,1-1.109,1.849c-.517.522-1.02,1.08-1.56,1.582.024.075.049.151.072.227q.509,1.646.974,3.307a12.585,12.585,0,0,1,.271-1.917,7.447,7.447,0,0,1,1.7-3.45,2.711,2.711,0,0,1,1.263-.842.581.581,0,0,1,.579.1.61.61,0,0,1,.129.307,2.867,2.867,0,0,1-.532,2,21.392,21.392,0,0,1-2.165,2.525,6.242,6.242,0,0,0-1.144,1.651q.472,1.722.87,3.461a13.141,13.141,0,0,1,.747-3.655,3.072,3.072,0,0,1,1.927-2.226.964.964,0,0,1,.444-.011,1.022,1.022,0,0,1,.608,1.136,2.917,2.917,0,0,1-.789,1.583c-.4.45-.864.832-1.272,1.272a7.494,7.494,0,0,0-1.5,2.667q.291,1.351.532,2.715a10.4,10.4,0,0,1,.431-1.455,7.209,7.209,0,0,1,1.669-2.6,1.079,1.079,0,0,1,.919-.416.943.943,0,0,1,.6.644,2.5,2.5,0,0,1-.273,2.247,4.917,4.917,0,0,1-1.1,1.049l-1.245.967a3.365,3.365,0,0,0-.793.86q.232,1.512.385,3.033a8.815,8.815,0,0,1,.315-1.232,4.792,4.792,0,0,1,1.582-2.334,1.211,1.211,0,0,1,.908-.3.942.942,0,0,1,.654,1.077,1.992,1.992,0,0,1-.741,1.145,4.751,4.751,0,0,1-1.086.706,3.822,3.822,0,0,0-.815.434,2.736,2.736,0,0,0-.648.935l-.107.212c.073.794.137,1.6.177,2.405a4.847,4.847,0,0,1,1.646-1.962c.417-.285,1.013-.49,1.4-.162a.77.77,0,0,1,.241.4,1.365,1.365,0,0,1-.8,1.4c-.507.277-1.094.371-1.621.609a8.391,8.391,0,0,0-.826.647,23.181,23.181,0,0,1-.187,3.8.282.282,0,0,1-.561-.046c-.034-.968-.051-1.932-.073-2.9a24.871,24.871,0,0,1-2.575-.5,1.144,1.144,0,0,1-1-.834.95.95,0,0,1,.747-.97,1.849,1.849,0,0,1,1.29.238,6.423,6.423,0,0,1,1.517,1.383c-.027-.989-.066-1.977-.137-2.967a3.65,3.65,0,0,0-.787-.368c-.45-.121-.927-.109-1.374-.238a1.17,1.17,0,0,1-.918-.932,1.019,1.019,0,0,1,1.132-.939,2.24,2.24,0,0,1,1.4.831c.118.13.29.311.452.515-.008-.08-.014-.161-.023-.242-.048-.439-.1-.877-.159-1.315a13.219,13.219,0,0,1-1.873-.941,3.9,3.9,0,0,1-1.528-.935,1.139,1.139,0,0,1,.056-1.607,1.365,1.365,0,0,1,1.517.235,6.586,6.586,0,0,1,1.647,1.967q-.211-1.391-.477-2.774c-.894-.561-2.467-.411-3.311-1.258-.341-.342-.683-1.082-.227-1.508.358-.336,1.078-.032,1.464.109a4.329,4.329,0,0,1,1.837,1.455q-.112-.543-.23-1.085c-.1-.465-.208-.929-.316-1.392a8.261,8.261,0,0,0-1.594-.681c-.807-.232-1.729-.312-2.005-1.282-.253-.887.115-2.311,1.234-1.7a6.411,6.411,0,0,1,1.988,2.107q-.335-1.33-.7-2.65a7.5,7.5,0,0,0-1.986-.637c-.763-.087-1.851.162-2.193-.687A1.1,1.1,0,0,1,207.724,3490.341Z" transform="translate(-206.242 -3476.595)" fill="#b9d4ef"/>
      </g>
      <g id="Grupo_53478" data-name="Grupo 53478" transform="translate(14.23 18.09)">
        <g id="Grupo_53474" data-name="Grupo 53474" transform="translate(10.264 4.446)">
          <path id="Trazado_98856" data-name="Trazado 98856" d="M233.684,3542.558a21.181,21.181,0,0,1-1.809-15.808s6.857,1.524,9.142,15.808Z" transform="translate(-231.143 -3526.75)" fill="#0991a1"/>
          <path id="Trazado_98857" data-name="Trazado 98857" d="M240.331,3549.328s-1.79-8.571-2.79-10.285c0,0,3.008,5.428,3.456,10.285Z" transform="translate(-234.666 -3533.52)" fill="#0991a1"/>
        </g>
        <g id="Grupo_53475" data-name="Grupo 53475" transform="translate(17.057 4.569)">
          <path id="Trazado_98858" data-name="Trazado 98858" d="M253.593,3542.833a21.184,21.184,0,0,0,1.809-15.808s-6.857,1.524-9.142,15.808Z" transform="translate(-246.261 -3527.025)" fill="#0991a1"/>
          <path id="Trazado_98859" data-name="Trazado 98859" d="M254.812,3549.6s1.79-8.57,2.79-10.284c0,0-3.009,5.428-3.457,10.284Z" transform="translate(-250.603 -3533.795)" fill="#0991a1"/>
        </g>
        <g id="Grupo_53476" data-name="Grupo 53476" transform="translate(22.861)">
          <path id="Trazado_98860" data-name="Trazado 98860" d="M268.631,3537.233s5.4-8.409,2.332-20.377c0,0-8.838,1.964-11.785,20.377Z" transform="translate(-259.179 -3516.856)" fill="#11afb7"/>
          <path id="Trazado_98861" data-name="Trazado 98861" d="M270.2,3545.958s2.308-11.048,3.6-13.257c0,0-3.878,7-4.456,13.257Z" transform="translate(-264.776 -3525.582)" fill="#0991a1"/>
        </g>
        <g id="Grupo_53477" data-name="Grupo 53477">
          <path id="Trazado_98862" data-name="Trazado 98862" d="M211.575,3537.233s-5.4-8.409-2.332-20.377c0,0,8.838,1.964,11.785,20.377Z" transform="translate(-208.3 -3516.856)" fill="#11afb7"/>
          <path id="Trazado_98863" data-name="Trazado 98863" d="M220.142,3545.958s-2.307-11.048-3.6-13.257c0,0,3.878,7,4.455,13.257Z" transform="translate(-212.841 -3525.582)" fill="#0991a1"/>
        </g>
      </g>
    </g>
  </g>
</svg>
