<svg xmlns="http://www.w3.org/2000/svg" width="94.249" height="122.154" viewBox="0 0 94.249 122.154">
  <g id="Grupo_54244" data-name="Grupo 54244" transform="translate(-1911.677 -1286.565)">
    <g id="Grupo_54289" data-name="Grupo 54289" transform="translate(1952.961 1322.829)">
      <g id="Grupo_54288" data-name="Grupo 54288">
        <path id="Trazado_101927" data-name="Trazado 101927" d="M1999.182,1324.762h-34.356a2.386,2.386,0,1,0,0,4.772h34.356a2.386,2.386,0,1,0,0-4.772Z" transform="translate(-1962.44 -1324.762)" fill="#ff0062"/>
      </g>
    </g>
    <g id="Grupo_54291" data-name="Grupo 54291" transform="translate(1978.993 1334.281)">
      <g id="Grupo_54290" data-name="Grupo 54290">
        <path id="Trazado_101928" data-name="Trazado 101928" d="M1992.13,1337.524a2.386,2.386,0,1,0,.7,1.687A2.4,2.4,0,0,0,1992.13,1337.524Z" transform="translate(-1988.057 -1336.825)" fill="#ff0062"/>
      </g>
    </g>
    <g id="Grupo_54293" data-name="Grupo 54293" transform="translate(1956.413 1296.824)">
      <g id="Grupo_54292" data-name="Grupo 54292">
        <path id="Trazado_101929" data-name="Trazado 101929" d="M1966.51,1298.07a2.386,2.386,0,1,0,.7,1.687A2.405,2.405,0,0,0,1966.51,1298.07Z" transform="translate(-1962.437 -1297.371)" fill="#ff0062"/>
      </g>
    </g>
    <g id="Grupo_54295" data-name="Grupo 54295" transform="translate(1955.815 1334.281)">
      <g id="Grupo_54294" data-name="Grupo 54294">
        <path id="Trazado_101930" data-name="Trazado 101930" d="M1979.111,1336.825h-14.285a2.386,2.386,0,1,0,0,4.772h14.285a2.386,2.386,0,0,0,0-4.772Z" transform="translate(-1962.44 -1336.825)" fill="#ff0062"/>
      </g>
    </g>
    <g id="Grupo_54297" data-name="Grupo 54297" transform="translate(1952.961 1348.596)">
      <g id="Grupo_54296" data-name="Grupo 54296">
        <path id="Trazado_101931" data-name="Trazado 101931" d="M1999.182,1351.9h-34.356a2.386,2.386,0,1,0,0,4.772h34.356a2.386,2.386,0,1,0,0-4.772Z" transform="translate(-1962.44 -1351.903)" fill="#ff0062"/>
      </g>
    </g>
    <g id="Grupo_54299" data-name="Grupo 54299" transform="translate(1978.993 1360.048)">
      <g id="Grupo_54298" data-name="Grupo 54298">
        <path id="Trazado_101932" data-name="Trazado 101932" d="M1992.13,1364.665a2.385,2.385,0,1,0,.7,1.686A2.4,2.4,0,0,0,1992.13,1364.665Z" transform="translate(-1988.057 -1363.965)" fill="#ff0062"/>
      </g>
    </g>
    <g id="Grupo_54301" data-name="Grupo 54301" transform="translate(1955.815 1360.048)">
      <g id="Grupo_54300" data-name="Grupo 54300">
        <path id="Trazado_101933" data-name="Trazado 101933" d="M1979.111,1363.965h-14.285a2.386,2.386,0,1,0,0,4.772h14.285a2.386,2.386,0,0,0,0-4.772Z" transform="translate(-1962.44 -1363.965)" fill="#ff0062"/>
      </g>
    </g>
    <g id="Grupo_54303" data-name="Grupo 54303" transform="translate(1952.961 1374.363)">
      <g id="Grupo_54302" data-name="Grupo 54302">
        <path id="Trazado_101934" data-name="Trazado 101934" d="M1999.182,1379.043h-34.356a2.386,2.386,0,1,0,0,4.772h34.356a2.386,2.386,0,1,0,0-4.772Z" transform="translate(-1962.44 -1379.043)" fill="#ff0062"/>
      </g>
    </g>
    <g id="Grupo_54305" data-name="Grupo 54305" transform="translate(1978.993 1385.815)">
      <g id="Grupo_54304" data-name="Grupo 54304">
        <path id="Trazado_101935" data-name="Trazado 101935" d="M1992.13,1391.8a2.386,2.386,0,1,0,.7,1.687A2.405,2.405,0,0,0,1992.13,1391.8Z" transform="translate(-1988.057 -1391.106)" fill="#ff0062"/>
      </g>
    </g>
    <g id="Grupo_54307" data-name="Grupo 54307" transform="translate(1955.815 1385.815)">
      <g id="Grupo_54306" data-name="Grupo 54306">
        <path id="Trazado_101936" data-name="Trazado 101936" d="M1979.111,1391.106h-14.285a2.386,2.386,0,1,0,0,4.772h14.285a2.386,2.386,0,0,0,0-4.772Z" transform="translate(-1962.44 -1391.106)" fill="#ff0062"/>
      </g>
    </g>
    <g id="Grupo_54309" data-name="Grupo 54309" transform="translate(1911.677 1286.565)">
      <g id="Grupo_54308" data-name="Grupo 54308">
        <path id="Trazado_101937" data-name="Trazado 101937" d="M1995.088,1295.87h-16.978a13.148,13.148,0,0,0-9.422-4.057h-1.947a8.63,8.63,0,0,0-15.88,0h-1.951a13.144,13.144,0,0,0-9.421,4.057h-16.973c-5.976,0-10.838,5.218-10.838,11.633v89.583c0,6.414,4.862,11.633,10.838,11.633h72.572c5.977,0,10.838-5.219,10.838-11.633V1307.5C2005.927,1301.088,2001.064,1295.87,1995.088,1295.87Zm-46.178.715h3.465a2.253,2.253,0,0,0,2.142-1.751,4.373,4.373,0,0,1,8.569,0,2.254,2.254,0,0,0,2.143,1.751h3.46c4.825,0,8.8,4,9.193,9.066h-38.163C1940.114,1300.582,1944.086,1296.585,1948.91,1296.585Zm52.571,100.5a6.647,6.647,0,0,1-6.393,6.861h-72.573a6.647,6.647,0,0,1-6.393-6.861V1307.5a6.647,6.647,0,0,1,6.393-6.861h13.859a15.5,15.5,0,0,0-1.135,5.844v1.551a2.309,2.309,0,0,0,2.223,2.386h42.674a2.308,2.308,0,0,0,2.223-2.386v-1.551a15.5,15.5,0,0,0-1.134-5.844h13.863a6.647,6.647,0,0,1,6.393,6.861Z" transform="translate(-1911.677 -1286.565)" fill="#ff0062"/>
      </g>
    </g>
    <g id="Grupo_54311" data-name="Grupo 54311" transform="translate(1926.293 1321.557)">
      <g id="Grupo_54310" data-name="Grupo 54310">
        <path id="Trazado_101938" data-name="Trazado 101938" d="M1947.864,1324.121a2.385,2.385,0,0,0-3.373,0l-10.2,10.2-3.142-3.142a2.386,2.386,0,0,0-3.374,3.374l4.83,4.83a2.386,2.386,0,0,0,3.374,0l11.889-11.889A2.385,2.385,0,0,0,1947.864,1324.121Z" transform="translate(-1927.072 -1323.422)" fill="#ff0062"/>
      </g>
    </g>
    <g id="Grupo_54313" data-name="Grupo 54313" transform="translate(1926.143 1374.363)">
      <g id="Grupo_54312" data-name="Grupo 54312">
        <path id="Trazado_101939" data-name="Trazado 101939" d="M1942.1,1379.043h-11.452a2.386,2.386,0,0,0-2.386,2.386v11.453a2.386,2.386,0,0,0,2.386,2.386H1942.1a2.386,2.386,0,0,0,2.386-2.386v-11.453A2.386,2.386,0,0,0,1942.1,1379.043Zm-2.386,11.453h-6.68v-6.681h6.68Z" transform="translate(-1928.263 -1379.043)" fill="#ff0062"/>
      </g>
    </g>
    <g id="Grupo_54315" data-name="Grupo 54315" transform="translate(1926.143 1348.596)">
      <g id="Grupo_54314" data-name="Grupo 54314">
        <path id="Trazado_101940" data-name="Trazado 101940" d="M1942.1,1351.9h-11.452a2.386,2.386,0,0,0-2.386,2.386v11.452a2.386,2.386,0,0,0,2.386,2.386H1942.1a2.386,2.386,0,0,0,2.386-2.386v-11.452A2.386,2.386,0,0,0,1942.1,1351.9Zm-2.386,11.452h-6.68v-6.68h6.68Z" transform="translate(-1928.263 -1351.903)" fill="#ff0062"/>
      </g>
    </g>
  </g>
</svg>
