<svg xmlns="http://www.w3.org/2000/svg" width="81.508" height="81.509" viewBox="0 0 81.508 81.509">
  <g id="Grupo_54475" data-name="Grupo 54475" transform="translate(-1056 -10345.573)">
    <g id="Grupo_54352" data-name="Grupo 54352" transform="translate(419.564 8955.808)">
      <path id="Trazado_99476" data-name="Trazado 99476" d="M40.754,0A40.754,40.754,0,1,1,0,40.754,40.754,40.754,0,0,1,40.754,0Z" transform="translate(636.436 1389.766)" fill="#ff0062"/>
    </g>
    <g id="Grupo_54376" data-name="Grupo 54376" transform="translate(180.289 9509.214)">
      <path id="Trazado_101966" data-name="Trazado 101966" d="M932.722,904.855H904.08a4.842,4.842,0,0,1-4.836-4.837v-41.8a4.841,4.841,0,0,1,4.836-4.836h28.643a4.841,4.841,0,0,1,4.836,4.836v41.8A4.842,4.842,0,0,1,932.722,904.855ZM904.08,855.631a2.593,2.593,0,0,0-2.59,2.59v41.8a2.594,2.594,0,0,0,2.59,2.591h28.643a2.594,2.594,0,0,0,2.59-2.591v-41.8a2.593,2.593,0,0,0-2.59-2.59Z" transform="translate(-1.191 -1.6)" fill="#fff"/>
      <path id="Trazado_101970" data-name="Trazado 101970" d="M927.76,898.752H906.422a3.969,3.969,0,0,1-3.966-3.965V860.47a3.97,3.97,0,0,1,3.966-3.965H927.76a3.971,3.971,0,0,1,3.967,3.965v34.317A3.97,3.97,0,0,1,927.76,898.752Zm-21.337-40.135a1.854,1.854,0,0,0-1.852,1.852v34.317a1.854,1.854,0,0,0,1.852,1.852H927.76a1.855,1.855,0,0,0,1.853-1.852V860.47a1.855,1.855,0,0,0-1.853-1.852Z" transform="translate(0.119 0.091)" fill="#fff"/>
      <path id="Trazado_101975" data-name="Trazado 101975" d="M1233.651,876.6a6.368,6.368,0,0,0-5.333-9.837h-.01a6.367,6.367,0,0,0-6.35,6.368,6.281,6.281,0,0,0,1.135,3.629,7.558,7.558,0,0,0-4.713,7.024v7.08a1.112,1.112,0,0,0,1.111,1.11h18.174a1.112,1.112,0,0,0,1.11-1.108v-7.08A7.585,7.585,0,0,0,1233.651,876.6ZM1226.093,878a1.112,1.112,0,0,0-.236-1.552,4.218,4.218,0,0,1-.721-.68,4.14,4.14,0,1,1,5.962.415,1.113,1.113,0,0,0-1.035,1.113,1.1,1.1,0,0,0,.329.783,1.031,1.031,0,0,0,.787.322l.082-.049h0l.041.056.113.006h.1a5.392,5.392,0,0,1,5.039,5.364v5.969H1220.6l0-5.971a5.388,5.388,0,0,1,4.73-5.333A1.117,1.117,0,0,0,1226.093,878Z" transform="translate(-311.367 1.024)" fill="#fff"/>
    </g>
  </g>
</svg>
