<svg xmlns="http://www.w3.org/2000/svg" width="81.508" height="81.508" viewBox="0 0 81.508 81.508">
  <g id="Grupo_54721" data-name="Grupo 54721" transform="translate(-133 -1974)">
    <g id="Grupo_54515" data-name="Grupo 54515" transform="translate(-558 531)">
      <g id="Grupo_54477" data-name="Grupo 54477" transform="translate(54.564 53.234)">
        <path id="Trazado_99476" data-name="Trazado 99476" d="M40.754,0A40.754,40.754,0,1,1,0,40.754,40.754,40.754,0,0,1,40.754,0Z" transform="translate(636.436 1389.766)" fill="#ff0062"/>
      </g>
    </g>
    <g id="Grupo_54519" data-name="Grupo 54519" transform="translate(-1132.752 898.471)">
      <g id="Grupo_54520" data-name="Grupo 54520">
        <g id="Grupo_54519-2" data-name="Grupo 54519">
          <path id="Trazado_102098" data-name="Trazado 102098" d="M1323.975,1130.666h-35.9a5.329,5.329,0,0,1-5.323-5.323v-25.49a5.329,5.329,0,0,1,5.323-5.324h35.9a5.33,5.33,0,0,1,5.324,5.324v25.49A5.33,5.33,0,0,1,1323.975,1130.666Zm-35.9-33.843a3.032,3.032,0,0,0-3.027,3.028v25.49a3.032,3.032,0,0,0,3.027,3.028h35.9a3.032,3.032,0,0,0,3.028-3.028v-25.49a3.033,3.033,0,0,0-3.028-3.028Z" fill="#fff"/>
          <rect id="Rectángulo_5261" data-name="Rectángulo 5261" width="44.255" height="2.296" transform="translate(1283.897 1121.428)" fill="#fff"/>
          <path id="Trazado_102099" data-name="Trazado 102099" d="M1289.161,1122.577h-2.3v-24.47h39.175v23.818h-2.3v-21.518h-34.575Z" fill="#fff"/>
          <path id="Trazado_102100" data-name="Trazado 102100" d="M1309.169,1126.328h-5.145a1.15,1.15,0,1,1,0-2.3h5.143a1.15,1.15,0,0,1,0,2.3Z" fill="#fff"/>
          <path id="Trazado_102101" data-name="Trazado 102101" d="M1302.888,1135.167c-3.926,0-3.983-.35-4.115-1.141a1.217,1.217,0,0,1,.953-1.375c.8-.241,1.593-1.931,1.881-2.995a1.149,1.149,0,0,1,2.219.594h0a10.435,10.435,0,0,1-1.122,2.593c1.86,0,4.534-.063,7.281-.148a3.425,3.425,0,0,1-.523-3.722,1.149,1.149,0,0,1,2.018,1.1h0c-.366.676.98,2.131,1.837,2.755a1.148,1.148,0,0,1-.633,2.075C1308.009,1135.073,1304.927,1135.167,1302.888,1135.167Z" fill="#fff"/>
          <path id="Trazado_102102" data-name="Trazado 102102" d="M1315.582,1138.8h-19.006a2.979,2.979,0,1,1,0-5.958h19.006a2.979,2.979,0,0,1,0,5.958Zm-19.006-3.662a.684.684,0,1,0-.054,1.366h19.06a.684.684,0,0,0,0-1.366Z" fill="#fff"/>
        </g>
      </g>
      <path id="Trazado_102098-2" data-name="Trazado 102098" d="M1298.967,1120.168l-4.352-6.923,19.049-11.974,4.352,6.921Zm-2.283-6.452,2.755,4.384,16.508-10.378-2.755-4.383Z" fill="#fff"/>
      <path id="Trazado_102099-2" data-name="Trazado 102099" d="M1299.93,1114.553a.747.747,0,0,1-.642-.363l-1.171-1.936a.749.749,0,1,1,1.283-.775l1.171,1.936a.749.749,0,0,1-.254,1.029A.74.74,0,0,1,1299.93,1114.553Z" fill="#fff"/>
      <path id="Trazado_102100-2" data-name="Trazado 102100" d="M1303.076,1112.616a.749.749,0,0,1-.642-.362l-1.171-1.938a.75.75,0,0,1,1.284-.775l1.171,1.938a.75.75,0,0,1-.642,1.137Z" fill="#fff"/>
      <path id="Trazado_102101-2" data-name="Trazado 102101" d="M1306.037,1110.625a.75.75,0,0,1-.643-.362l-1.171-1.938a.75.75,0,0,1,1.284-.775l1.171,1.937a.75.75,0,0,1-.641,1.138Z" fill="#fff"/>
      <path id="Trazado_102102-2" data-name="Trazado 102102" d="M1309.3,1108.688a.748.748,0,0,1-.642-.363l-1.171-1.936a.75.75,0,0,1,1.284-.776l1.171,1.937a.752.752,0,0,1-.642,1.138Z" fill="#fff"/>
      <path id="Trazado_102103" data-name="Trazado 102103" d="M1312.375,1106.787a.749.749,0,0,1-.642-.362l-1.171-1.937a.749.749,0,1,1,1.283-.775l1.171,1.936a.749.749,0,0,1-.641,1.138Z" fill="#fff"/>
    </g>
  </g>
</svg>
