<svg xmlns="http://www.w3.org/2000/svg" width="81.508" height="81.508" viewBox="0 0 81.508 81.508">
  <g id="Grupo_54722" data-name="Grupo 54722" transform="translate(-683 -1974)">
    <g id="Grupo_54516" data-name="Grupo 54516" transform="translate(-8 531)">
      <g id="Grupo_54477" data-name="Grupo 54477" transform="translate(54.564 53.234)">
        <path id="Trazado_99476" data-name="Trazado 99476" d="M40.754,0A40.754,40.754,0,1,1,0,40.754,40.754,40.754,0,0,1,40.754,0Z" transform="translate(636.436 1389.766)" fill="#ff0062"/>
      </g>
    </g>
    <g id="Grupo_54520" data-name="Grupo 54520" transform="translate(-524.925 834.285)">
      <g id="Grupo_54519" data-name="Grupo 54519">
        <path id="Trazado_102098" data-name="Trazado 102098" d="M1266.148,1194.852h-35.9a5.33,5.33,0,0,1-5.323-5.324v-25.49a5.329,5.329,0,0,1,5.323-5.324h35.9a5.331,5.331,0,0,1,5.324,5.324v25.49A5.331,5.331,0,0,1,1266.148,1194.852Zm-35.9-33.843a3.032,3.032,0,0,0-3.027,3.028v25.49a3.032,3.032,0,0,0,3.027,3.028h35.9a3.032,3.032,0,0,0,3.028-3.028v-25.49a3.032,3.032,0,0,0-3.028-3.028Z" fill="#fff"/>
        <rect id="Rectángulo_5261" data-name="Rectángulo 5261" width="44.255" height="2.296" transform="translate(1226.07 1185.614)" fill="#fff"/>
        <path id="Trazado_102099" data-name="Trazado 102099" d="M1231.334,1186.763h-2.3v-24.47h39.175v23.818h-2.3v-21.518h-34.575Z" fill="#fff"/>
        <path id="Trazado_102100" data-name="Trazado 102100" d="M1251.342,1190.514H1246.2a1.15,1.15,0,0,1,0-2.3h5.143a1.15,1.15,0,0,1,0,2.3Z" fill="#fff"/>
        <path id="Trazado_102101" data-name="Trazado 102101" d="M1245.061,1199.353c-3.926,0-3.983-.35-4.115-1.141a1.215,1.215,0,0,1,.953-1.375c.8-.241,1.593-1.931,1.881-2.995a1.149,1.149,0,1,1,2.219.594h0a10.391,10.391,0,0,1-1.122,2.592c1.86,0,4.534-.062,7.281-.148a3.426,3.426,0,0,1-.523-3.722,1.149,1.149,0,1,1,2.018,1.1h0c-.366.675.98,2.131,1.837,2.755a1.148,1.148,0,0,1-.633,2.075C1250.182,1199.259,1247.1,1199.353,1245.061,1199.353Z" fill="#fff"/>
        <path id="Trazado_102102" data-name="Trazado 102102" d="M1257.755,1202.987h-19.006a2.98,2.98,0,0,1,0-5.959h19.006a2.98,2.98,0,0,1,0,5.959Zm-19.006-3.663a.684.684,0,0,0-.054,1.367h19.06a.684.684,0,0,0,0-1.367Z" fill="#fff"/>
        <path id="Trazado_102104" data-name="Trazado 102104" d="M1252.571,1173.327a4.573,4.573,0,0,0-3.83-7.066h-.007a4.573,4.573,0,0,0-4.561,4.574,4.5,4.5,0,0,0,.815,2.607,5.428,5.428,0,0,0-3.385,5.045v5.085a.8.8,0,0,0,.8.8h13.054a.8.8,0,0,0,.8-.8v-5.086A5.447,5.447,0,0,0,1252.571,1173.327Zm-5.429,1.009a.8.8,0,0,0-.169-1.115,2.972,2.972,0,0,1-.138-4.675,2.973,2.973,0,0,1,3.9,4.485.8.8,0,0,0-.743.8.79.79,0,0,0,.236.563.743.743,0,0,0,.566.231l.058-.035h0l.03.04.081.005h.072a3.873,3.873,0,0,1,3.619,3.853v4.288H1243.2v-4.29a3.869,3.869,0,0,1,3.4-3.83A.8.8,0,0,0,1247.142,1174.336Z" fill="#fff"/>
      </g>
    </g>
  </g>
</svg>
