<svg xmlns="http://www.w3.org/2000/svg" xmlns:xlink="http://www.w3.org/1999/xlink" width="261.098" height="285.55" viewBox="0 0 261.098 285.55">
  <defs>
    <radialGradient id="radial-gradient" cx="0.499" cy="0.5" r="0.424" gradientTransform="translate(-0.251) scale(1.503 1)" gradientUnits="objectBoundingBox">
      <stop offset="0" stop-color="#fff"/>
      <stop offset="0.205" stop-color="#e9e9f2"/>
      <stop offset="1" stop-color="#9997c6"/>
    </radialGradient>
    <clipPath id="clip-path">
      <path id="Trazado_102480" data-name="Trazado 102480" d="M348.935,304.81a32.078,32.078,0,1,1-44.822-7A32.078,32.078,0,0,1,348.935,304.81Z" transform="translate(-290.944 -291.642)" fill="none"/>
    </clipPath>
    <radialGradient id="radial-gradient-2" cx="0.432" cy="0.438" r="0.5" gradientTransform="matrix(0.808, -0.59, 0.59, 0.808, -0.099, -0.051)" gradientUnits="objectBoundingBox">
      <stop offset="0" stop-color="#fff"/>
      <stop offset="0.135" stop-color="#fefefe" stop-opacity="0.984"/>
      <stop offset="0.262" stop-color="#fbfbfb" stop-opacity="0.941"/>
      <stop offset="0.386" stop-color="#f7f7f6" stop-opacity="0.867"/>
      <stop offset="0.507" stop-color="#f0f0f0" stop-opacity="0.761"/>
      <stop offset="0.627" stop-color="#e8e8e8" stop-opacity="0.627"/>
      <stop offset="0.746" stop-color="#dfdfde" stop-opacity="0.463"/>
      <stop offset="0.864" stop-color="#d3d3d2" stop-opacity="0.267"/>
      <stop offset="0.979" stop-color="#c6c6c5" stop-opacity="0.043"/>
      <stop offset="1" stop-color="#c4c4c3" stop-opacity="0"/>
    </radialGradient>
    <radialGradient id="radial-gradient-3" cx="0.491" cy="0.47" r="0.404" gradientTransform="matrix(0.808, -0.59, 0.59, 0.808, -0.123, -0.071)" gradientUnits="objectBoundingBox">
      <stop offset="0" stop-color="#fff"/>
      <stop offset="0.244" stop-color="#f1f1f1" stop-opacity="0.773"/>
      <stop offset="0.803" stop-color="#d0d0cf" stop-opacity="0.204"/>
      <stop offset="1" stop-color="#c4c4c3" stop-opacity="0"/>
    </radialGradient>
  </defs>
  <g id="Grupo_54719" data-name="Grupo 54719" transform="translate(-444 -16284.001)">
    <g id="Grupo_54718" data-name="Grupo 54718" transform="translate(444 16284.001)">
      <g id="Grupo_54717" data-name="Grupo 54717" transform="translate(0 0)">
        <g id="Grupo_54716" data-name="Grupo 54716">
          <path id="Trazado_102273" data-name="Trazado 102273" d="M55.809,389.566S45.1,392.159,39.53,394.554,26.494,396.786,85.7,406.72s63.191,11.809,61.306,14.54,24.623,5.141,34.743,4.016,13.655-4.016,13.655-4.016,22.981,2.088,37.6,12.691c23.4-9.8,63.936-27.23,63.936-27.23l-32.3-7.951Z" transform="translate(-35.846 -148.401)" fill="#e8e2dd"/>
          <g id="Grupo_54715" data-name="Grupo 54715" transform="translate(14.838)">
            <g id="Grupo_54700" data-name="Grupo 54700">
              <g id="Grupo_54643" data-name="Grupo 54643" transform="translate(20.095)">
                <g id="Grupo_54624" data-name="Grupo 54624" transform="translate(10.235)">
                  <g id="Grupo_54623" data-name="Grupo 54623">
                    <g id="Grupo_54622" data-name="Grupo 54622">
                      <g id="Grupo_54621" data-name="Grupo 54621">
                        <g id="Grupo_54614" data-name="Grupo 54614" transform="translate(2.234 2.363)">
                          <path id="Trazado_102274" data-name="Trazado 102274" d="M114.539.473l.039,27.285s32.094,2.464,39.055.261,3.694-11.411,3.688-15.806-.114-15.1-1.234-17.623-6.417-1.207-12.923-.4S114.539.473,114.539.473Z" transform="translate(-114.539 6.878)" fill="#eee6de"/>
                        </g>
                        <path id="Trazado_102275" data-name="Trazado 102275" d="M157.32,12.214c-.007-4.395-.114-15.1-1.234-17.623s-6.417-1.207-12.923-.4S114.539.473,114.539.473l.007,4.57C120.5,3.6,135.955.628,141.127-.017c6.507-.811,11.094-1.67,12.213.849s1.5,12.162,1.508,16.557c0,2.419.992,6.3.722,9.661C159.908,23.845,157.326,16.126,157.32,12.214Z" transform="translate(-112.305 9.241)" fill="#efd5bf"/>
                        <g id="Grupo_54617" data-name="Grupo 54617" transform="translate(2.549 4.214)" opacity="0.58">
                          <g id="Grupo_54615" data-name="Grupo 54615">
                            <path id="Trazado_102276" data-name="Trazado 102276" d="M157.337-3.8,115.062,3.908S148.985-3.558,157.337-3.8Z" transform="translate(-115.062 3.804)" fill="#e8d3c1" style="mix-blend-mode: multiply;isolation: isolate"/>
                            <path id="Trazado_102277" data-name="Trazado 102277" d="M158.952,22.152,116.3,25.475S150.649,21.593,158.952,22.152Z" transform="translate(-115.554 -6.495)" fill="#e8d3c1" style="mix-blend-mode: multiply;isolation: isolate"/>
                            <path id="Trazado_102278" data-name="Trazado 102278" d="M158.964,19.28,116.334,23.7S150.644,18.877,158.964,19.28Z" transform="translate(-115.568 -5.366)" fill="#e8d3c1" style="mix-blend-mode: multiply;isolation: isolate"/>
                            <path id="Trazado_102279" data-name="Trazado 102279" d="M158.961,17.531l-42.63,4.418S150.641,17.127,158.961,17.531Z" transform="translate(-115.567 -4.67)" fill="#e8d3c1" style="mix-blend-mode: multiply;isolation: isolate"/>
                            <path id="Trazado_102280" data-name="Trazado 102280" d="M158.953,15.234l-42.6,4.839S150.627,14.912,158.953,15.234Z" transform="translate(-115.576 -3.76)" fill="#e8d3c1" style="mix-blend-mode: multiply;isolation: isolate"/>
                            <path id="Trazado_102281" data-name="Trazado 102281" d="M158.937,12.179l-42.521,5.731S150.6,12.034,158.937,12.179Z" transform="translate(-115.6 -2.551)" fill="#e8d3c1" style="mix-blend-mode: multiply;isolation: isolate"/>
                            <path id="Trazado_102282" data-name="Trazado 102282" d="M158.933,9.982l-42.521,5.723S150.6,9.835,158.933,9.982Z" transform="translate(-115.599 -1.677)" fill="#e8d3c1" style="mix-blend-mode: multiply;isolation: isolate"/>
                            <path id="Trazado_102283" data-name="Trazado 102283" d="M158.923,7.282l-42.478,6.14S150.58,7.217,158.923,7.282Z" transform="translate(-115.612 -0.604)" fill="#e8d3c1" style="mix-blend-mode: multiply;isolation: isolate"/>
                            <path id="Trazado_102284" data-name="Trazado 102284" d="M158.919,4.765,116.441,10.9S150.576,4.7,158.919,4.765Z" transform="translate(-115.61 0.397)" fill="#e8d3c1" style="mix-blend-mode: multiply;isolation: isolate"/>
                            <path id="Trazado_102285" data-name="Trazado 102285" d="M158.907,2.19,116.481,8.785S150.56,2.215,158.907,2.19Z" transform="translate(-115.626 1.421)" fill="#e8d3c1" style="mix-blend-mode: multiply;isolation: isolate"/>
                            <path id="Trazado_102286" data-name="Trazado 102286" d="M159.211-.681,116.786,5.913S150.865-.656,159.211-.681Z" transform="translate(-115.748 2.562)" fill="#e8d3c1" style="mix-blend-mode: multiply;isolation: isolate"/>
                          </g>
                          <g id="Grupo_54616" data-name="Grupo 54616" transform="translate(0.916 16.967)">
                            <path id="Trazado_102287" data-name="Trazado 102287" d="M157.923,46.151,116.782,46.1S149.635,47.334,157.923,46.151Z" transform="translate(-116.662 -33.007)" fill="#e8d3c1" style="mix-blend-mode: multiply;isolation: isolate"/>
                            <path id="Trazado_102288" data-name="Trazado 102288" d="M158.9,24.364,116.582,27.22S150.558,25.889,158.9,24.364Z" transform="translate(-116.582 -24.364)" fill="#e8d3c1" style="mix-blend-mode: multiply;isolation: isolate"/>
                            <path id="Trazado_102289" data-name="Trazado 102289" d="M158.9,26.689l-42.288,2.426S150.638,28.439,158.9,26.689Z" transform="translate(-116.594 -25.289)" fill="#e8d3c1" style="mix-blend-mode: multiply;isolation: isolate"/>
                            <path id="Trazado_102290" data-name="Trazado 102290" d="M158.892,29.784,116.679,31.3S150.62,31.36,158.892,29.784Z" transform="translate(-116.621 -26.519)" fill="#e8d3c1" style="mix-blend-mode: multiply;isolation: isolate"/>
                            <path id="Trazado_102291" data-name="Trazado 102291" d="M158.9,32,116.685,33.52S150.627,33.575,158.9,32Z" transform="translate(-116.623 -27.399)" fill="#e8d3c1" style="mix-blend-mode: multiply;isolation: isolate"/>
                            <path id="Trazado_102292" data-name="Trazado 102292" d="M158.9,34.726l-42.173,1.1S150.622,36.22,158.9,34.726Z" transform="translate(-116.639 -28.484)" fill="#e8d3c1" style="mix-blend-mode: multiply;isolation: isolate"/>
                            <path id="Trazado_102293" data-name="Trazado 102293" d="M158.906,37.261l-42.172,1.1S150.629,38.756,158.906,37.261Z" transform="translate(-116.642 -29.492)" fill="#e8d3c1" style="mix-blend-mode: multiply;isolation: isolate"/>
                            <path id="Trazado_102294" data-name="Trazado 102294" d="M158.9,39.863l-42.122.628S150.623,41.268,158.9,39.863Z" transform="translate(-116.662 -30.527)" fill="#e8d3c1" style="mix-blend-mode: multiply;isolation: isolate"/>
                            <path id="Trazado_102295" data-name="Trazado 102295" d="M159.219,42.7l-42.123.629S150.938,44.107,159.219,42.7Z" transform="translate(-116.786 -31.656)" fill="#e8d3c1" style="mix-blend-mode: multiply;isolation: isolate"/>
                          </g>
                          <path id="Trazado_102296" data-name="Trazado 102296" d="M157.71,48.305l-42.318.489S149.407,49.525,157.71,48.305Z" transform="translate(-115.193 -16.917)" fill="#e8d3c1" style="mix-blend-mode: multiply;isolation: isolate"/>
                        </g>
                        <g id="Grupo_54620" data-name="Grupo 54620">
                          <g id="Grupo_54618" data-name="Grupo 54618" transform="translate(34.587 0.044)">
                            <path id="Trazado_102297" data-name="Trazado 102297" d="M174.292-10.728s69.963,7.538,75.667,9.236,4.411,18.634,3.435,23.888-4.824,6.786-8.914,6.951-76.23-.133-76.23-.133,9.728-1.783,10.758-9.175-.661-22.084-.991-24.58S174.292-10.728,174.292-10.728Z" transform="translate(-168.25 10.728)" fill="#5258ac"/>
                          </g>
                          <path id="Trazado_102298" data-name="Trazado 102298" d="M226.57,23.377c.958-7.212-.615-21.546-.922-23.981-.211-1.671-1.762-3.89-2.715-5.119h.008l5.006.6c.956,1.26,2.335,3.31,2.533,4.88.307,2.435,1.879,16.769.922,23.982-.559,4.209-2.482,6.454-3.988,7.6L222.1,31.32C223.646,30.309,225.949,28.053,226.57,23.377Z" transform="translate(-155.076 8.781)" fill="#eadbce"/>
                          <path id="Trazado_102299" data-name="Trazado 102299" d="M240.511,24.286c.958-7.03-.614-21-.921-23.369-.21-1.622-1.75-3.772-2.7-4.971l5.041.613c.954,1.231,2.3,3.194,2.494,4.7.307,2.373,1.879,16.34.921,23.369a10.567,10.567,0,0,1-3.962,7.39l-5.307-.014C237.618,31.012,239.895,28.812,240.511,24.286Z" transform="translate(-160.632 8.117)" fill="#eadbce"/>
                          <g id="Grupo_54619" data-name="Grupo 54619">
                            <path id="Trazado_102300" data-name="Trazado 102300" d="M157.991,8.846c-.055-1.116-.11-2.194-.145-3.2-.023-.669-.041-1.347-.058-2.028-.136-5.281-.275-10.741-3.368-13.191a6.446,6.446,0,0,0-5.369-1.074c-6.23,1.132-32.544,6.745-38.22,7.957l.005,3.719c3.708-.792,32.373-6.913,38.749-8.072a2.8,2.8,0,0,1,2.437.363c1.815,1.437,1.939,6.271,2.048,10.535.017.693.035,1.383.059,2.062.036,1.023.133,2.813.148,3.253.031.939.517,14.162-1.714,15.63-2.478,1.212-23.037,2.258-41.693,1.345l.005,3.677c7.254.352,23.962-.213,34.542-.638,4.349-.175,7.664-.541,8.855-1.2C158.825,25.474,158.4,17.021,157.991,8.846Z" transform="translate(-110.831 10.8)" fill="#5258ac"/>
                          </g>
                        </g>
                      </g>
                      <path id="Trazado_102301" data-name="Trazado 102301" d="M174.147,30.062s-.651,9.066-.578,14.89c-3.474.376-7.215.527-7.215.527S167.911,30.478,174.147,30.062Z" transform="translate(-132.909 -5.448)" fill="#efd5bf" style="mix-blend-mode: multiply;isolation: isolate"/>
                    </g>
                    <path id="Trazado_102302" data-name="Trazado 102302" d="M257.918,1.462s-47.33-5.524-55.08-6.253-10.379-1.42-11.44-.682-.6,7.589,0,8.592,5.351.957,10.564,1.1,56.048,2.45,57.525,2.494,1.2-2.325.676-3.278A3.2,3.2,0,0,0,257.918,1.462Z" transform="translate(-142.615 8.808)" fill="#fff" opacity="0.46" style="mix-blend-mode: overlay;isolation: isolate"/>
                  </g>
                </g>
                <g id="Grupo_54630" data-name="Grupo 54630" transform="translate(0 39.45)">
                  <path id="Trazado_102303" data-name="Trazado 102303" d="M104.074,96.563s-3.541,9.509-3.423,17.35a45.566,45.566,0,0,1-2.6-4.318l-4.216,3.777s2.6-17.469,5.947-22.781S104.074,96.563,104.074,96.563Z" transform="translate(-93.839 -68.402)" fill="#5258ac"/>
                  <g id="Grupo_54629" data-name="Grupo 54629" transform="translate(3.469)">
                    <path id="Trazado_102304" data-name="Trazado 102304" d="M234.815,99.793l-12.724,8.188H115.5l-11.788-8.188s51.465-1.757,68.337-3S234.815,99.793,234.815,99.793Z" transform="translate(-101.234 -71.34)" fill="#007f7c"/>
                    <g id="Grupo_54628" data-name="Grupo 54628">
                      <g id="Grupo_54627" data-name="Grupo 54627">
                        <g id="Grupo_54626" data-name="Grupo 54626">
                          <g id="Grupo_54625" data-name="Grupo 54625">
                            <path id="Trazado_102305" data-name="Trazado 102305" d="M233.18,54.692s-126.058.531-130.662,1.063c-2.833.885-2.656,8.144-2.833,14.34s-.354,12.112,2.39,13.05,129.038.066,131.1,0,3.482-4.079,3.718-10.571S237.84,54.672,233.18,54.692Z" transform="translate(-99.599 -54.692)" fill="#00aaac"/>
                          </g>
                        </g>
                        <path id="Trazado_102306" data-name="Trazado 102306" d="M298.075,54.778l4.578-.022a6.21,6.21,0,0,1,1.035,3.8v18.03a15.344,15.344,0,0,1-2.018,6.67l-5.609.039a12.111,12.111,0,0,0,3.1-6.306,140.363,140.363,0,0,0,.237-17.754A9.264,9.264,0,0,0,298.075,54.778Z" transform="translate(-177.72 -54.717)" fill="#4cede5"/>
                        <path id="Trazado_102307" data-name="Trazado 102307" d="M284.7,54.841l4.576-.022a6.259,6.259,0,0,1,1.007,3.759v18.03a15.392,15.392,0,0,1-2.049,6.725l-5.624.036a12.144,12.144,0,0,0,3.143-6.358,140.358,140.358,0,0,0,.237-17.754A9.436,9.436,0,0,0,284.7,54.841Z" transform="translate(-172.372 -54.742)" fill="#4cede5"/>
                        <path id="Trazado_102308" data-name="Trazado 102308" d="M124.555,84.031c-2.019-.014-3.881-.03-5.564-.05a15.162,15.162,0,0,1-1.931-6.505V59.446a6.651,6.651,0,0,1,.779-3.4c1.4-.022,2.944-.043,4.622-.064a10.372,10.372,0,0,0-1.11,4.143,140.348,140.348,0,0,0,.237,17.753A11.962,11.962,0,0,0,124.555,84.031Z" transform="translate(-106.542 -55.205)" fill="#4cede5"/>
                        <path id="Trazado_102309" data-name="Trazado 102309" d="M137.962,84.009c-1.943-.006-3.8-.014-5.562-.023a15.22,15.22,0,0,1-1.967-6.571V59.385a6.547,6.547,0,0,1,.84-3.506q2.2-.025,4.624-.05a10.016,10.016,0,0,0-1.173,4.235,140.463,140.463,0,0,0,.237,17.753A12,12,0,0,0,137.962,84.009Z" transform="translate(-111.86 -55.144)" fill="#4cede5"/>
                      </g>
                      <path id="Trazado_102310" data-name="Trazado 102310" d="M234.268,57.925H106.558c-2.951,0-3.954,1.325-4.19,3.68s.708,2.76,6.61,2.686,121.394,0,125.291,0S237.189,57.925,234.268,57.925Z" transform="translate(-100.687 -55.978)" fill="#00c1bc" style="mix-blend-mode: overlay;isolation: isolate"/>
                    </g>
                  </g>
                </g>
                <g id="Grupo_54639" data-name="Grupo 54639" transform="translate(10.235 62.672)">
                  <g id="Grupo_54638" data-name="Grupo 54638">
                    <g id="Grupo_54631" data-name="Grupo 54631" transform="translate(74.281 2.377)">
                      <path id="Trazado_102311" data-name="Trazado 102311" d="M277.146,103.046v27.369s-31.7,3.766-38.584,1.837-3.665-11.3-3.665-15.705.092-15.155,1.194-17.726,6.337-1.47,12.766-.919S277.146,103.046,277.146,103.046Z" transform="translate(-234.147 -97.19)" fill="#eee6de"/>
                    </g>
                    <path id="Trazado_102312" data-name="Trazado 102312" d="M234.9,116.547c0-4.409.092-15.155,1.194-17.726s6.337-1.47,12.766-.919,28.288,5.144,28.288,5.144v4.584c-5.882-1.209-21.158-3.565-26.268-4-6.429-.551-10.963-1.228-12.065,1.344s-1.467,12.259-1.467,16.668c0,2.427-.972,6.355-.7,9.72C232.36,128.318,234.9,120.471,234.9,116.547Z" transform="translate(-159.869 -94.813)" fill="#efd5bf"/>
                    <g id="Grupo_54634" data-name="Grupo 54634" transform="translate(74.023 4.433)" opacity="0.58">
                      <g id="Grupo_54632" data-name="Grupo 54632">
                        <path id="Trazado_102313" data-name="Trazado 102313" d="M235.666,100.6l41.776,6.031S243.917,100.514,235.666,100.6Z" transform="translate(-234.494 -100.602)" fill="#e8d3c1" style="mix-blend-mode: multiply;isolation: isolate"/>
                        <path id="Trazado_102314" data-name="Trazado 102314" d="M233.86,126.623,276,128.237S242.063,125.728,233.86,126.623Z" transform="translate(-233.776 -110.873)" fill="#e8d3c1" style="mix-blend-mode: multiply;isolation: isolate"/>
                        <path id="Trazado_102315" data-name="Trazado 102315" d="M233.86,123.781l42.122,2.712S242.079,123.041,233.86,123.781Z" transform="translate(-233.776 -109.778)" fill="#e8d3c1" style="mix-blend-mode: multiply;isolation: isolate"/>
                        <path id="Trazado_102316" data-name="Trazado 102316" d="M233.86,122.026l42.122,2.712S242.079,121.285,233.86,122.026Z" transform="translate(-233.776 -109.08)" fill="#e8d3c1" style="mix-blend-mode: multiply;isolation: isolate"/>
                        <path id="Trazado_102317" data-name="Trazado 102317" d="M233.885,119.732l42.092,3.136S242.11,119.075,233.885,119.732Z" transform="translate(-233.786 -108.179)" fill="#e8d3c1" style="mix-blend-mode: multiply;isolation: isolate"/>
                        <path id="Trazado_102318" data-name="Trazado 102318" d="M233.948,116.686l42.016,4.035S242.186,116.2,233.948,116.686Z" transform="translate(-233.811 -106.984)" fill="#e8d3c1" style="mix-blend-mode: multiply;isolation: isolate"/>
                        <path id="Trazado_102319" data-name="Trazado 102319" d="M233.948,114.482l42.016,4.026S242.185,114,233.948,114.482Z" transform="translate(-233.811 -106.107)" fill="#e8d3c1" style="mix-blend-mode: multiply;isolation: isolate"/>
                        <path id="Trazado_102320" data-name="Trazado 102320" d="M233.983,111.778l41.974,4.446S242.225,111.377,233.983,111.778Z" transform="translate(-233.825 -105.037)" fill="#e8d3c1" style="mix-blend-mode: multiply;isolation: isolate"/>
                        <path id="Trazado_102321" data-name="Trazado 102321" d="M233.983,109.253l41.974,4.446S242.225,108.852,233.983,109.253Z" transform="translate(-233.825 -104.033)" fill="#e8d3c1" style="mix-blend-mode: multiply;isolation: isolate"/>
                        <path id="Trazado_102322" data-name="Trazado 102322" d="M234.025,106.675l41.923,4.9S242.271,106.364,234.025,106.675Z" transform="translate(-233.841 -103.012)" fill="#e8d3c1" style="mix-blend-mode: multiply;isolation: isolate"/>
                        <path id="Trazado_102323" data-name="Trazado 102323" d="M233.72,103.807l41.923,4.9S241.966,103.5,233.72,103.807Z" transform="translate(-233.72 -101.871)" fill="#e8d3c1" style="mix-blend-mode: multiply;isolation: isolate"/>
                      </g>
                      <g id="Grupo_54633" data-name="Grupo 54633" transform="translate(0.152 17.059)">
                        <path id="Trazado_102324" data-name="Trazado 102324" d="M235.9,149.277l41.471-2.217S244.087,150.128,235.9,149.277Z" transform="translate(-234.738 -136.134)" fill="#e8d3c1" style="mix-blend-mode: multiply;isolation: isolate"/>
                        <path id="Trazado_102325" data-name="Trazado 102325" d="M234.138,128.922l41.809,1.159S242.379,130.115,234.138,128.922Z" transform="translate(-234.038 -128.922)" fill="#e8d3c1" style="mix-blend-mode: multiply;isolation: isolate"/>
                        <path id="Trazado_102326" data-name="Trazado 102326" d="M234.158,131.254l41.781.729S242.321,132.676,234.158,131.254Z" transform="translate(-234.046 -129.849)" fill="#e8d3c1" style="mix-blend-mode: multiply;isolation: isolate"/>
                        <path id="Trazado_102327" data-name="Trazado 102327" d="M234.217,134.235l41.706-.183S242.392,135.482,234.217,134.235Z" transform="translate(-234.069 -130.962)" fill="#e8d3c1" style="mix-blend-mode: multiply;isolation: isolate"/>
                        <path id="Trazado_102328" data-name="Trazado 102328" d="M234.213,136.461l41.707-.174S242.388,137.71,234.213,136.461Z" transform="translate(-234.068 -131.851)" fill="#e8d3c1" style="mix-blend-mode: multiply;isolation: isolate"/>
                        <path id="Trazado_102329" data-name="Trazado 102329" d="M234.244,138.915l41.665-.6S242.423,140.08,234.244,138.915Z" transform="translate(-234.08 -132.656)" fill="#e8d3c1" style="mix-blend-mode: multiply;isolation: isolate"/>
                        <path id="Trazado_102330" data-name="Trazado 102330" d="M234.24,141.458l41.666-.6S242.419,142.624,234.24,141.458Z" transform="translate(-234.079 -133.668)" fill="#e8d3c1" style="mix-blend-mode: multiply;isolation: isolate"/>
                        <path id="Trazado_102331" data-name="Trazado 102331" d="M234.278,143.758l41.616-1.067S242.462,144.834,234.278,143.758Z" transform="translate(-234.094 -134.397)" fill="#e8d3c1" style="mix-blend-mode: multiply;isolation: isolate"/>
                        <path id="Trazado_102332" data-name="Trazado 102332" d="M233.972,146.619l41.615-1.067S242.155,147.695,233.972,146.619Z" transform="translate(-233.972 -135.535)" fill="#e8d3c1" style="mix-blend-mode: multiply;isolation: isolate"/>
                      </g>
                      <path id="Trazado_102333" data-name="Trazado 102333" d="M235.344,151.6l42.164-1.95S243.548,152.49,235.344,151.6Z" transform="translate(-234.366 -120.106)" fill="#e8d3c1" style="mix-blend-mode: multiply;isolation: isolate"/>
                    </g>
                    <g id="Grupo_54637" data-name="Grupo 54637">
                      <g id="Grupo_54635" data-name="Grupo 54635" transform="translate(0 0.082)">
                        <path id="Trazado_102334" data-name="Trazado 102334" d="M190.166,93.379s-69.109,10.381-74.742,12.315-4.89,16.419-3.919,21.649,4.776,6.613,8.817,6.613,71.545-.861,71.545-.861-5.289-1.291-6.317-8.665.622-22.177.945-24.694S190.166,93.379,190.166,93.379Z" transform="translate(-110.831 -93.379)" fill="#3366c2"/>
                      </g>
                      <path id="Trazado_102335" data-name="Trazado 102335" d="M189.51,105.223c-.3,2.34-1.834,16.1-.878,22.958.822,5.892,4.563,7.6,5.6,7.968l-5.781.072c-1.526-.852-3.947-2.9-4.589-7.5-.956-6.854.578-20.618.878-22.958.194-1.509,1.553-3.524,2.5-4.766,1.671-.263,3.326-.521,4.953-.775C191.246,101.434,189.716,103.618,189.51,105.223Z" transform="translate(-139.747 -96.018)" fill="#eadbce"/>
                      <path id="Trazado_102336" data-name="Trazado 102336" d="M175.757,107.24c-.3,2.28-1.834,15.692-.878,22.372.7,4.886,3.512,6.818,4.976,7.507l-5.6.069c-1.515-.96-3.564-2.982-4.147-7.051-.956-6.68.578-20.092.879-22.372.191-1.451,1.517-3.382,2.458-4.6,1.657-.264,3.321-.528,4.979-.789C177.481,103.564,175.962,105.681,175.757,107.24Z" transform="translate(-134.278 -96.876)" fill="#eadbce"/>
                      <g id="Grupo_54636" data-name="Grupo 54636" transform="translate(72.683)">
                        <path id="Trazado_102337" data-name="Trazado 102337" d="M231.721,113.251c.054-1.122.105-2.2.139-3.215.022-.672.039-1.353.055-2.037.126-5.3.257-10.785,3.308-13.367a6.451,6.451,0,0,1,5.3-1.294c6.157.885,32.161,5.453,37.77,6.441v3.73c-3.664-.646-31.991-5.629-38.293-6.535a2.794,2.794,0,0,0-2.407.462c-1.791,1.515-1.906,6.368-2.008,10.65-.016.7-.033,1.388-.055,2.071-.034,1.028-.128,2.826-.142,3.269-.03.943-.492,14.226,1.715,15.609,2.449,1.116,22.76.067,41.19-1.6v3.689c-7.166.646-23.672,2.022-34.124,2.022-4.3,0-7.572-.234-8.75-.845C230.921,129.963,231.328,121.467,231.721,113.251Z" transform="translate(-231.495 -93.243)" fill="#3366c2"/>
                      </g>
                    </g>
                  </g>
                  <path id="Trazado_102338" data-name="Trazado 102338" d="M241.594,134.334s.656,9.066.593,14.912c3.433.238,7.128.238,7.128.238S247.757,134.5,241.594,134.334Z" transform="translate(-162.828 -109.583)" fill="#efd5bf" style="mix-blend-mode: multiply;isolation: isolate"/>
                  <path id="Trazado_102339" data-name="Trazado 102339" d="M241.594,134.23s6.684,5.5,7.051,24.384c2.935-2.612,4.953-4.245,4.953-4.245l5.3,3.914s-3.737-20.675-7.847-24.094A83.1,83.1,0,0,0,241.594,134.23Z" transform="translate(-162.828 -109.484)" fill="#3989b4"/>
                </g>
                <g id="Grupo_54640" data-name="Grupo 54640" transform="translate(14.353 65.834)">
                  <path id="Trazado_102340" data-name="Trazado 102340" d="M185.765,98.511s-62.636,9.832-64.9,10.239-2.656,2.664-3.127,4.376,1.357,1,5.134.649,56.065-7,58.9-7.395,3.246-1.435,3.718-2.981a22.047,22.047,0,0,0,1.063-4.32C186.464,98.608,186.245,98.435,185.765,98.511Z" transform="translate(-117.667 -98.494)" fill="#fff" opacity="0.37" style="mix-blend-mode: overlay;isolation: isolate"/>
                </g>
                <g id="Grupo_54641" data-name="Grupo 54641" transform="translate(75.012 65.141)">
                  <path id="Trazado_102341" data-name="Trazado 102341" d="M221.782,134.659a.321.321,0,0,0,.179-.589c-.551-.368-2.666-3.9-2.83-7.7-.16-3.707-.16-12.113,0-19.139.155-6.829,2.382-9.323,2.4-9.347a.321.321,0,0,0-.47-.438c-.1.105-2.415,2.661-2.577,9.77-.16,7.037-.16,15.463,0,19.182.163,3.793,2.294,7.66,3.114,8.21A.323.323,0,0,0,221.782,134.659Z" transform="translate(-218.369 -97.343)" fill="#5258ac"/>
                </g>
                <g id="Grupo_54642" data-name="Grupo 54642" transform="translate(71.445 65.506)">
                  <path id="Trazado_102342" data-name="Trazado 102342" d="M215.86,135.264a.322.322,0,0,0,.179-.589c-.551-.368-2.666-3.9-2.83-7.7-.159-3.707-.159-12.113,0-19.139.155-6.829,2.382-9.323,2.4-9.347a.321.321,0,0,0-.47-.438c-.1.105-2.415,2.661-2.577,9.77-.16,7.038-.16,15.463,0,19.182.163,3.792,2.294,7.66,3.114,8.209A.327.327,0,0,0,215.86,135.264Z" transform="translate(-212.447 -97.949)" fill="#5258ac"/>
                </g>
                <path id="Trazado_102343" data-name="Trazado 102343" d="M167.751,30.038s-6.757,5.756-7.1,24.6c-2.974-2.484-5.019-4.03-5.019-4.03l-5.362,4.118s3.753-20.763,7.908-24.34A85.5,85.5,0,0,1,167.751,30.038Z" transform="translate(-116.278 -5.43)" fill="#3366c2"/>
              </g>
              <path id="Trazado_102344" data-name="Trazado 102344" d="M338.878,387.664l-5.666-.649-1.883,2.277Z" transform="translate(-168.179 -147.386)" fill="#0a6c8e"/>
              <g id="Grupo_54699" data-name="Grupo 54699" transform="translate(0 96.472)">
                <g id="Grupo_54654" data-name="Grupo 54654" transform="translate(30.223)">
                  <g id="Grupo_54653" data-name="Grupo 54653">
                    <g id="Grupo_54652" data-name="Grupo 54652">
                      <g id="Grupo_54651" data-name="Grupo 54651">
                        <g id="Grupo_54644" data-name="Grupo 54644" transform="translate(74.801 2.363)">
                          <path id="Trazado_102345" data-name="Trazado 102345" d="M278.385,160.63l-.039,27.285s-32.094,2.464-39.055.261-3.694-11.411-3.687-15.806.114-15.1,1.234-17.623,6.416-1.207,12.923-.4S278.385,160.63,278.385,160.63Z" transform="translate(-234.832 -153.279)" fill="#eee6de"/>
                        </g>
                        <path id="Trazado_102346" data-name="Trazado 102346" d="M235.606,172.371c.006-4.395.114-15.1,1.234-17.623s6.416-1.207,12.923-.4,28.624,6.278,28.624,6.278l-.006,4.57c-5.952-1.444-21.41-4.415-26.582-5.059-6.506-.811-11.094-1.67-12.213.849s-1.5,12.162-1.508,16.557c0,2.419-.992,6.3-.722,9.661C233.018,184,235.6,176.283,235.606,172.371Z" transform="translate(-160.034 -150.916)" fill="#efd5bf"/>
                        <g id="Grupo_54647" data-name="Grupo 54647" transform="translate(74.575 4.214)" opacity="0.58">
                          <g id="Grupo_54645" data-name="Grupo 54645">
                            <path id="Trazado_102347" data-name="Trazado 102347" d="M236.431,156.352l42.275,7.713S244.782,156.6,236.431,156.352Z" transform="translate(-235.242 -156.352)" fill="#e8d3c1" style="mix-blend-mode: multiply;isolation: isolate"/>
                            <path id="Trazado_102348" data-name="Trazado 102348" d="M234.566,182.309l42.653,3.324S242.87,181.75,234.566,182.309Z" transform="translate(-234.5 -166.652)" fill="#e8d3c1" style="mix-blend-mode: multiply;isolation: isolate"/>
                            <path id="Trazado_102349" data-name="Trazado 102349" d="M234.57,179.437l42.63,4.418S242.889,179.034,234.57,179.437Z" transform="translate(-234.502 -165.522)" fill="#e8d3c1" style="mix-blend-mode: multiply;isolation: isolate"/>
                            <path id="Trazado_102350" data-name="Trazado 102350" d="M234.572,177.687l42.63,4.418S242.891,177.284,234.572,177.687Z" transform="translate(-234.503 -164.826)" fill="#e8d3c1" style="mix-blend-mode: multiply;isolation: isolate"/>
                            <path id="Trazado_102351" data-name="Trazado 102351" d="M234.6,175.391l42.6,4.839S242.926,175.069,234.6,175.391Z" transform="translate(-234.514 -163.917)" fill="#e8d3c1" style="mix-blend-mode: multiply;isolation: isolate"/>
                            <path id="Trazado_102352" data-name="Trazado 102352" d="M234.669,172.336l42.521,5.731S243.007,172.191,234.669,172.336Z" transform="translate(-234.541 -162.707)" fill="#e8d3c1" style="mix-blend-mode: multiply;isolation: isolate"/>
                            <path id="Trazado_102353" data-name="Trazado 102353" d="M234.671,170.139l42.522,5.723S243.009,169.992,234.671,170.139Z" transform="translate(-234.542 -161.833)" fill="#e8d3c1" style="mix-blend-mode: multiply;isolation: isolate"/>
                            <path id="Trazado_102354" data-name="Trazado 102354" d="M234.711,167.439l42.478,6.14S243.054,167.374,234.711,167.439Z" transform="translate(-234.558 -160.76)" fill="#e8d3c1" style="mix-blend-mode: multiply;isolation: isolate"/>
                            <path id="Trazado_102355" data-name="Trazado 102355" d="M234.714,164.922l42.479,6.14S243.057,164.857,234.714,164.922Z" transform="translate(-234.559 -159.759)" fill="#e8d3c1" style="mix-blend-mode: multiply;isolation: isolate"/>
                            <path id="Trazado_102356" data-name="Trazado 102356" d="M234.761,162.347l42.425,6.595S243.107,162.372,234.761,162.347Z" transform="translate(-234.578 -158.736)" fill="#e8d3c1" style="mix-blend-mode: multiply;isolation: isolate"/>
                            <path id="Trazado_102357" data-name="Trazado 102357" d="M234.457,159.475l42.425,6.595S242.8,159.5,234.457,159.475Z" transform="translate(-234.457 -157.594)" fill="#e8d3c1" style="mix-blend-mode: multiply;isolation: isolate"/>
                          </g>
                          <g id="Grupo_54646" data-name="Grupo 54646" transform="translate(0.116 16.968)">
                            <path id="Trazado_102358" data-name="Trazado 102358" d="M236.594,206.308l41.141-.052S244.881,207.491,236.594,206.308Z" transform="translate(-235.422 -193.164)" fill="#e8d3c1" style="mix-blend-mode: multiply;isolation: isolate"/>
                            <path id="Trazado_102359" data-name="Trazado 102359" d="M234.843,184.521l42.316,2.856S243.183,186.046,234.843,184.521Z" transform="translate(-234.726 -184.521)" fill="#e8d3c1" style="mix-blend-mode: multiply;isolation: isolate"/>
                            <path id="Trazado_102360" data-name="Trazado 102360" d="M234.861,186.846l42.288,2.426S243.121,188.6,234.861,186.846Z" transform="translate(-234.733 -185.446)" fill="#e8d3c1" style="mix-blend-mode: multiply;isolation: isolate"/>
                            <path id="Trazado_102361" data-name="Trazado 102361" d="M234.916,189.941l42.213,1.514S243.188,191.517,234.916,189.941Z" transform="translate(-234.755 -186.676)" fill="#e8d3c1" style="mix-blend-mode: multiply;isolation: isolate"/>
                            <path id="Trazado_102362" data-name="Trazado 102362" d="M234.909,192.154l42.213,1.523S243.181,193.732,234.909,192.154Z" transform="translate(-234.752 -187.556)" fill="#e8d3c1" style="mix-blend-mode: multiply;isolation: isolate"/>
                            <path id="Trazado_102363" data-name="Trazado 102363" d="M234.936,194.882l42.172,1.1S243.213,196.377,234.936,194.882Z" transform="translate(-234.763 -188.641)" fill="#e8d3c1" style="mix-blend-mode: multiply;isolation: isolate"/>
                            <path id="Trazado_102364" data-name="Trazado 102364" d="M234.929,197.418l42.173,1.1S243.206,198.913,234.929,197.418Z" transform="translate(-234.76 -189.649)" fill="#e8d3c1" style="mix-blend-mode: multiply;isolation: isolate"/>
                            <path id="Trazado_102365" data-name="Trazado 102365" d="M234.964,200.02l42.122.628S243.245,201.425,234.964,200.02Z" transform="translate(-234.774 -190.684)" fill="#e8d3c1" style="mix-blend-mode: multiply;isolation: isolate"/>
                            <path id="Trazado_102366" data-name="Trazado 102366" d="M234.649,202.859l42.122.629S242.93,204.264,234.649,202.859Z" transform="translate(-234.649 -191.813)" fill="#e8d3c1" style="mix-blend-mode: multiply;isolation: isolate"/>
                          </g>
                          <path id="Trazado_102367" data-name="Trazado 102367" d="M236.03,208.462l42.318.489S244.332,209.682,236.03,208.462Z" transform="translate(-235.082 -177.073)" fill="#e8d3c1" style="mix-blend-mode: multiply;isolation: isolate"/>
                        </g>
                        <g id="Grupo_54650" data-name="Grupo 54650">
                          <g id="Grupo_54648" data-name="Grupo 54648" transform="translate(0 0.044)">
                            <path id="Trazado_102368" data-name="Trazado 102368" d="M190.611,149.429s-69.964,7.538-75.668,9.236-4.41,18.634-3.435,23.888,4.824,6.786,8.914,6.951,76.23-.133,76.23-.133-9.728-1.783-10.758-9.175.661-22.084.992-24.58S190.611,149.429,190.611,149.429Z" transform="translate(-110.652 -149.429)" fill="#5258ac"/>
                          </g>
                          <path id="Trazado_102369" data-name="Trazado 102369" d="M188.763,183.534c-.958-7.212.615-21.546.922-23.981.211-1.671,1.763-3.89,2.716-5.119h-.008l-5.006.6c-.955,1.26-2.334,3.31-2.532,4.88-.307,2.435-1.88,16.769-.922,23.982.559,4.209,2.482,6.454,3.988,7.6l5.312-.016C191.688,190.466,189.385,188.21,188.763,183.534Z" transform="translate(-139.67 -151.376)" fill="#eadbce"/>
                          <path id="Trazado_102370" data-name="Trazado 102370" d="M174.842,184.443c-.958-7.03.614-21,.921-23.369.21-1.622,1.75-3.772,2.7-4.971l-5.041.613c-.954,1.231-2.3,3.194-2.494,4.7-.307,2.373-1.879,16.34-.921,23.369a10.569,10.569,0,0,0,3.963,7.39l5.307-.014C177.735,191.169,175.459,188.969,174.842,184.443Z" transform="translate(-134.134 -152.04)" fill="#eadbce"/>
                          <g id="Grupo_54649" data-name="Grupo 54649" transform="translate(73.189)">
                            <path id="Trazado_102371" data-name="Trazado 102371" d="M232.395,169c.055-1.116.11-2.194.145-3.2.023-.669.041-1.346.058-2.028.135-5.281.275-10.741,3.368-13.191a6.446,6.446,0,0,1,5.369-1.074c6.23,1.132,32.544,6.745,38.219,7.957l-.005,3.719c-3.708-.792-32.372-6.913-38.749-8.072a2.8,2.8,0,0,0-2.437.363c-1.815,1.437-1.939,6.271-2.048,10.535-.017.693-.036,1.383-.06,2.062-.036,1.023-.133,2.812-.148,3.253-.031.939-.517,14.162,1.714,15.63,2.478,1.212,23.036,2.258,41.693,1.345l-.005,3.677c-7.254.352-23.963-.213-34.542-.638-4.349-.175-7.664-.541-8.855-1.2C231.561,185.631,231.984,177.178,232.395,169Z" transform="translate(-232.156 -149.357)" fill="#5258ac"/>
                          </g>
                        </g>
                      </g>
                      <path id="Trazado_102372" data-name="Trazado 102372" d="M242.382,190.219s.651,9.066.579,14.89c3.474.376,7.215.527,7.215.527S248.619,190.634,242.382,190.219Z" transform="translate(-163.033 -165.605)" fill="#efd5bf" style="mix-blend-mode: multiply;isolation: isolate"/>
                    </g>
                    <path id="Trazado_102373" data-name="Trazado 102373" d="M117.666,161.619s47.33-5.524,55.08-6.253,10.379-1.42,11.441-.682.6,7.589,0,8.592-5.351.957-10.564,1.1-56.048,2.45-57.524,2.494-1.2-2.325-.677-3.278A3.2,3.2,0,0,1,117.666,161.619Z" transform="translate(-112.382 -151.349)" fill="#fff" opacity="0.46" style="mix-blend-mode: overlay;isolation: isolate"/>
                  </g>
                </g>
                <g id="Grupo_54660" data-name="Grupo 54660" transform="translate(20.095 39.45)">
                  <path id="Trazado_102374" data-name="Trazado 102374" d="M310.843,256.72s3.541,9.509,3.423,17.35a45.712,45.712,0,0,0,2.6-4.318l4.216,3.777s-2.6-17.468-5.947-22.78S310.843,256.72,310.843,256.72Z" transform="translate(-180.128 -228.559)" fill="#5258ac"/>
                  <g id="Grupo_54659" data-name="Grupo 54659">
                    <path id="Trazado_102375" data-name="Trazado 102375" d="M100.313,259.95l12.724,8.188H219.629l11.788-8.188s-51.465-1.757-68.337-3S100.313,259.95,100.313,259.95Z" transform="translate(-96.413 -231.497)" fill="#007f7c"/>
                    <g id="Grupo_54658" data-name="Grupo 54658">
                      <g id="Grupo_54657" data-name="Grupo 54657">
                        <g id="Grupo_54656" data-name="Grupo 54656">
                          <g id="Grupo_54655" data-name="Grupo 54655">
                            <path id="Trazado_102376" data-name="Trazado 102376" d="M97.739,214.849s126.058.531,130.661,1.063c2.833.885,2.656,8.144,2.833,14.34s.354,12.112-2.39,13.05-129.038.066-131.1,0-3.482-4.079-3.718-10.571S93.079,214.829,97.739,214.849Z" transform="translate(-93.839 -214.849)" fill="#00aaac"/>
                          </g>
                        </g>
                        <path id="Trazado_102377" data-name="Trazado 102377" d="M118.565,214.935l-4.578-.022a6.21,6.21,0,0,0-1.035,3.8v18.03a15.344,15.344,0,0,0,2.018,6.67l5.609.039a12.1,12.1,0,0,1-3.1-6.307,140.347,140.347,0,0,1-.237-17.753A9.264,9.264,0,0,1,118.565,214.935Z" transform="translate(-101.439 -214.874)" fill="#4cede5"/>
                        <path id="Trazado_102378" data-name="Trazado 102378" d="M131.908,215l-4.576-.022a6.258,6.258,0,0,0-1.008,3.759v18.03a15.384,15.384,0,0,0,2.049,6.725l5.624.036a12.139,12.139,0,0,1-3.143-6.359,140.473,140.473,0,0,1-.238-17.753A9.428,9.428,0,0,1,131.908,215Z" transform="translate(-106.757 -214.899)" fill="#4cede5"/>
                        <path id="Trazado_102379" data-name="Trazado 102379" d="M292.173,244.188c2.019-.014,3.881-.03,5.563-.05a15.155,15.155,0,0,0,1.931-6.505V219.6a6.651,6.651,0,0,0-.779-3.4c-1.4-.022-2.944-.043-4.622-.064a10.382,10.382,0,0,1,1.11,4.142,140.357,140.357,0,0,1-.237,17.754A11.971,11.971,0,0,1,292.173,244.188Z" transform="translate(-172.704 -215.362)" fill="#4cede5"/>
                        <path id="Trazado_102380" data-name="Trazado 102380" d="M278.743,244.166c1.943-.006,3.8-.014,5.562-.023a15.22,15.22,0,0,0,1.966-6.571V219.542a6.547,6.547,0,0,0-.84-3.506q-2.2-.025-4.624-.05a10.008,10.008,0,0,1,1.172,4.235,140.357,140.357,0,0,1-.237,17.754A12,12,0,0,1,278.743,244.166Z" transform="translate(-167.364 -215.301)" fill="#4cede5"/>
                      </g>
                      <path id="Trazado_102381" data-name="Trazado 102381" d="M98.617,218.082H226.327c2.95,0,3.954,1.325,4.19,3.68s-.708,2.76-6.61,2.686-121.394,0-125.291,0S95.7,218.082,98.617,218.082Z" transform="translate(-94.717 -216.135)" fill="#00c1bc" style="mix-blend-mode: overlay;isolation: isolate"/>
                    </g>
                  </g>
                </g>
                <g id="Grupo_54673" data-name="Grupo 54673" transform="translate(0 119.409)">
                  <g id="Grupo_54672" data-name="Grupo 54672">
                    <g id="Grupo_54665" data-name="Grupo 54665">
                      <g id="Grupo_54662" data-name="Grupo 54662">
                        <g id="Grupo_54661" data-name="Grupo 54661">
                          <path id="Trazado_102382" data-name="Trazado 102382" d="M154.424,395.168s-82.311-16.357-88.448-18.224-8-20.013-1.067-22.281,85.389-7.071,85.389-7.071l91.325,5.237Z" transform="translate(-60.478 -347.592)" fill="#167ba8"/>
                        </g>
                        <path id="Trazado_102383" data-name="Trazado 102383" d="M65.977,382.956c6.137,1.868,88.448,18.224,88.448,18.224l47.017-23.961L62.335,362.712C58.644,368.106,60.777,381.374,65.977,382.956Z" transform="translate(-60.479 -353.604)" fill="#3989b4"/>
                      </g>
                      <g id="Grupo_54663" data-name="Grupo 54663" transform="translate(87.364 7.427)">
                        <path id="Trazado_102384" data-name="Trazado 102384" d="M297.093,359.922c-16.941,1.4-77.408,6.669-85.656,11.252-9.606,5.336-6.4,26.417,1.6,26.951,6.485.432,62.868-11.567,84.055-16.141Z" transform="translate(-205.514 -359.922)" fill="#eee6de"/>
                      </g>
                      <path id="Trazado_102385" data-name="Trazado 102385" d="M215.878,377.778c7.637-4.243,60.049-9.076,81.215-10.879v-6.977c-16.941,1.4-77.408,6.669-85.656,11.252-8.722,4.845-6.884,22.666-.481,26.306C208.865,390.7,209.842,381.131,215.878,377.778Z" transform="translate(-118.15 -352.495)" fill="#efd5bf"/>
                      <g id="Grupo_54664" data-name="Grupo 54664" transform="translate(85.359 5.238)">
                        <path id="Trazado_102386" data-name="Trazado 102386" d="M297.971,378.017c-25.8,5.6-78.414,16.676-85.783,16.675-.126,0-.24,0-.339-.01-2.125-.142-4.188-3.08-5.136-7.312-1.332-5.95-.258-13.32,4.373-15.893,7.314-4.064,63.067-9.266,86.885-11.176v-4.015c-14.391,1.149-79.678,6.607-88.828,11.691-6.643,3.692-7.941,13.093-6.335,20.266,1.381,6.165,4.276,10.14,8.308,10.409.128.008.74.036.9.036,8.735,0,65.81-12.208,85.953-16.576Z" transform="translate(-202.186 -356.287)" fill="#0a759b"/>
                      </g>
                      <path id="Trazado_102387" data-name="Trazado 102387" d="M218.006,376.662l82.987-11.341S233.883,372.659,218.006,376.662Z" transform="translate(-123.118 -354.642)" fill="#e8d3c1" style="mix-blend-mode: multiply;isolation: isolate"/>
                      <path id="Trazado_102388" data-name="Trazado 102388" d="M216.35,380.5l82.987-11.341S232.227,376.5,216.35,380.5Z" transform="translate(-122.459 -356.169)" fill="#e8d3c1" style="mix-blend-mode: multiply;isolation: isolate"/>
                      <path id="Trazado_102389" data-name="Trazado 102389" d="M212.809,384.48l84.45-11.859S228.686,380.477,212.809,384.48Z" transform="translate(-121.051 -357.545)" fill="#e8d3c1" style="mix-blend-mode: multiply;isolation: isolate"/>
                      <path id="Trazado_102390" data-name="Trazado 102390" d="M212.646,388.264l84.414-12.709S228.523,384.261,212.646,388.264Z" transform="translate(-120.986 -358.711)" fill="#e8d3c1" style="mix-blend-mode: multiply;isolation: isolate"/>
                      <path id="Trazado_102391" data-name="Trazado 102391" d="M212.646,391.815l84.414-13.24S228.523,387.813,212.646,391.815Z" transform="translate(-120.986 -359.912)" fill="#e8d3c1" style="mix-blend-mode: multiply;isolation: isolate"/>
                      <path id="Trazado_102392" data-name="Trazado 102392" d="M212.646,395.02l84.414-13.927S228.523,391.017,212.646,395.02Z" transform="translate(-120.986 -360.913)" fill="#e8d3c1" style="mix-blend-mode: multiply;isolation: isolate"/>
                      <path id="Trazado_102393" data-name="Trazado 102393" d="M213.716,397.71l83.9-13.793S229.593,393.708,213.716,397.71Z" transform="translate(-121.412 -362.036)" fill="#e8d3c1" style="mix-blend-mode: multiply;isolation: isolate"/>
                      <path id="Trazado_102394" data-name="Trazado 102394" d="M213.716,400.755l83.77-13.959S229.593,396.752,213.716,400.755Z" transform="translate(-121.412 -363.181)" fill="#e8d3c1" style="mix-blend-mode: multiply;isolation: isolate"/>
                      <path id="Trazado_102395" data-name="Trazado 102395" d="M215.7,403.728l82.911-14.994S231.573,399.726,215.7,403.728Z" transform="translate(-122.199 -363.952)" fill="#e8d3c1" style="mix-blend-mode: multiply;isolation: isolate"/>
                      <path id="Trazado_102396" data-name="Trazado 102396" d="M218.006,406.626,300,391.143S233.883,402.623,218.006,406.626Z" transform="translate(-123.118 -364.91)" fill="#e8d3c1" style="mix-blend-mode: multiply;isolation: isolate"/>
                    </g>
                    <g id="Grupo_54666" data-name="Grupo 54666" transform="translate(1.085 10.267)">
                      <path id="Trazado_102397" data-name="Trazado 102397" d="M64.124,364.643s55.736,8.205,67.343,9.906,14.409,1.2,14.009,6.054-2,4.838-18.512,2.544-59.739-10.7-62.84-11.2S62.4,364.389,64.124,364.643Z" transform="translate(-62.279 -364.636)" fill="#3c9cc6"/>
                    </g>
                    <g id="Grupo_54667" data-name="Grupo 54667" transform="translate(14.273 12.882)">
                      <path id="Trazado_102398" data-name="Trazado 102398" d="M125.3,394.232a2.063,2.063,0,0,1-.32-.026c-14.907-2.417-32.845-6.2-37.988-7.3a2.638,2.638,0,0,1-2.006-1.953c-.7-2.938-1.963-10.287,1.546-15.038A2.383,2.383,0,0,1,88.744,369l37.792,4.63a2.029,2.029,0,0,1,1.731,2.49,49.467,49.467,0,0,0-1.011,15.946,1.979,1.979,0,0,1-.622,1.641A1.948,1.948,0,0,1,125.3,394.232Zm-36.861-24.78a1.886,1.886,0,0,0-1.526.745c-3.391,4.591-2.155,11.771-1.466,14.645a2.159,2.159,0,0,0,1.644,1.6c5.14,1.1,23.069,4.882,37.964,7.3a1.476,1.476,0,0,0,1.256-.381,1.51,1.51,0,0,0,.473-1.251,49.931,49.931,0,0,1,1.023-16.1,1.55,1.55,0,0,0-.231-1.244,1.566,1.566,0,0,0-1.1-.662l-37.792-4.63A1.933,1.933,0,0,0,88.437,369.453Z" transform="translate(-84.174 -368.978)" fill="#b6e2ff"/>
                    </g>
                    <g id="Grupo_54669" data-name="Grupo 54669" transform="translate(65.77 25.283)">
                      <g id="Grupo_54668" data-name="Grupo 54668" transform="translate(0)">
                        <ellipse id="Elipse_5520" data-name="Elipse 5520" cx="4.403" cy="6.145" rx="4.403" ry="6.145" fill="#003e60"/>
                      </g>
                      <path id="Trazado_102399" data-name="Trazado 102399" d="M170.766,395.911c0-3.392,1.969-6.143,4.4-6.145a3.245,3.245,0,0,0-1.1-.2c-2.432,0-4.4,2.751-4.4,6.145s1.972,6.145,4.4,6.145h0C172.171,401.175,170.766,398.776,170.766,395.911Z" transform="translate(-169.665 -389.566)" fill="#0a759b"/>
                    </g>
                    <g id="Grupo_54671" data-name="Grupo 54671" transform="translate(6.699 15.567)">
                      <g id="Grupo_54670" data-name="Grupo 54670">
                        <ellipse id="Elipse_5521" data-name="Elipse 5521" cx="3.369" cy="4.702" rx="3.369" ry="4.702" fill="#003e60"/>
                      </g>
                      <path id="Trazado_102400" data-name="Trazado 102400" d="M72.441,378.29c0-2.6,1.507-4.7,3.367-4.7a2.481,2.481,0,0,0-.84-.153c-1.861,0-3.369,2.105-3.369,4.7s1.508,4.7,3.369,4.7h0C73.517,382.317,72.441,380.481,72.441,378.29Z" transform="translate(-71.599 -373.435)" fill="#0a759b"/>
                    </g>
                  </g>
                  <path id="Trazado_102401" data-name="Trazado 102401" d="M219.367,399.114s.716,10.173.648,16.541c1.856-.141,7.57-.978,7.57-.978S226.081,399.294,219.367,399.114Z" transform="translate(-123.659 -368.079)" fill="#efd5bf" style="mix-blend-mode: multiply;isolation: isolate"/>
                  <path id="Trazado_102402" data-name="Trazado 102402" d="M219.367,397.762s6.845,4.345,7.245,24.833c3.2-3.328,5.4-5.439,5.4-5.439l5.784,3.381s-3.8-21.682-8.286-24.723A52.121,52.121,0,0,0,219.367,397.762Z" transform="translate(-123.659 -366.767)" fill="#5258ac"/>
                </g>
                <g id="Grupo_54686" data-name="Grupo 54686" transform="translate(9.55 99.436)">
                  <g id="Grupo_54685" data-name="Grupo 54685">
                    <g id="Grupo_54684" data-name="Grupo 54684">
                      <g id="Grupo_54680" data-name="Grupo 54680">
                        <g id="Grupo_54676" data-name="Grupo 54676">
                          <g id="Grupo_54674" data-name="Grupo 54674">
                            <path id="Trazado_102403" data-name="Trazado 102403" d="M150.79,349.492s71.866-8.71,77.164-10.632,6.91-17.68.922-19.288-73.71-5.138-73.71-5.138l-78.835,2.7Z" transform="translate(-76.332 -314.434)" fill="#95308e"/>
                          </g>
                          <g id="Grupo_54675" data-name="Grupo 54675" transform="translate(39.501 6.767)">
                            <path id="Trazado_102404" data-name="Trazado 102404" d="M254.031,343.327c-5.3,1.922-77.164,10.632-77.164,10.632L141.909,333.35l35.115-6.855,80.151-.827C260.361,330.138,258.52,341.7,254.031,343.327Z" transform="translate(-141.909 -325.668)" fill="#5258ac"/>
                          </g>
                        </g>
                        <g id="Grupo_54677" data-name="Grupo 54677" transform="translate(1.9 4.479)">
                          <path id="Trazado_102405" data-name="Trazado 102405" d="M79.487,321.87c14.624.353,66.82,1.852,73.94,5.391,8.292,4.123,5.528,22.481-1.382,23.346-5.6.7-54.269-6.813-72.558-9.692Z" transform="translate(-79.487 -321.87)" fill="#eee6de"/>
                        </g>
                        <path id="Trazado_102406" data-name="Trazado 102406" d="M149.594,333.186c-6.593-3.277-51.836-4.805-70.107-5.293V321.87c14.624.353,66.82,1.852,73.94,5.391,7.529,3.743,5.943,19.219.415,22.684C155.648,343.985,154.8,335.776,149.594,333.186Z" transform="translate(-77.587 -317.391)" fill="#efd5bf"/>
                        <g id="Grupo_54678" data-name="Grupo 54678" transform="translate(0 2.7)">
                          <path id="Trazado_102407" data-name="Trazado 102407" d="M76.332,337.674c22.27,3.53,67.689,10.44,74.05,10.067.109-.007.207-.015.293-.025,1.833-.23,3.615-2.87,4.433-6.571,1.15-5.2.222-11.511-3.775-13.5-6.314-3.139-54.441-4.816-75-5.263v-3.466c12.422.266,68.78,1.684,76.679,5.611,5.734,2.851,6.854,10.9,5.468,17.175-1.191,5.391-4.094,9.011-7.575,9.447q-.166.021-.376.034c-7.54.44-56.808-7.218-74.2-9.972Z" transform="translate(-76.332 -318.916)" fill="#95308e"/>
                        </g>
                        <g id="Grupo_54679" data-name="Grupo 54679" transform="translate(2.821 7.233)" opacity="0.58">
                          <path id="Trazado_102408" data-name="Trazado 102408" d="M152.653,332.044l-71.637-5.6S138.947,329.39,152.653,332.044Z" transform="translate(-81.016 -326.441)" fill="#e8d3c1" style="mix-blend-mode: multiply;isolation: isolate"/>
                          <path id="Trazado_102409" data-name="Trazado 102409" d="M154.082,335.276l-71.636-5.6S140.377,332.622,154.082,335.276Z" transform="translate(-81.585 -327.726)" fill="#e8d3c1" style="mix-blend-mode: multiply;isolation: isolate"/>
                          <path id="Trazado_102410" data-name="Trazado 102410" d="M156.306,338.578l-72.9-5.976S142.6,335.924,156.306,338.578Z" transform="translate(-81.967 -328.891)" fill="#e8d3c1" style="mix-blend-mode: multiply;isolation: isolate"/>
                          <path id="Trazado_102411" data-name="Trazado 102411" d="M156.467,341.836,83.6,335.125S142.761,339.182,156.467,341.836Z" transform="translate(-82.043 -329.894)" fill="#e8d3c1" style="mix-blend-mode: multiply;isolation: isolate"/>
                          <path id="Trazado_102412" data-name="Trazado 102412" d="M156.467,344.9,83.6,337.732S142.761,342.248,156.467,344.9Z" transform="translate(-82.043 -330.931)" fill="#e8d3c1" style="mix-blend-mode: multiply;isolation: isolate"/>
                          <path id="Trazado_102413" data-name="Trazado 102413" d="M156.467,347.668,83.6,339.905S142.761,345.014,156.467,347.668Z" transform="translate(-82.043 -331.795)" fill="#e8d3c1" style="mix-blend-mode: multiply;isolation: isolate"/>
                          <path id="Trazado_102414" data-name="Trazado 102414" d="M155.834,350.027l-72.427-7.673S142.129,347.373,155.834,350.027Z" transform="translate(-81.967 -332.769)" fill="#e8d3c1" style="mix-blend-mode: multiply;isolation: isolate"/>
                          <path id="Trazado_102415" data-name="Trazado 102415" d="M155.91,352.651,83.6,344.828S142.2,350,155.91,352.651Z" transform="translate(-82.043 -333.752)" fill="#e8d3c1" style="mix-blend-mode: multiply;isolation: isolate"/>
                          <path id="Trazado_102416" data-name="Trazado 102416" d="M154.691,355.289l-71.571-8.76S140.985,352.635,154.691,355.289Z" transform="translate(-81.853 -334.429)" fill="#e8d3c1" style="mix-blend-mode: multiply;isolation: isolate"/>
                          <path id="Trazado_102417" data-name="Trazado 102417" d="M153.222,357.876l-70.776-9.228S139.516,355.222,153.222,357.876Z" transform="translate(-81.585 -335.271)" fill="#e8d3c1" style="mix-blend-mode: multiply;isolation: isolate"/>
                        </g>
                      </g>
                      <g id="Grupo_54681" data-name="Grupo 54681" transform="translate(84.241 8.401)">
                        <path id="Trazado_102418" data-name="Trazado 102418" d="M285.862,328.393s-45.122,3.511-56.939,4.688c-10.178,1.014-13.057.314-12.712,4.483s6.166,3.292,20.612,1.749c16.044-1.714,46.282-4.612,48.96-5.2S287.349,328.087,285.862,328.393Z" transform="translate(-216.184 -328.38)" fill="#95308e"/>
                      </g>
                      <g id="Grupo_54682" data-name="Grupo 54682" transform="translate(146.656 7.172)">
                        <path id="Trazado_102419" data-name="Trazado 102419" d="M320.038,344.567a.258.258,0,0,1-.228-.188.222.222,0,0,1,.164-.283c.77-.167,3.247-1.757,3.633-3.472a80.375,80.375,0,0,0,1.148-9.258,4.773,4.773,0,0,0-2.076-4.582.25.25,0,0,1-.106-.326.225.225,0,0,1,.317-.086,5.366,5.366,0,0,1,2.338,5.059,80.679,80.679,0,0,1-1.159,9.326c-.418,1.863-3.023,3.6-3.966,3.8A.219.219,0,0,1,320.038,344.567Z" transform="translate(-319.801 -326.341)" fill="#f9a0a0"/>
                      </g>
                      <g id="Grupo_54683" data-name="Grupo 54683" transform="translate(143.562 7.498)">
                        <path id="Trazado_102420" data-name="Trazado 102420" d="M314.9,345.108a.258.258,0,0,1-.228-.189.222.222,0,0,1,.164-.282c.77-.167,3.247-1.757,3.633-3.472a80.412,80.412,0,0,0,1.148-9.258,4.771,4.771,0,0,0-2.076-4.582.249.249,0,0,1-.106-.326.224.224,0,0,1,.317-.086,5.364,5.364,0,0,1,2.338,5.058,80.678,80.678,0,0,1-1.158,9.326c-.419,1.863-3.024,3.6-3.967,3.8A.24.24,0,0,1,314.9,345.108Z" transform="translate(-314.664 -326.882)" fill="#f9a0a0"/>
                      </g>
                    </g>
                    <path id="Trazado_102421" data-name="Trazado 102421" d="M230.834,339.032a30.559,30.559,0,0,1-2.969,15.361c1.926-.241,3.961-.5,6.07-.764a39.247,39.247,0,0,0,2.5-13.7,13.437,13.437,0,0,0-2.178-7.944l-5.632.375A13.552,13.552,0,0,1,230.834,339.032Z" transform="translate(-136.587 -321.413)" fill="#95308e"/>
                    <path id="Trazado_102422" data-name="Trazado 102422" d="M245.7,338.06a30.336,30.336,0,0,1-2.73,14.8c1.976-.251,4-.51,6.054-.773a40.424,40.424,0,0,0,2.273-13.126,13.435,13.435,0,0,0-2.183-7.951l-5.631.375A13.554,13.554,0,0,1,245.7,338.06Z" transform="translate(-142.595 -321.024)" fill="#95308e"/>
                  </g>
                  <path id="Trazado_102423" data-name="Trazado 102423" d="M190.051,344.828s-.664,10.641-.6,16.578c-1.731-.132-7.242-.655-7.242-.655S183.792,345,190.051,344.828Z" transform="translate(-118.433 -326.52)" fill="#efd5bf" style="mix-blend-mode: multiply;isolation: isolate"/>
                  <path id="Trazado_102424" data-name="Trazado 102424" d="M183.884,344.109s-6.38,4.777-6.753,23.875c-2.985-3.1-5.037-5.07-5.037-5.07l-5.392,3.152s3.546-20.212,7.724-23.046C180.562,343.7,183.884,344.109,183.884,344.109Z" transform="translate(-112.267 -325.801)" fill="#3366c2"/>
                </g>
                <g id="Grupo_54695" data-name="Grupo 54695" transform="translate(31.326 62.672)">
                  <g id="Grupo_54694" data-name="Grupo 54694">
                    <g id="Grupo_54687" data-name="Grupo 54687" transform="translate(2.205 2.377)">
                      <path id="Trazado_102425" data-name="Trazado 102425" d="M116.144,263.2v27.369s31.7,3.766,38.583,1.837,3.665-11.3,3.665-15.705-.092-15.155-1.194-17.726-6.337-1.47-12.766-.919S116.144,263.2,116.144,263.2Z" transform="translate(-116.144 -257.347)" fill="#eee6de"/>
                    </g>
                    <path id="Trazado_102426" data-name="Trazado 102426" d="M158.392,276.7c0-4.409-.092-15.155-1.194-17.726s-6.337-1.47-12.766-.919-28.288,5.144-28.288,5.144v4.584c5.882-1.209,21.157-3.565,26.267-4,6.43-.551,10.963-1.228,12.065,1.344s1.467,12.259,1.467,16.668c0,2.427.971,6.355.7,9.72C160.932,288.475,158.392,280.628,158.392,276.7Z" transform="translate(-113.939 -254.969)" fill="#efd5bf"/>
                    <g id="Grupo_54690" data-name="Grupo 54690" transform="translate(2.318 4.433)" opacity="0.58">
                      <g id="Grupo_54688" data-name="Grupo 54688" transform="translate(0.194)">
                        <path id="Trazado_102427" data-name="Trazado 102427" d="M158.431,260.76l-41.776,6.031S150.18,260.671,158.431,260.76Z" transform="translate(-116.655 -260.759)" fill="#e8d3c1" style="mix-blend-mode: multiply;isolation: isolate"/>
                        <path id="Trazado_102428" data-name="Trazado 102428" d="M159.994,286.78l-42.144,1.614S151.791,285.885,159.994,286.78Z" transform="translate(-117.13 -271.03)" fill="#e8d3c1" style="mix-blend-mode: multiply;isolation: isolate"/>
                        <path id="Trazado_102429" data-name="Trazado 102429" d="M160.008,283.938l-42.122,2.712S151.79,283.2,160.008,283.938Z" transform="translate(-117.144 -269.935)" fill="#e8d3c1" style="mix-blend-mode: multiply;isolation: isolate"/>
                        <path id="Trazado_102430" data-name="Trazado 102430" d="M160.008,282.183,117.886,284.9S151.79,281.442,160.008,282.183Z" transform="translate(-117.144 -269.237)" fill="#e8d3c1" style="mix-blend-mode: multiply;isolation: isolate"/>
                        <path id="Trazado_102431" data-name="Trazado 102431" d="M160,279.889l-42.092,3.136S151.778,279.232,160,279.889Z" transform="translate(-117.154 -268.336)" fill="#e8d3c1" style="mix-blend-mode: multiply;isolation: isolate"/>
                        <path id="Trazado_102432" data-name="Trazado 102432" d="M159.99,276.843l-42.016,4.035S151.753,276.361,159.99,276.843Z" transform="translate(-117.179 -267.141)" fill="#e8d3c1" style="mix-blend-mode: multiply;isolation: isolate"/>
                        <path id="Trazado_102433" data-name="Trazado 102433" d="M159.99,274.639l-42.016,4.026S151.753,274.155,159.99,274.639Z" transform="translate(-117.179 -266.264)" fill="#e8d3c1" style="mix-blend-mode: multiply;isolation: isolate"/>
                        <path id="Trazado_102434" data-name="Trazado 102434" d="M159.983,271.935l-41.974,4.446S151.741,271.534,159.983,271.935Z" transform="translate(-117.193 -265.194)" fill="#e8d3c1" style="mix-blend-mode: multiply;isolation: isolate"/>
                        <path id="Trazado_102435" data-name="Trazado 102435" d="M159.983,269.41l-41.974,4.446S151.741,269.009,159.983,269.41Z" transform="translate(-117.193 -264.19)" fill="#e8d3c1" style="mix-blend-mode: multiply;isolation: isolate"/>
                        <path id="Trazado_102436" data-name="Trazado 102436" d="M159.975,266.832l-41.924,4.9S151.728,266.521,159.975,266.832Z" transform="translate(-117.21 -263.169)" fill="#e8d3c1" style="mix-blend-mode: multiply;isolation: isolate"/>
                        <path id="Trazado_102437" data-name="Trazado 102437" d="M160.279,263.964l-41.923,4.9S152.033,263.653,160.279,263.964Z" transform="translate(-117.331 -262.028)" fill="#e8d3c1" style="mix-blend-mode: multiply;isolation: isolate"/>
                      </g>
                      <g id="Grupo_54689" data-name="Grupo 54689" transform="translate(0.359 17.059)">
                        <path id="Trazado_102438" data-name="Trazado 102438" d="M158.4,309.434l-41.471-2.217S150.211,310.285,158.4,309.434Z" transform="translate(-116.929 -296.291)" fill="#e8d3c1" style="mix-blend-mode: multiply;isolation: isolate"/>
                        <path id="Trazado_102439" data-name="Trazado 102439" d="M159.937,289.079l-41.809,1.159S151.7,290.272,159.937,289.079Z" transform="translate(-117.406 -289.079)" fill="#e8d3c1" style="mix-blend-mode: multiply;isolation: isolate"/>
                        <path id="Trazado_102440" data-name="Trazado 102440" d="M159.935,291.41l-41.78.729S151.773,292.833,159.935,291.41Z" transform="translate(-117.417 -290.006)" fill="#e8d3c1" style="mix-blend-mode: multiply;isolation: isolate"/>
                        <path id="Trazado_102441" data-name="Trazado 102441" d="M159.926,294.392l-41.706-.183S151.751,295.639,159.926,294.392Z" transform="translate(-117.442 -291.119)" fill="#e8d3c1" style="mix-blend-mode: multiply;isolation: isolate"/>
                        <path id="Trazado_102442" data-name="Trazado 102442" d="M159.93,296.618l-41.707-.175S151.755,297.866,159.93,296.618Z" transform="translate(-117.444 -292.007)" fill="#e8d3c1" style="mix-blend-mode: multiply;isolation: isolate"/>
                        <path id="Trazado_102443" data-name="Trazado 102443" d="M159.926,299.072l-41.665-.6S151.747,300.237,159.926,299.072Z" transform="translate(-117.459 -292.813)" fill="#e8d3c1" style="mix-blend-mode: multiply;isolation: isolate"/>
                        <path id="Trazado_102444" data-name="Trazado 102444" d="M159.93,301.615l-41.666-.6S151.75,302.781,159.93,301.615Z" transform="translate(-117.46 -293.825)" fill="#e8d3c1" style="mix-blend-mode: multiply;isolation: isolate"/>
                        <path id="Trazado_102445" data-name="Trazado 102445" d="M159.924,303.915l-41.615-1.067S151.741,304.991,159.924,303.915Z" transform="translate(-117.478 -294.554)" fill="#e8d3c1" style="mix-blend-mode: multiply;isolation: isolate"/>
                        <path id="Trazado_102446" data-name="Trazado 102446" d="M160.231,306.776l-41.615-1.067S152.048,307.852,160.231,306.776Z" transform="translate(-117.6 -295.692)" fill="#e8d3c1" style="mix-blend-mode: multiply;isolation: isolate"/>
                      </g>
                      <path id="Trazado_102447" data-name="Trazado 102447" d="M158.5,311.757l-42.164-1.95S150.294,312.647,158.5,311.757Z" transform="translate(-116.333 -280.263)" fill="#e8d3c1" style="mix-blend-mode: multiply;isolation: isolate"/>
                    </g>
                    <g id="Grupo_54693" data-name="Grupo 54693">
                      <g id="Grupo_54691" data-name="Grupo 54691" transform="translate(38.448 0.082)">
                        <path id="Trazado_102448" data-name="Trazado 102448" d="M178.015,253.536s69.109,10.381,74.742,12.315,4.89,16.419,3.918,21.649-4.776,6.613-8.817,6.613-71.545-.861-71.545-.861,5.289-1.291,6.318-8.665-.622-22.177-.945-24.694S178.015,253.536,178.015,253.536Z" transform="translate(-176.313 -253.536)" fill="#3366c2"/>
                      </g>
                      <path id="Trazado_102449" data-name="Trazado 102449" d="M225.114,265.38c.3,2.34,1.835,16.1.879,22.958-.822,5.892-4.563,7.6-5.6,7.968l5.782.072c1.526-.852,3.947-2.9,4.589-7.5.956-6.855-.578-20.618-.879-22.958-.193-1.508-1.553-3.524-2.495-4.766-1.671-.263-3.326-.521-4.953-.775C223.378,261.591,224.908,263.775,225.114,265.38Z" transform="translate(-155.393 -256.175)" fill="#eadbce"/>
                      <path id="Trazado_102450" data-name="Trazado 102450" d="M239.279,267.4c.3,2.28,1.835,15.692.879,22.372-.7,4.886-3.512,6.818-4.975,7.507l5.6.069c1.514-.96,3.564-2.982,4.146-7.051.957-6.68-.578-20.092-.878-22.372-.191-1.451-1.517-3.382-2.458-4.6-1.657-.264-3.321-.527-4.979-.789C237.555,263.721,239.074,265.838,239.279,267.4Z" transform="translate(-161.274 -257.033)" fill="#eadbce"/>
                      <g id="Grupo_54692" data-name="Grupo 54692">
                        <path id="Trazado_102451" data-name="Trazado 102451" d="M159.059,273.407c-.054-1.122-.105-2.2-.139-3.215-.022-.672-.039-1.353-.055-2.037-.126-5.3-.257-10.785-3.309-13.367a6.447,6.447,0,0,0-5.3-1.294c-6.156.885-32.161,5.453-37.77,6.441v3.73c3.665-.646,31.992-5.629,38.293-6.535a2.794,2.794,0,0,1,2.407.462c1.791,1.515,1.906,6.368,2.008,10.65.017.7.033,1.388.056,2.071.034,1.028.128,2.826.142,3.269.03.943.492,14.226-1.715,15.608-2.449,1.116-22.76.068-41.191-1.6v3.689c7.166.646,23.672,2.021,34.125,2.021,4.3,0,7.572-.233,8.75-.844C159.859,290.12,159.452,281.624,159.059,273.407Z" transform="translate(-112.484 -253.4)" fill="#3366c2"/>
                      </g>
                    </g>
                  </g>
                  <path id="Trazado_102452" data-name="Trazado 102452" d="M174.984,294.491s-.656,9.066-.593,14.912c-3.433.237-7.129.237-7.129.237S168.821,294.656,174.984,294.491Z" transform="translate(-134.266 -269.739)" fill="#efd5bf" style="mix-blend-mode: multiply;isolation: isolate"/>
                  <path id="Trazado_102453" data-name="Trazado 102453" d="M168.656,294.387s-6.684,5.5-7.051,24.384c-2.935-2.611-4.953-4.245-4.953-4.245l-5.3,3.914s3.738-20.675,7.847-24.094A83.111,83.111,0,0,1,168.656,294.387Z" transform="translate(-127.938 -269.641)" fill="#3989b4"/>
                </g>
                <g id="Grupo_54696" data-name="Grupo 54696" transform="translate(77.799 65.834)">
                  <path id="Trazado_102454" data-name="Trazado 102454" d="M190.431,258.668s62.637,9.832,64.9,10.239,2.655,2.664,3.127,4.376-1.357,1-5.134.649-56.065-7-58.9-7.395-3.246-1.435-3.718-2.981a22.046,22.046,0,0,1-1.063-4.32C189.732,258.765,189.951,258.592,190.431,258.668Z" transform="translate(-189.636 -258.651)" fill="#fff" opacity="0.37" style="mix-blend-mode: overlay;isolation: isolate"/>
                </g>
                <g id="Grupo_54697" data-name="Grupo 54697" transform="translate(82.299 65.141)">
                  <path id="Trazado_102455" data-name="Trazado 102455" d="M197.427,294.816a.321.321,0,0,1-.18-.589c.551-.368,2.666-3.9,2.83-7.7.16-3.707.16-12.113,0-19.139-.155-6.829-2.381-9.323-2.4-9.347a.321.321,0,0,1,.47-.438c.1.105,2.415,2.661,2.576,9.77.16,7.037.16,15.463,0,19.181-.163,3.794-2.294,7.661-3.114,8.21A.323.323,0,0,1,197.427,294.816Z" transform="translate(-197.106 -257.5)" fill="#5258ac"/>
                </g>
                <g id="Grupo_54698" data-name="Grupo 54698" transform="translate(85.866 65.506)">
                  <path id="Trazado_102456" data-name="Trazado 102456" d="M203.35,295.421a.322.322,0,0,1-.179-.589c.551-.368,2.665-3.9,2.829-7.7.16-3.707.16-12.113,0-19.139-.155-6.829-2.382-9.323-2.4-9.347a.321.321,0,0,1,.47-.438c.1.105,2.415,2.661,2.577,9.77.16,7.038.16,15.463,0,19.182-.163,3.792-2.294,7.66-3.114,8.209A.324.324,0,0,1,203.35,295.421Z" transform="translate(-203.028 -258.106)" fill="#5258ac"/>
                </g>
                <path id="Trazado_102457" data-name="Trazado 102457" d="M242.382,190.195s6.757,5.756,7.1,24.6c2.975-2.484,5.02-4.03,5.02-4.03l5.362,4.118s-3.753-20.763-7.908-24.34A85.507,85.507,0,0,0,242.382,190.195Z" transform="translate(-132.81 -165.587)" fill="#3366c2"/>
              </g>
            </g>
            <g id="Grupo_54714" data-name="Grupo 54714" transform="translate(92.112 182.18)">
              <g id="Grupo_54704" data-name="Grupo 54704" transform="translate(0 14.954)">
                <g id="Grupo_54703" data-name="Grupo 54703" transform="translate(0 2.668)">
                  <g id="Grupo_54701" data-name="Grupo 54701" transform="translate(0 4.559)">
                    <path id="Trazado_102458" data-name="Trazado 102458" d="M213.4,339.727s17.2,11.221,26.769,41.175c-2.111,4.876.938,11.146,7.637,8.569,4.638-1.16,30.368-7.993,48.232,15.2C322.485,394.018,352.66,384,352.66,384s1.116-3.093.926-3.227c-.818-.582-4.379,1.553-6.172.744-10.277-4.64-33.282-13.887-47.359-10.786-5.5,1.166-8.417.324-8.417-2.691s-9.335-28.448-16.49-35.012c-17.706.176-45.678,5.6-56.679,5.765-.39.006-2.967-2.521-3.688-2.406C214.31,336.459,213.4,339.727,213.4,339.727Z" transform="translate(-213.396 -330.279)" fill="#5258ac"/>
                    <path id="Trazado_102459" data-name="Trazado 102459" d="M215.7,334.571s18.751,13.4,28.32,43.357c-2.111,4.876-.032,9.243,6.667,6.667,4.638-1.16,30.094-6,47.59,15.261,26.452-10.65,56.228-20.9,56.228-20.9s-32.474-16.874-51.025-12.788c-5.5,1.166-8.417.324-8.417-2.69s-9.335-28.448-16.49-35.012C256.411,328.688,215.7,334.571,215.7,334.571Z" transform="translate(-214.311 -328.467)" fill="#5258ac"/>
                  </g>
                  <g id="Grupo_54702" data-name="Grupo 54702" transform="translate(10.54)">
                    <path id="Trazado_102460" data-name="Trazado 102460" d="M285.214,320.9l-54.19,3.6c-2.086,6.6,21.767,38.681,21.767,38.681a71.685,71.685,0,0,0,4.509,10.864l46.981-13.6C299.258,339.25,285.214,320.9,285.214,320.9Z" transform="translate(-230.894 -320.898)" fill="#eadbce"/>
                  </g>
                  <path id="Trazado_102461" data-name="Trazado 102461" d="M321.748,386.25c-.011-.048-.024-.1-.036-.143l-46.981,13.6c.084.169.164.333.251.5,25.382-4.739,48.568,12.656,48.568,12.656s11.653-3.748,55.99-20.678C368.187,386.609,331.346,383.949,321.748,386.25Z" transform="translate(-237.785 -346.555)" fill="#e5d1c3"/>
                  <path id="Trazado_102462" data-name="Trazado 102462" d="M303.033,385.724l-.023.007s-19.692-16.162-48.532-9.8c-3.373-14.458-18.479-44.886-27.63-49.051-2.892,2.3-6.455,4.867-6.455,4.867s20.7,19.247,26.8,45.182c4.605-.2,6.854,4.863,6.854,4.863s15.609-3.292,27.738.483,19.759,14.057,19.759,14.057l.157-.057,55.586-20.024.643-7.344Z" transform="translate(-216.178 -323.277)" fill="#d6b8a1"/>
                  <path id="Trazado_102463" data-name="Trazado 102463" d="M303.01,385.731s-19.692-16.162-48.532-9.8c-3.373-14.458-18.479-44.886-27.63-49.051-2.892,2.3-6.455,4.867-6.455,4.867s20.7,19.247,26.8,45.182c4.605-.2,6.854,4.863,6.854,4.863s15.609-3.292,27.738.483,19.759,14.057,19.759,14.057l.157-.057,1.33-10.553Z" transform="translate(-216.178 -323.277)" fill="#dbc2ad"/>
                </g>
                <path id="Trazado_102464" data-name="Trazado 102464" d="M276.979,398.876s20.8-8.727,48.555,4.647c29.517-8.193,52.65-15.51,52.65-15.51s-31.245-8.484-55.542-2.591S279.388,397.269,276.979,398.876Z" transform="translate(-238.679 -343.058)" fill="#eadbce"/>
                <path id="Trazado_102465" data-name="Trazado 102465" d="M264.056,371.791s1.716-28.735-19.576-53c13.793-1.617,53.311-2.321,53.311-2.321s12.931,23.3,11.927,42.363C288.326,364.263,264.056,371.791,264.056,371.791Z" transform="translate(-225.756 -316.468)" fill="#eee6de"/>
              </g>
              <path id="Trazado_102466" data-name="Trazado 102466" d="M320.321,385.422s-37.124,9.931-45.093,12.957-7.433,21.983-7.433,21.983l-3.427-4.926-3.212,3.027s1.379-15.738,9.043-21.163S313.195,385.4,320.321,385.422Z" transform="translate(-232.387 -328.933)" fill="#3366c2"/>
              <path id="Trazado_102467" data-name="Trazado 102467" d="M316.87,358.174A86.61,86.61,0,0,0,302.55,359.3a38.733,38.733,0,0,0-1.391-12.878c-3.138-11.555-10.237-19.686-15.855-18.159s-7.628,12.13-4.491,23.685c2.172,8,6.241,14.351,10.4,17,4.133,2.851,14.059,4.861,25.655,4.861,15.3,0,27.711-3.5,27.711-7.816S332.174,358.174,316.87,358.174Z" transform="translate(-239.614 -306.129)" fill="#eee6de" style="mix-blend-mode: multiply;isolation: isolate"/>
              <g id="Grupo_54713" data-name="Grupo 54713" transform="translate(46.712)">
                <g id="Grupo_54712" data-name="Grupo 54712">
                  <g id="Grupo_54711" data-name="Grupo 54711">
                    <g id="Grupo_54710" data-name="Grupo 54710">
                      <g id="Grupo_54705" data-name="Grupo 54705">
                        <path id="Trazado_102468" data-name="Trazado 102468" d="M348.935,304.81a32.078,32.078,0,1,1-44.822-7A32.078,32.078,0,0,1,348.935,304.81Z" transform="translate(-290.944 -291.642)" fill="#003e60"/>
                      </g>
                      <g id="Grupo_54706" data-name="Grupo 54706" transform="translate(35.752 50.575)" style="mix-blend-mode: multiply;isolation: isolate">
                        <path id="Trazado_102469" data-name="Trazado 102469" d="M350.412,375.776a.856.856,0,0,0-.083-.161.2.2,0,0,0-.032-.011Z" transform="translate(-350.298 -375.604)" fill="#c4c4c3"/>
                      </g>
                      <g id="Grupo_54707" data-name="Grupo 54707" transform="translate(0.002 0.001)">
                        <path id="Trazado_102470" data-name="Trazado 102470" d="M299.7,307.446c.259-.231.526-.268.8-.476a7.658,7.658,0,0,0,1.331-1.689c.267-.352,1.074-1.461,1.59-1.133-.021.164-.273.614-.12.773.19.2.53-.13.689-.157a3.67,3.67,0,0,0,.051,1.089c.51.067.513-.52.564-.867a2.76,2.76,0,0,1,.351-1.1,3.2,3.2,0,0,0,.437-.835,4.241,4.241,0,0,1,.266-1.028,12.084,12.084,0,0,1,1.3-1.633c.237-.287.562-.492.808-.76.277-.3.485-.646.751-.949.387-.442,1.139-1.384,1.82-1.286-.246.417-.872.664-1.091,1.1-.149.3-.014.342-.31.567-.228.174-.623.275-.566.64.17-.008.338-.034.419.114.331-.023.59-.492.829-.222.3.337-.287.61-.229.873.079.363.6-.3.677-.456a5.211,5.211,0,0,1,.348-.949,9.5,9.5,0,0,1,.961-.865,2.531,2.531,0,0,1,.825-.578,11.334,11.334,0,0,0,1.132-.54c.229-.139.478-.439.761-.4.006.006.036.067.041.075.169-.137.4-.265.573-.385s.36-.331.5-.417a15.62,15.62,0,0,1,1.7-.759c.326-.143.493-.465.808-.507.137-.018.19.062.377-.017.158-.067.264-.231.381-.3.243-.155,1.8-.382,1.6-.741-.178-.31-1.866-.007-2.185.01a14.584,14.584,0,0,0-1.688.193,32.243,32.243,0,0,0-13.208,8.022,42.637,42.637,0,0,0-3.173,3.826c-.269.366-.553.717-.822,1.072q-.477.721-.911,1.463a4.049,4.049,0,0,0-.292.926c.4-.361.849-.688,1.265-1.031C299.285,307.909,299.473,307.65,299.7,307.446Z" transform="translate(-293.668 -292.374)" fill="#3989b4"/>
                        <path id="Trazado_102471" data-name="Trazado 102471" d="M326.271,303.413c-.386-.119-.489.227-.78.326,0-.069-.011-.143-.017-.212a4.632,4.632,0,0,0-.555.037,1.73,1.73,0,0,1,0-.377c.026-.025.115-.052.153-.078.009-.058-.06-.092-.04-.149.176-.139.134-.2.153-.4-.028-.028-.087-.091-.114-.115-.147.048-.492.188-.547.219-.123.07-.373-.064-.363.251a3.236,3.236,0,0,0-.792.259c-.276.473.429.279.219.677a.874.874,0,0,0-.787-.079,1.745,1.745,0,0,1-.561.154c.124.44.026.384-.166.689-.051.081-.21.063-.287.168s.057.323-.023.433c-.27.37-1.317.426-.946,1.087.322-.292.677.145.957-.228.2.117.9-.474,1.041-.663.181-.236.142-.438.383-.586.072-.044.431.008.563-.044-.105.443-.87.779-.922,1.183-.062.49.288.231.474.118.1-.058.149-.691.407-.178.336-.119.858-.372.957-.731a.505.505,0,0,0,.506.215c.08-.318.47-.364.416-.781a1.349,1.349,0,0,1,.22.114.414.414,0,0,0-.051-.567C326.145,304.079,326.226,303.717,326.271,303.413Z" transform="translate(-302.795 -295.938)" fill="#3989b4"/>
                        <path id="Trazado_102472" data-name="Trazado 102472" d="M350.1,375.333a.882.882,0,0,0-.082-.16.2.2,0,0,0-.032-.011Z" transform="translate(-314.424 -324.854)" fill="url(#radial-gradient)"/>
                        <path id="Trazado_102473" data-name="Trazado 102473" d="M361.875,312.85a32.114,32.114,0,0,0-30.493-21.2,1.358,1.358,0,0,0-.588.507c-.176.319-.157.2.014.442s.969.2,1.1.383c.483.64-.678.4-.5.876-.2.086-1-.112-.471.431-.04.022-.108.024-.142.049.073.566.519.379.962.445.543.081.829.437.278.8.2.27.282.736-.154.79-.182-.519-.33.064-.508.022-.207-.048-.385-.2-.15-.473a1.556,1.556,0,0,1-.785-.111c.06-.031.177-.129.232-.158-.179-.02-.569.12-.693,0-.227-.212.05-.363.237-.4a2.151,2.151,0,0,1-.687-.184c.173-.167.436-.241.586-.459-.195-.232-.744-.164-1.018-.184a5.458,5.458,0,0,0-1.1-.157,2.734,2.734,0,0,0-1.994.97c-.5.688-1.234.673-1.939,1.152-.466.317-1.264,1.04-1.185,1.632.038.057.094-.032.109-.029-.167.681.874.281.571-.295.122.057.207.007.337.11.13-.164.666-1.159.8-.357.3-.023.33-.322.666-.268a9.787,9.787,0,0,0-.039,1.407c.5.13,1.235-.5,1.023-1,.6-.139.1-.723.266-1.11a2.717,2.717,0,0,1,.41-.5c.183-.147.21-.342.563-.276.057.379-.331.563-.266.95.635.061.569.44,1.246.137.4-.181.827-.4.8.317.383.139.826-.056,1.194.066.152.051.186.226.3.276.072.033.464.107.487.134.837.984-1.141.487-1.229.555-.2-.411-1-.093-1.155.22-.225.451.361.641-.354.656-.209,0-.274-.14-.567-.03-.192.072-.288.269-.5.357a6.791,6.791,0,0,1-.684.114,7.139,7.139,0,0,1-.682.272c-.372-.007-.658-.408-1.141-.273-.353.1-.31.253-.572.443-.225.164-.474.072-.669.2-.458.29-.236.834-.51,1.2-.117.155-.352.154-.487.311s-.12.407-.281.576a1.939,1.939,0,0,1-.661-.1c-.29.4-1.068-.126-1.314.5a1.762,1.762,0,0,1,.215.021c-.083.087-.1.244-.158.32.988-.034.475,1.088-.064,1.384-.195-.206-.643.15-.911.217-.107.027-.139.172-.226.18-.115.011-.143-.134-.229-.123-.277.034-.471.122-.663-.065a2.051,2.051,0,0,0-.477.752,3.235,3.235,0,0,0-.24,1.013c-.081.571-1.023,1.808.228,1.594a5.24,5.24,0,0,0,.864-.454c.116-.054.133-.222.228-.265s.248.038.345-.006a1.83,1.83,0,0,0,.571-.286c.23-.217.386-.465.611-.7a2.338,2.338,0,0,0,.537-.832c1.206.055.267-.846,1.028-1.136.393-.15.6.223,1-.024.18-.113.131-.346.282-.46s.3-.039.46-.11c.389-.169.4-.293.866-.159.119.034.209.173.342.228s.307-.009.471.043c.336.108,1.475,1.008,1.572.08-.472-.024-1.429-.187-1.237-.854,1.1-.466,1.725.361,2.5.845a2.337,2.337,0,0,1,.926.841c.2.44-.024,1.019.718.86a2.87,2.87,0,0,0,.1-.379c0-.033-.069-.083-.083-.111.473-.217.023-.319-.006-.527-.016-.12-.2-.052-.134-.3.025-.1.362-.084.4-.222.1-.34-.467-.349.069-.571.3-.123.682-.028.522.34a.381.381,0,0,1,.227.461c.069,0,.143.013.211.017.087.366-.139,1.021.284,1.2a1.668,1.668,0,0,0,.019.266c.5.072.794-.192,1.244-.334a3.247,3.247,0,0,1,1.2-.284c.248.051.188.295.456.275.174-.013.355-.336.5-.4.709-.344.37.152.621.589a1.043,1.043,0,0,1-.233-.055c.17.143.384.258.534.382a6.5,6.5,0,0,1-.857-.045c.21.054.782.21.757.618a2.609,2.609,0,0,0,.335.006c0,.056-.008.111-.011.164a1.451,1.451,0,0,0-.113.172c-.085,0-.184.019-.268.017,0,.253-.169.342-.4.325-.028-.048-.051-.1-.079-.154-.266.186-1.52.732-1.592.285-.184-.011-.258-.1-.433-.018a.539.539,0,0,0-.531-.328c-.163.217-.039.472-.15.638-.142.211-.4.222-.521.482a.372.372,0,0,1-.021.519c-.431-.022-.3-.442-.569-.608-.115-.07-.26.036-.387-.011a4.023,4.023,0,0,0-.557-.243c-1.122-.154-.042,1.166-.853,1.261-.112-.092-2.107.9-1.9.135-.6-.07-.055-.351-.205-.584-.189-.292-.55-.126-.812-.111-.328.017-1.762.073-1.262-.731-.069-.017-.138-.06-.212-.078.1-.46-.111-.6-.3-.95-.315-.146-.455.126-.732.219a3.632,3.632,0,0,1-.924.071c-.388,0-1.36-.065-1.592.432a2.769,2.769,0,0,0-1.53.806c-.387.287-.324.312-.751.184-.263-.079-.63-.473-.8-.021-.334-.068-.421.117-.617.295a5.506,5.506,0,0,0-.555.528c-.239.385-.267,1.209-.745,1.419.036.314-.36.625-.523.843a1.87,1.87,0,0,1-.9.7c.027.3-.462.747-.689.944.072.018.137.066.216.081-.079.442-.74.835-.9,1.292.095-.019.23.031.326.017-.037.33.226.592.055.893-.423-.027-.532.4-.893.475.069.187-.043.175.154.287a2.013,2.013,0,0,0-.282,1.016c.083.473.317.451.133.97-.242.676-.782,1.118-.8,1.812.067,0,.142.016.209.018a.705.705,0,0,1,.19.551c.079-.009.189.029.266.019a.645.645,0,0,1-.04.661.77.77,0,0,0,.278.4c.025-.062.091-.148.123-.211.57-.084.751.822,1.028,1.187a5.422,5.422,0,0,1,.443.687c.13.223.173.556.283.739.163.27.416.289.619.509.275.3.137.547.636.629.457.075,1.335-.158,1.319-.732.339-.09.429.211.678.218.264.006.354-.11.626-.112.393,0,.9.441,1.031-.334.35,0,.5-.31.734-.507.269-.226.672-.237.9-.428.388-.326.457-1.57,1.028-.83.021.051,0,.1.018.152.588-.072.823.729,1,1.1.068.143.141.763.181.788.3.192.689-.151.7-.451.249-.068.329.149.55.094.181-.046.277-.27.524-.33a1.283,1.283,0,0,1,.639.044c.367.164.131.134.326.411a2.251,2.251,0,0,1,.519,1.083c.046.51-.32.932-.346,1.425a1.075,1.075,0,0,0,.529.953c.305.262.439.5.781.769.393.313,2.295.5,1.546,1.167.788.033.18.52.376.886a.678.678,0,0,0,.049.078c-.2.37-.231.854.357.941a4.461,4.461,0,0,0,.013.619c0,.089-.193.154-.179.222.029.133.273.228.279.3a1.36,1.36,0,0,1-.4.995c-.3.4-.56.5-.713.984a1.093,1.093,0,0,0-.116.5c0-.027.1.7.1.7.141.319.8.512,1.126.64.473.188.588.51.913.682.189.1.427,0,.639.045s.358.184.57.228c.557.113.967-.036.455.513-.158.17-.453.114-.446.446.593.278-.661.9-.137,1.391.2.19.607.069.8.266.216.218.013.672.4.869a1.649,1.649,0,0,1,.017.266c.189.116.1.06.228.228a1.412,1.412,0,0,1,.822.646c.117.046.061.116.142.275.027.051-.079.185-.048.272s.2.046.22.109a2.245,2.245,0,0,1,.119.92c.451.06.925.14.911.684.454.06.361-.448.492-.732a2.977,2.977,0,0,1,.512-.7c.327-.392.111-.3.64-.44.336-.092.673-.107.692-.561a4.692,4.692,0,0,0,1.9-.678,1.654,1.654,0,0,0,.829-.6c.284-.442.044-.479.105-.887-.546-.2.089-.872-.554-.993.187-.66,1.34-.231,1.426-.832a1.908,1.908,0,0,0,.945-.538.809.809,0,0,0,.184-.963c-.089-.183-.25-.321-.343-.506-.084-.165.072-.165-.157-.408-.281-.3-.73-.184-.821-.614-.12-.564.539-.5.926-.624.629-.194.5-.475.9-.914.145-.163.428-.162.531-.3.141-.187.048-.518.163-.722.1-.185.307-.2.4-.463a1.739,1.739,0,0,0,.1-.5c-.1-.1.052-.649.011-.92-.063-.416-.314-.725-.182-1.129-.078-.017-.13-.058-.208-.077.232-.625-.4-.672-.808-.788l-.02-.007c-.016-.034-.031-.066-.047-.093a3.259,3.259,0,0,0-.5-.626c-.209-.217-.5-.255-.578-.574-.308-.1-1.708.169-1.117-.623.195-.26.6-.122.842-.241.376-.185.28-.17.408-.616.119.049.308,0,.436.037.157-.342-.023-.823.133-1.132.075-.149.378-.263.5-.4a1.235,1.235,0,0,0,.289-.511,2.307,2.307,0,0,1,.613-.913,1.025,1.025,0,0,0,.461-.958c-.083,0-.186-.025-.267-.017-.036-.31.255-.432.284-.723.749-.15.32-.732.558-1.151.118-.207.474-.228.561-.407.113-.233-.172-.531-.093-.833a1.363,1.363,0,0,0,1.179-1.267c-.049-.022-.1-.039-.155-.063-.022-.567.462-1.06.576-1.643.1-.5.457-1.367.2-1.813-.566-.088-.344.595-.571.832-.28.292-.9-.08-.909.458-.507.055-.626.745-1.087.908-.416.148-1.183-.181-1.193.631-.542-.069-2,.8-2.2-.039.262-.114,1.425-.745.452-.818a.631.631,0,0,0-.072-.606c-.658-.094-.822.793-1.2-.115-.222-.005-.393.03-.609.04.029-.542-.1-.558-.407-.892-.2-.217-.152-.02-.286-.363a5.816,5.816,0,0,1-.122-.836,1.568,1.568,0,0,1-.861-.336c-.111-.132-.022-.384-.108-.476-.138-.146-.352-.092-.5-.165-.539-.26-1.082-.36-1.644-.638.229-.587-.7-.409-.966-.569-.567-.349-.3-.675.1-.845.32-.133,1.013.061.839-.269-.26-.493-.722-.1-1.115-.194-.226-.412.316-.665.862-.92.29.143.516.579.666.758.176.208.625.428.578.788a.641.641,0,0,1,.685.4,4.6,4.6,0,0,1,2.1.752c.354.159,2.006.736,2,.957.742.082.568.683.454,1.2.572.03-.17.9.561,1.147a2.35,2.35,0,0,0,1.652-.228,7.69,7.69,0,0,1,.969-.285c.162-.041.37-.017.513-.128.265-.2.057-.232.168-.383.308-.419.871-.663,1.261-1.084-.343-.351.281-.773.388-1.144-.635-.012-.515-.709-.4-1.126-.1.033-.29,0-.383.039,0-.2.546-1.794-.284-1.024.032-.513-.269-.274-.523-.336-.434-.106-.284.09-.451-.4-.124-.363-.284-1.173-.848-1.016-.166.408-.075,1.166-.809,1.073-.246-.031-.234-.3-.453-.347-.3-.065-.358.142-.642.005-.334-.16-.563-.747-.784-.97-.292-.294-.954-.371-.691-.958-.587-.078-.26-1.07.353-.869.409.134.322.848,1.013.582.025.432-.016.505.237.733.191.172.429.02.579.388.428.127.64-.347,1.063-.322a2.689,2.689,0,0,0,.761.619,3.409,3.409,0,0,0,1.175-.014c.207-.084.128-.341.309-.432s.34.026.5-.007c.35-.072.956-.355.808.385a3.824,3.824,0,0,1,.86.136c.523.035.408-.108.775.281-.066.581,1.629.692,2.045.625.251.278.738.186.651.666.39.165.045.371.149.637.114.295.275.219.57.472.074.063.1.254.121.27a2.136,2.136,0,0,0,.346.167,1.061,1.061,0,0,1,.237.79,1.19,1.19,0,0,1,.9,1.207c0,.254-.178.48-.072.7.166.345.4.16.626.341.481.378.284.8.7,1.091v-4.37c-.475-.169.1-.7-.187-1.052-.2-.246-.917-.267-1.169-.483a1.693,1.693,0,0,1-.3-.5c-.11-.183-.427-.21-.276-.558.084-.193.389-.1.5-.3.123-.211-.017-.5.066-.734.08.011.188-.025.268-.017.02-.333-.12-.877.4-.723-.059.422.064,1.111.569,1.084.227.457-.3.7.108,1.088.168.158.452.014.6.2.1.122.046.474.05.632.564.239.6.988,1.292.856-.043-.181-.019-.3-.169-.447.39-.4.3.243.36.343.112.187.309.322.39.566.071.213-.007.545.039.759.051.236.246.331.2.658C360.354,311.813,361.433,312.784,361.875,312.85Zm-26.814-9.757c-.584-.652-.422.388-.753.563-.314.166-.526-.166-.787-.219-.235-.048-.511.065-.742-.008-.448-.142-.653-.54-1.021-.8-.307-.217-.381-.032-.533-.342-.06-.122.449-.29-.032-.392a1.22,1.22,0,0,0-.017-.267c-.342-.04-1.013.364-1.082-.057a10.591,10.591,0,0,1-1.125-.017c.161-.689.825-.707,1.42-.788.522-.073,1.153-.242,1.649-.329.154-.028.6-.18.68-.174.266.02.426.211.673.289.307.1.388.047.656-.116.119-.072.267-.6.5-.184l.285.114c.069.078.142.076.122.219.069.008.142.013.21.017.016.087.041.192.058.266-.09.057-.092.114-.157.173.136.009.208.091.329.117-.064.36-1.263.323-.505.689.476.229,1.148-.072,1.646.008-.026.067-.027.152-.044.21.245-.025.334.024.4.227l.095.019C337.091,303.471,335.213,302.2,335.061,303.093Zm5.082.448c-.628-.3-.467-.523-.582-1.127-.107-.567-.787-.684-.749-1.244-.352-.029-.729-.139-.627-.57-.427.1-.5-.181-.666-.419.037-.275.262-.737-.117-.855.195-.335.489-.387.345-.832.4-.029.569-.4.95-.475-.01-.078.027-.187.019-.267a7.947,7.947,0,0,1,.839,0c.049.1-.042.065-.049.1l.057.342c.361.655-.966.884-.87,1.441.137.792,1.3.814,1.944.846a.536.536,0,0,0,.27.618c-.743.4.483.818.812.806-.008.081.028.188.017.268.3,0,.55-.2.836-.039-.158.721.718.438.245,1.178a.832.832,0,0,1,.685.354C342.676,304.471,341,303.947,340.143,303.541Z" transform="translate(-299.612 -291.644)" fill="#3989b4"/>
                        <path id="Trazado_102474" data-name="Trazado 102474" d="M367.808,363.006a.784.784,0,0,0,.931-.228c.109-.113.133-.328.226-.416.118-.112.368-.1.461-.222.11-.139-.005-.383.107-.506.143-.156.38-.075.531-.211.323-.292.143-.557.214-.969.115-.678.827-.728,1.422-1.055.26-.143.658-.281.471-.61-.17-.3-.57-.037-.9-.123.067-.516.2-.581-.456-.684a.546.546,0,0,1,.555-.626c-.073-.149-.007-.293-.043-.439.572-.013.449-.76.5-1.093A5.685,5.685,0,0,0,372,355.2c.017-.22-.09-.46-.072-.614.045-.4.377-2.134-.431-2.358a2.239,2.239,0,0,0-.295-.332l-.342.057c.484.62.22.654-.058,1.2-.184.359.033.939-.211,1.268-.141.189-.477.227-.645.384a2.732,2.732,0,0,0-.41.626c-.088.171-.133.5-.225.628-.185.266-.462.285-.672.482-.467.436-.3.754-.186,1.241a3.152,3.152,0,0,1,.017,1.3c-.048.224-.169.461-.231.683,0,.017-.149.371-.162.3.021.12.219.264.222.315a4.323,4.323,0,0,1-.231,1.325C367.967,362.077,368.044,362.689,367.808,363.006Z" transform="translate(-321.51 -315.602)" fill="#3989b4"/>
                        <path id="Trazado_102475" data-name="Trazado 102475" d="M303.649,366.9c-.133-.155-.237-.454-.369-.64a13.615,13.615,0,0,0-.823-1.113c-.348-.4-.878-.685-1.085-1.155-.186-.419-.172-1.1-.717-1.264.067-.432-.323-.623-.246-1.063a1.513,1.513,0,0,1-.675-.465,1.879,1.879,0,0,1-.3-.784c-.031-.106-.219-.181-.26-.343,0,.006.1-.333.1-.355.1-.346.027-.4.4-.573.338-.157.463.153.626-.278a1.566,1.566,0,0,0-.186-.73c-.242-.551-.245-.9-.9-.949-.27-.184-.145-.351-.238-.6a10.815,10.815,0,0,1-.387-1.138c-.051-.2.012-.573-.11-.743s-.346-.125-.476-.266c-.451-.493-.145-.516.13-.813a.956.956,0,0,0,.273-.445s-.126-.151-.094-.241c.04-.111.228-.112.264-.179a3,3,0,0,0,.482-1.172c.032-.455-.254-.728-.3-1.154-.053-.5.189-.666-.356-1.069-.264-.195-.957-.287-1.021-.575-.4-.087-.959.463-.969-.227-.631-.192-.572.62-1.12.495-.129-.348-.523-1.216-.911-1.311-.07-.37.42-1.346-.343-1.2-.005-.2-.011-.41-.017-.608-.16-.1-.125-.043-.163-.237-.134-.693.34-1.812-.441-2.293-.339-.208-.725.12-1.084-.168-.308-.248-.281-.938-.228-1.29a2.008,2.008,0,0,0-.186-1.321c-.186-.48-.044-.822-.169-1.31-.194-.754-.287-1.482-.455-2.287a32.108,32.108,0,0,0,12.331,30.3c.219.017.439.018.638.022C304.076,367.15,303.828,367.106,303.649,366.9Z" transform="translate(-290.948 -309.692)" fill="#3989b4"/>
                        <path id="Trazado_102476" data-name="Trazado 102476" d="M363.114,384.543v-.076a1.6,1.6,0,0,1-.334.645.956.956,0,0,0-.313.539,1.389,1.389,0,0,1-.154.334s-.208.286-.186.269c-.143.109-.357.133-.495.27-.217.219-.173.311-.495.456a3.027,3.027,0,0,1-.684.289c-.6.092-.527-.682-1.057-.594-.076.169-.294.171-.455.254-.161-.272-.377-.148-.608-.1a1.747,1.747,0,0,1-1.071.934c-.373.086-.312-.054-.645-.1a.958.958,0,0,0-.42.086c-.155.105-.1.208-.227.3-.207.146-.43.155-.645.294a3.562,3.562,0,0,1-.654.455c-.338.123-.652.1-.981.246a5.082,5.082,0,0,0-.872.29.63.63,0,0,0-.412-.142c.013.063-.022.154-.011.217-.2,0-.293.166-.449.273-.093.062-.183.03-.275.1a.519.519,0,0,0-.175.228c.242.048.137.137.1.3,0-.019-.238.349-.228.342-.255.178-.863.143-.988-.177-.153.152-.438.19-.53.369a5.589,5.589,0,0,0-.6-.222c-.369-.059-.445.126-.72.221-.431.149-.876-.136-1.287-.036-.034-.345-.37-.3-.316.037a.888.888,0,0,0-.5.076.562.562,0,0,0-.558.01c-.386-.383-1.489.479-1.826.752-.075.061-.07.208-.148.28s-.19.083-.267.151c-.131.115-.234.233-.371.339-.084.066-.209.167-.327.251a31.933,31.933,0,0,0,19.677-6.159c.056-.04.11-.083.166-.123a2.549,2.549,0,0,1,.071-.511c.045-.139.527-.484.081-.5.227-.163.083-.244.119-.409S363.195,384.708,363.114,384.543Z" transform="translate(-311.619 -328.554)" fill="#3989b4"/>
                        <path id="Trazado_102477" data-name="Trazado 102477" d="M322.8,301.256s.749-.347.8-.386c.248-.193.067-.6.557-.523.273-.491.561-.767.817-1.234.141-.022.183-.118.275-.18l.285-.285a6.6,6.6,0,0,1-1.423.672c-.253.057-.441.008-.682.071-.566.148-.285.178-.516.567C322.765,300.2,322.013,301.167,322.8,301.256Z" transform="translate(-303.473 -294.429)" fill="#3989b4"/>
                      </g>
                      <g id="Grupo_54709" data-name="Grupo 54709">
                        <g id="Grupo_54708" data-name="Grupo 54708" clip-path="url(#clip-path)">
                          <path id="Trazado_102478" data-name="Trazado 102478" d="M241.471,302.569a27.628,27.628,0,1,1-38.6-6.028A27.628,27.628,0,0,1,241.471,302.569Z" transform="translate(-251.412 -291.477)" opacity="0.5" fill="url(#radial-gradient-2)" style="mix-blend-mode: overlay;isolation: isolate"/>
                          <path id="Trazado_102479" data-name="Trazado 102479" d="M241.046,306.176a24.742,24.742,0,1,1-34.571-5.4A24.742,24.742,0,0,1,241.046,306.176Z" transform="translate(-253.317 -293.382)" opacity="0.5" fill="url(#radial-gradient-3)" style="mix-blend-mode: overlay;isolation: isolate"/>
                        </g>
                      </g>
                    </g>
                  </g>
                </g>
                <path id="Trazado_102481" data-name="Trazado 102481" d="M318.143,293.724a19.661,19.661,0,0,0-10.112,11.482c-3.736,11.885,5.518,25.38,20.668,30.143,13.693,4.3,27.515,0,32.806-9.644a32.075,32.075,0,0,0-43.362-31.981Z" transform="translate(-297.409 -291.647)" fill="#e9f8ff" opacity="0.4" style="mix-blend-mode: overlay;isolation: isolate"/>
              </g>
            </g>
          </g>
        </g>
      </g>
    </g>
  </g>
</svg>
