<svg xmlns="http://www.w3.org/2000/svg" width="88.06" height="121.689" viewBox="0 0 88.06 121.689">
  <g id="Grupo_54528" data-name="Grupo 54528" transform="translate(-726 -2679)">
    <g id="Grupo_54527" data-name="Grupo 54527" transform="translate(-250.009 1067.855)">
      <path id="Trazado_102120" data-name="Trazado 102120" d="M1064.069,1732.834h-88.06V1611.145h67.258l20.8,20.318Zm-84.942-3.118h81.824v-96.941L1042,1614.263H979.127Z" fill="#ff0062"/>
      <path id="Trazado_102121" data-name="Trazado 102121" d="M1061.354,1636.914h-21.9V1612.7h3.118V1633.8h18.78Z" fill="#ff0062"/>
      <g id="Grupo_54526" data-name="Grupo 54526">
        <path id="Trazado_102122" data-name="Trazado 102122" d="M1035.431,1689.421h5.918a1.492,1.492,0,1,0,0-2.983h-5.918v-3.978h10.515a4.1,4.1,0,0,0,4.1-4.1v-4.33a1.492,1.492,0,1,0-2.984,0v4.33a1.133,1.133,0,0,1-1.128,1.128h-10.5v-3.978h5.918a1.492,1.492,0,0,0,0-2.984h-5.918v-5.47a1.491,1.491,0,0,0-1.492-1.492h-5.47v-5.737a1.492,1.492,0,0,0-2.984,0v5.774h-3.978v-10.37a4.1,4.1,0,0,0-4.1-4.1h-4.33a1.486,1.486,0,1,0,0,2.972h4.33a1.133,1.133,0,0,1,1.128,1.128v10.358h-3.978v-5.762a1.492,1.492,0,0,0-2.984,0v5.774h-5.47a1.491,1.491,0,0,0-1.491,1.492v5.47H999.19a1.492,1.492,0,1,0,0,2.983h5.47v3.954H994.593a4.1,4.1,0,0,0-4.1,4.1v4.33a1.486,1.486,0,0,0,2.971.012v-4.33a1.134,1.134,0,0,1,1.128-1.128h10.055v3.978H999.19a1.492,1.492,0,1,0,0,2.984h5.47v5.47a1.491,1.491,0,0,0,1.492,1.491h5.47v5.471a1.492,1.492,0,0,0,2.984,0v-5.471h3.978v10.055a4.1,4.1,0,0,0,4.1,4.1h4.33a1.492,1.492,0,1,0,0-2.984h-4.33a1.134,1.134,0,0,1-1.128-1.128V1696.4h3.979v5.47a1.491,1.491,0,1,0,2.983,0v-5.47h5.47a1.49,1.49,0,0,0,1.492-1.491v-5.483Zm-2.972,3.979H1007.62v-24.828h24.839Z" fill="#ff0062"/>
        <path id="Trazado_102123" data-name="Trazado 102123" d="M1012.653,1689.858h14.785a1.491,1.491,0,0,0,1.492-1.492v-14.773a1.491,1.491,0,0,0-1.492-1.491h-14.785a1.491,1.491,0,0,0-1.492,1.491v14.785A1.481,1.481,0,0,0,1012.653,1689.858Zm1.48-14.773h11.813V1686.9h-11.813Z" fill="#ff0062"/>
      </g>
    </g>
  </g>
</svg>
