<svg xmlns="http://www.w3.org/2000/svg" width="259.754" height="304.657" viewBox="0 0 259.754 304.657">
  <g id="Grupo_53574" data-name="Grupo 53574" transform="translate(-201.205 -3770.217)">
    <g id="Grupo_53551" data-name="Grupo 53551" transform="translate(201.205 3827.341)">
      <g id="Grupo_53542" data-name="Grupo 53542" transform="translate(14.417 27.403)">
        <g id="Grupo_53540" data-name="Grupo 53540" transform="translate(0.033)">
          <path id="Trazado_98971" data-name="Trazado 98971" d="M293.453,3916.165s-.9-27.2-25.762-43.038-50.311-4.122-50.311-4.122,2.576,23.589,26.243,42.49S293.453,3916.165,293.453,3916.165Z" transform="translate(-217.38 -3864.834)" fill="#0dcece"/>
        </g>
        <g id="Grupo_53541" data-name="Grupo 53541" transform="translate(0 0.139)">
          <path id="Trazado_98972" data-name="Trazado 98972" d="M248.9,3915.237l-1.641-.978,24.612-10.893-25.082-15.549-18.066,7.918-.905-1.24,17.486-7.6-27.871-17.278-.086-.559,1.047-.537,16.293,10.1-1.2-13.506,1.432-.128,1.3,14.581,23.391,14.5,1.683-24.432,1.589.762-1.891,24.526,32.461,20.124,0,1.131-.456.281-19.65-12.182Z" transform="translate(-217.343 -3864.99)" fill="#0991a1"/>
        </g>
      </g>
      <g id="Grupo_53546" data-name="Grupo 53546" transform="translate(0 54.161)">
        <g id="Grupo_53544" data-name="Grupo 53544" transform="translate(0.008)">
          <g id="Grupo_53543" data-name="Grupo 53543">
            <path id="Trazado_98973" data-name="Trazado 98973" d="M290.719,3917.794s-15.1-22.645-44.574-23-44.931,23.007-44.931,23.007,14.619,18.691,44.694,22.284S290.719,3917.794,290.719,3917.794Z" transform="translate(-201.214 -3894.787)" fill="#11afb7"/>
          </g>
        </g>
        <g id="Grupo_53545" data-name="Grupo 53545" transform="translate(0 0.209)">
          <path id="Trazado_98974" data-name="Trazado 98974" d="M252.354,3940.493l-1.91.034,15.178-22.227H236.112l-11.181,16.25-1.423-.577,10.857-15.672-32.792,0-.368-.43.607-1.008h19.17l-8.14-10.844,1.15-.863,8.788,11.707H250.3l-11.444-21.652,1.752-.19,11.316,21.842,38.192,0,.6.958-.24.479h-23.12Z" transform="translate(-201.205 -3895.021)" fill="#0991a1"/>
        </g>
      </g>
      <g id="Grupo_53550" data-name="Grupo 53550" transform="translate(43.311)">
        <g id="Grupo_53548" data-name="Grupo 53548" transform="translate(0.495 0.47)">
          <g id="Grupo_53547" data-name="Grupo 53547">
            <path id="Trazado_98975" data-name="Trazado 98975" d="M297.255,3912.906s12.452-24.2-1.561-50.135-41.945-28.085-41.945-28.085-9.23,21.86,2.247,49.89S297.255,3912.906,297.255,3912.906Z" transform="translate(-250.24 -3834.686)" fill="#0991a1"/>
          </g>
        </g>
        <g id="Grupo_53549" data-name="Grupo 53549">
          <path id="Trazado_98976" data-name="Trazado 98976" d="M258.009,3889.856l-.958-1.653,26.8,2.462-14.344-25.79L249.874,3863l-.187-1.524,18.973,1.872-15.939-28.658.2-.531,1.176.041,9.318,16.754,5.521-12.385,1.313.585-5.96,13.37,13.377,24.052,13.36-20.525,1.017,1.439L278.453,3878l18.564,33.377-.547.989-.535.023L284.7,3892.182Z" transform="translate(-249.687 -3834.16)" fill="#0b686d"/>
        </g>
      </g>
    </g>
    <ellipse id="Elipse_5469" data-name="Elipse 5469" cx="116.821" cy="11.355" rx="116.821" ry="11.355" transform="translate(227.318 4003.916)" opacity="0.15"/>
    <ellipse id="Elipse_5470" data-name="Elipse 5470" cx="68.31" cy="8.546" rx="68.31" ry="8.546" transform="translate(267.227 4057.781)" opacity="0.15"/>
    <g id="Grupo_53555" data-name="Grupo 53555" transform="translate(322.424 3770.217)">
      <g id="Settings" transform="translate(44.986)">
        <g id="Grupo_53552" data-name="Grupo 53552">
          <path id="Trazado_98977" data-name="Trazado 98977" d="M389.492,3808.739a1.5,1.5,0,0,0,1.941.665l.306-.128a6.015,6.015,0,0,1,6.438,1.426,5.953,5.953,0,0,1,1,6.8,1.493,1.493,0,0,0,.583,1.964,26.787,26.787,0,0,0,5.6,2.45,1.5,1.5,0,0,0,1.832-.887,6.2,6.2,0,0,1,5.667-3.8,5.972,5.972,0,0,1,5.488,4.027,1.5,1.5,0,0,0,1.794.958,26.78,26.78,0,0,0,5.636-2.186,1.492,1.492,0,0,0,.666-1.938,5.959,5.959,0,0,1,1.3-6.748,6.183,6.183,0,0,1,6.792-1,1.494,1.494,0,0,0,1.967-.583,26.711,26.711,0,0,0,2.422-5.54,1.491,1.491,0,0,0-.879-1.83,5.974,5.974,0,0,1-3.788-5.661,5.892,5.892,0,0,1,3.837-5.422,1.777,1.777,0,0,0,1.17-1.865,26.91,26.91,0,0,0-2.2-5.7,1.461,1.461,0,0,0-1.922-.674,6.211,6.211,0,0,1-6.76-1.291,5.953,5.953,0,0,1-1.005-6.8,1.5,1.5,0,0,0-.583-1.964,26.718,26.718,0,0,0-5.6-2.449,1.5,1.5,0,0,0-1.83.887,6.212,6.212,0,0,1-5.664,3.8,5.979,5.979,0,0,1-5.492-4.029,1.5,1.5,0,0,0-1.794-.958,26.806,26.806,0,0,0-5.635,2.186,1.49,1.49,0,0,0-.667,1.938,5.967,5.967,0,0,1-1.293,6.748,6.191,6.191,0,0,1-6.794,1,1.5,1.5,0,0,0-1.965.579,26.644,26.644,0,0,0-2.429,5.541,1.493,1.493,0,0,0,.88,1.832,5.933,5.933,0,0,1-.082,11.1,1.749,1.749,0,0,0-1.136,1.855A26.893,26.893,0,0,0,389.492,3808.739Zm15.4-9.215a8.962,8.962,0,1,1,11.581,5.146A8.971,8.971,0,0,1,404.893,3799.524Z" transform="translate(-387.251 -3770.217)" fill="#ff0062"/>
        </g>
      </g>
      <g id="Settings-2" data-name="Settings" transform="translate(0 17.864)">
        <g id="Grupo_53553" data-name="Grupo 53553">
          <path id="Trazado_98978" data-name="Trazado 98978" d="M338.653,3820.436a1.173,1.173,0,0,0,1.522.522l.241-.1a4.718,4.718,0,0,1,5.05,1.118,4.67,4.67,0,0,1,.786,5.333,1.17,1.17,0,0,0,.458,1.54,21.05,21.05,0,0,0,4.394,1.923,1.178,1.178,0,0,0,1.436-.7,4.865,4.865,0,0,1,4.446-2.983,4.683,4.683,0,0,1,4.306,3.16,1.173,1.173,0,0,0,1.408.751,20.975,20.975,0,0,0,4.421-1.714,1.171,1.171,0,0,0,.524-1.521,4.676,4.676,0,0,1,1.018-5.295,4.852,4.852,0,0,1,5.329-.783,1.172,1.172,0,0,0,1.544-.457,20.916,20.916,0,0,0,1.9-4.346,1.171,1.171,0,0,0-.69-1.437,4.688,4.688,0,0,1-2.972-4.442,4.623,4.623,0,0,1,3.011-4.253,1.4,1.4,0,0,0,.918-1.464,21.071,21.071,0,0,0-1.73-4.471,1.146,1.146,0,0,0-1.508-.528,4.874,4.874,0,0,1-5.3-1.012,4.671,4.671,0,0,1-.788-5.332,1.173,1.173,0,0,0-.458-1.54,20.941,20.941,0,0,0-4.393-1.922,1.175,1.175,0,0,0-1.437.7,4.872,4.872,0,0,1-4.444,2.983,4.692,4.692,0,0,1-4.31-3.161,1.173,1.173,0,0,0-1.407-.751,21.053,21.053,0,0,0-4.421,1.714,1.17,1.17,0,0,0-.523,1.521,4.68,4.68,0,0,1-1.014,5.293,4.857,4.857,0,0,1-5.331.786,1.173,1.173,0,0,0-1.542.455,20.828,20.828,0,0,0-1.906,4.346,1.17,1.17,0,0,0,.691,1.438,4.655,4.655,0,0,1-.065,8.706,1.372,1.372,0,0,0-.892,1.455A21.1,21.1,0,0,0,338.653,3820.436Zm12.083-7.23a7.031,7.031,0,1,1,9.087,4.038A7.04,7.04,0,0,1,350.736,3813.206Z" transform="translate(-336.895 -3790.213)" fill="#3366c2"/>
        </g>
      </g>
      <g id="Settings-3" data-name="Settings" transform="translate(36.298 57.001)">
        <g id="Grupo_53554" data-name="Grupo 53554">
          <path id="Trazado_98979" data-name="Trazado 98979" d="M378.952,3858.536a.951.951,0,0,0,1.235.423l.2-.082a3.827,3.827,0,0,1,4.1.908,3.789,3.789,0,0,1,.638,4.325.948.948,0,0,0,.372,1.249,16.972,16.972,0,0,0,3.563,1.559.955.955,0,0,0,1.166-.563,3.944,3.944,0,0,1,3.606-2.419,3.8,3.8,0,0,1,3.493,2.563.951.951,0,0,0,1.142.61,17.045,17.045,0,0,0,3.586-1.391.949.949,0,0,0,.424-1.233,3.79,3.79,0,0,1,.826-4.293,3.934,3.934,0,0,1,4.322-.636.95.95,0,0,0,1.252-.371,16.987,16.987,0,0,0,1.542-3.525.949.949,0,0,0-.56-1.165,3.8,3.8,0,0,1-2.41-3.6,3.748,3.748,0,0,1,2.442-3.449,1.133,1.133,0,0,0,.744-1.187,17.087,17.087,0,0,0-1.4-3.626A.928.928,0,0,0,408,3842.2a3.953,3.953,0,0,1-4.3-.821,3.788,3.788,0,0,1-.64-4.325.951.951,0,0,0-.372-1.25,16.947,16.947,0,0,0-3.564-1.559.953.953,0,0,0-1.165.564,3.951,3.951,0,0,1-3.6,2.419,3.8,3.8,0,0,1-3.495-2.564.953.953,0,0,0-1.142-.609,17.11,17.11,0,0,0-3.586,1.391.948.948,0,0,0-.424,1.234,3.8,3.8,0,0,1-.823,4.293,3.94,3.94,0,0,1-4.324.637.951.951,0,0,0-1.25.369,16.9,16.9,0,0,0-1.546,3.525.95.95,0,0,0,.56,1.166,3.775,3.775,0,0,1-.052,7.06,1.113,1.113,0,0,0-.724,1.181A17.121,17.121,0,0,0,378.952,3858.536Zm9.8-5.864a5.7,5.7,0,1,1,7.37,3.274A5.709,5.709,0,0,1,388.752,3852.672Z" transform="translate(-377.526 -3834.022)" fill="#698cf2"/>
        </g>
      </g>
    </g>
    <g id="Grupo_53566" data-name="Grupo 53566" transform="translate(255.418 3878.204)">
      <g id="Grupo_53556" data-name="Grupo 53556" transform="translate(0 10.004)">
        <rect id="Rectángulo_5055" data-name="Rectángulo 5055" width="145.55" height="89.569" transform="translate(16.794 11.196)" fill="#faf9f9"/>
        <path id="Trazado_98980" data-name="Trazado 98980" d="M268.156,3915.156v101.9a2.8,2.8,0,0,0,2.8,2.8H433.3a2.8,2.8,0,0,0,2.8-2.8v-101.9a12.893,12.893,0,0,0-12.894-12.863H281.055A12.9,12.9,0,0,0,268.156,3915.156Zm153.947,87.9H282.151a2.8,2.8,0,0,1-2.8-2.8v-83.971a2.8,2.8,0,0,1,2.8-2.8H422.1a2.8,2.8,0,0,1,2.8,2.8v83.971A2.8,2.8,0,0,1,422.1,4003.058Z" transform="translate(-262.558 -3902.293)" fill="#3c415e"/>
        <path id="Trazado_98981" data-name="Trazado 98981" d="M264.689,4027.62h173.54a2.8,2.8,0,0,1,2.8,2.8h0a11.219,11.219,0,0,1-11.207,11.207H273.1a11.219,11.219,0,0,1-11.207-11.207h0A2.8,2.8,0,0,1,264.689,4027.62Z" transform="translate(-261.89 -3915.659)" fill="#afb9ca"/>
        <path id="Trazado_98982" data-name="Trazado 98982" d="M371.343,4033.218H348.951a5.6,5.6,0,0,1-5.6-5.6h33.589A5.6,5.6,0,0,1,371.343,4033.218Z" transform="translate(-270.578 -3915.659)" fill="#faf9f9"/>
      </g>
      <g id="Grupo_53564" data-name="Grupo 53564" transform="translate(0.001)">
        <g id="Grupo_53563" data-name="Grupo 53563" transform="translate(0 7.786)">
          <g id="Grupo_53557" data-name="Grupo 53557" transform="translate(32.57 24.709)">
            <path id="Trazado_98983" data-name="Trazado 98983" d="M379.409,3942.912h0a8.143,8.143,0,0,0,8.143-8.143v-7.3H371.266v7.3A8.143,8.143,0,0,0,379.409,3942.912Z" transform="translate(-306.126 -3927.469)" fill="#ba353f"/>
            <path id="Trazado_98984" data-name="Trazado 98984" d="M342.95,3942.912h0a8.143,8.143,0,0,0,8.143-8.143v-7.3H334.808v7.3A8.143,8.143,0,0,0,342.95,3942.912Z" transform="translate(-302.238 -3927.469)" fill="#ba353f"/>
            <path id="Trazado_98985" data-name="Trazado 98985" d="M415.867,3942.912h0a8.142,8.142,0,0,0,8.142-8.143v-7.3H407.724v7.3A8.144,8.144,0,0,0,415.867,3942.912Z" transform="translate(-310.014 -3927.469)" fill="#ba353f"/>
            <path id="Trazado_98986" data-name="Trazado 98986" d="M452.325,3942.912h0a8.143,8.143,0,0,0,8.143-8.143v-7.3H444.182v7.3A8.143,8.143,0,0,0,452.325,3942.912Z" transform="translate(-313.903 -3927.469)" fill="#ba353f"/>
            <path id="Trazado_98987" data-name="Trazado 98987" d="M306.493,3942.912h0a8.143,8.143,0,0,0,8.142-8.143v-7.3H298.35v7.3A8.142,8.142,0,0,0,306.493,3942.912Z" transform="translate(-298.35 -3927.469)" fill="#ba353f"/>
          </g>
          <g id="Grupo_53558" data-name="Grupo 53558" transform="translate(48.855 24.709)">
            <path id="Trazado_98988" data-name="Trazado 98988" d="M397.638,3942.912h0a8.143,8.143,0,0,0,8.143-8.143v-7.3H389.5v7.3A8.143,8.143,0,0,0,397.638,3942.912Z" transform="translate(-324.355 -3927.469)" fill="#afb9ca"/>
            <path id="Trazado_98989" data-name="Trazado 98989" d="M324.721,3942.912h0a8.143,8.143,0,0,0,8.143-8.143v-7.3H316.579v7.3A8.143,8.143,0,0,0,324.721,3942.912Z" transform="translate(-316.579 -3927.469)" fill="#afb9ca"/>
          </g>
          <path id="Trazado_98990" data-name="Trazado 98990" d="M270.034,3942.912h0a8.143,8.143,0,0,0,8.143-8.143v-7.3H261.892v7.3A8.143,8.143,0,0,0,270.034,3942.912Z" transform="translate(-261.892 -3902.761)" fill="#ba353f"/>
          <g id="Grupo_53559" data-name="Grupo 53559" transform="translate(16.285 24.709)">
            <path id="Trazado_98991" data-name="Trazado 98991" d="M288.263,3942.912h0a8.143,8.143,0,0,0,8.143-8.143v-7.3H280.121v7.3A8.143,8.143,0,0,0,288.263,3942.912Z" transform="translate(-280.121 -3927.469)" fill="#afb9ca"/>
            <path id="Trazado_98992" data-name="Trazado 98992" d="M434.1,3942.912h0a8.143,8.143,0,0,0,8.143-8.143v-7.3H425.953v7.3A8.143,8.143,0,0,0,434.1,3942.912Z" transform="translate(-295.674 -3927.469)" fill="#afb9ca"/>
            <path id="Trazado_98993" data-name="Trazado 98993" d="M361.18,3942.912h0a8.143,8.143,0,0,0,8.142-8.143v-7.3H353.037v7.3A8.143,8.143,0,0,0,361.18,3942.912Z" transform="translate(-287.897 -3927.469)" fill="#afb9ca"/>
          </g>
          <g id="Grupo_53560" data-name="Grupo 53560" transform="translate(32.57)">
            <path id="Trazado_98994" data-name="Trazado 98994" d="M371.2,3924.52h16.285l-1.685-24.709H370.637Z" transform="translate(-306.059 -3899.811)" fill="#ff666a"/>
            <path id="Trazado_98995" data-name="Trazado 98995" d="M334.808,3924.52h16.285l.562-24.709H336.493Z" transform="translate(-302.238 -3899.811)" fill="#ff666a"/>
            <path id="Trazado_98996" data-name="Trazado 98996" d="M407.389,3924.52h16.285l-3.931-24.709H404.582Z" transform="translate(-309.679 -3899.811)" fill="#ff666a"/>
            <path id="Trazado_98997" data-name="Trazado 98997" d="M443.579,3924.52h16.285l-6.177-24.709H438.525Z" transform="translate(-313.299 -3899.811)" fill="#ff666a"/>
            <path id="Trazado_98998" data-name="Trazado 98998" d="M298.35,3924.52h16.285l2.807-24.709H302.281Z" transform="translate(-298.35 -3899.811)" fill="#ff666a"/>
          </g>
          <g id="Grupo_53561" data-name="Grupo 53561" transform="translate(48.855)">
            <path id="Trazado_98999" data-name="Trazado 98999" d="M389.294,3924.52h16.285l-2.808-24.709H387.609Z" transform="translate(-324.154 -3899.811)" fill="#faf9f9"/>
            <path id="Trazado_99000" data-name="Trazado 99000" d="M316.579,3924.52h16.285l1.685-24.709H319.387Z" transform="translate(-316.579 -3899.811)" fill="#faf9f9"/>
          </g>
          <path id="Trazado_99001" data-name="Trazado 99001" d="M261.892,3924.52h16.285l5.054-24.709H268.069Z" transform="translate(-261.892 -3899.811)" fill="#ff666a"/>
          <g id="Grupo_53562" data-name="Grupo 53562" transform="translate(16.285)">
            <path id="Trazado_99002" data-name="Trazado 99002" d="M280.121,3924.52h16.285l3.931-24.709H285.175Z" transform="translate(-280.121 -3899.811)" fill="#faf9f9"/>
            <path id="Trazado_99003" data-name="Trazado 99003" d="M425.484,3924.52h16.285l-5.054-24.709H421.553Z" transform="translate(-295.204 -3899.811)" fill="#faf9f9"/>
            <path id="Trazado_99004" data-name="Trazado 99004" d="M353.037,3924.52h16.285l-.562-24.709H353.6Z" transform="translate(-287.897 -3899.811)" fill="#faf9f9"/>
          </g>
        </g>
        <path id="Trazado_99005" data-name="Trazado 99005" d="M268.145,3899.205H436.107a8.109,8.109,0,0,0-8.11-8.11H276.255a8.11,8.11,0,0,0-8.11,8.11Z" transform="translate(-262.559 -3891.095)" fill="#3c415e"/>
      </g>
      <g id="Grupo_53565" data-name="Grupo 53565" transform="translate(43.613 52.257)">
        <path id="Trazado_99006" data-name="Trazado 99006" d="M401.005,3981.71l-13.016,8.458,1.536,2.364,13.017-8.459Z" transform="translate(-318.952 -3953.016)" fill="#738598"/>
        <path id="Trazado_99007" data-name="Trazado 99007" d="M355.775,3970.616l-12.051,3.914.872,2.681,12.05-3.913Z" transform="translate(-314.231 -3951.833)" fill="#738598"/>
        <path id="Trazado_99008" data-name="Trazado 99008" d="M321.367,3958.161l-1.969,2.018,14.06,13.712,1.968-2.018Z" transform="translate(-311.637 -3950.504)" fill="#738598"/>
        <path id="Trazado_99009" data-name="Trazado 99009" d="M366.412,3973.084,364.339,3975l14.383,15.58,2.071-1.913Z" transform="translate(-316.429 -3952.096)" fill="#738598"/>
        <path id="Trazado_99010" data-name="Trazado 99010" d="M401.069,3979.747a5.684,5.684,0,1,0,5.684-5.684A5.684,5.684,0,0,0,401.069,3979.747Z" transform="translate(-320.346 -3952.2)" fill="#3c415e"/>
        <path id="Trazado_99011" data-name="Trazado 99011" d="M310.71,3955.274a5.684,5.684,0,1,0,5.684-5.684A5.684,5.684,0,0,0,310.71,3955.274Z" transform="translate(-310.71 -3949.59)" fill="#3c415e"/>
        <path id="Trazado_99012" data-name="Trazado 99012" d="M333.3,3977.3a5.684,5.684,0,1,0,5.684-5.684A5.684,5.684,0,0,0,333.3,3977.3Z" transform="translate(-313.119 -3951.939)" fill="#3c415e"/>
        <path id="Trazado_99013" data-name="Trazado 99013" d="M355.89,3969.958a5.684,5.684,0,1,0,5.684-5.684A5.684,5.684,0,0,0,355.89,3969.958Z" transform="translate(-315.528 -3951.156)" fill="#3c415e"/>
        <path id="Trazado_99014" data-name="Trazado 99014" d="M378.479,3994.429a5.684,5.684,0,1,0,5.684-5.684A5.684,5.684,0,0,0,378.479,3994.429Z" transform="translate(-317.937 -3953.766)" fill="#3c415e"/>
      </g>
    </g>
    <g id="Grupo_53567" data-name="Grupo 53567" transform="translate(276.704 3935.739)">
      <path id="Trazado_99015" data-name="Trazado 99015" d="M311.739,4003.711s1.671,13.5,1.114,20.326-1.114,13.087-1.114,13.087h-2.784l-1.044-17.612-2.436-5.777-.731,5.66a5.193,5.193,0,0,1-3.148,4.128l-12.549,5.249-1.253-2.228,10.67-7.417a1.875,1.875,0,0,0,.8-1.425l.78-12.876Z" transform="translate(-285.938 -3960.641)" fill="#738598"/>
      <path id="Trazado_99016" data-name="Trazado 99016" d="M320.015,3974.661l-2.088-2.506s-7.8,4.176-9.049,5.15-8.91,2.089-10.581,5.987-4.037,9.327-4.037,9.327l3.2,1.949,3.55-5.5-.279,12.391s6.126,3.9,11.694-1.114l.279-17.124Z" transform="translate(-286.628 -3957.276)" fill="#3366c2"/>
      <path id="Trazado_99017" data-name="Trazado 99017" d="M322.606,3972.815l2.089-2.506-2.924-10.72s.139-2.366-.835-3.2-1.531-1.114-2.227-.7,1.531,1.392.835,2.645c0,0-.835-.418-.975-.835s-.975-.139-.557.556a17.293,17.293,0,0,0,1.81,2.089l1.809,8.631-1.113,1.532Z" transform="translate(-289.148 -3955.499)" fill="#c69c6d"/>
      <path id="Trazado_99018" data-name="Trazado 99018" d="M296.653,3996.933l-6.4,8.91a2.007,2.007,0,0,1-1.532,1.113,2.246,2.246,0,0,0-1.809,1.671c-.279.7-1.114,1.114-.835-.975a3.233,3.233,0,0,1,2.644-2.923l4.734-9.746Z" transform="translate(-285.749 -3959.71)" fill="#c69c6d"/>
      <path id="Trazado_99019" data-name="Trazado 99019" d="M310.359,3986.194a2.367,2.367,0,0,0,2.32.12c1.419-.68,3.262-1.76,3.262-2.787,0-1.671.139-3.341-2.366-4.594a10.611,10.611,0,0,1-5.43-6.543c-.7-2.784-1.252-4.873-3.062-5.151s-5.151.278-5.29,3.2.7,10.3,2.089,12.808,2.088,5.986,4.454,5.289,1.393-1.809,1.949-2.227A1.854,1.854,0,0,1,310.359,3986.194Z" transform="translate(-287.216 -3956.744)" fill="#333"/>
      <path id="Trazado_99020" data-name="Trazado 99020" d="M314.265,4041.112l1.362,1.459a.374.374,0,0,1-.272.629h-3.5a.373.373,0,0,1-.373-.374v-1.714Z" transform="translate(-288.464 -3964.629)" fill="#333"/>
      <path id="Trazado_99021" data-name="Trazado 99021" d="M288.825,4031.5v1.719a.374.374,0,0,1-.666.233L285.8,4030.5a.373.373,0,0,1,.154-.58l1.621-.648Z" transform="translate(-285.716 -3963.366)" fill="#333"/>
    </g>
    <g id="Grupo_53568" data-name="Grupo 53568" transform="translate(280.531 4009.794)">
      <path id="Trazado_99022" data-name="Trazado 99022" d="M319.033,4061.385l-8.8-2.219.416-4.344,4.622,1.733Z" transform="translate(-292.159 -4040.146)" fill="#3257b2"/>
      <path id="Trazado_99023" data-name="Trazado 99023" d="M309.405,4048.864l1.733-1.155,4.044,1.733-2.889,2.311Z" transform="translate(-292.071 -4039.387)" fill="#a67c52"/>
      <path id="Trazado_99024" data-name="Trazado 99024" d="M296.372,4065.815s-3.429,17.548-6.253,29.464h2.311l8.65-20.843,4.653,6.308a2.761,2.761,0,0,1,.519,1.308l1.6,13.227h2.311l1.057-12.955a6.305,6.305,0,0,0-.669-3.381l-4.934-9.661Z" transform="translate(-290.014 -4041.319)" fill="#3c415e"/>
      <path id="Trazado_99025" data-name="Trazado 99025" d="M309.84,4098.037v1.553a1.336,1.336,0,0,0,1.336,1.335h4.4a.343.343,0,0,0,.182-.634l-3.607-2.254Z" transform="translate(-292.117 -4044.755)" fill="#333"/>
      <path id="Trazado_99026" data-name="Trazado 99026" d="M290.3,4097.323l-.28,1.527a1.336,1.336,0,0,0,1.073,1.555l4.328.794a.344.344,0,0,0,.293-.592l-3.141-2.868Z" transform="translate(-290.001 -4044.679)" fill="#333"/>
      <path id="Trazado_99027" data-name="Trazado 99027" d="M308.092,4049l11.555,8.087,12.132-.577.639,1.6a1.059,1.059,0,0,1-.867,1.446l-11.883,1.321a6.273,6.273,0,0,1-4.262-1.077l-5.58-3.864s-3.467,8.666-3.467,11.554c0,0-9.821,3.466-9.243-3.466C297.5,4059.417,301.824,4053.432,308.092,4049Z" transform="translate(-290.757 -4039.525)" fill="#698cf2"/>
      <path id="Trazado_99028" data-name="Trazado 99028" d="M316.476,4048.743s-.438.817-2.889,0c-1.733-.577-2.888-1.733-2.888-2.888,0-2.311,2.311-5.2,4.044-4.621s2.31.577,2.888,2.31c.368,1.105.737,1.975.955,2.461a.492.492,0,0,1-.231.643l-.724.362S317.053,4048.743,316.476,4048.743Z" transform="translate(-292.209 -4038.689)" fill="#c69c6d"/>
      <path id="Trazado_99029" data-name="Trazado 99029" d="M336.161,4059.99s-.816-5.052.426-6.409c0,0,.565-.113.452,2.148-.068,1.352-.054,2.622-.033,3.425a.814.814,0,0,1-.845.836Z" transform="translate(-294.896 -4040.014)" fill="#c69c6d"/>
      <path id="Trazado_99030" data-name="Trazado 99030" d="M316.55,4042.353c.029-.009.087-.027.167-.054a1.9,1.9,0,0,0-.35-3.669l-.011,0c-1.846-.277-5.449-.693-6.391,1.352a.3.3,0,0,1-.173.155,2.142,2.142,0,0,0-1.459,2c-.1,2.129.616,2.985,2.308,4.425a.308.308,0,0,0,.507-.265,4.1,4.1,0,0,1,.454-2.713c.46-.584.8-.172,1.01.337a.307.307,0,0,0,.542.055c.374-.59,1.261-1.307,3.355-1.606A.3.3,0,0,0,316.55,4042.353Z" transform="translate(-291.955 -4038.394)" fill="#333"/>
    </g>
    <g id="Grupo_53571" data-name="Grupo 53571" transform="translate(313.318 3978.812)">
      <g id="Grupo_53570" data-name="Grupo 53570" transform="translate(8.826)">
        <g id="Grupo_53569" data-name="Grupo 53569">
          <path id="Trazado_99031" data-name="Trazado 99031" d="M398.438,4033c-7.687-6.038-15.259-12.07-22.918-18.108-3.321-2.555-4.936-5.8-4.261-10,.115-1.043-.467-1.4-1.615-1.043a9.723,9.723,0,0,0-6.084,4.764,7.819,7.819,0,0,1-7.929,4.648c-5.173-.237-8.38,2.56-11.136,6.517-3,4.2-4.469,9.076-5.617,13.961a80.251,80.251,0,0,0-2.059,15.807c-.236,4.077-.115,8.034-.236,12.088v11.286h50.755v-8.155a7.745,7.745,0,0,0-2.129-5.946c-2.537-2.514-5.231-4.867-5.231-4.867a22.235,22.235,0,0,1-3.5-3.592l-9.36-12.111c.582.474,1.148.923,1.73,1.4a10.536,10.536,0,0,0,9.52,2.2,7.691,7.691,0,0,1,5.969.923,34.8,34.8,0,0,0,3.287,1.857,6.414,6.414,0,0,0,7.878-1.558c1.183-1.418,2.365-2.837,3.547-4.232A4.045,4.045,0,0,0,398.438,4033Z" transform="translate(-336.582 -4003.714)" fill="#11afb7"/>
        </g>
      </g>
      <path id="Trazado_99032" data-name="Trazado 99032" d="M336.1,4081.178l-5.763,11.173h63.8l-7.569-11.173Z" transform="translate(-327.089 -4011.976)" fill="#0991a1"/>
      <path id="Trazado_99033" data-name="Trazado 99033" d="M393.382,4100.894H330.306a3.6,3.6,0,0,1-3.6-3.6h0a3.6,3.6,0,0,1,3.6-3.6h63.076a3.6,3.6,0,0,1,3.6,3.6h0A3.6,3.6,0,0,1,393.382,4100.894Z" transform="translate(-326.702 -4013.309)" fill="#077e84"/>
    </g>
    <g id="Grupo_53572" data-name="Grupo 53572" transform="translate(383.691 3937.85)">
      <path id="Trazado_99034" data-name="Trazado 99034" d="M432.1,3983.186l-10.433-.973s-2.5-1.253-4.452,0-2.087,2.225-1.53,2.365,2.225-1.53,3.061-1.392c.328.055.376.281.314.536a.485.485,0,0,0,.582.6l1.746-.437,4.452,1.587,5.008.639Z" transform="translate(-406.535 -3960.4)" fill="#c69c6d"/>
      <path id="Trazado_99035" data-name="Trazado 99035" d="M433.706,3971.508s-5.093,7.744-2.868,12.753,3.338,4.034,3.338,4.034,5.843.139,7.095.139-.279-8.625-1.113-9.6S433.706,3971.508,433.706,3971.508Z" transform="translate(-408.121 -3959.318)" fill="#ff666a"/>
      <path id="Trazado_99036" data-name="Trazado 99036" d="M432.494,3969.268s-4.173.126-3.6-5.65a2.5,2.5,0,0,1,1.335-1.993,2.551,2.551,0,0,1,2.262-.008c2.226.974,3.478,2.087,3.339,3.756S432.494,3969.268,432.494,3969.268Z" transform="translate(-407.968 -3958.235)" fill="#c69c6d"/>
      <path id="Trazado_99037" data-name="Trazado 99037" d="M430.318,3962.217s-2.087-.139-.278-3.478c1.221-2.255,6.816.139,7.094,3.757s.834,6.4,3.061,7.511,3.2,8.069,4.452,8.207-4.869,2.5-6.538,2.5.209-2.573-2.157-6.329-3.756-7.094-2.921-8.347c.272-.408.546-.832.789-1.217a1.115,1.115,0,0,0-.708-1.688A11.491,11.491,0,0,1,430.318,3962.217Z" transform="translate(-408.017 -3957.862)" fill="#333"/>
      <path id="Trazado_99038" data-name="Trazado 99038" d="M432.744,4034.553h2.225s3.478-18.5,3.061-25.6,1.14-18.45,1.14-18.45l-5.174-.052s-2.156,9.111-1.321,14.814S432.744,4034.553,432.744,4034.553Z" transform="translate(-408.356 -3961.338)" fill="#738598"/>
      <path id="Trazado_99039" data-name="Trazado 99039" d="M439.385,4034.613h2.225s1.67-7.929.834-14.05-.974-10.989.279-15.719,2.5-10.572-1.113-14.467H434.1s.209,12.45,2.434,20.658S439.385,4034.613,439.385,4034.613Z" transform="translate(-408.528 -3961.33)" fill="#738598"/>
      <path id="Trazado_99040" data-name="Trazado 99040" d="M432.34,4039.739l-4.16,3a.338.338,0,0,0,.2.612H434.1a.337.337,0,0,0,.338-.325l.127-3.291Z" transform="translate(-407.882 -3966.594)" fill="#333"/>
      <path id="Trazado_99041" data-name="Trazado 99041" d="M439.849,4039.661l-3.68,2.658a.3.3,0,0,0,.175.541h5.063a.3.3,0,0,0,.3-.288l.112-2.912Z" transform="translate(-408.736 -3966.586)" fill="#333"/>
      <path id="Trazado_99042" data-name="Trazado 99042" d="M434.17,3976.346s-1.808-.974-2.365,2.365-1.252,6.121-1.252,6.121l-17.806.7s-1.461.765,4.73,1.53a82.682,82.682,0,0,0,14.253.063,1.45,1.45,0,0,0,1.164-.75C433.985,3984.385,436.8,3978.631,434.17,3976.346Z" transform="translate(-406.235 -3959.82)" fill="#c69c6d"/>
      <path id="Trazado_99043" data-name="Trazado 99043" d="M421.308,3985.157h0a.347.347,0,0,0-.348-.347h-9.807l-4.987-8.625a.37.37,0,0,0-.458-.159h0a.371.371,0,0,0-.182.53l5.21,8.95H420.96A.348.348,0,0,0,421.308,3985.157Z" transform="translate(-405.476 -3959.797)" fill="#738598"/>
    </g>
    <g id="Grupo_53573" data-name="Grupo 53573" transform="translate(324.948 3839.851)">
      <path id="Trazado_99044" data-name="Trazado 99044" d="M373.769,3870.023l.883,4.092a3.51,3.51,0,0,1-1.16,3.415l-3.219,2.73-2.048-1.679,2.169-3.375-1.326-3.133Z" transform="translate(-342.76 -3850.495)" fill="#c69c6d"/>
      <path id="Trazado_99045" data-name="Trazado 99045" d="M352.877,3871.831l-4.218-1.808-1.059,4.233a3.51,3.51,0,0,0,1.042,3.445l3.271,2.979v-5.539Z" transform="translate(-340.55 -3850.495)" fill="#c69c6d"/>
      <path id="Trazado_99046" data-name="Trazado 99046" d="M362.537,3862.333l-2.29,3.254-1.808-3.254-4.062.383a4.288,4.288,0,0,0-3.4,2.292L348.8,3869.2l4.218,1.808-.964,2.41v6.438l8.557,3.987,5.424-3.073,2.29-6.388L367,3871.252l4.7-2.049-2.792-4.448a4.286,4.286,0,0,0-3.052-1.97Z" transform="translate(-340.689 -3849.675)" fill="#4c78ff"/>
      <path id="Trazado_99047" data-name="Trazado 99047" d="M369.652,3882.1v-7.352H351.091v7.352l9.763,3.073Z" transform="translate(-340.933 -3850.999)" fill="#dfe2e2"/>
      <path id="Trazado_99048" data-name="Trazado 99048" d="M351.765,3890.872s18.561-2.049,25.069-5.424-.482-6.629-6.508-4.7-18.561,6.629-18.561,6.629Z" transform="translate(-341.005 -3851.577)" fill="#738598"/>
      <path id="Trazado_99049" data-name="Trazado 99049" d="M367.6,3890.929l.436-2.943s-21.287-9.712-27.072-6.7S350.6,3889.844,367.6,3890.929Z" transform="translate(-339.721 -3851.635)" fill="#738598"/>
      <path id="Trazado_99050" data-name="Trazado 99050" d="M371.345,3888.8l-.422,2.953s7.653.964,8.255.663,2.592-1.628,1.326-2.893S373.092,3888.2,371.345,3888.8Z" transform="translate(-343.048 -3852.458)" fill="#333"/>
      <path id="Trazado_99051" data-name="Trazado 99051" d="M350.343,3889.132l.422,2.832s-7.653.964-8.255.663-2.592-1.627-1.326-2.893S348.6,3888.529,350.343,3889.132Z" transform="translate(-339.832 -3852.489)" fill="#333"/>
      <path id="Trazado_99052" data-name="Trazado 99052" d="M363.688,3862l-2.29,3.917L359.59,3862v-2.772h4.1Z" transform="translate(-341.84 -3849.344)" fill="#a67c52"/>
      <path id="Trazado_99053" data-name="Trazado 99053" d="M362.335,3859.9s2.848-1.8,3.171-4.013.323-4.029-.422-4.2a55,55,0,0,0-5.99-1.156,11.557,11.557,0,0,0-1.354,4.012c-.1,2.069,2.094,5.181,2.735,5.54S362.335,3859.9,362.335,3859.9Z" transform="translate(-341.642 -3848.416)" fill="#c69c6d"/>
      <path id="Trazado_99054" data-name="Trazado 99054" d="M365.383,3855.89a7.664,7.664,0,0,0,1.286-3.263c.18-1.747-.61-3.419-1.266-3.736-3.736-1.808-5.182.481-8.376-.724a19.92,19.92,0,0,0,.6,2.23,4.915,4.915,0,0,1,.216,2.9s.99-1.575,1.833-1.816,3.977.783,4.7,0C364.378,3851.481,365.844,3851.68,365.383,3855.89Z" transform="translate(-341.566 -3848.164)" fill="#333"/>
    </g>
  </g>
</svg>
