<svg xmlns="http://www.w3.org/2000/svg" xmlns:xlink="http://www.w3.org/1999/xlink" width="255.181" height="297.048" viewBox="0 0 255.181 297.048">
  <defs>
    <linearGradient id="linear-gradient" x1="-0.052" y1="1.003" x2="1.057" y2="-0.007" gradientUnits="objectBoundingBox">
      <stop offset="0" stop-color="#3c415e"/>
      <stop offset="1" stop-color="#738598"/>
    </linearGradient>
  </defs>
  <g id="Grupo_53633" data-name="Grupo 53633" transform="translate(-405.879 -4122.647)">
    <ellipse id="Elipse_5471" data-name="Elipse 5471" cx="124.628" cy="8.443" rx="124.628" ry="8.443" transform="translate(411.804 4402.81)" opacity="0.15"/>
    <g id="Grupo_53576" data-name="Grupo 53576" transform="translate(405.879 4337.573)">
      <g id="Grupo_53575" data-name="Grupo 53575" transform="translate(0 0)">
        <path id="Trazado_99055" data-name="Trazado 99055" d="M465.339,4499.53c.847,1.014.935,2.616,1.1,3.868.018.134.03.431.047.735q.319-1,.626-2.01c.135-.446.266-.894.4-1.342-.22-.262-.484-.931-.98-1.575-.587-.761-1.117-.914-.948-2.037.159-1.059,1-1.975,1.842-.964a4.21,4.21,0,0,1,.479,3.271,19.748,19.748,0,0,1,1.639-3.983c-.291-3.843,3.233-7.888,6.534-9.314a1.61,1.61,0,0,1,1-.179c.728.18.893,1.171.672,1.887a5.131,5.131,0,0,1-1.893,2.453c-.835.636-1.77,1.127-2.64,1.716a11.879,11.879,0,0,0-1.921,1.679.193.193,0,0,1-.022.045,14.318,14.318,0,0,0-1.969,3.825,11.375,11.375,0,0,1,1.871-1.789,6.181,6.181,0,0,1,3.7-1.433.674.674,0,0,1,.654,1.12,4.454,4.454,0,0,1-2.4,2.194c-1.327.5-2.806.532-4.153.983a.346.346,0,0,1-.021-.048c-.257.82-.484,1.652-.705,2.478a9.511,9.511,0,0,1,2.66-1.726,2.613,2.613,0,0,1,1.5-.178,1.233,1.233,0,0,1,.98,1.04,1.294,1.294,0,0,1-.286.827,4.015,4.015,0,0,1-2.519,1.207c-.931.2-1.874.439-2.815.6-.028.1-.056.2-.084.3q-.626,2.143-1.308,4.271a16.249,16.249,0,0,1,1.662-1.88,9.65,9.65,0,0,1,4.305-2.514,3.507,3.507,0,0,1,1.966-.01.756.756,0,0,1,.555.521.791.791,0,0,1-.08.425,3.717,3.717,0,0,1-2,1.782,27.731,27.731,0,0,1-4.143,1.185,8.048,8.048,0,0,0-2.416.967q-.719,2.2-1.531,4.364a17.056,17.056,0,0,1,3.419-3.419c1.047-.821,2.427-1.5,3.672-1.031a1.261,1.261,0,0,1,.489.306,1.322,1.322,0,0,1-.154,1.662,3.771,3.771,0,0,1-1.983,1.149c-.75.2-1.528.283-2.283.468a9.69,9.69,0,0,0-3.522,1.814q-.649,1.668-1.364,3.315a13.558,13.558,0,0,1,1.505-1.265,9.349,9.349,0,0,1,3.662-1.621,1.4,1.4,0,0,1,1.291.206,1.224,1.224,0,0,1,.188,1.123,3.234,3.234,0,0,1-1.9,2.234,6.375,6.375,0,0,1-1.935.353l-2.036.157a4.366,4.366,0,0,0-1.471.364q-.828,1.8-1.748,3.555a11.564,11.564,0,0,1,1.221-1.108,6.22,6.22,0,0,1,3.377-1.394,1.568,1.568,0,0,1,1.2.32,1.219,1.219,0,0,1-.062,1.631,2.578,2.578,0,0,1-1.619.71,6.2,6.2,0,0,1-1.679-.013,4.934,4.934,0,0,0-1.191-.113,3.528,3.528,0,0,0-1.368.548l-.267.153c-.488.91-.993,1.825-1.526,2.727a6.273,6.273,0,0,1,3.181-.945c.654-.012,1.444.193,1.627.822a1,1,0,0,1-.028.609,1.77,1.77,0,0,1-1.865.937c-.746-.062-1.447-.381-2.186-.5a10.823,10.823,0,0,0-1.355.109,30.1,30.1,0,0,1-2.917,3.979.365.365,0,0,1-.574-.451c.654-1.07,1.325-2.125,1.988-3.184a32.027,32.027,0,0,1-2.426-2.381,1.483,1.483,0,0,1-.483-1.614,1.231,1.231,0,0,1,1.5-.515,2.4,2.4,0,0,1,1.225,1.178,8.3,8.3,0,0,1,.653,2.578c.677-1.088,1.341-2.185,1.97-3.306a4.705,4.705,0,0,0-.588-.96c-.4-.452-.925-.779-1.316-1.238a1.517,1.517,0,0,1-.328-1.665,1.32,1.32,0,0,1,1.894-.207,2.9,2.9,0,0,1,.918,1.9c.035.225.091.544.122.88.049-.093.1-.185.148-.278.262-.509.516-1.021.766-1.535a17.2,17.2,0,0,1-1.353-2.354,5.066,5.066,0,0,1-.985-2.1,1.476,1.476,0,0,1,1.208-1.7c.708-.014,1.229.671,1.473,1.337a8.534,8.534,0,0,1,.377,3.3q.765-1.655,1.465-3.339c-.566-1.245-2.373-2.206-2.682-3.723-.124-.613.035-1.657.831-1.793.627-.107,1.189.735,1.505,1.164a5.622,5.622,0,0,1,.947,2.885q.267-.667.527-1.337.334-.863.652-1.731a10.727,10.727,0,0,0-1.237-1.875c-.706-.826-1.646-1.571-1.252-2.817.36-1.141,1.774-2.417,2.545-.952a8.319,8.319,0,0,1,.645,3.7q.586-1.677,1.129-3.369a9.735,9.735,0,0,0-1.692-2.105c-.763-.639-2.117-1.147-1.881-2.308A1.427,1.427,0,0,1,465.339,4499.53Z" transform="translate(-422.168 -4461.908)" fill="#b9d4ef"/>
        <path id="Trazado_99056" data-name="Trazado 99056" d="M413.52,4507.147c1.275-.345,2.767.246,3.974.618.129.04.4.153.687.265q-.778-.708-1.564-1.409c-.348-.309-.7-.616-1.053-.924-.33.091-1.047.051-1.84.232-.938.215-1.3.632-2.248.009-.895-.587-1.375-1.734-.105-2.076a4.208,4.208,0,0,1,3.172.933,19.821,19.821,0,0,1-2.932-3.154c-3.613-1.343-5.814-6.235-5.729-9.831a1.613,1.613,0,0,1,.257-.984c.468-.586,1.437-.323,2,.178a5.13,5.13,0,0,1,1.437,2.745c.229,1.025.284,2.08.455,3.115a11.83,11.83,0,0,0,.722,2.447.215.215,0,0,1,.032.039,14.253,14.253,0,0,0,2.651,3.388,11.365,11.365,0,0,1-.843-2.447,6.18,6.18,0,0,1,.247-3.962.854.854,0,0,1,.494-.532c.305-.079.6.163.8.406a4.449,4.449,0,0,1,.991,3.095c-.1,1.416-.689,2.771-.843,4.183a.379.379,0,0,1-.053,0c.637.576,1.3,1.13,1.956,1.678a9.509,9.509,0,0,1-.456-3.139,2.613,2.613,0,0,1,.465-1.435,1.232,1.232,0,0,1,1.354-.456,1.3,1.3,0,0,1,.631.605,4.018,4.018,0,0,1,.043,2.794c-.212.928-.385,1.885-.635,2.806l.234.2q1.685,1.463,3.332,2.974a16.281,16.281,0,0,1-1.012-2.3,9.649,9.649,0,0,1-.484-4.962,3.516,3.516,0,0,1,.814-1.79.757.757,0,0,1,.706-.287.788.788,0,0,1,.353.25,3.715,3.715,0,0,1,.781,2.566,27.672,27.672,0,0,1-.657,4.258,8.084,8.084,0,0,0-.131,2.6q1.7,1.573,3.324,3.216a17.069,17.069,0,0,1-1.677-4.535c-.308-1.295-.347-2.832.6-3.767a1.261,1.261,0,0,1,.481-.316,1.323,1.323,0,0,1,1.446.834,3.776,3.776,0,0,1,.214,2.283c-.129.766-.382,1.506-.53,2.269a9.723,9.723,0,0,0,.174,3.958q1.245,1.288,2.442,2.625a13.482,13.482,0,0,1-.52-1.9,9.343,9.343,0,0,1,.059-4,1.4,1.4,0,0,1,.728-1.087,1.225,1.225,0,0,1,1.1.3,3.236,3.236,0,0,1,1.235,2.659,6.38,6.38,0,0,1-.488,1.9q-.355.958-.709,1.916a4.336,4.336,0,0,0-.285,1.489q1.29,1.5,2.5,3.074a11.469,11.469,0,0,1-.5-1.572,6.212,6.212,0,0,1,.146-3.65,1.568,1.568,0,0,1,.791-.955,1.221,1.221,0,0,1,1.456.739,2.579,2.579,0,0,1-.033,1.768,6.182,6.182,0,0,1-.713,1.52,4.963,4.963,0,0,0-.6,1.034,3.55,3.55,0,0,0-.074,1.472c.009.1.019.2.028.306.623.824,1.243,1.666,1.839,2.527a6.28,6.28,0,0,1,.472-3.285c.264-.6.779-1.231,1.427-1.134a1,1,0,0,1,.542.281,1.771,1.771,0,0,1,.07,2.086c-.369.651-.951,1.156-1.368,1.778a10.761,10.761,0,0,0-.468,1.276,30.092,30.092,0,0,1,2.394,4.314.365.365,0,0,1-.649.333c-.7-1.043-1.377-2.093-2.06-3.138a31.922,31.922,0,0,1-3.178,1.207,1.483,1.483,0,0,1-1.668-.236,1.231,1.231,0,0,1,.16-1.579,2.392,2.392,0,0,1,1.581-.62,8.323,8.323,0,0,1,2.616.484c-.706-1.07-1.425-2.131-2.179-3.172a4.773,4.773,0,0,0-1.118.133c-.578.175-1.095.515-1.675.677a1.515,1.515,0,0,1-1.648-.4,1.32,1.32,0,0,1,.6-1.807,2.9,2.9,0,0,1,2.107-.041c.219.062.533.144.851.257-.064-.083-.126-.167-.191-.25q-.529-.676-1.074-1.338a17.166,17.166,0,0,1-2.705.245,5.065,5.065,0,0,1-2.321.016,1.475,1.475,0,0,1-1.037-1.807,1.766,1.766,0,0,1,1.83-.779,8.526,8.526,0,0,1,3.157,1.039q-1.183-1.387-2.421-2.728c-1.368-.006-3,1.233-4.5.88-.609-.143-1.491-.724-1.281-1.5.165-.615,1.165-.772,1.686-.881a5.633,5.633,0,0,1,3.017.347q-.494-.522-.995-1.038-.644-.663-1.3-1.315a10.671,10.671,0,0,0-2.221.34c-1.046.3-2.115.838-3.084-.041-.885-.8-1.453-2.622.2-2.709a8.312,8.312,0,0,1,3.628.959q-1.278-1.234-2.588-2.435a9.724,9.724,0,0,0-2.621.657c-.9.426-1.927,1.443-2.883.744A1.427,1.427,0,0,1,413.52,4507.147Z" transform="translate(-405.879 -4463.455)" fill="#b9d4ef"/>
        <path id="Trazado_99057" data-name="Trazado 99057" d="M439.393,4469.016c1.763.71,3.207,3.127,3.618,5.328.164-.777.339-1.552.533-2.319.032-.126.066-.253.1-.38-.948-1.7-4.13-5.345-2.392-7.484,2.063.721,2.675,2.991,2.792,4.784.015.227.054.554.083.909.333-1.182.7-2.372,1.107-3.551a10.191,10.191,0,0,1-1.634-2.291c-.313-.622-1.4-3.391.552-2.69.746.268,1.377,2.27,1.528,3.738.311-.829.646-1.648,1.006-2.453.4-4.319-.453-9.995,3.92-12.619,4.451-2.671,2.859,4.378,1.906,6.138-.82,1.514-2.83,4.957-5.117,6.779-.348.887-.683,1.779-.977,2.687q-.245.754-.471,1.515c1.6-2.825,4.843-8.407,6.93-5.985,1.852,2.148-4.943,5.166-7.182,6.852-.435,1.52-.825,3.054-1.154,4.6-.086.4-.162.8-.239,1.208.743-1.188,1.248-2.875,2.361-3.8.986-.816,3.475-1.775,3.765-.159.412,2.3-2.869,3.146-4.434,3.834-1.125.493-1.52,1.106-1.867,1.062q-.522,2.938-.758,5.92c.87-2.5,2.779-6.188,5.975-5.672.479,4.143-3.966,4.239-6.017,6.208a59.832,59.832,0,0,0-.126,6.1c0,.024,0,.048,0,.073.5-1.951.82-3.9,2.2-5.553,1.25-1.5,4.026-2.451,3.378.47-.472,2.128-2.44,3.146-4.009,4.493-.7.6-1.16,1.3-1.521,1.628a55.4,55.4,0,0,0,.618,5.652c1-3.3,3.377-10.069,6.932-8.221.389,3.949-4.447,6.149-6.826,8.877.289,1.706.644,3.4,1.043,5.1a19.614,19.614,0,0,1,1.033-4.239c.327-1.041,2.513-4.3,4.107-2.408,1.571,1.865-1.97,4.257-3.017,5.12a5.656,5.656,0,0,0-1.837,2.719c.077.312.155.622.234.934.41,1.606.836,3.227,1.218,4.854.284-2.961.158-8.4,4.118-8.032.422,2.229-1.1,5.736-2.606,7.388-.492.538-.938,1-1.344,1.367.213.945.407,1.893.572,2.841,1.074-2.9,3.941-6.1,5.183-4.558,1.26,1.56-1.137,4.123-2.209,5a28.871,28.871,0,0,0-2.615,2.084,28.235,28.235,0,0,1,.171,3.4c-.011.813-1.306.75-1.351-.056a45.148,45.148,0,0,0-.525-4.672c-2.006-.768-6.042-.087-7.441-.876-1.946-1.1-1.69-3.083.543-3.543,2.031-.418,4.935,1.089,6.647,3-.249-1.336-.539-2.667-.852-4-1.671-1.091-4.083-.3-5.812-1.775-1.819-1.554-.651-3.833,1.7-3.1a8.867,8.867,0,0,1,3.62,2.86c-.232-.942-.47-1.885-.706-2.831q-.307-1.229-.578-2.458c-1.832-.763-5.371-.1-6.2-2.782-.578-1.879,1.11-3.522,2.9-2.209a14.125,14.125,0,0,1,2.894,3.082c-.3-1.535-.547-3.073-.733-4.616-2.058-1.13-6.152-.031-7.4-2.588-1.02-2.085,1.689-3.056,3.458-2.234,1.739.808,2.85,2.6,3.878,4.235-.127-1.152-.22-2.306-.27-3.465-1.6-1.172-4.62-1.645-5.56-3.822-.915-2.12.459-4.846,2.955-2.929a8.631,8.631,0,0,1,2.563,4.522q0-1.932.142-3.857a15.488,15.488,0,0,0-1.744-2.2c-.843-.868-2-1.648-2.093-2.914-.161-2.183,1.676-1.355,2.655-.069a8.4,8.4,0,0,1,1.335,3.431q.222-2.154.605-4.282C441.577,4474.037,436.733,4472.018,439.393,4469.016Z" transform="translate(-415.679 -4449.389)" fill="#b9d4ef"/>
      </g>
    </g>
    <g id="Grupo_53581" data-name="Grupo 53581" transform="translate(410.86 4382.377)">
      <g id="Grupo_53577" data-name="Grupo 53577" transform="translate(15.23 6.597)">
        <path id="Trazado_99058" data-name="Trazado 99058" d="M440.374,4550.987s-6.217-9.679-2.684-23.455c0,0,10.173,2.261,13.565,23.455Z" transform="translate(-436.604 -4527.532)" fill="#0991a1"/>
        <path id="Trazado_99059" data-name="Trazado 99059" d="M447.227,4555.251s-2.656-12.717-4.139-15.26c0,0,4.464,8.054,5.129,15.26Z" transform="translate(-438.823 -4531.796)" fill="#0a7277"/>
      </g>
      <g id="Grupo_53578" data-name="Grupo 53578" transform="translate(25.308 6.78)">
        <path id="Trazado_99060" data-name="Trazado 99060" d="M462.806,4551.266s6.217-9.68,2.684-23.456c0,0-10.173,2.261-13.565,23.456Z" transform="translate(-451.926 -4527.81)" fill="#0991a1"/>
        <path id="Trazado_99061" data-name="Trazado 99061" d="M460.907,4555.53s2.656-12.717,4.14-15.261c0,0-4.464,8.055-5.129,15.261Z" transform="translate(-454.661 -4532.074)" fill="#0a7277"/>
      </g>
      <g id="Grupo_53579" data-name="Grupo 53579" transform="translate(33.921)">
        <path id="Trazado_99062" data-name="Trazado 99062" d="M479.044,4547.739s8.014-12.477,3.461-30.236c0,0-13.114,2.914-17.486,30.236Z" transform="translate(-465.019 -4517.503)" fill="#11afb7"/>
        <path id="Trazado_99063" data-name="Trazado 99063" d="M476.6,4553.235s3.424-16.393,5.337-19.672c0,0-5.755,10.382-6.611,19.672Z" transform="translate(-468.544 -4522.999)" fill="#0991a1"/>
      </g>
      <g id="Grupo_53580" data-name="Grupo 53580">
        <path id="Trazado_99064" data-name="Trazado 99064" d="M418.311,4547.739s-8.014-12.477-3.461-30.236c0,0,13.114,2.914,17.486,30.236Z" transform="translate(-413.451 -4517.503)" fill="#11afb7"/>
        <path id="Trazado_99065" data-name="Trazado 99065" d="M427.146,4553.235s-3.424-16.393-5.337-19.672c0,0,5.754,10.382,6.611,19.672Z" transform="translate(-416.311 -4522.999)" fill="#0991a1"/>
      </g>
    </g>
    <g id="Grupo_53593" data-name="Grupo 53593" transform="translate(578.587 4190.515)">
      <g id="Grupo_53584" data-name="Grupo 53584" transform="translate(0.179 21.538)">
        <g id="Grupo_53582" data-name="Grupo 53582" transform="translate(0 0.07)">
          <path id="Trazado_99066" data-name="Trazado 99066" d="M668.711,4277.867s12.693,17.665,36.247,17.125,35.243-19.635,35.243-19.635-12.2-14.52-36.322-16.547S668.711,4277.867,668.711,4277.867Z" transform="translate(-668.711 -4258.672)" fill="#0dcece"/>
        </g>
        <g id="Grupo_53583" data-name="Grupo 53583">
          <path id="Trazado_99067" data-name="Trazado 99067" d="M698.718,4258.646l1.525-.08-11.5,18.178,23.571-.828,8.476-13.292,1.153.421-8.233,12.822,26.192-.92.306.333-.457.822-15.312.538,6.806,8.434-.894.721-7.347-9.1-21.983.772,9.747,16.973-1.394.2-9.651-17.129-30.505,1.071-.505-.749.178-.39,18.467-.648Z" transform="translate(-668.711 -4258.565)" fill="#0991a1"/>
        </g>
      </g>
      <g id="Grupo_53588" data-name="Grupo 53588" transform="translate(1.491)">
        <g id="Grupo_53586" data-name="Grupo 53586" transform="translate(0.022)">
          <g id="Grupo_53585" data-name="Grupo 53585">
            <path id="Trazado_99068" data-name="Trazado 99068" d="M670.771,4267.216s20.1,8.324,39.83-4.546,19.607-35.259,19.607-35.259-18.02-5.912-39.59,5.076S670.771,4267.216,670.771,4267.216Z" transform="translate(-670.738 -4225.822)" fill="#11afb7"/>
          </g>
        </g>
        <g id="Grupo_53587" data-name="Grupo 53587" transform="translate(0 0.778)">
          <path id="Trazado_99069" data-name="Trazado 99069" d="M686.153,4235.5l1.254-.872-.2,21.51,19.6-13.124.2-15.764,1.2-.249-.241,15.235,21.776-14.583.435.122.045.939-12.73,8.525,10.228,3.582-.38,1.085-11.042-3.867-18.276,12.24,17.228,9.29-1.079.9-17.228-9.472-25.362,16.985-.824-.37-.054-.425,15.353-10.282Z" transform="translate(-670.706 -4227.005)" fill="#0991a1"/>
        </g>
      </g>
      <g id="Grupo_53592" data-name="Grupo 53592" transform="translate(0 35.303)">
        <g id="Grupo_53590" data-name="Grupo 53590">
          <g id="Grupo_53589" data-name="Grupo 53589">
            <path id="Trazado_99070" data-name="Trazado 99070" d="M668.439,4285.153s2.493,21.609,23.331,32.6,40.344,0,40.344,0-3.592-18.621-23.678-32.132S668.439,4285.153,668.439,4285.153Z" transform="translate(-668.439 -4279.492)" fill="#0991a1"/>
          </g>
        </g>
        <g id="Grupo_53591" data-name="Grupo 53591" transform="translate(0.699 3.505)">
          <path id="Trazado_99071" data-name="Trazado 99071" d="M705.052,4284.821l1.371.672-18.894,10.283,20.994,10.749,13.873-7.487.8.929-13.432,7.194,23.329,11.943.1.439-.8.5-13.638-6.982,1.841,10.68-1.133.195-1.987-11.529L697.9,4302.379l.255,19.571-1.316-.5-.095-19.66-27.171-13.91-.077-.9.345-.253,16.448,8.42Z" transform="translate(-669.501 -4284.821)" fill="#0b686d"/>
        </g>
      </g>
    </g>
    <g id="Grupo_53623" data-name="Grupo 53623" transform="translate(453.424 4122.647)">
      <g id="Grupo_53621" data-name="Grupo 53621" transform="translate(25.835)">
        <g id="Grupo_53595" data-name="Grupo 53595" transform="translate(28.877 101.406)">
          <g id="Grupo_53594" data-name="Grupo 53594">
            <path id="Trazado_99072" data-name="Trazado 99072" d="M577.934,4297.766l-.391-.074-.307-.062-.572-.122c-.375-.082-.737-.165-1.1-.25-.718-.172-1.419-.354-2.117-.542-1.393-.379-2.761-.793-4.117-1.245a80.256,80.256,0,0,1-8-3.138l7.1-15.523a63.532,63.532,0,0,0,6.275,2.461c1.07.356,2.15.683,3.223.975.537.145,1.072.284,1.6.409l.772.177.365.078.244.049Z" transform="translate(-561.335 -4276.81)" fill="none"/>
          </g>
          <path id="Trazado_99073" data-name="Trazado 99073" d="M570.924,4289.549l-.62,1.59c-.9-.354-1.789-.718-2.672-1.105l.683-1.564C569.177,4288.848,570.048,4289.2,570.924,4289.549Z" transform="translate(-563.49 -4280.8)" fill="#3c415e" fill-rule="evenodd"/>
          <path id="Trazado_99074" data-name="Trazado 99074" d="M578.212,4292.185l-.506,1.63c-.921-.283-1.835-.591-2.744-.91l.57-1.609C576.421,4291.607,577.313,4291.908,578.212,4292.185Z" transform="translate(-565.999 -4281.767)" fill="#3c415e" fill-rule="evenodd"/>
          <path id="Trazado_99075" data-name="Trazado 99075" d="M585.643,4294.282l-.371,1.666c-.949-.211-1.883-.45-2.815-.7l.453-1.646C583.817,4293.846,584.728,4294.079,585.643,4294.282Z" transform="translate(-568.563 -4282.555)" fill="#3c415e" fill-rule="evenodd"/>
        </g>
        <g id="Grupo_53597" data-name="Grupo 53597" transform="translate(13.925 94.571)">
          <g id="Grupo_53596" data-name="Grupo 53596">
            <path id="Trazado_99076" data-name="Trazado 99076" d="M553.556,4288.778a70.209,70.209,0,0,1-7.7-4.106,58.467,58.467,0,0,1-7.253-5.253l11.062-13a47.418,47.418,0,0,0,10.988,6.835Z" transform="translate(-538.603 -4266.419)" fill="none"/>
          </g>
          <path id="Trazado_99077" data-name="Trazado 99077" d="M550.592,4278.391l-1,1.388c-.4-.274-.779-.577-1.169-.866s-.768-.594-1.145-.9l1.074-1.327c.364.294.727.591,1.105.868S550.2,4278.126,550.592,4278.391Z" transform="translate(-541.573 -4269.933)" fill="#3c415e" fill-rule="evenodd"/>
          <path id="Trazado_99078" data-name="Trazado 99078" d="M557.025,4282.676l-.861,1.474c-.417-.245-.836-.486-1.244-.747s-.825-.506-1.225-.779l.934-1.429c.388.265.791.506,1.189.756S556.62,4282.438,557.025,4282.676Z" transform="translate(-543.768 -4271.475)" fill="#3c415e" fill-rule="evenodd"/>
          <path id="Trazado_99079" data-name="Trazado 99079" d="M563.8,4286.37l-.737,1.54-1.3-.64-1.285-.668.805-1.505,1.251.65Z" transform="translate(-546.089 -4272.811)" fill="#3c415e" fill-rule="evenodd"/>
        </g>
        <g id="Grupo_53599" data-name="Grupo 53599" transform="translate(2.536 87.111)">
          <g id="Grupo_53598" data-name="Grupo 53598">
            <path id="Trazado_99080" data-name="Trazado 99080" d="M532.678,4275.538c-.575-.5-1.152-.989-1.707-1.52-.28-.262-.561-.519-.837-.786l-.816-.818c-.535-.52-1.1-1.167-1.65-1.77-.277-.3-.544-.645-.814-.972s-.537-.655-.8-1.009l-.772-1.085c-.126-.186-.257-.354-.378-.555l-.363-.588-.359-.592c-.118-.2-.24-.389-.349-.607q-.332-.636-.654-1.278c-.053-.108-.108-.213-.159-.323l-.146-.341-.286-.686-.278-.689c-.091-.229-.164-.479-.244-.719-.153-.486-.314-.966-.443-1.463s-.231-1.01-.336-1.517l16.777-3.143a3.1,3.1,0,0,1,.076.355c.031.121.086.245.119.37a1.49,1.49,0,0,0,.058.19c.03.066.06.132.087.2s.055.133.08.2l.037.1c.016.034.038.07.057.1.077.141.149.283.218.429a1.663,1.663,0,0,0,.13.222l.141.227.135.229a2.841,2.841,0,0,0,.164.236q.173.237.338.479c.116.162.266.326.395.491s.25.332.415.5l.459.5c.081.086.141.166.237.258l.27.269.536.541c.184.177.376.349.562.524.367.356.765.691,1.156,1.03Z" transform="translate(-521.29 -4255.077)" fill="none"/>
          </g>
          <path id="Trazado_99081" data-name="Trazado 99081" d="M535.431,4261.451l-1.534.749-.172-.337-.147-.352-.291-.7a6.967,6.967,0,0,1-.251-.722l-.23-.731,1.646-.451.206.65a5.7,5.7,0,0,0,.224.645l.261.632.131.316Z" transform="translate(-525.231 -4256.386)" fill="#3c415e" fill-rule="evenodd"/>
          <path id="Trazado_99082" data-name="Trazado 99082" d="M539.352,4267.882l-1.305,1.1c-.309-.387-.629-.764-.928-1.161s-.582-.808-.859-1.224l1.43-.933c.255.383.531.754.8,1.133S539.064,4267.52,539.352,4267.882Z" transform="translate(-526.413 -4258.7)" fill="#3c415e" fill-rule="evenodd"/>
          <path id="Trazado_99083" data-name="Trazado 99083" d="M544.6,4273.449l-1.14,1.271-1.069-.994c-.355-.333-.69-.687-1.036-1.03l1.221-1.192c.333.329.654.669,1,.988Z" transform="translate(-528.157 -4260.699)" fill="#3c415e" fill-rule="evenodd"/>
        </g>
        <g id="Grupo_53601" data-name="Grupo 53601" transform="translate(2.162 69.521)">
          <g id="Grupo_53600" data-name="Grupo 53600">
            <path id="Trazado_99084" data-name="Trazado 99084" d="M521.1,4249.069a23.044,23.044,0,0,1-.282-6.184c.048-.5.126-.991.2-1.486.039-.244.069-.5.119-.734l.155-.707.162-.707c.054-.236.11-.471.18-.689q.2-.669.411-1.334c.036-.11.068-.224.107-.33l.118-.314.241-.627c.164-.413.319-.847.5-1.228l.542-1.173.138-.292.145-.276.292-.551c.2-.362.388-.741.593-1.088l.62-1.034.312-.515c.105-.168.214-.327.321-.49l.647-.972,14.083,9.646-.415.624c-.068.1-.142.208-.207.31l-.182.307-.368.61c-.121.2-.212.4-.321.6l-.159.3-.08.147-.064.143-.262.567a5.6,5.6,0,0,0-.222.546l-.105.267-.054.133c-.017.044-.025.084-.038.126-.048.167-.1.333-.154.5a1.225,1.225,0,0,0-.061.238l-.05.229-.057.227c-.019.076-.016.142-.028.213-.014.138-.047.28-.061.414a6.045,6.045,0,0,0,.064,1.453Z" transform="translate(-520.72 -4228.337)" fill="none"/>
          </g>
          <path id="Trazado_99085" data-name="Trazado 99085" d="M537.277,4239.531l-1.512-.791c.45-.879.962-1.716,1.483-2.544l1.436.924C538.188,4237.909,537.7,4238.7,537.277,4239.531Z" transform="translate(-525.869 -4231.026)" fill="#3c415e" fill-rule="evenodd"/>
          <path id="Trazado_99086" data-name="Trazado 99086" d="M534.445,4246.57l-1.656-.416a7.125,7.125,0,0,1,.2-.728l.222-.72c.067-.243.17-.47.256-.7l.27-.7,1.578.652-.249.645c-.079.216-.176.427-.236.649l-.2.659A6.136,6.136,0,0,0,534.445,4246.57Z" transform="translate(-524.85 -4233.458)" fill="#3c415e" fill-rule="evenodd"/>
          <path id="Trazado_99087" data-name="Trazado 99087" d="M533.785,4254.119l-1.7.169a6.231,6.231,0,0,1-.053-.767l-.025-.769c0-.255.022-.511.034-.766s.021-.512.052-.764l1.7.179c-.028.225-.029.453-.045.68s-.032.453-.031.68l.024.68A5.06,5.06,0,0,0,533.785,4254.119Z" transform="translate(-524.583 -4236.168)" fill="#3c415e" fill-rule="evenodd"/>
        </g>
        <g id="Grupo_53603" data-name="Grupo 53603" transform="translate(8.055 56.716)">
          <g id="Grupo_53602" data-name="Grupo 53602">
            <path id="Trazado_99088" data-name="Trazado 99088" d="M529.68,4221.675a64.646,64.646,0,0,1,5.51-6.885c1.9-2.1,3.848-4.043,5.813-5.921l11.772,12.36c-1.732,1.653-3.4,3.328-4.934,5.019a47.932,47.932,0,0,0-4.078,5.072Z" transform="translate(-529.68 -4208.869)" fill="none"/>
          </g>
          <path id="Trazado_99089" data-name="Trazado 99089" d="M551.549,4221.475l-1.218-1.2c.666-.69,1.356-1.355,2.04-2.025l1.188,1.226C552.884,4220.14,552.2,4220.8,551.549,4221.475Z" transform="translate(-536.747 -4212.081)" fill="#3c415e" fill-rule="evenodd"/>
          <path id="Trazado_99090" data-name="Trazado 99090" d="M546.263,4227.1l-1.287-1.122.96-1.08c.317-.363.654-.7.979-1.058l1.246,1.167c-.32.347-.651.683-.96,1.037Z" transform="translate(-534.914 -4213.992)" fill="#3c415e" fill-rule="evenodd"/>
          <path id="Trazado_99091" data-name="Trazado 99091" d="M541.432,4233.045l-1.383-1c.56-.8,1.172-1.545,1.769-2.308l1.324,1.077C542.564,4231.551,541.97,4232.279,541.432,4233.045Z" transform="translate(-533.228 -4216.01)" fill="#3c415e" fill-rule="evenodd"/>
        </g>
        <g id="Grupo_53604" data-name="Grupo 53604" transform="translate(25.355 52.665)">
          <path id="Trazado_99092" data-name="Trazado 99092" d="M568.752,4205.848l-1.1-1.3,1.092-.922,1.1-.912,1.089,1.314-1.094.907Z" transform="translate(-559.974 -4202.71)" fill="#3c415e" fill-rule="evenodd"/>
          <path id="Trazado_99093" data-name="Trazado 99093" d="M562.875,4210.895l-1.13-1.28c.71-.638,1.437-1.253,2.157-1.88l1.114,1.294C564.3,4209.65,563.579,4210.262,562.875,4210.895Z" transform="translate(-557.953 -4204.43)" fill="#3c415e" fill-rule="evenodd"/>
          <path id="Trazado_99094" data-name="Trazado 99094" d="M557.147,4216.063l-1.167-1.246c.691-.662,1.406-1.294,2.109-1.942l1.145,1.266C558.539,4214.783,557.829,4215.41,557.147,4216.063Z" transform="translate(-555.98 -4206.189)" fill="#3c415e" fill-rule="evenodd"/>
        </g>
        <g id="Grupo_53606" data-name="Grupo 53606" transform="translate(31.377 36.496)">
          <g id="Grupo_53605" data-name="Grupo 53605">
            <path id="Trazado_99095" data-name="Trazado 99095" d="M565.135,4187.835l2.912-2.411c.96-.8,1.921-1.606,2.867-2.415s1.885-1.619,2.823-2.429c.922-.816,1.855-1.629,2.755-2.451l11.449,12.66c-.988.9-1.983,1.769-2.975,2.646-1,.861-1.99,1.73-2.99,2.574s-2,1.688-3,2.526l-3,2.479Z" transform="translate(-565.135 -4178.13)" fill="none"/>
          </g>
          <path id="Trazado_99096" data-name="Trazado 99096" d="M586.6,4190.819l-1.122-1.286,2.125-1.875,1.138,1.273Z" transform="translate(-572.096 -4181.391)" fill="#3c415e" fill-rule="evenodd"/>
          <path id="Trazado_99097" data-name="Trazado 99097" d="M580.706,4195.891l-1.1-1.3,2.161-1.839,1.112,1.3Z" transform="translate(-570.087 -4183.132)" fill="#3c415e" fill-rule="evenodd"/>
          <path id="Trazado_99098" data-name="Trazado 99098" d="M574.759,4200.856l-1.085-1.317c.729-.6,1.463-1.2,2.187-1.812l1.093,1.311C576.228,4199.65,575.491,4200.25,574.759,4200.856Z" transform="translate(-568.057 -4184.836)" fill="#3c415e" fill-rule="evenodd"/>
        </g>
        <g id="Grupo_53608" data-name="Grupo 53608" transform="translate(42.734 26.518)">
          <g id="Grupo_53607" data-name="Grupo 53607">
            <path id="Trazado_99099" data-name="Trazado 99099" d="M582.4,4172.939c1.812-1.641,3.584-3.294,5.241-4.964a67.47,67.47,0,0,0,4.563-5.014l13.283,10.719a83.965,83.965,0,0,1-5.746,6.334c-1.945,1.958-3.914,3.792-5.892,5.584Z" transform="translate(-582.401 -4162.961)" fill="none"/>
          </g>
          <path id="Trazado_99100" data-name="Trazado 99100" d="M603.465,4174.609l-1.258-1.154c.324-.339.137-.252.449-.6l.951-.967.449-.535,1.307,1.1-.463.55-.476.538C604.1,4173.9,603.795,4174.263,603.465,4174.609Z" transform="translate(-589.179 -4165.833)" fill="#3c415e" fill-rule="evenodd"/>
          <path id="Trazado_99101" data-name="Trazado 99101" d="M598.055,4180.231l-1.2-1.219,1-.991.983-1.007,1.227,1.186-1.487,1.468Z" transform="translate(-587.349 -4167.77)" fill="#3c415e" fill-rule="evenodd"/>
          <path id="Trazado_99102" data-name="Trazado 99102" d="M592.434,4185.587l-1.152-1.26c.689-.644,1.388-1.277,2.068-1.929l1.174,1.239C593.836,4184.3,593.131,4184.937,592.434,4185.587Z" transform="translate(-585.44 -4169.613)" fill="#3c415e" fill-rule="evenodd"/>
        </g>
        <g id="Grupo_53610" data-name="Grupo 53610" transform="translate(52.539 16.339)">
          <g id="Grupo_53609" data-name="Grupo 53609">
            <path id="Trazado_99103" data-name="Trazado 99103" d="M597.306,4157.665c.649-.826,1.287-1.65,1.79-2.435l.2-.294.1-.146.083-.142.336-.564a2.829,2.829,0,0,0,.149-.272l.138-.264.141-.262c.042-.086.07-.164.108-.245l.109-.241a1.658,1.658,0,0,0,.1-.231q.072-.214.158-.422c.036-.127.06-.241.1-.36.009-.028.022-.06.027-.085l.009-.072c.007-.047.016-.094.027-.141a1.74,1.74,0,0,0,.016-.664l16.739-3.339c.059.295.115.589.166.884.036.3.068.595.1.893s.055.6.077.895.01.588.012.883,0,.588-.01.882-.042.569-.066.854a15.9,15.9,0,0,1-.22,1.665l-.156.8-.083.4c-.03.13-.066.251-.1.376-.137.5-.276,1-.43,1.482q-.245.691-.5,1.376c-.084.236-.18.438-.273.652l-.284.634c-.1.209-.191.426-.29.628l-.3.587-.307.584c-.1.194-.206.392-.314.567l-.645,1.084-.162.27-.166.253-.333.505c-.889,1.362-1.816,2.563-2.749,3.743Z" transform="translate(-597.306 -4147.486)" fill="none"/>
          </g>
          <path id="Trazado_99104" data-name="Trazado 99104" d="M615.013,4155.089l-1.191-.758a10.765,10.765,0,0,0,.168-1.272c.015-.213,0-.424.009-.635l0-.318c-.007-.1-.021-.209-.03-.314l1.7-.137c.011.125.026.25.034.376v.377c0,.251.005.5-.011.753C615.64,4153.657,615.127,4154.6,615.013,4155.089Z" transform="translate(-602.958 -4148.913)" fill="#3c415e" fill-rule="evenodd"/>
          <path id="Trazado_99105" data-name="Trazado 99105" d="M612.781,4162.016l-1.5-.813c.2-.4-.053-.353.117-.765l.761-1.055c.087-.2.155-.414.234-.621l1.6.583c-.087.23-.165.465-.26.69l-.3.67C613.247,4161.16,613,4161.581,612.781,4162.016Z" transform="translate(-602.088 -4151.345)" fill="#3c415e" fill-rule="evenodd"/>
          <path id="Trazado_99106" data-name="Trazado 99106" d="M608.515,4168.563l-1.354-1.039c.293-.361.549-.742.824-1.114s.524-.755.778-1.137l1.429.933c-.267.4-1.015,1.253-1.3,1.638S608.817,4168.19,608.515,4168.563Z" transform="translate(-600.679 -4153.574)" fill="#3c415e" fill-rule="evenodd"/>
        </g>
        <g id="Grupo_53612" data-name="Grupo 53612" transform="translate(53.594)">
          <g id="Grupo_53611" data-name="Grupo 53611">
            <path id="Trazado_99107" data-name="Trazado 99107" d="M601.441,4142.325a2.4,2.4,0,0,0-.328-.753c-.073-.1-.122-.2-.2-.306q-.14-.17-.268-.35a.616.616,0,0,0-.076-.093l-.087-.1-.17-.194-.084-.1-.041-.05-.036-.035q-.072-.07-.14-.144a3.723,3.723,0,0,0-.447-.384c-.116-.079-.172-.113-.152-.1,0,.006,0,0,0,0l-.5-17.064a16.858,16.858,0,0,1,7.455,1.473q.435.2.864.417c.28.145.543.3.813.45s.513.311.761.471.493.322.716.49a20.544,20.544,0,0,1,2.475,2.093l.531.542.131.136.116.13.232.262.462.527.229.264c.076.086.152.177.228.278q.454.582.895,1.175c.292.413.575.862.853,1.3l.207.332.2.36.387.724a15.762,15.762,0,0,1,.7,1.535c.107.268.222.521.314.8s.182.561.268.842.174.563.247.85.128.586.187.88Z" transform="translate(-598.911 -4122.647)" fill="none"/>
          </g>
          <path id="Trazado_99108" data-name="Trazado 99108" d="M603.684,4135.589l-.722,1.547c-.743-.361-2.04-.136-2.861-.223l.662-2.142A8.827,8.827,0,0,1,603.684,4135.589Z" transform="translate(-599.318 -4126.796)" fill="#3c415e" fill-rule="evenodd"/>
          <path id="Trazado_99109" data-name="Trazado 99109" d="M610.2,4140.013l-1.3,1.109a10.864,10.864,0,0,0-1.871-1.841l1.055-1.342A14.616,14.616,0,0,1,610.2,4140.013Z" transform="translate(-601.69 -4127.88)" fill="#3c415e" fill-rule="evenodd"/>
          <path id="Trazado_99110" data-name="Trazado 99110" d="M614.49,4146.63l-1.624.527-.092-.3-.125-.295c-.084-.2-.162-.394-.249-.589l-.3-.57c-.052-.094-.1-.191-.155-.285l-.178-.274,1.445-.91.2.313c.065.1.12.218.18.327l-.135,1.1c.1.227.683.018.781.248l.144.347Z" transform="translate(-603.309 -4129.931)" fill="#3c415e" fill-rule="evenodd"/>
        </g>
        <g id="Grupo_53614" data-name="Grupo 53614" transform="translate(34.871 0.01)">
          <g id="Grupo_53613" data-name="Grupo 53613">
            <path id="Trazado_99111" data-name="Trazado 99111" d="M589.672,4139.727h0c0-.006-.016.007-.024,0s-.036.007-.06.011l-.037,0-.05.014a3.517,3.517,0,0,0-.557.186,8.661,8.661,0,0,0-.816.4c-.307.175-.635.375-.979.608a22.979,22.979,0,0,0-2.189,1.72c-.755.66-1.523,1.4-2.289,2.188l-12.224-11.914c1.018-1.043,2.089-2.082,3.258-3.105a39.848,39.848,0,0,1,3.848-3c.713-.484,1.472-.956,2.279-1.409a25.318,25.318,0,0,1,2.633-1.271,20.351,20.351,0,0,1,3.086-1l.416-.1.433-.085c.291-.054.573-.108.886-.146s.606-.083.927-.106.637-.047.956-.058Z" transform="translate(-570.446 -4122.662)" fill="none"/>
          </g>
          <path id="Trazado_99112" data-name="Trazado 99112" d="M582.419,4142.489l1.121,1.288c-1.192,1.037-1.84,1.7-2.035,1.891l-1.2-1.215C580.99,4143.78,581.692,4143.123,582.419,4142.489Z" transform="translate(-573.821 -4129.447)" fill="#3c415e" fill-rule="evenodd"/>
          <path id="Trazado_99113" data-name="Trazado 99113" d="M588.386,4137.793l.868,1.47a23.076,23.076,0,0,0-2.25,1.523l-1.519-.916C586.255,4139.283,587.545,4138.289,588.386,4137.793Z" transform="translate(-575.593 -4127.84)" fill="#3c415e" fill-rule="evenodd"/>
          <path id="Trazado_99114" data-name="Trazado 99114" d="M595.9,4134.9l.273,1.686a11.05,11.05,0,0,0-2.467.736l-.668-1.571A11.231,11.231,0,0,1,595.9,4134.9Z" transform="translate(-578.177 -4126.849)" fill="#3c415e" fill-rule="evenodd"/>
        </g>
        <g id="Grupo_53616" data-name="Grupo 53616" transform="translate(24.403 10.293)">
          <g id="Grupo_53615" data-name="Grupo 53615">
            <path id="Trazado_99115" data-name="Trazado 99115" d="M577.225,4150.209c-1.535,1.575-3.065,3.339-4.584,5.2s-3.034,3.811-4.59,5.829l-13.518-10.422c1.565-2.03,3.182-4.123,4.9-6.22s3.535-4.208,5.567-6.3Z" transform="translate(-554.533 -4138.295)" fill="none"/>
          </g>
          <path id="Trazado_99116" data-name="Trazado 99116" d="M566.885,4159.9l.856,1.5-1.743,2.24-.864-1.486Z" transform="translate(-558.161 -4145.688)" fill="#3c415e" fill-rule="evenodd"/>
          <path id="Trazado_99117" data-name="Trazado 99117" d="M571.263,4154.511l1.8.653q-.9,1.082-1.79,2.186l-1.331-1.069C570.534,4155.538,570.651,4155.243,571.263,4154.511Z" transform="translate(-559.805 -4143.844)" fill="#3c415e" fill-rule="evenodd"/>
          <path id="Trazado_99118" data-name="Trazado 99118" d="M576.845,4148l.758,1.611c-.64.68-.781.933-1.4,1.639l-1.285-1.124Q575.863,4149.047,576.845,4148Z" transform="translate(-561.51 -4141.616)" fill="#3c415e" fill-rule="evenodd"/>
        </g>
        <g id="Grupo_53618" data-name="Grupo 53618" transform="translate(18.297 22.81)">
          <g id="Grupo_53617" data-name="Grupo 53617">
            <path id="Trazado_99119" data-name="Trazado 99119" d="M564.874,4167.747l-2.392,3.087-.311.395-.157.2-.237.283q-.478.567-.966,1.122c-.342.367-.712.723-1.074,1.079s-.762.691-1.162,1.025a21.456,21.456,0,0,1-5.447,3.286,22.073,22.073,0,0,1-6.039,1.516l-1.838-16.969a5.03,5.03,0,0,0,1.379-.331,4.334,4.334,0,0,0,1.086-.671,6.61,6.61,0,0,0,.557-.518q.135-.172.282-.334l.074-.08.139-.177.282-.357,2.306-2.977Z" transform="translate(-545.25 -4157.324)" fill="none"/>
          </g>
          <path id="Trazado_99120" data-name="Trazado 99120" d="M550.778,4176.164l.668,1.57c-.234.107-.481.185-.722.277s-.969.625-1.218.687l-.257-.235c-.25.056-.5.1-.753.154l-.316-1.677c.222-.046.446-.087.667-.137l.655-.184a5.925,5.925,0,0,0,.643-.214C550.355,4176.324,550.572,4176.259,550.778,4176.164Z" transform="translate(-546.253 -4163.771)" fill="#3c415e" fill-rule="evenodd"/>
          <path id="Trazado_99121" data-name="Trazado 99121" d="M557.1,4171.991l1.214,1.2-.546.537c-.187.175-.391.333-.587.5l-.3.246-.148.123-.159.11-.635.44-.937-1.427.558-.388.139-.1-.356.334.748-.66c.172-.147.353-.284.519-.439Z" transform="translate(-548.588 -4162.343)" fill="#3c415e" fill-rule="evenodd"/>
          <path id="Trazado_99122" data-name="Trazado 99122" d="M562.1,4166.085l.865,1.486-1.753,2.256-.856-1.5Z" transform="translate(-550.418 -4160.322)" fill="#3c415e" fill-rule="evenodd"/>
        </g>
        <g id="Grupo_53620" data-name="Grupo 53620" transform="translate(0 25.654)">
          <g id="Grupo_53619" data-name="Grupo 53619">
            <path id="Trazado_99123" data-name="Trazado 99123" d="M537.569,4181.219a25.765,25.765,0,0,1-5.729-.043,31.5,31.5,0,0,1-5.152-1.055,37.117,37.117,0,0,1-4.659-1.705c-.747-.327-1.478-.678-2.21-1.057q-.273-.141-.549-.291c-.183-.1-.368-.2-.555-.306s-.378-.215-.57-.328l-.305-.183-.171-.105-.235-.148,9.286-14.322-.045-.029.012.007.034.021.106.063.261.149c.091.052.187.1.286.157s.2.105.3.157c.4.209.826.412,1.25.6a19.932,19.932,0,0,0,2.536.932,11.428,11.428,0,0,0,4.274.518Z" transform="translate(-517.434 -4161.648)" fill="none"/>
          </g>
          <path id="Trazado_99124" data-name="Trazado 99124" d="M528.242,4173.877l-.682,1.564c-.9-.393-2.269-.381-3.134-.858l1.314-1.936C526.552,4173.1,527.389,4173.506,528.242,4173.877Z" transform="translate(-519.827 -4165.412)" fill="#52298a" fill-rule="evenodd"/>
          <path id="Trazado_99125" data-name="Trazado 99125" d="M535.738,4176.52l-.383,1.663a26.313,26.313,0,0,1-2.848-.827l.562-1.611A19.376,19.376,0,0,0,535.738,4176.52Z" transform="translate(-522.592 -4166.472)" fill="#3c415e" fill-rule="evenodd"/>
          <path id="Trazado_99126" data-name="Trazado 99126" d="M543.316,4177.644l.057,1.706a20.783,20.783,0,0,1-3.014-.147l.212-1.694A15.582,15.582,0,0,0,543.316,4177.644Z" transform="translate(-525.279 -4167.075)" fill="#3c415e" fill-rule="evenodd"/>
        </g>
      </g>
      <g id="Grupo_53622" data-name="Grupo 53622" transform="translate(0 19.001)">
        <path id="Trazado_99127" data-name="Trazado 99127" d="M512.377,4151.533l-3.485,6.3-30.733-2.124Z" transform="translate(-478.159 -4151.533)" fill="#ff0062"/>
        <path id="Trazado_99128" data-name="Trazado 99128" d="M510.036,4171.346l-1.144-11.333-30.733-2.124,27.469,7.679Z" transform="translate(-478.159 -4153.708)" fill="#b7004b"/>
        <path id="Trazado_99129" data-name="Trazado 99129" d="M499.541,4175.179l6.087-9.611-27.469-7.679Z" transform="translate(-478.159 -4153.708)" fill="#ff0062"/>
      </g>
    </g>
    <g id="Grupo_53628" data-name="Grupo 53628" transform="translate(471.304 4204.933)">
      <path id="Trazado_99130" data-name="Trazado 99130" d="M644.9,4266.857H513.723a8.406,8.406,0,0,0-8.382,8.382v171.835a8.407,8.407,0,0,0,8.382,8.382H644.9a8.407,8.407,0,0,0,8.382-8.382V4275.239A8.407,8.407,0,0,0,644.9,4266.857Z" transform="translate(-505.341 -4254.284)" fill="url(#linear-gradient)"/>
      <rect id="Rectángulo_5056" data-name="Rectángulo 5056" width="125.314" height="165.968" transform="translate(11.106 23.755)" fill="#faf9f9"/>
      <path id="Trazado_99131" data-name="Trazado 99131" d="M626.573,4247.742h-56.58c-5.029,0-9.22,4.191-9.22,8.8v13.573a9.479,9.479,0,0,0,9.479,9.479H625.9a9.479,9.479,0,0,0,9.479-9.479v-13.573C635.794,4251.934,631.6,4247.742,626.573,4247.742Z" transform="translate(-524.311 -4247.742)" fill="#3c415e"/>
      <g id="Grupo_53624" data-name="Grupo 53624" transform="translate(54.903 51.132)">
        <rect id="Rectángulo_5057" data-name="Rectángulo 5057" width="72.925" height="9.64" fill="#3c415e"/>
        <rect id="Rectángulo_5058" data-name="Rectángulo 5058" width="72.925" height="9.64" transform="translate(0 33.948)" fill="#3c415e"/>
        <rect id="Rectángulo_5059" data-name="Rectángulo 5059" width="72.925" height="9.64" transform="translate(0 67.896)" fill="#3c415e"/>
        <rect id="Rectángulo_5060" data-name="Rectángulo 5060" width="72.925" height="9.64" transform="translate(0 101.844)" fill="#3c415e"/>
      </g>
      <g id="Grupo_53625" data-name="Grupo 53625" transform="translate(19.698 44.426)">
        <rect id="Rectángulo_5061" data-name="Rectángulo 5061" width="23.051" height="23.051" transform="translate(0 101.844)" fill="#3c415e"/>
        <rect id="Rectángulo_5062" data-name="Rectángulo 5062" width="23.051" height="23.051" transform="translate(0 67.896)" fill="#3c415e"/>
        <rect id="Rectángulo_5063" data-name="Rectángulo 5063" width="23.051" height="23.051" transform="translate(0 33.948)" fill="#3c415e"/>
        <rect id="Rectángulo_5064" data-name="Rectángulo 5064" width="23.051" height="23.051" fill="#3c415e"/>
      </g>
      <g id="Grupo_53626" data-name="Grupo 53626" transform="translate(22.632 49.036)">
        <path id="Trazado_99132" data-name="Trazado 99132" d="M545.2,4336.539l-5.449-5.868,2.934-2.934,2.515,2.515,8.382-7.963,2.934,2.934Z" transform="translate(-539.747 -4322.289)" fill="#ff0062"/>
        <path id="Trazado_99133" data-name="Trazado 99133" d="M545.832,4387.729l-5.449-5.448,2.934-2.934,2.515,2.515,8.382-7.962,2.934,2.933Z" transform="translate(-539.965 -4339.951)" fill="#ff0062"/>
      </g>
      <g id="Grupo_53627" data-name="Grupo 53627" transform="translate(22.422 116.094)">
        <path id="Trazado_99134" data-name="Trazado 99134" d="M544.877,4438.484l-5.449-5.868,2.934-2.934,2.515,2.515,8.382-7.963,2.934,2.934Z" transform="translate(-539.428 -4424.234)" fill="#ff0062"/>
        <path id="Trazado_99135" data-name="Trazado 99135" d="M545.514,4489.674l-5.449-5.448,2.934-2.935,2.515,2.515,8.382-7.963,2.934,2.934Z" transform="translate(-539.646 -4441.895)" fill="#ff0062"/>
      </g>
    </g>
    <g id="Grupo_53632" data-name="Grupo 53632" transform="translate(463.667 4263.44)">
      <g id="Grupo_53629" data-name="Grupo 53629" transform="translate(0 26.906)">
        <path id="Trazado_99136" data-name="Trazado 99136" d="M541.5,4385.2a9.521,9.521,0,0,0-1.2-6.041c-1.762-2.912-2.484-1.133-1.906.3s.451,2.462.031,2.375-.8-.782-.988-.733-.792.011-.6.753,1.614,2.354,1.527,2.775S540.973,4387.719,541.5,4385.2Z" transform="translate(-508.471 -4377.592)" fill="#ffd5a1"/>
        <path id="Trazado_99137" data-name="Trazado 99137" d="M509.053,4385.2a9.521,9.521,0,0,1,1.2-6.041c1.762-2.912,2.484-1.133,1.906.3s-.451,2.462-.031,2.375.8-.782.988-.733.792.011.6.753-1.614,2.354-1.527,2.775S509.579,4387.719,509.053,4385.2Z" transform="translate(-498.944 -4377.592)" fill="#ffd5a1"/>
        <path id="Trazado_99138" data-name="Trazado 99138" d="M521.637,4432.194l-1.047-7.325h-4.708s.523,4.185-.524,6.8S521.637,4432.194,521.637,4432.194Z" transform="translate(-501.097 -4393.771)" fill="#c69c6d"/>
        <path id="Trazado_99139" data-name="Trazado 99139" d="M523.986,4492.834l1.2,44.238h-3.662l-7.848-38.717-7.325,38.194h-3.662l1.046-43.714Z" transform="translate(-496.795 -4417.029)" fill="#3c415e"/>
        <path id="Trazado_99140" data-name="Trazado 99140" d="M524.915,4416.12a8.852,8.852,0,0,1,1.047,4.708,3.363,3.363,0,0,1-3.14,3.14l-1.046-3.14Z" transform="translate(-503.328 -4390.777)" fill="#ffebbb"/>
        <path id="Trazado_99141" data-name="Trazado 99141" d="M517.714,4423.1s2.616-.522,3.14-2.092,1.046-3.139.523-4.185,1.047-2.616,1.047-3.663v-.031a2.612,2.612,0,0,0-3.651-2.384,5.534,5.534,0,0,1-1.058.322c-2.616.523-3.662.523-4.708,1.569a3.242,3.242,0,0,0-1.047,2.093s-.524.523-.524,2.616a9.837,9.837,0,0,0,2.093,5.232C514.051,4423.1,517.714,4423.1,517.714,4423.1Z" transform="translate(-499.789 -4388.866)" fill="#3c415e"/>
        <path id="Trazado_99142" data-name="Trazado 99142" d="M534.536,4558.761l2.171,1.757a1.236,1.236,0,0,1-.225,2.065l-2.469,1.235h-3.022a.977.977,0,0,1-.962-1.147l.691-3.911Z" transform="translate(-506.147 -4439.59)" fill="#3c415e"/>
        <path id="Trazado_99143" data-name="Trazado 99143" d="M500.828,4558.761l-2.171,1.757a1.235,1.235,0,0,0,.225,2.065l2.469,1.235h3.021a.976.976,0,0,0,.962-1.147l-.167-3.911Z" transform="translate(-495.259 -4439.59)" fill="#3c415e"/>
        <path id="Trazado_99144" data-name="Trazado 99144" d="M521.968,4512.043l-1.532-16.383-1.046,3.662Z" transform="translate(-502.511 -4417.996)" fill="#1a1a1a" opacity="0.32"/>
        <path id="Trazado_99145" data-name="Trazado 99145" d="M494.185,4405.957l9.335-19.558,3.158,2.8-6.918,17.8,6.695,10.225a3.971,3.971,0,0,1,1.014-.281c4.147-.553,7.007.069,8.983,1.275l-.089-.229,10.464-10.464-3.14-18.835,3.663-2.093,5.146,21.052a4.663,4.663,0,0,1-1.169,4.341l-10.634,14.506a15.139,15.139,0,0,1-.144,3s.523,20.4,2.616,26.683c0,0-17.789,2.092-24.067,0l1.57-27.73s.116-.772.383-1.912l-6.607-16.088A4.668,4.668,0,0,1,494.185,4405.957Z" transform="translate(-493.73 -4380.606)" fill="#0991a1"/>
      </g>
      <g id="Grupo_53631" data-name="Grupo 53631" transform="translate(5.065)">
        <path id="Trazado_99146" data-name="Trazado 99146" d="M534.737,4351.367l-12.213,27.948-12.639-5.6,12.213-27.948c.122-.275.32-.352.243-.55a.743.743,0,0,0,.32-.352l.32-.352,6.05-4.386,4.3-3.026.648,5.216.895,7.626-.045.474a.74.74,0,0,1-.045.473A.74.74,0,0,0,534.737,4351.367Z" transform="translate(-504.324 -4336.832)" fill="#ffdf90"/>
        <g id="Grupo_53630" data-name="Grupo 53630" transform="translate(5.287 7.687)">
          <path id="Trazado_99147" data-name="Trazado 99147" d="M526.335,4349.758l-13.02,29.4-3.846-1.7,12.487-27.826c.122-.275.32-.351.243-.55a.74.74,0,0,0,.32-.351l.32-.351Z" transform="translate(-509.469 -4348.374)" fill="#3366c2"/>
          <path id="Trazado_99148" data-name="Trazado 99148" d="M539.311,4357.186,527.1,4385.134l-3.847-1.7,12.822-29.322,3.3,1.46-.045.473a.74.74,0,0,1-.045.473C539.357,4356.713,539.235,4356.988,539.311,4357.186Z" transform="translate(-514.186 -4350.336)" fill="#3366c2"/>
        </g>
        <path id="Trazado_99149" data-name="Trazado 99149" d="M543.966,4341.981l-4.671-2.068,4.221-3.224Z" transform="translate(-514.389 -4336.688)" fill="#738598"/>
        <path id="Trazado_99150" data-name="Trazado 99150" d="M508.939,4413.312l-4.945-2.19a4.106,4.106,0,0,1-2.143-5.55l3.164-7.143,12.638,5.6-3.163,7.144A4.107,4.107,0,0,1,508.939,4413.312Z" transform="translate(-501.431 -4357.817)" fill="#698cf2"/>
        <path id="Trazado_99151" data-name="Trazado 99151" d="M528.336,4350.478l-13.019,29.4,5.22,2.312,12.821-29.321Z" transform="translate(-506.183 -4341.407)" fill="#698cf2"/>
        <path id="Trazado_99152" data-name="Trazado 99152" d="M507.18,4396.31l12.638,5.6,1.7-3.847-12.638-5.6Z" transform="translate(-503.398 -4355.775)" fill="#b9d4ef"/>
      </g>
    </g>
  </g>
</svg>
